<svg xmlns="http://www.w3.org/2000/svg" viewBox="0 0 489.44 64.29"><g id="Layer_2" data-name="Layer 2"><g id="Layer_1-2" data-name="Layer 1"><path d="M31.13,35.71l.19.06A58.53,58.53,0,0,1,34,27.62,33.79,33.79,0,0,1,36.93,22a15.07,15.07,0,0,1,3.16-3.47,10,10,0,0,1,6.6-2.3,9.29,9.29,0,0,1,2.73.37,6.17,6.17,0,0,1,1.92,1,4.53,4.53,0,0,1,1.18,1.52,8.12,8.12,0,0,1,.62,1.79,12.46,12.46,0,0,1,.16,2.05,17,17,0,0,1-.1,2c-.06.58-.15,1.22-.28,1.93l-1.48,8.8a58.35,58.35,0,0,0-.72,5.8,18.3,18.3,0,0,0,.25,5c.31,1.57.92,2.43,1.83,2.57l-.12.13a24.83,24.83,0,0,1-4.53.46,11.89,11.89,0,0,1-3.63-.5,6.82,6.82,0,0,1-2.79-1.58,5.67,5.67,0,0,1-1.7-3.1A12.45,12.45,0,0,1,40,39.62l2.29-15.38a14.43,14.43,0,0,0,.31-3.94c-.12-.95-.57-1.42-1.33-1.42q-2.35,0-5.15,5a47.43,47.43,0,0,0-4.55,12c-.44,1.8-.8,3.52-1.09,5.18a24.18,24.18,0,0,0-.34,5q.06,2.51,1.11,2.94l-.12.13a41.64,41.64,0,0,1-5.24.49q-3.87,0-5.27-2.11t-.46-7.62L22.7,24.24A13,13,0,0,0,23,20.3c-.13-.95-.57-1.42-1.33-1.42q-2.36,0-5.15,5A47.81,47.81,0,0,0,12,35.9Q9,48,11.48,49l-.13.13a41.52,41.52,0,0,1-5.23.49A9.16,9.16,0,0,1,3,49.2a4.15,4.15,0,0,1-2-1.55,5,5,0,0,1-.9-3,27,27,0,0,1,.37-4.74L3.85,20.4c.17-.91,0-1.52-.43-1.83a2.6,2.6,0,0,0-2.2.12l-.1-.09a26.47,26.47,0,0,1,4.62-1.67,19.1,19.1,0,0,1,4.87-.75c1.84,0,3.12.42,3.84,1.24s.83,2.28.38,4.28l-3.26,14,.19.06a58.53,58.53,0,0,1,2.69-8.15A33.06,33.06,0,0,1,17.37,22a15.07,15.07,0,0,1,3.16-3.47,10.92,10.92,0,0,1,3.26-1.8,10.87,10.87,0,0,1,3.34-.5,9.19,9.19,0,0,1,3.1.47,4.73,4.73,0,0,1,2,1.36,7,7,0,0,1,1.05,1.89,7.14,7.14,0,0,1,.4,2.3,20.92,20.92,0,0,1-.12,2.35,21.42,21.42,0,0,1-.4,2.3Z"/><path d="M68.45,29.26a15.61,15.61,0,0,0,4.66-.06A8.58,8.58,0,0,0,76.42,28a7.43,7.43,0,0,0,2.08-2.1,8.77,8.77,0,0,0,1.15-2.55,11.47,11.47,0,0,0,.3-2.66,5.27,5.27,0,0,0-.83-3.13,3,3,0,0,0-2.6-1.18,6,6,0,0,0-4.65,2.51,16.18,16.18,0,0,0-3.07,5.95,23.43,23.43,0,0,0-1,6.76,16.72,16.72,0,0,0,.56,4.4,12.06,12.06,0,0,0,1.61,3.69,7.5,7.5,0,0,0,2.92,2.57,8.65,8.65,0,0,0,4.15,1,11.86,11.86,0,0,0,4.9-1.15,13.17,13.17,0,0,0,4.53-3.63l.15.09a24.06,24.06,0,0,1-7.69,8,18.08,18.08,0,0,1-10,3A12.51,12.51,0,0,1,59.65,46q-3.57-3.57-3.56-9.71a18.76,18.76,0,0,1,1.61-7.62,21.2,21.2,0,0,1,4.37-6.45,20.91,20.91,0,0,1,6.66-4.43,20.7,20.7,0,0,1,8.19-1.65,29,29,0,0,1,3.13.16,18.39,18.39,0,0,1,3.13.62A12.53,12.53,0,0,1,86,18.17a6.16,6.16,0,0,1,2,2,5.72,5.72,0,0,1,.77,2.95,6.45,6.45,0,0,1-.62,2.79A7,7,0,0,1,86,28.43a11,11,0,0,1-3.81,1.79,18.77,18.77,0,0,1-5.83.44,39.85,39.85,0,0,1-8-1.33Z"/><path d="M102.37,36a65.77,65.77,0,0,0-1.12,9.58c0,2,.39,3.15,1.12,3.5l-.06.13a20.62,20.62,0,0,1-4.34.49,13,13,0,0,1-2.24-.18,8.29,8.29,0,0,1-2-.65,4.7,4.7,0,0,1-1.61-1.18A6,6,0,0,1,91,45.85a6.38,6.38,0,0,1-.53-2.54,18.21,18.21,0,0,1,.22-3.38L93.87,20.4c.15-.91,0-1.52-.43-1.83a2.6,2.6,0,0,0-2.2.12l-.09-.09a26.47,26.47,0,0,1,4.62-1.67,19,19,0,0,1,4.86-.75c1.8,0,3,.4,3.66,1.21s.76,2.24.43,4.31ZM96.7,13.7a8.7,8.7,0,0,0,1.17-4.49,7.76,7.76,0,0,0-1.21-4.75,8.86,8.86,0,0,1,3-3.25A7.18,7.18,0,0,1,103.55,0a5.63,5.63,0,0,1,3.59,1.24,4.4,4.4,0,0,1,1.55,3.66,7.5,7.5,0,0,1-3.44,6.17,14.72,14.72,0,0,1-8.52,2.69Z"/><path d="M140.34,17.83a5.4,5.4,0,0,1,1.8,4.12,5.54,5.54,0,0,1-.65,2.66,6.94,6.94,0,0,1-1.67,2.11,13.07,13.07,0,0,1-2.61,1.68,23.17,23.17,0,0,1-3.07,1.33c-1,.35-2.19.69-3.47,1s-2.43.6-3.44.81l-3.28.68c-1.18.25-2.1.46-2.76.62a43.63,43.63,0,0,1,5.7-.43,19.34,19.34,0,0,1,4,.34,7.67,7.67,0,0,1,2.7,1.11,7.21,7.21,0,0,1,1.73,1.71,10.29,10.29,0,0,1,1.12,2.23c.12.31.33.9.62,1.77s.56,1.65.8,2.29a23.06,23.06,0,0,0,1,2.29,16.52,16.52,0,0,0,1.24,2.24,7.44,7.44,0,0,0,1.56,1.67,4.51,4.51,0,0,0,1.95,1l-.13.13A42.44,42.44,0,0,1,136,50a16.21,16.21,0,0,1-3.79-.4A10.42,10.42,0,0,1,129,48.3a8.3,8.3,0,0,1-2.73-2.79,14.66,14.66,0,0,1-1.77-4.4c-.12-.48-.27-1.22-.46-2.24s-.38-1.77-.53-2.35-.33-1.2-.56-1.86a3.69,3.69,0,0,0-.77-1.43,1.21,1.21,0,0,0-1.06-.34v-.06a14.56,14.56,0,0,0,7.17-4.09,9.85,9.85,0,0,0,2.85-7,3.77,3.77,0,0,0-.5-2.05,1.57,1.57,0,0,0-1.39-.77q-2.39,0-5.27,4.87A46,46,0,0,0,119.2,35.9c-.31,1.2-.59,2.43-.83,3.69s-.46,2.6-.63,4a12.94,12.94,0,0,0,0,3.62q.23,1.5,1,1.8l-.12.13a41.58,41.58,0,0,1-5.3.49,9.33,9.33,0,0,1-3.1-.43,4.17,4.17,0,0,1-2-1.55,5.34,5.34,0,0,1-.87-3,26.13,26.13,0,0,1,.31-4.74L113.44,4.4c.14-.91,0-1.52-.44-1.83a2.61,2.61,0,0,0-2.2.13l-.09-.1A29.85,29.85,0,0,1,115.36.93a18.91,18.91,0,0,1,5-.74c1.78,0,3,.42,3.66,1.27s.77,2.28.4,4.24l-5.61,30,.18.06a60.73,60.73,0,0,1,2.7-8.12,32.07,32.07,0,0,1,3-5.64,14.89,14.89,0,0,1,3.25-3.5,11,11,0,0,1,3.44-1.83,12.26,12.26,0,0,1,3.54-.5C137.34,16.18,139.14,16.73,140.34,17.83Z"/><path d="M175.37,35.65c-.18,1-.34,2-.46,2.85s-.24,1.88-.34,3a21.05,21.05,0,0,0-.16,2.91,13.87,13.87,0,0,0,.19,2.39,3.47,3.47,0,0,0,.68,1.7,1.4,1.4,0,0,0,1.24.56l-.09.13a20.65,20.65,0,0,1-4.4.43,13.53,13.53,0,0,1-3-.31,9.12,9.12,0,0,1-2.58-1,4.83,4.83,0,0,1-1.89-1.83,8.24,8.24,0,0,1-.9-2.85,10.64,10.64,0,0,1,.34-4L166.13,30,166,30a67.47,67.47,0,0,1-3.07,9.55,23.74,23.74,0,0,1-3.44,6,11.58,11.58,0,0,1-3.69,3.07,8.94,8.94,0,0,1-4.06.93,8.12,8.12,0,0,1-4.09-1A7,7,0,0,1,144.9,46a12.44,12.44,0,0,1-1.46-3.62,17.2,17.2,0,0,1-.49-4.22,19.54,19.54,0,0,1,1.64-7.59,27.21,27.21,0,0,1,4.25-7.1,21.9,21.9,0,0,1,6.32-5.21,15,15,0,0,1,7.41-2.05,17,17,0,0,1,4.53.68c1.59.46,3.07.91,4.43,1.37a11.18,11.18,0,0,0,3.32.68,4.2,4.2,0,0,0,3.81-2.48ZM160.31,19A20.79,20.79,0,0,0,157,25.23a49.36,49.36,0,0,0-2.08,8,46.51,46.51,0,0,0-.77,8.09,9.6,9.6,0,0,0,.65,3.66c.43,1.06,1,1.58,1.8,1.58q1.8,0,3.75-2.82a29.48,29.48,0,0,0,3.44-7.07,54.87,54.87,0,0,0,2.29-8.89l.69-3.78q1.36-7.49-2.33-7.48Q162.28,16.55,160.31,19Z"/><path d="M198.59,16.62a56.17,56.17,0,0,1,1.89-8.53q2-5.52,6.51-6.88a12.54,12.54,0,0,1,3.75-.53,10.51,10.51,0,0,1,6.57,1.86,6.1,6.1,0,0,1,2.39,5.05,6.74,6.74,0,0,1-1.89,4.84,6.63,6.63,0,0,1-5,2,6.16,6.16,0,0,1-5.09-2.17,4.4,4.4,0,0,1-.58-4.87,3.3,3.3,0,0,0,2.79-.56,2.94,2.94,0,0,0,1.21-2.48,3.39,3.39,0,0,0-.75-2.2,2.59,2.59,0,0,0-2.11-.9,5.22,5.22,0,0,0-3.81,1.86,6.17,6.17,0,0,0-1.77,4.34,5.25,5.25,0,0,0,.75,2.76,7.06,7.06,0,0,0,1.7,2.08c.64.53,1.27,1,1.89,1.48a8.23,8.23,0,0,1,1.46,1.4,1.46,1.46,0,0,1,.19,1.46h5.27l0,.18h-4.24l-5,31.56a31,31,0,0,1-1.06,4.56,25.35,25.35,0,0,1-1.79,4.31,16.3,16.3,0,0,1-2.58,3.62,10.9,10.9,0,0,1-3.5,2.48,10.28,10.28,0,0,1-4.43,1,8.6,8.6,0,0,1-5.8-1.89,6.51,6.51,0,0,1-.16-9.67,7.75,7.75,0,0,1,4.93-1.64,6.3,6.3,0,0,1,4.44,1.67,5.3,5.3,0,0,1,1.45,4.65,3.93,3.93,0,0,0-2.66.65,2.57,2.57,0,0,0-1,2.11,2.68,2.68,0,0,0,.71,1.92,2.44,2.44,0,0,0,2,.81,3.21,3.21,0,0,0,2.82-1.55,6.44,6.44,0,0,0,1-3.72,6.81,6.81,0,0,0-.59-2.76,11.35,11.35,0,0,0-1.46-2.33c-.56-.66-1.09-1.34-1.61-2a7.43,7.43,0,0,1-1.24-2.39,6,6,0,0,1-.19-2.85l4.53-28.46H195.3l0-.18Z"/><path d="M237,18.45a2,2,0,0,0-1.86-1q-1.86,0-3.94,2.67A29.2,29.2,0,0,0,227.45,27a55.33,55.33,0,0,0-2.76,8.9c-.35,1.61-.62,2.9-.8,3.87s-.42,2.25-.62,3.82a12.25,12.25,0,0,0-.1,3.72,2,2,0,0,0,1,1.73l-.13.13a20.73,20.73,0,0,1-4.15.49,11.64,11.64,0,0,1-2.73-.28,6.44,6.44,0,0,1-2.2-1,4.14,4.14,0,0,1-1.55-1.76,8.87,8.87,0,0,1-.71-2.79,13,13,0,0,1,.27-3.94l3.48-19.53c.16-.91,0-1.52-.44-1.83a2.6,2.6,0,0,0-2.2.12l-.09-.09a26.47,26.47,0,0,1,4.62-1.67,19.09,19.09,0,0,1,4.86-.75c1.84,0,3.13.42,3.85,1.24s.82,2.28.37,4.28l-3.32,14,.19.06A76.27,76.27,0,0,1,227,27.53a38,38,0,0,1,2.73-5.77,15.79,15.79,0,0,1,2.95-3.63A8.7,8.7,0,0,1,239,15.69a7.72,7.72,0,0,1,5.74,2.07,7.15,7.15,0,0,1,2,5.12,8.27,8.27,0,0,1-8.61,8.31,5.37,5.37,0,0,1-3.82-1.43,4.59,4.59,0,0,1-1.27-4,4.42,4.42,0,0,0,3.22-1.4,5,5,0,0,0,1.37-3.65A4.19,4.19,0,0,0,237,18.45Z"/><path d="M258.36,29.26A15.55,15.55,0,0,0,263,29.2,8.52,8.52,0,0,0,266.32,28a7.43,7.43,0,0,0,2.08-2.1,8.77,8.77,0,0,0,1.15-2.55,11.47,11.47,0,0,0,.31-2.66,5.27,5.27,0,0,0-.84-3.13,3,3,0,0,0-2.6-1.18,6,6,0,0,0-4.65,2.51,16.18,16.18,0,0,0-3.07,5.95,23.76,23.76,0,0,0-1,6.76,16.73,16.73,0,0,0,.55,4.4,11.84,11.84,0,0,0,1.62,3.69,7.4,7.4,0,0,0,2.91,2.57,8.68,8.68,0,0,0,4.15,1,11.82,11.82,0,0,0,4.9-1.15,13.17,13.17,0,0,0,4.53-3.63l.15.09a24.06,24.06,0,0,1-7.69,8,18.06,18.06,0,0,1-10,3A12.51,12.51,0,0,1,249.55,46Q246,42.47,246,36.33a18.92,18.92,0,0,1,1.61-7.62A21.2,21.2,0,0,1,252,22.26a21.25,21.25,0,0,1,14.85-6.08,29,29,0,0,1,3.13.16,18.21,18.21,0,0,1,3.13.62,12.53,12.53,0,0,1,2.85,1.21,6.16,6.16,0,0,1,2,2,5.72,5.72,0,0,1,.77,2.95,6.45,6.45,0,0,1-.62,2.79,6.9,6.9,0,0,1-2.17,2.51,11,11,0,0,1-3.81,1.79,18.77,18.77,0,0,1-5.83.44,39.77,39.77,0,0,1-8-1.33Z"/><path d="M281.58,28.74A20.62,20.62,0,0,1,286,22.26a20.91,20.91,0,0,1,6.66-4.43,20.69,20.69,0,0,1,8.18-1.65,21.81,21.81,0,0,1,3.76.34,20.93,20.93,0,0,1,3.81,1.15,7.47,7.47,0,0,1,3.13,2.39,6.13,6.13,0,0,1,1.21,3.81,7,7,0,0,1-7.07,6.94,5.13,5.13,0,0,1-3.75-1.42,4.55,4.55,0,0,1-1.15-4,5.07,5.07,0,0,0,2.82-1.8,4.73,4.73,0,0,0-.12-5.89,3.76,3.76,0,0,0-3-1.27A5.69,5.69,0,0,0,296.45,18a11.3,11.3,0,0,0-2.75,4.13,28.34,28.34,0,0,0-1.55,5.11,24,24,0,0,0-.53,4.87,12,12,0,0,0,2.57,8.06,8.33,8.33,0,0,0,6.7,3A11.69,11.69,0,0,0,306,42a12.14,12.14,0,0,0,4.34-3.57l.16.09a24.13,24.13,0,0,1-5.15,6.11,20.87,20.87,0,0,1-6.23,3.72,18.1,18.1,0,0,1-6.42,1.21,13.83,13.83,0,0,1-4.86-.84,11.84,11.84,0,0,1-4.06-2.45A10.8,10.8,0,0,1,281,42.16a14.77,14.77,0,0,1-1-5.67A19.2,19.2,0,0,1,281.58,28.74Z"/><path d="M346.86,17.83a5.4,5.4,0,0,1,1.8,4.12,5.66,5.66,0,0,1-.65,2.66,7,7,0,0,1-1.68,2.11,13,13,0,0,1-2.6,1.68,23.75,23.75,0,0,1-3.07,1.33c-1,.35-2.19.69-3.47,1s-2.43.6-3.44.81l-3.29.68c-1.17.25-2.09.46-2.76.62a43.77,43.77,0,0,1,5.71-.43,19.34,19.34,0,0,1,4,.34,7.54,7.54,0,0,1,2.69,1.11,7.08,7.08,0,0,1,1.74,1.71A10.29,10.29,0,0,1,343,37.82q.19.47.63,1.77c.29.89.55,1.65.8,2.29a23.06,23.06,0,0,0,1,2.29,16.52,16.52,0,0,0,1.24,2.24,7.62,7.62,0,0,0,1.55,1.67,4.55,4.55,0,0,0,2,1l-.13.13a42.54,42.54,0,0,1-7.41.86,16.18,16.18,0,0,1-3.78-.4,10.32,10.32,0,0,1-3.22-1.33,8.3,8.3,0,0,1-2.73-2.79,14.15,14.15,0,0,1-1.77-4.4c-.12-.48-.28-1.22-.46-2.24s-.39-1.77-.53-2.35-.33-1.2-.56-1.86a3.82,3.82,0,0,0-.77-1.43,1.22,1.22,0,0,0-1.06-.34v-.06a14.53,14.53,0,0,0,7.16-4.09,9.86,9.86,0,0,0,2.86-7,3.77,3.77,0,0,0-.5-2.05,1.58,1.58,0,0,0-1.4-.77q-2.39,0-5.26,4.87a46,46,0,0,0-4.81,12.15q-.47,1.8-.84,3.69c-.25,1.26-.45,2.6-.62,4a12.94,12.94,0,0,0,0,3.62c.14,1,.48,1.6,1,1.8l-.12.13a41.74,41.74,0,0,1-5.3.49,9.29,9.29,0,0,1-3.1-.43,4.24,4.24,0,0,1-2-1.55,5.42,5.42,0,0,1-.86-3,26,26,0,0,1,.3-4.74L320,4.4c.15-.91,0-1.52-.43-1.83a2.61,2.61,0,0,0-2.2.13l-.1-.1A30.63,30.63,0,0,1,321.87.93a19,19,0,0,1,5-.74c1.77,0,3,.42,3.66,1.27s.77,2.28.4,4.24l-5.61,30,.18.06a60.73,60.73,0,0,1,2.7-8.12,31.42,31.42,0,0,1,3-5.64,14.68,14.68,0,0,1,3.25-3.5,11,11,0,0,1,3.44-1.83,12.26,12.26,0,0,1,3.54-.5A7.79,7.79,0,0,1,346.86,17.83Z"/><path d="M361.21,29.26a15.61,15.61,0,0,0,4.66-.06A8.58,8.58,0,0,0,369.18,28a7.43,7.43,0,0,0,2.08-2.1,9,9,0,0,0,1.15-2.55,11.47,11.47,0,0,0,.3-2.66,5.27,5.27,0,0,0-.83-3.13,3,3,0,0,0-2.6-1.18,6,6,0,0,0-4.66,2.51,16.32,16.32,0,0,0-3.06,5.95,23.43,23.43,0,0,0-1,6.76,16.72,16.72,0,0,0,.56,4.4,12.06,12.06,0,0,0,1.61,3.69,7.5,7.5,0,0,0,2.92,2.57,8.65,8.65,0,0,0,4.15,1,11.86,11.86,0,0,0,4.9-1.15,13.17,13.17,0,0,0,4.53-3.63l.15.09a24.06,24.06,0,0,1-7.69,8,18.08,18.08,0,0,1-10,3A12.51,12.51,0,0,1,352.41,46q-3.57-3.57-3.56-9.71a18.76,18.76,0,0,1,1.61-7.62,21.2,21.2,0,0,1,4.37-6.45,20.91,20.91,0,0,1,6.66-4.43,20.7,20.7,0,0,1,8.19-1.65,29.15,29.15,0,0,1,3.13.16,18.39,18.39,0,0,1,3.13.62,12.53,12.53,0,0,1,2.85,1.21,6.16,6.16,0,0,1,2,2,5.72,5.72,0,0,1,.77,2.95,6.6,6.6,0,0,1-.62,2.79,7,7,0,0,1-2.17,2.51A11,11,0,0,1,375,30.22a18.77,18.77,0,0,1-5.83.44,39.85,39.85,0,0,1-8-1.33Z"/><path d="M395.06,40.33l-.34,2.33c-.12.91-.19,1.68-.21,2.32s0,1.27,0,1.89a3.28,3.28,0,0,0,.37,1.46,1.31,1.31,0,0,0,.78.71l-.13.13a22.25,22.25,0,0,1-4.28.49q-8.77,0-7.19-9.73l5.7-35.53c.15-.91,0-1.52-.43-1.83a2.61,2.61,0,0,0-2.2.13l-.09-.1A27.32,27.32,0,0,1,391.69.93a19,19,0,0,1,4.86-.74q2.7,0,3.66,1.2c.62.81.77,2.25.43,4.31Z"/><path d="M412.15,35.65Q410.07,48.49,413.32,49l-.12.13a24.64,24.64,0,0,1-4.52.46,11.8,11.8,0,0,1-3.63-.5,7.56,7.56,0,0,1-2.82-1.58,5.62,5.62,0,0,1-1.71-3.1,12.91,12.91,0,0,1,0-4.83l3.57-22.82h-2.64l0-.18h.84a35,35,0,0,0,4.8-.34,13.26,13.26,0,0,0,3.69-1.06,7.8,7.8,0,0,0,2.85-2.08,12.5,12.5,0,0,0,2-3.38A23.9,23.9,0,0,0,417,4.84h.19l-1.95,11.78h4.28l0,.18h-4.27Z"/><path d="M448.7,20.06a13.14,13.14,0,0,1,4.18,10.07,17.54,17.54,0,0,1-1.64,7.38,20.35,20.35,0,0,1-4.37,6.23A20.62,20.62,0,0,1,440.36,48a19.94,19.94,0,0,1-7.85,1.61,15.16,15.16,0,0,1-10.81-3.91,13,13,0,0,1-4.22-10,18.35,18.35,0,0,1,2.76-9.77,19.72,19.72,0,0,1,7.41-7.09,20.53,20.53,0,0,1,10.16-2.61A15.45,15.45,0,0,1,448.7,20.06ZM436.11,47.31a16.75,16.75,0,0,0,2.6-5.18,58,58,0,0,0,1.65-6.85c.45-2.5.77-4.81,1-6.91s.25-3.94.25-5.55c0-4.28-1.27-6.42-3.79-6.42a4.48,4.48,0,0,0-3.53,2.14,16.68,16.68,0,0,0-2.57,5.3A58.41,58.41,0,0,0,430,30.78c-.45,2.55-.76,4.85-.93,6.92s-.28,3.87-.28,5.36c0,4.22,1.25,6.32,3.75,6.32A4.54,4.54,0,0,0,436.11,47.31Z"/><path d="M466.71,35.71l.18.06a57,57,0,0,1,2.73-8.15,30.69,30.69,0,0,1,3-5.64,15.43,15.43,0,0,1,3.28-3.47,10.87,10.87,0,0,1,3.35-1.83,11.23,11.23,0,0,1,3.38-.5q8.28,0,6.48,10.67l-1.49,8.8Q485.4,48.46,488.81,49l-.12.13a24.83,24.83,0,0,1-4.53.46,12.31,12.31,0,0,1-2.91-.31,8.28,8.28,0,0,1-2.52-1,5.11,5.11,0,0,1-1.89-1.83,8.66,8.66,0,0,1-1-2.85,11.37,11.37,0,0,1,.12-4l2.48-15.38a10.77,10.77,0,0,0,.19-3.94c-.19-.95-.67-1.42-1.46-1.42q-2.39,0-5.36,5a45.38,45.38,0,0,0-4.71,12q-3,12.12-.5,13.14l-.12.13a41.64,41.64,0,0,1-5.24.49,9.1,9.1,0,0,1-3.16-.46,4.22,4.22,0,0,1-2-1.55,5,5,0,0,1-.9-3,27.16,27.16,0,0,1,.38-4.74L459,20.4c.16-.91,0-1.52-.44-1.83a2.6,2.6,0,0,0-2.2.12l-.09-.09a26.47,26.47,0,0,1,4.62-1.67,19.1,19.1,0,0,1,4.87-.75c1.83,0,3.12.42,3.84,1.24s.83,2.28.37,4.28Z"/></g></g></svg>