<?xml version="1.0" encoding="utf-8"?>
<!-- Generator: Adobe Illustrator 24.2.3, SVG Export Plug-In . SVG Version: 6.00 Build 0)  -->
<svg version="1.1" id="Layer_1" xmlns="http://www.w3.org/2000/svg" xmlns:xlink="http://www.w3.org/1999/xlink" x="0px" y="0px"
	 viewBox="0 0 353.2 140.6" style="enable-background:new 0 0 353.2 140.6;" xml:space="preserve">
<style type="text/css">
	.st0{fill:#006AFF;}
</style>
<g id="Layer_2_1_">
	<g id="Layer_1-2">
		<path d="M61.9,8.9V0.4H63v7.6h4.8v1L61.9,8.9z"/>
		<path d="M68.4,5.7c0-1.7,1.3-3.2,3.1-3.2c0,0,0.1,0,0.1,0c1.7,0,3.1,1.4,3.1,3.1c0,0,0,0.1,0,0.1c0,0.1,0,0.3,0,0.4h-5.2
			c0,1.2,1,2.1,2.1,2.1c0.7,0,1.4-0.4,1.8-1l0.9,0.2c-0.5,1-1.6,1.6-2.7,1.6c-1.8,0-3.2-1.4-3.2-3.1C68.4,5.8,68.4,5.8,68.4,5.7z
			 M73.7,5.3c-0.1-1.1-1-2-2.1-2c-1.1,0-2,0.9-2.1,2H73.7z"/>
		<path d="M76.2,8.9V4.2h-0.8V3.3h0.8V2.5C76.2,1,77,0,78.1,0c0.5,0,1,0.1,1.4,0.4l-0.3,0.8C79,1,78.7,0.9,78.3,0.9
			c-0.7,0-1.1,0.6-1.1,1.5v0.9h1.7v0.8h-1.7v4.7H76.2z"/>
		<path d="M83.4,8.6c-0.5,0.2-1,0.4-1.5,0.4c-0.7,0.1-1.3-0.4-1.4-1.1c0-0.1,0-0.1,0-0.2V3.4h-0.8V2.6h0.8V0.5h1.1v2.1h1.4v0.8h-1.4
			v3.9c0,0.4,0.3,0.7,0.6,0.7c0,0,0,0,0.1,0c0.3,0,0.6-0.1,0.9-0.3L83.4,8.6z"/>
		<path d="M92.7,8.9h-1V5.4c0-1.3-0.5-1.9-1.3-1.9c-0.9,0.1-1.7,0.7-2,1.7v3.8h-1V0.1h1V4c0.5-0.9,1.4-1.4,2.4-1.5
			c1.5,0,2,1.1,2,2.6L92.7,8.9z"/>
		<path d="M94.3,1.4V0.1h1v1.3H94.3z M94.3,8.9V2.6h1v6.3H94.3z"/>
		<path d="M96.7,5.8c-0.1-1.7,1.1-3.1,2.7-3.2c0.1,0,0.1,0,0.2,0c1,0,1.8,0.5,2.3,1.3V2.6h0.9v6.2c0,1.8-1.4,2.8-3.2,2.8
			c-1.1,0.1-2.2-0.4-2.8-1.4l0.6-0.5c0.5,0.7,1.3,1.1,2.2,1.1c1,0.1,2-0.6,2.1-1.7c0-0.1,0-0.2,0-0.3V7.7c-0.5,0.8-1.3,1.3-2.2,1.3
			c-1.7-0.1-3-1.4-2.9-3.1C96.7,5.9,96.7,5.8,96.7,5.8z M101.8,6.7V4.9c-0.3-0.8-1.1-1.4-2-1.5c-1.2,0.1-2.1,1.1-2.1,2.4
			c0,1.2,0.9,2.3,2.2,2.3C100.7,8.1,101.5,7.5,101.8,6.7z"/>
		<path d="M109.9,8.9h-1.1V5.4c0-1.3-0.5-1.9-1.3-1.9c-0.9,0.1-1.7,0.7-2,1.7v3.8h-1.1V0.1h1.1V4c0.5-0.9,1.4-1.5,2.4-1.5
			c1.5,0,2,1.1,2,2.6L109.9,8.9z"/>
		<path d="M114,8.1l0.4-0.7c0.6,0.5,1.4,0.8,2.3,0.8c0.9,0,1.5-0.4,1.5-1s-0.6-0.8-1.8-1.1c-1.5-0.4-2.2-0.7-2.2-1.6
			c0-1.3,1.1-1.9,2.4-1.9c0.9,0,1.7,0.3,2.3,0.8L118.6,4c-0.5-0.5-1.2-0.7-1.9-0.7c-0.8,0-1.4,0.3-1.4,1s0.4,0.7,1.5,1
			c1.7,0.4,2.5,0.7,2.5,1.8S118.3,9,116.8,9C115.8,9,114.8,8.7,114,8.1z"/>
		<path d="M123.2,2.5c1.1-0.1,2.1,0.5,2.6,1.5l-1,0.3c-0.3-0.6-1-0.9-1.6-0.9c-1.2,0-2.1,1.1-2.1,2.2c0,0,0,0,0,0.1
			C121.1,6.9,122,8,123.3,8c0.7,0,1.4-0.4,1.7-1l1,0.3c-0.5,1-1.5,1.7-2.7,1.6c-1.8,0-3.2-1.4-3.2-3.1c0,0,0-0.1,0-0.1
			c-0.1-1.7,1.3-3.2,3-3.2C123.1,2.5,123.2,2.5,123.2,2.5z"/>
		<path d="M132.5,8.9h-1V5.4c0-1.3-0.5-1.9-1.3-1.9c-0.9,0.1-1.7,0.7-2,1.7v3.8h-1.1V0.1h1.1V4c0.5-0.9,1.4-1.4,2.4-1.5
			c1.5,0,2,1.1,2,2.6L132.5,8.9z"/>
		<path d="M133.8,5.8c0-1.7,1.4-3.2,3.2-3.2s3.2,1.4,3.2,3.2s-1.4,3.2-3.2,3.2S133.8,7.5,133.8,5.8z M136.9,8.1
			c1.2-0.1,2.2-1.1,2.1-2.3c0,0,0,0,0,0c0.1-1.1-0.7-2.2-1.9-2.3c-1.1-0.1-2.2,0.7-2.3,1.9c0,0.1,0,0.3,0,0.4
			C134.7,6.9,135.6,8,136.9,8.1C136.9,8.1,136.9,8.1,136.9,8.1z"/>
		<path d="M140.9,5.8c0-1.7,1.4-3.2,3.2-3.2s3.2,1.4,3.2,3.2s-1.4,3.2-3.2,3.2S140.9,7.5,140.9,5.8z M144.1,8.1
			c1.2-0.1,2.2-1.1,2.1-2.3c0,0,0,0,0,0c0.1-1.1-0.7-2.2-1.9-2.3c-1.1-0.1-2.2,0.7-2.3,1.9c0,0.1,0,0.3,0,0.4
			C141.9,6.9,142.8,8,144.1,8.1C144,8.1,144.1,8.1,144.1,8.1z"/>
		<path d="M148.5,0.1h1v7.1c0,0.4,0.2,0.7,0.6,0.7c0,0,0.1,0,0.1,0c0.2,0,0.4-0.1,0.6-0.1l0.2,0.8c-0.4,0.2-0.8,0.2-1.3,0.2
			c-0.7,0.1-1.3-0.4-1.3-1.1c0-0.1,0-0.2,0-0.2L148.5,0.1z"/>
		<path d="M154.1,7.1c0-1.2,1.1-2,2.6-2c0.6,0,1.2,0.1,1.8,0.3V4.9c0.1-0.8-0.5-1.6-1.4-1.6c-0.1,0-0.2,0-0.3,0
			c-0.7,0-1.4,0.3-2,0.7l-0.4-0.7c0.7-0.5,1.6-0.8,2.5-0.8c1.3-0.1,2.5,0.8,2.6,2.1c0,0.1,0,0.3,0,0.4v2.6c0,0.3,0.1,0.4,0.3,0.4
			v0.9c-0.1,0-0.3,0-0.4,0c-0.4,0-0.7-0.2-0.8-0.6V7.8c-0.6,0.8-1.5,1.2-2.4,1.2C155.1,9.1,154.2,8.3,154.1,7.1
			C154.1,7.1,154.1,7.1,154.1,7.1z M158.2,7.5c0.1-0.1,0.2-0.3,0.2-0.5V6c-0.5-0.2-1-0.3-1.6-0.3c-1.1,0-1.8,0.5-1.8,1.2
			c0,0.7,0.6,1.3,1.3,1.3c0,0,0.1,0,0.1,0C157.2,8.2,157.8,7.9,158.2,7.5z"/>
		<path d="M164.4,8.6c-0.5,0.2-1,0.4-1.5,0.4c-0.7,0.1-1.3-0.4-1.4-1.1c0-0.1,0-0.1,0-0.2V3.4h-0.9V2.6h0.9V0.5h1.1v2.1h1.4v0.8
			h-1.4v3.9c0,0.4,0.3,0.7,0.6,0.7c0,0,0,0,0.1,0c0.3,0,0.6-0.1,0.9-0.3L164.4,8.6z"/>
		<path d="M171.6,8.6c-0.5,0.3-1,0.4-1.6,0.4c-0.7,0.1-1.3-0.4-1.4-1.1c0-0.1,0-0.1,0-0.2V3.4h-0.9V2.6h0.9V0.5h1v2.1h1.4v0.8h-1.4
			v3.9c0,0.4,0.3,0.7,0.7,0.7c0,0,0,0,0.1,0c0.3,0,0.6-0.1,0.9-0.3L171.6,8.6z"/>
		<path d="M177.9,8.9h-1.1V5.4c0-1.3-0.5-1.9-1.3-1.9c-0.9,0.1-1.7,0.7-2,1.7v3.8h-1.1V0.1h1.1V4c0.5-0.9,1.4-1.4,2.4-1.5
			c1.5,0,2,1.1,2,2.6L177.9,8.9z"/>
		<path d="M179.1,5.7c0-1.7,1.3-3.2,3.1-3.2c0,0,0.1,0,0.1,0c1.7,0,3.1,1.4,3.1,3.1c0,0,0,0.1,0,0.1c0,0.1,0,0.3,0,0.4h-5.2
			c0,1.1,1,2.1,2.1,2.1c0.7,0,1.4-0.4,1.8-1l0.9,0.2c-0.5,1-1.6,1.6-2.8,1.6c-1.7,0-3.2-1.4-3.2-3.1C179.1,5.8,179.1,5.8,179.1,5.7z
			 M184.4,5.3c-0.1-1.1-1-2-2.1-2c-1.1,0-2.1,0.9-2.1,2H184.4z"/>
		<path d="M190.5,7.7v1.2h-0.9V0.1h1.1v3.7c0.5-0.8,1.4-1.3,2.3-1.3c1.7,0.1,2.9,1.5,2.8,3.2c0,0,0,0.1,0,0.1
			c0.1,1.7-1.2,3.1-2.9,3.2c0,0,0,0-0.1,0C191.9,9,191,8.5,190.5,7.7z M194.7,5.8c0.1-1.2-0.8-2.2-2-2.3c-0.9,0.1-1.7,0.6-2,1.5v1.8
			c0.3,0.8,1,1.4,1.9,1.4C193.8,8,194.7,7,194.7,5.8z"/>
		<path d="M196.7,5.7c0-1.7,1.3-3.2,3.1-3.2c0,0,0.1,0,0.1,0c1.7,0,3.1,1.3,3.1,3.1c0,0,0,0.1,0,0.1c0,0.1,0,0.3,0,0.4h-5.2
			c0,1.2,1,2.1,2.1,2.1c0.7,0,1.4-0.4,1.8-1l0.9,0.2c-0.5,1-1.6,1.6-2.8,1.6c-1.8,0-3.2-1.4-3.2-3.1C196.7,5.8,196.7,5.8,196.7,5.7z
			 M202,5.3c-0.1-1.1-1-2-2.1-2c-1.1,0-2,0.9-2.1,2H202z"/>
		<path d="M203.8,5.8c-0.1-1.7,1.1-3.1,2.7-3.2c0.1,0,0.1,0,0.2,0c1,0,1.8,0.5,2.3,1.3V2.6h0.9v6.2c0,1.8-1.4,2.8-3.2,2.8
			c-1.1,0.1-2.2-0.4-2.8-1.4l0.6-0.5c0.5,0.7,1.3,1.1,2.2,1.1c1,0.1,2-0.6,2.1-1.7c0-0.1,0-0.2,0-0.3V7.7c-0.5,0.8-1.3,1.3-2.2,1.3
			c-1.7-0.1-3-1.4-2.9-3.1C203.8,5.9,203.8,5.8,203.8,5.8z M208.9,6.7V4.9c-0.3-0.8-1.1-1.4-2-1.5c-1.2,0.1-2.1,1.2-2,2.4
			c0,1.2,0.9,2.2,2.1,2.3C207.9,8.1,208.6,7.5,208.9,6.7z"/>
		<path d="M211.6,1.4V0.1h1.1v1.3H211.6z M211.6,8.9V2.6h1.1v6.3H211.6z"/>
		<path d="M219.8,8.9h-1.1V5.4c0-1.3-0.4-1.9-1.2-1.9c-1,0.1-1.8,0.7-2.1,1.7v3.8h-1.1V2.6h1V4c0.6-0.9,1.5-1.5,2.6-1.5
			c1.4,0,1.9,1.1,1.9,2.6L219.8,8.9z"/>
		<path d="M226.8,8.9h-1.1V5.4c0-1.3-0.4-1.9-1.2-1.9c-1,0.1-1.8,0.7-2.1,1.7v3.8h-1.1V2.6h1V4c0.5-0.9,1.5-1.5,2.6-1.5
			c1.4,0,1.9,1.1,1.9,2.6L226.8,8.9z"/>
		<path d="M228.4,1.4V0.1h1.1v1.3H228.4z M228.4,8.9V2.6h1.1v6.3H228.4z"/>
		<path d="M236.5,8.9h-1.1V5.4c0-1.3-0.4-1.9-1.2-1.9c-1,0.1-1.8,0.7-2.1,1.7v3.8h-1V2.6h1V4c0.5-0.9,1.5-1.5,2.6-1.5
			c1.4,0,1.9,1.1,1.9,2.6L236.5,8.9z"/>
		<path d="M237.7,5.8c-0.1-1.7,1.1-3.1,2.7-3.2c0.1,0,0.1,0,0.2,0c1,0,1.9,0.5,2.4,1.3V2.6h0.9v6.2c0,1.8-1.4,2.8-3.2,2.8
			c-1.1,0.1-2.2-0.4-2.8-1.4l0.6-0.5c0.5,0.7,1.3,1.1,2.2,1.1c1,0.1,2-0.6,2.1-1.7c0-0.1,0-0.2,0-0.3V7.7c-0.5,0.8-1.3,1.3-2.2,1.3
			c-1.7-0.1-3-1.4-2.9-3.1C237.7,5.9,237.7,5.8,237.7,5.8z M242.9,6.7V4.9c-0.3-0.8-1.1-1.4-2-1.5c-1.2,0.1-2.1,1.1-2.1,2.4
			c0,1.2,0.9,2.3,2.2,2.3c0,0,0,0,0,0C241.8,8,242.6,7.5,242.9,6.7z"/>
		<path d="M248.2,5.8c0-1.7,1.4-3.2,3.2-3.2s3.2,1.4,3.2,3.2s-1.4,3.2-3.2,3.2S248.2,7.5,248.2,5.8z M251.3,8.1
			c1.2-0.1,2.2-1.1,2.1-2.3c0.1-1.1-0.7-2.2-1.9-2.3c-1.1-0.1-2.2,0.7-2.3,1.9c0,0.1,0,0.3,0,0.4C249.2,6.9,250.1,8,251.3,8.1
			C251.3,8.1,251.3,8.1,251.3,8.1z"/>
		<path d="M256.1,8.9V4.2h-0.9V3.3h0.9V2.5c0-1.5,0.8-2.5,1.9-2.5c0.5,0,1,0.1,1.4,0.4l-0.3,0.8c-0.3-0.2-0.6-0.3-0.9-0.3
			c-0.7,0-1.1,0.6-1.1,1.5v0.9h1.7v0.8h-1.7v4.7H256.1z"/>
		<path d="M262.7,10.6c0.2,0,0.4,0,0.6,0s0.5-0.1,1.1-1.8l-2.6-6.3h1.1l2.2,5.4l1.9-5.3h1l-3.1,7.9c-0.2,0.7-0.9,1.1-1.6,1.1
			c-0.2,0-0.4,0-0.5-0.1L262.7,10.6z"/>
		<path d="M268.6,5.7c0-1.7,1.3-3.2,3.1-3.2c0,0,0.1,0,0.1,0c1.7,0,3.1,1.4,3.1,3.1c0,0,0,0.1,0,0.1c0,0.1,0,0.3,0,0.4h-5.2
			c0,1.1,1,2.1,2.1,2.1c0.7,0,1.4-0.4,1.8-1l0.9,0.2c-0.5,1-1.6,1.6-2.8,1.6c-1.8,0-3.2-1.4-3.2-3.1C268.6,5.8,268.6,5.8,268.6,5.7z
			 M273.9,5.3c-0.1-1.1-1-2-2.1-2c-1.1,0-2.1,0.9-2.1,2H273.9z"/>
		<path d="M275.6,7.1c0-1.2,1.1-2,2.6-2c0.6,0,1.2,0.1,1.8,0.3V4.9c0.1-0.8-0.5-1.6-1.4-1.7c-0.1,0-0.2,0-0.3,0
			c-0.7,0-1.4,0.3-2,0.7L276,3.3c0.7-0.5,1.6-0.8,2.5-0.8c1.3-0.1,2.5,0.8,2.6,2.1c0,0.1,0,0.3,0,0.4v2.6c0,0.3,0.1,0.4,0.3,0.4v0.9
			c-0.1,0-0.3,0-0.4,0c-0.4,0-0.7-0.2-0.8-0.6c0,0,0,0,0,0V7.8c-0.6,0.8-1.5,1.2-2.4,1.2C276.7,9.1,275.7,8.3,275.6,7.1
			C275.6,7.1,275.6,7.1,275.6,7.1z M279.8,7.5c0.1-0.1,0.2-0.3,0.2-0.5V6c-0.5-0.2-1-0.3-1.6-0.3c-1.1,0-1.8,0.5-1.8,1.2
			c0,0.7,0.6,1.3,1.3,1.3c0,0,0.1,0,0.1,0C278.7,8.2,279.3,7.9,279.8,7.5z"/>
		<path d="M286.1,3.5c-1,0-1.9,0.5-2.2,1.5v3.9h-1.1V2.6h1v1.5c0.3-0.8,1.1-1.4,2-1.5h0.4L286.1,3.5z"/>
		<path d="M294.1,7.9v1h-4.3v-1h1.7V3.2c-0.5,0.5-1.2,0.8-2,0.9v-1c0.8-0.2,1.4-0.6,1.9-1.2h1.1v5.9H294.1z"/>
		<path d="M295,8.9c-0.1-1.4,0.7-2.6,2-3.1c0.9-0.5,2-0.9,2-1.7c0-0.5-0.5-1.1-1.4-1.1c-0.7,0-1.4,0.4-1.8,1L295,3.1
			c0.7-0.7,1.7-1.1,2.7-1.1c1.5,0,2.4,0.9,2.4,1.9c0,1.2-1.2,1.8-1.9,2.2s-1.9,1-2,1.9h4.1v1L295,8.9z"/>
		<path d="M61.2,21.5c0-1.2,1.1-2,2.6-2c0.6,0,1.2,0.1,1.8,0.3v-0.5c0.1-0.8-0.6-1.6-1.4-1.6c-0.1,0-0.1,0-0.2,0
			c-0.7,0-1.4,0.3-2,0.7l-0.3-0.7c0.7-0.5,1.6-0.8,2.5-0.8c1.3-0.1,2.5,0.8,2.6,2.1c0,0.1,0,0.3,0,0.4V22c0,0.3,0.1,0.4,0.3,0.4v0.9
			c-0.1,0-0.3,0-0.4,0c-0.4,0-0.7-0.2-0.8-0.6c0,0,0,0,0,0v-0.5c-0.6,0.7-1.4,1.2-2.4,1.2c-1.1,0.1-2.1-0.7-2.2-1.8
			C61.2,21.6,61.2,21.5,61.2,21.5z M65.4,21.9c0.1-0.1,0.2-0.3,0.2-0.5v-0.9c-0.5-0.2-1-0.3-1.6-0.3c-1.1,0-1.8,0.5-1.8,1.2
			c0,0.7,0.6,1.3,1.3,1.2c0,0,0.1,0,0.1,0C64.3,22.6,64.9,22.3,65.4,21.9z"/>
		<path d="M73.8,23.3h-1.1v-3.5c0-1.3-0.4-1.9-1.2-1.9c-1,0.1-1.8,0.7-2.1,1.6v3.8h-1.1V17h1v1.4c0.5-0.9,1.5-1.5,2.6-1.5
			c1.5,0,1.9,1.1,1.9,2.6L73.8,23.3z"/>
		<path d="M75,20.2c-0.1-1.7,1.1-3.1,2.7-3.2c0,0,0.1,0,0.1,0c0.9,0,1.8,0.5,2.3,1.4v-3.7h1.1V22c0,0.3,0.1,0.4,0.3,0.4v0.9
			c-0.1,0-0.3,0-0.4,0c-0.4,0.1-0.7-0.2-0.8-0.6c0,0,0,0,0,0v-0.6c-0.5,0.8-1.4,1.3-2.3,1.3C76.3,23.3,74.9,21.9,75,20.2
			C75,20.2,75,20.2,75,20.2z M80.1,21.1v-1.8c-0.3-0.8-1.1-1.4-2-1.5c-1.2,0.1-2.1,1.1-2.1,2.4c-0.1,1.2,0.9,2.3,2.1,2.3
			c0,0,0,0,0,0C79.1,22.5,79.9,21.9,80.1,21.1L80.1,21.1z"/>
		<path d="M86.9,22.1v1.2H86v-8.8h1v3.7c0.5-0.8,1.4-1.3,2.3-1.4c1.7,0.1,2.9,1.5,2.8,3.2c0,0,0,0.1,0,0.1c0.1,1.7-1.2,3.1-2.9,3.2
			c0,0,0,0-0.1,0C88.2,23.4,87.4,22.9,86.9,22.1z M91.1,20.2c0.1-1.2-0.8-2.2-2-2.4c-0.9,0.1-1.7,0.6-2,1.5v1.8
			c0.3,0.8,1,1.4,1.9,1.4C90.2,22.4,91.1,21.4,91.1,20.2z"/>
		<path d="M93,20.1c0-1.7,1.3-3.2,3.1-3.2c0,0,0.1,0,0.1,0c1.7,0,3.1,1.4,3.1,3.2c0,0.1,0,0.3,0,0.4h-5.1c0,1.2,1,2.1,2.1,2.1
			c0.7,0,1.4-0.4,1.8-1l0.9,0.2c-0.5,1-1.6,1.6-2.7,1.6c-1.8,0-3.2-1.4-3.2-3.1C93,20.3,93,20.2,93,20.1z M98.3,19.7
			c-0.1-1.1-1-2-2.1-2c-1.1,0-2.1,0.9-2.1,2H98.3z"/>
		<path d="M100.2,20.2c-0.1-1.7,1.1-3.1,2.7-3.2c0.1,0,0.1,0,0.2,0c1,0,1.8,0.5,2.3,1.4V17h0.9v6.2c0,1.8-1.4,2.8-3.2,2.8
			c-1.1,0.1-2.2-0.4-2.8-1.4l0.6-0.5c0.5,0.7,1.3,1.1,2.2,1.1c1,0.1,2-0.6,2.1-1.7c0-0.1,0-0.2,0-0.3v-1.1c-0.5,0.8-1.3,1.3-2.3,1.2
			C101.3,23.3,100.1,21.9,100.2,20.2C100.1,20.2,100.1,20.2,100.2,20.2z M105.3,21.1v-1.8c-0.3-0.8-1.1-1.4-2-1.5
			c-1.2,0.1-2.1,1.1-2.1,2.4c0,1.2,0.9,2.3,2.2,2.3C104.2,22.5,105,21.9,105.3,21.1z"/>
		<path d="M107.5,21.5c0-1.2,1.1-2,2.6-2c0.6,0,1.2,0.1,1.8,0.3v-0.5c0.1-0.8-0.6-1.6-1.4-1.7c-0.1,0-0.2,0-0.3,0
			c-0.7,0-1.4,0.3-2,0.7l-0.3-0.7c0.7-0.5,1.6-0.8,2.5-0.8c1.3-0.2,2.5,0.7,2.6,2c0,0.2,0,0.3,0,0.5V22c0,0.3,0.1,0.4,0.3,0.4v0.9
			c-0.1,0-0.3,0-0.4,0c-0.4,0-0.7-0.2-0.8-0.6v-0.5c-0.6,0.7-1.4,1.2-2.4,1.2c-1.1,0.1-2.1-0.7-2.2-1.8
			C107.5,21.6,107.5,21.5,107.5,21.5z M111.7,21.9c0.1-0.1,0.2-0.3,0.2-0.5v-0.9c-0.5-0.2-1-0.3-1.6-0.3c-1.1,0-1.8,0.5-1.8,1.2
			c0,0.7,0.6,1.3,1.3,1.2c0,0,0.1,0,0.1,0C110.6,22.6,111.2,22.3,111.7,21.9z"/>
		<path d="M120.1,23.3H119v-3.5c0-1.3-0.4-1.9-1.2-1.9c-1,0.1-1.8,0.7-2.1,1.6v3.8h-1V17h1v1.4c0.5-0.9,1.5-1.5,2.6-1.5
			c1.4,0,1.9,1.1,1.9,2.6L120.1,23.3z"/>
		<path d="M124.2,22.5l0.5-0.7c0.6,0.5,1.4,0.8,2.3,0.8c0.9,0,1.5-0.4,1.5-1s-0.6-0.8-1.8-1.1c-1.5-0.4-2.2-0.7-2.2-1.6
			c0-1.3,1.1-1.9,2.4-1.9c0.9,0,1.7,0.3,2.3,0.8l-0.5,0.6c-0.5-0.5-1.2-0.7-1.9-0.7c-0.8,0-1.4,0.3-1.4,1s0.4,0.7,1.5,1
			c1.7,0.4,2.5,0.7,2.5,1.8s-1,1.9-2.5,1.9C125.9,23.4,125,23.1,124.2,22.5z"/>
		<path d="M133.9,23c-0.5,0.2-1,0.4-1.5,0.4c-0.7,0.1-1.3-0.4-1.4-1.1c0-0.1,0-0.1,0-0.2v-4.2h-0.9V17h0.9v-2.1h1.1V17h1.4v0.8H132
			v3.9c0,0.4,0.3,0.7,0.7,0.7c0,0,0,0,0.1,0c0.3,0,0.6-0.1,0.9-0.3L133.9,23z"/>
		<path d="M134.7,20.8V17h1v3.5c0,1.3,0.4,1.9,1.3,1.9c0.9,0,1.8-0.6,2.1-1.5V17h1.1v5c0,0.3,0.1,0.4,0.3,0.4v0.9
			c-0.1,0-0.3,0-0.4,0c-0.5,0-0.8-0.2-0.8-0.6v-0.8c-0.5,0.9-1.5,1.5-2.6,1.5C135.4,23.4,134.7,22.5,134.7,20.8z"/>
		<path d="M141.6,20.2c-0.1-1.7,1.1-3.1,2.7-3.2c0,0,0.1,0,0.1,0c0.9,0,1.8,0.5,2.3,1.4v-3.7h1.1V22c0,0.3,0.1,0.4,0.3,0.4v0.9
			c-0.1,0-0.3,0-0.4,0c-0.4,0.1-0.7-0.2-0.8-0.6c0,0,0,0,0,0v-0.6c-0.5,0.8-1.4,1.3-2.3,1.3C142.9,23.4,141.6,21.9,141.6,20.2
			C141.6,20.2,141.6,20.2,141.6,20.2z M146.7,21.1v-1.8c-0.3-0.8-1.1-1.4-2-1.5c-1.2,0.1-2.1,1.1-2.1,2.3c0,0,0,0,0,0
			c-0.1,1.2,0.9,2.3,2.1,2.3c0,0,0,0,0,0C145.7,22.5,146.5,21.9,146.7,21.1z"/>
		<path d="M149.8,25c0.2,0,0.4,0,0.6,0s0.5-0.1,1.1-1.8l-2.7-6.2h1.1l2.1,5.3L154,17h1l-3.1,7.9c-0.2,0.7-0.9,1.1-1.6,1
			c-0.2,0-0.4,0-0.5-0.1L149.8,25z"/>
		<path d="M156.1,15.8v-1.3h1.1v1.3H156.1z M156.1,23.3V17h1.1v6.3L156.1,23.3z"/>
		<path d="M164.2,23.3h-1.1v-3.5c0-1.3-0.4-1.9-1.2-1.9c-1,0.1-1.8,0.7-2.1,1.6v3.8h-1.1V17h1v1.4c0.5-0.9,1.5-1.5,2.6-1.5
			c1.4,0,1.9,1.1,1.9,2.6L164.2,23.3z"/>
		<path d="M165.4,20.2c-0.1-1.7,1.1-3.1,2.7-3.2c0.1,0,0.1,0,0.2,0c1,0,1.8,0.5,2.3,1.4V17h0.9v6.2c0,1.8-1.4,2.8-3.2,2.8
			c-1.1,0.1-2.2-0.4-2.8-1.4l0.6-0.5c0.5,0.7,1.3,1.1,2.2,1.1c1,0.1,2-0.6,2.1-1.7c0-0.1,0-0.2,0-0.3v-1.1c-0.5,0.8-1.3,1.2-2.2,1.2
			C166.7,23.3,165.4,21.9,165.4,20.2C165.4,20.2,165.4,20.2,165.4,20.2z M170.5,21.1v-1.8c-0.3-0.8-1.1-1.4-2-1.5
			c-1.2,0.1-2.1,1.1-2.1,2.4c0,1.2,0.9,2.3,2.1,2.3C169.5,22.5,170.3,21.9,170.5,21.1L170.5,21.1z"/>
		<path d="M176.6,23.3v-4.7h-0.9v-0.8h0.9v-0.9c0-1.5,0.8-2.5,1.9-2.5c0.5,0,1,0.1,1.4,0.4l-0.3,0.8c-0.3-0.2-0.6-0.3-0.9-0.3
			c-0.7,0-1.1,0.6-1.1,1.5v0.9h1.7v0.8h-1.7v4.7L176.6,23.3z"/>
		<path d="M180,21.5c0-1.2,1.1-2,2.6-2c0.6,0,1.2,0.1,1.8,0.3v-0.5c0.1-0.8-0.5-1.6-1.4-1.6c-0.1,0-0.2,0-0.3,0
			c-0.7,0-1.4,0.3-2,0.7l-0.4-0.7c0.7-0.5,1.6-0.8,2.5-0.8c1.3-0.1,2.4,0.8,2.6,2.1c0,0.1,0,0.3,0,0.4V22c0,0.3,0.1,0.4,0.3,0.4v0.9
			c-0.1,0-0.3,0-0.4,0c-0.4,0-0.7-0.2-0.8-0.6c0,0,0,0,0,0v-0.5c-0.6,0.7-1.4,1.2-2.4,1.2c-1.1,0.1-2.1-0.7-2.2-1.8
			C180,21.6,180,21.5,180,21.5z M184.2,21.9c0.1-0.1,0.2-0.3,0.2-0.5v-0.9c-0.5-0.2-1-0.3-1.6-0.3c-1.1,0-1.8,0.5-1.8,1.2
			c0,0.7,0.6,1.3,1.3,1.2c0,0,0.1,0,0.1,0C183.1,22.6,183.7,22.3,184.2,21.9L184.2,21.9z"/>
		<path d="M186.6,22.5l0.4-0.7c0.6,0.5,1.4,0.8,2.3,0.8c0.9,0,1.5-0.4,1.5-1s-0.6-0.8-1.8-1.1c-1.5-0.4-2.1-0.7-2.1-1.6
			c0-1.3,1.1-1.9,2.4-1.9c0.9,0,1.7,0.3,2.4,0.8l-0.5,0.6c-0.5-0.5-1.2-0.7-1.9-0.7c-0.8,0-1.4,0.3-1.4,1s0.4,0.7,1.5,1
			c1.7,0.4,2.5,0.7,2.5,1.8s-1,1.9-2.5,1.9C188.4,23.4,187.4,23.1,186.6,22.5z"/>
		<path d="M198.5,23.3h-1v-3.5c0-1.3-0.5-1.9-1.3-1.9c-0.9,0.1-1.7,0.7-2,1.6v3.8h-1v-8.8h1v3.8c0.5-0.9,1.4-1.4,2.4-1.5
			c1.5,0,2,1.1,2,2.6L198.5,23.3z"/>
		<path d="M200.1,15.8v-1.3h1.1v1.3H200.1z M200.1,23.3V17h1.1v6.3L200.1,23.3z"/>
		<path d="M202.4,20.2c0-1.7,1.5-3.1,3.2-3.1s3.1,1.5,3.1,3.2c0,1.7-1.5,3.1-3.2,3.1C203.8,23.4,202.4,22,202.4,20.2
			C202.4,20.2,202.4,20.2,202.4,20.2z M205.5,22.5c1.2-0.1,2.2-1.1,2.1-2.3c0.1-1.1-0.7-2.2-1.9-2.3c-1.1-0.1-2.2,0.7-2.3,1.9
			c0,0.1,0,0.3,0,0.4C203.4,21.3,204.3,22.4,205.5,22.5C205.5,22.5,205.5,22.5,205.5,22.5L205.5,22.5z"/>
		<path d="M215.4,23.3h-1.1v-3.5c0-1.3-0.4-1.9-1.2-1.9c-1,0.1-1.8,0.7-2.1,1.6v3.8h-1V17h1v1.4c0.5-0.9,1.5-1.5,2.6-1.5
			c1.4,0,1.9,1.1,1.9,2.6L215.4,23.3z"/>
		<path d="M219.6,21.5c0-1.2,1.1-2,2.6-2c0.6,0,1.2,0.1,1.8,0.3v-0.5c0.1-0.8-0.6-1.6-1.4-1.7c-0.1,0-0.2,0-0.3,0
			c-0.7,0-1.4,0.3-2,0.7l-0.4-0.7c0.7-0.5,1.6-0.8,2.5-0.8c1.3-0.1,2.5,0.8,2.6,2.1c0,0.2,0,0.3,0,0.5V22c0,0.3,0.1,0.4,0.3,0.4v0.9
			c-0.1,0-0.3,0-0.4,0c-0.4,0-0.7-0.2-0.8-0.6v-0.5c-0.6,0.7-1.4,1.2-2.4,1.2c-1.1,0.1-2.1-0.7-2.2-1.8
			C219.6,21.6,219.6,21.5,219.6,21.5z M223.7,21.9c0.1-0.1,0.2-0.3,0.2-0.5v-0.9c-0.5-0.2-1-0.3-1.6-0.3c-1.1,0-1.8,0.5-1.8,1.2
			c0,0.7,0.6,1.3,1.3,1.2c0,0,0.1,0,0.1,0C222.6,22.6,223.3,22.3,223.7,21.9z"/>
		<path d="M229.9,23c-0.5,0.2-1,0.4-1.5,0.4c-0.7,0.1-1.3-0.4-1.4-1.1c0-0.1,0-0.1,0-0.2v-4.2h-0.9V17h0.9v-2.1h1.1V17h1.4v0.8H228
			v3.9c0,0.4,0.3,0.7,0.6,0.7c0,0,0,0,0.1,0c0.3,0,0.6-0.1,0.9-0.3L229.9,23z"/>
		<path d="M239.8,15.7h-2.9v7.6h-1.1v-7.6h-2.9v-1h7L239.8,15.7z"/>
		<path d="M239.3,21.5c0-1.2,1.1-2,2.6-2c0.6,0,1.2,0.1,1.8,0.3v-0.5c0.1-0.8-0.6-1.6-1.4-1.6c-0.1,0-0.2,0-0.2,0
			c-0.7,0-1.4,0.3-2,0.7l-0.4-0.7c0.7-0.5,1.6-0.8,2.5-0.8c1.3-0.1,2.4,0.8,2.6,2.1c0,0.1,0,0.3,0,0.4V22c0,0.3,0.1,0.4,0.3,0.4v0.9
			c-0.1,0-0.3,0-0.4,0c-0.4,0-0.7-0.2-0.8-0.6c0,0,0,0,0,0v-0.5c-0.6,0.7-1.4,1.2-2.4,1.2c-1.1,0.1-2.1-0.7-2.2-1.8
			C239.3,21.6,239.3,21.5,239.3,21.5z M243.4,21.9c0.1-0.1,0.2-0.3,0.2-0.5v-0.9c-0.5-0.2-1-0.3-1.6-0.3c-1.1,0-1.8,0.5-1.8,1.2
			c0,0.7,0.6,1.3,1.3,1.2c0,0,0.1,0,0.1,0C242.3,22.6,243,22.3,243.4,21.9z"/>
		<path d="M246.8,23.3v-4.7h-0.9v-0.8h0.9v-0.9c0-1.5,0.7-2.5,1.9-2.5c0.5,0,1,0.1,1.4,0.4l-0.3,0.8c-0.3-0.2-0.6-0.3-0.9-0.3
			c-0.7,0-1.1,0.6-1.1,1.5v0.9h1.7v0.8h-1.7v4.7L246.8,23.3z"/>
		<path d="M250.3,20.1c0-1.7,1.3-3.2,3.1-3.2c0,0,0.1,0,0.1,0c1.7,0,3.1,1.4,3.1,3.1c0,0,0,0.1,0,0.1c0,0.1,0,0.3,0,0.4h-5.2
			c0,1.1,1,2.1,2.1,2.1c0.7,0,1.4-0.4,1.8-1l0.9,0.2c-0.5,1-1.6,1.6-2.7,1.6c-1.7,0-3.2-1.4-3.2-3.1
			C250.3,20.3,250.3,20.2,250.3,20.1z M255.6,19.7c-0.1-1.1-1-2-2.1-2c-1.1,0-2.1,0.9-2.1,2H255.6z"/>
		<path d="M257.5,23.5c0.2,0,0.3-0.1,0.3-0.3c0,0,0,0,0,0v-1.2h0.9v1.4c0,0.7-0.6,0.9-1.2,0.9V23.5z"/>
		<path d="M269.6,19.1v-4.3h1.1v4.3c0,2.3-1,4.3-3.6,4.3s-3.6-2.1-3.6-4.3v-4.3h1.1v4.3c0,1.7,0.6,3.3,2.5,3.3
			S269.6,20.7,269.6,19.1z"/>
		<path d="M272.3,14.5h1.1v7.1c0,0.4,0.2,0.7,0.6,0.7c0,0,0.1,0,0.1,0c0.2,0,0.4-0.1,0.6-0.1l0.2,0.9c-0.4,0.2-0.8,0.2-1.3,0.2
			c-0.7,0.1-1.3-0.4-1.3-1.1c0-0.1,0-0.2,0-0.3V14.5z"/>
		<path d="M278.8,23c-0.5,0.2-1,0.4-1.5,0.4c-0.7,0.1-1.3-0.4-1.4-1.1c0-0.1,0-0.1,0-0.2v-4.2H275V17h0.9v-2.1h1.1V17h1.4v0.8h-1.4
			v3.9c0,0.4,0.3,0.7,0.6,0.7c0,0,0,0,0.1,0c0.3,0,0.6-0.1,0.9-0.3L278.8,23z"/>
		<path d="M279.7,15.8v-1.3h1.1v1.3H279.7z M279.7,23.3V17h1.1v6.3L279.7,23.3z"/>
		<path d="M291.9,23.3h-1.1v-3.5c0-1.3-0.4-1.9-1.3-1.9c-0.9,0.1-1.7,0.8-1.9,1.7v3.8h-1.1v-3.5c0-1.3-0.4-1.9-1.2-1.9
			c-0.9,0.1-1.7,0.7-1.9,1.6v3.8h-1V17h1v1.4c0.4-0.9,1.4-1.5,2.4-1.5c0.9-0.1,1.7,0.6,1.8,1.5c0.4-0.9,1.4-1.5,2.4-1.5
			c1.4,0,1.9,1.1,1.9,2.6L291.9,23.3z"/>
		<path d="M293.1,20.2c0-1.7,1.5-3.1,3.2-3.1s3.1,1.5,3.1,3.2c0,1.7-1.5,3.1-3.2,3.1C294.5,23.4,293.1,22,293.1,20.2
			C293.1,20.2,293.1,20.2,293.1,20.2z M296.2,22.5c1.2-0.1,2.2-1.1,2.1-2.3c0,0,0,0,0,0c0.1-1.1-0.7-2.2-1.9-2.3
			c-1.1-0.1-2.2,0.7-2.3,1.9c0,0.1,0,0.3,0,0.4C294.1,21.3,295,22.4,296.2,22.5C296.2,22.5,296.2,22.5,296.2,22.5L296.2,22.5z"/>
		<path d="M67.9,65.1c-0.6,0.8-1.6,1.2-2.6,1.2c-2.3-0.1-4-2.1-4-4.3c-0.1-2.3,1.7-4.2,4-4.3c0,0,0,0,0,0c1.4-0.1,2.6,0.6,3.2,1.9
			l-0.8,0.6c-0.5-0.9-1.4-1.5-2.4-1.5c-1.7,0.1-3,1.6-2.9,3.3c0,0,0,0,0,0c-0.1,1.7,1.2,3.2,3,3.3c0,0,0,0,0,0c1,0,1.9-0.5,2.5-1.3
			v-1.2h-1.8V62h2.7v4.2h-0.9L67.9,65.1z"/>
		<path d="M69.8,64.4c0-1.2,1.1-2,2.6-2c0.6,0,1.2,0.1,1.8,0.3v-0.5c0.1-0.8-0.6-1.6-1.4-1.6c-0.1,0-0.2,0-0.3,0
			c-0.7,0-1.4,0.3-2,0.7l-0.3-0.7c0.7-0.5,1.6-0.8,2.5-0.8c1.3-0.1,2.5,0.8,2.6,2.1c0,0.1,0,0.3,0,0.4v2.6c0,0.3,0.1,0.4,0.3,0.4
			v0.9c-0.1,0-0.3,0-0.4,0c-0.4,0-0.8-0.2-0.8-0.6v-0.4c-0.6,0.8-1.4,1.2-2.4,1.2C70.9,66.4,69.9,65.6,69.8,64.4
			C69.8,64.5,69.8,64.4,69.8,64.4z M74,64.8c0.1-0.1,0.2-0.3,0.2-0.5v-0.9c-0.5-0.2-1-0.3-1.6-0.3c-1.1,0-1.8,0.5-1.8,1.2
			c0,0.7,0.6,1.3,1.4,1.2c0,0,0,0,0.1,0C72.9,65.5,73.5,65.3,74,64.8z"/>
		<path d="M77,58.8v-1.3h1v1.3H77z M77,66.2v-6.3h1v6.3H77z"/>
		<path d="M85.1,66.2h-1v-3.5c0-1.3-0.4-1.9-1.2-1.9c-1,0.1-1.8,0.7-2.1,1.6v3.8h-1v-6.3h1v1.3c0.5-0.9,1.5-1.5,2.6-1.5
			c1.4,0,1.9,1.1,1.9,2.6L85.1,66.2z"/>
		<path d="M86.3,63.1c0-1.7,1.3-3.2,3.1-3.2c0,0,0.1,0,0.1,0c1.7,0,3.1,1.4,3.1,3.1c0,0,0,0.1,0,0.1c0,0.1,0,0.3,0,0.4h-5.2
			c0,1.1,1,2.1,2.1,2.1c0.7,0,1.4-0.4,1.8-1l0.9,0.2c-0.5,1-1.6,1.6-2.7,1.6c-1.7,0-3.2-1.4-3.2-3.1C86.3,63.2,86.3,63.1,86.3,63.1z
			 M91.7,62.7c-0.1-1.1-1-2-2.1-2c-1.1,0-2.1,0.9-2.1,2H91.7z"/>
		<path d="M93.4,63.1c-0.1-1.7,1.1-3.1,2.7-3.2c0,0,0.1,0,0.1,0c0.9,0,1.8,0.5,2.3,1.4v-3.7h1.1v7.5c0,0.3,0.1,0.4,0.3,0.4v0.9
			c-0.1,0-0.3,0-0.4,0c-0.4,0-0.8-0.2-0.8-0.6c0,0,0,0,0,0V65c-0.5,0.8-1.4,1.3-2.3,1.3C94.7,66.2,93.4,64.8,93.4,63.1z M98.6,64
			v-1.8c-0.3-0.8-1.1-1.4-2-1.5c-1.2,0.1-2.1,1.2-2,2.3c0,1.2,0.9,2.3,2.1,2.3c0,0,0,0,0,0C97.6,65.4,98.3,64.8,98.6,64L98.6,64z"/>
		<path d="M103.9,64.4c0-1.2,1.1-2,2.6-2c0.6,0,1.2,0.1,1.8,0.3v-0.5c0.1-0.8-0.6-1.6-1.4-1.6c-0.1,0-0.2,0-0.3,0
			c-0.7,0-1.4,0.3-2,0.7l-0.3-0.7c0.7-0.5,1.6-0.8,2.4-0.8c1.3-0.1,2.5,0.8,2.6,2.1c0,0.1,0,0.3,0,0.4v2.6c0,0.3,0.1,0.4,0.3,0.4
			v0.9c-0.1,0-0.3,0-0.4,0c-0.4,0-0.7-0.2-0.8-0.6v-0.4c-0.6,0.7-1.4,1.2-2.4,1.2C105,66.3,104,65.5,103.9,64.4
			C103.9,64.4,103.9,64.4,103.9,64.4z M108.1,64.8c0.1-0.1,0.2-0.3,0.2-0.5v-0.9c-0.5-0.2-1-0.3-1.6-0.3c-1.1,0-1.8,0.5-1.8,1.2
			c0,0.7,0.6,1.3,1.3,1.2c0,0,0.1,0,0.1,0C107,65.5,107.6,65.3,108.1,64.8z"/>
		<path d="M117.8,57.6c1.3-0.1,2.6,0.7,3.2,1.9l-0.9,0.5c-0.4-0.9-1.4-1.5-2.4-1.4c-1.7,0.1-3,1.6-2.9,3.3c0,0,0,0,0,0.1
			c-0.1,1.8,1.2,3.3,3,3.4c0,0,0,0,0,0c1,0,2-0.6,2.4-1.5l0.9,0.5c-0.7,1.3-2,2-3.4,2c-2.3-0.1-4.1-2.1-4-4.4
			C113.7,59.6,115.5,57.7,117.8,57.6C117.8,57.6,117.8,57.6,117.8,57.6z"/>
		<path d="M121.9,63.1c0-1.8,1.3-3.2,3.1-3.2c0,0,0.1,0,0.1,0c1.7,0,3.1,1.4,3.1,3.1c0,0,0,0.1,0,0.1c0,0.1,0,0.3,0,0.4H123
			c0,1.2,1,2.1,2.1,2.1c0.7,0,1.4-0.4,1.8-1l0.9,0.2c-0.5,1-1.6,1.6-2.7,1.6c-1.8,0-3.2-1.4-3.2-3.2
			C121.9,63.1,121.9,63.1,121.9,63.1z M127.2,62.7c-0.1-1.1-1-2-2.1-2c-1.1,0-2,0.9-2.1,2H127.2z"/>
		<path d="M132.7,60.9c-1,0-1.9,0.6-2.2,1.5v3.9h-1.1v-6.3h1v1.5c0.3-0.8,1.1-1.4,2-1.5c0.1,0,0.2,0,0.4,0L132.7,60.9z"/>
		<path d="M137,65.9c-0.5,0.2-1,0.4-1.5,0.4c-0.7,0.1-1.3-0.4-1.4-1.1c0-0.1,0-0.1,0-0.2v-4.2h-0.9v-0.8h0.9v-2.1h1v2.1h1.4v0.8
			h-1.4v3.9c0,0.4,0.3,0.7,0.7,0.7c0,0,0,0,0.1,0c0.3,0,0.6-0.1,0.9-0.3L137,65.9z"/>
		<path d="M137.9,58.8v-1.3h1v1.3H137.9z M137.9,66.2v-6.3h1v6.3H137.9z"/>
		<path d="M141,61.5h-0.9v-0.8h0.9v-0.9c-0.1-1.3,0.9-2.4,2.1-2.5c0.1,0,0.1,0,0.2,0c0.7,0,1.4,0.2,2,0.6l-0.4,0.8
			c-0.4-0.3-0.9-0.5-1.4-0.5c-0.8,0-1.4,0.6-1.4,1.3c0,0.1,0,0.1,0,0.2v0.9h3.2v5.5h-1.1v-4.7H142v4.7h-1V61.5z"/>
		<path d="M149.7,59.8c1.1-0.1,2.1,0.5,2.6,1.5l-1,0.3c-0.3-0.6-1-0.9-1.6-0.9c-1.2,0-2.1,1-2.1,2.2c0,0,0,0.1,0,0.1
			c-0.1,1.2,0.9,2.3,2.1,2.4c0.7,0,1.3-0.4,1.7-1l1,0.3c-0.5,1-1.6,1.6-2.7,1.6c-1.8,0-3.2-1.4-3.2-3.2c0,0,0-0.1,0-0.1
			c0-1.7,1.3-3.2,3-3.2C149.6,59.8,149.6,59.8,149.7,59.8z"/>
		<path d="M153.1,64.4c0-1.2,1.1-2,2.6-2c0.6,0,1.2,0.1,1.8,0.3v-0.5c0.1-0.8-0.6-1.6-1.4-1.6c-0.1,0-0.2,0-0.3,0
			c-0.7,0-1.4,0.3-2,0.7l-0.4-0.7c0.7-0.5,1.6-0.8,2.5-0.8c1.3-0.1,2.5,0.8,2.6,2.1c0,0.1,0,0.3,0,0.4v2.6c0,0.3,0.1,0.4,0.3,0.4
			v0.9c-0.1,0-0.3,0-0.4,0c-0.4,0-0.8-0.2-0.8-0.6v-0.4c-0.6,0.7-1.4,1.2-2.4,1.2C154.1,66.3,153.2,65.5,153.1,64.4
			C153.1,64.4,153.1,64.4,153.1,64.4z M157.2,64.8c0.1-0.1,0.2-0.3,0.2-0.5v-0.9c-0.5-0.2-1-0.3-1.6-0.3c-1.1,0-1.8,0.5-1.8,1.2
			c0,0.7,0.6,1.3,1.4,1.2c0,0,0,0,0.1,0C156.1,65.5,156.8,65.3,157.2,64.8L157.2,64.8z"/>
		<path d="M163.4,65.9c-0.5,0.2-1,0.4-1.5,0.4c-0.7,0.1-1.3-0.4-1.4-1.1c0-0.1,0-0.1,0-0.2v-4.2h-0.9v-0.8h0.9v-2.1h1.1v2.1h1.4v0.8
			h-1.4v3.9c0,0.4,0.3,0.7,0.6,0.7c0,0,0,0,0.1,0c0.3,0,0.6-0.1,0.9-0.3L163.4,65.9z"/>
		<path d="M163.9,63.1c0-1.8,1.3-3.2,3.1-3.2c0,0,0.1,0,0.1,0c1.7,0,3.1,1.4,3.1,3.1c0,0,0,0.1,0,0.1c0,0.1,0,0.3,0,0.4H165
			c0,1.2,1,2.1,2.1,2.1c0.7,0,1.4-0.4,1.8-1l0.9,0.2c-0.5,1-1.6,1.6-2.7,1.6c-1.8,0-3.2-1.4-3.2-3.2
			C163.9,63.1,163.9,63.1,163.9,63.1z M169.2,62.7c-0.1-1.1-1-2-2.1-2c-1.1,0-2,0.9-2.1,2H169.2z"/>
		<path d="M174.6,66.2v-8.5h1.1v8.5H174.6z"/>
		<path d="M177.7,66.2v-8.5h1.1v8.5H177.7z"/>
		<path d="M180.8,66.2v-8.5h1.1v8.5H180.8z"/>
		<path d="M192.7,66.2l-0.9-0.9c-0.7,0.7-1.6,1-2.5,1c-1.4,0.1-2.6-0.9-2.7-2.3c0,0,0,0,0,0c0.1-1.1,0.7-2,1.7-2.5
			c-0.8-0.9-1.1-1.4-1.1-2c0-1.1,1-2,2.1-1.9c0,0,0.1,0,0.1,0c1-0.1,2,0.6,2.1,1.6c0,0,0,0.1,0,0.1c0,1-0.8,1.6-1.8,2.2l2.2,2.3
			c0.3-0.6,0.5-1.3,0.5-2h0.9c0,0.9-0.2,1.9-0.7,2.7l1.6,1.7L192.7,66.2z M191.2,64.7l-2.4-2.6c-0.7,0.4-1.2,1.1-1.3,1.9
			c0.1,0.9,0.9,1.6,1.8,1.5c0,0,0,0,0.1,0C190.1,65.5,190.7,65.2,191.2,64.7z M189,60.9c0.8-0.5,1.4-1,1.4-1.6c0-0.6-0.4-1-1-1
			c0,0-0.1,0-0.1,0c-0.6,0-1.2,0.4-1.2,1.1c0,0,0,0,0,0C188.1,59.8,188.2,60.1,189,60.9z"/>
		<path d="M198.2,66.2v-8.5h1.1v8.5H198.2z"/>
		<path d="M201.5,57.7l2.8,7.2l2.8-7.2h1.1l-3.5,8.5h-0.9l-3.5-8.5L201.5,57.7z"/>
		<path d="M211.8,58.8v-1.3h1.1v1.3H211.8z M211.8,66.2v-6.3h1.1v6.3H211.8z"/>
		<path d="M220,66.2h-1.1v-3.5c0-1.3-0.4-1.9-1.2-1.9c-1,0.1-1.8,0.7-2.1,1.6v3.8h-1.1v-6.3h1v1.3c0.5-0.9,1.5-1.5,2.6-1.5
			c1.4,0,1.9,1.1,1.9,2.6L220,66.2z"/>
		<path d="M224.8,66.2v-8.5h5.6v1h-4.6v2.8h3.8v0.9h-3.8v3.8H224.8z"/>
		<path d="M230.4,64.4c0-1.2,1.1-2,2.6-2c0.6,0,1.2,0.1,1.8,0.3v-0.5c0.1-0.8-0.6-1.6-1.4-1.6c-0.1,0-0.2,0-0.3,0
			c-0.7,0-1.4,0.3-2,0.7l-0.4-0.7c0.7-0.5,1.6-0.8,2.5-0.8c1.3-0.1,2.5,0.8,2.6,2.1c0,0.1,0,0.3,0,0.4v2.6c0,0.3,0.1,0.4,0.3,0.4
			v0.9c-0.1,0-0.3,0-0.4,0c-0.4,0-0.7-0.2-0.8-0.6v-0.4c-0.6,0.7-1.4,1.2-2.4,1.2C231.5,66.3,230.5,65.5,230.4,64.4
			C230.4,64.4,230.4,64.4,230.4,64.4z M234.6,64.8c0.1-0.1,0.2-0.3,0.2-0.5v-0.9c-0.5-0.2-1-0.3-1.6-0.3c-1.1,0-1.8,0.5-1.8,1.2
			c0,0.7,0.6,1.3,1.3,1.2c0,0,0.1,0,0.1,0C233.5,65.5,234.1,65.3,234.6,64.8z"/>
		<path d="M237,65.4l0.5-0.7c0.6,0.5,1.4,0.8,2.3,0.8c0.9,0,1.5-0.4,1.5-1s-0.6-0.8-1.8-1.1c-1.5-0.4-2.1-0.7-2.1-1.6
			c0-1.3,1.1-2,2.4-2c0.9,0,1.7,0.3,2.4,0.8l-0.5,0.6c-0.5-0.5-1.2-0.7-1.9-0.7c-0.8,0-1.4,0.3-1.4,1s0.4,0.7,1.5,1
			c1.7,0.4,2.5,0.7,2.5,1.8c0,1.1-1,1.9-2.5,1.9C238.8,66.3,237.8,66,237,65.4z"/>
		<path d="M248.9,66.2h-1.1v-3.5c0-1.3-0.5-1.9-1.3-1.9c-0.9,0.1-1.7,0.7-2,1.6v3.8h-1.1v-8.7h1.1v3.8c0.5-0.9,1.4-1.4,2.4-1.5
			c1.5,0,2,1.1,2,2.6L248.9,66.2z"/>
		<path d="M250.5,58.8v-1.3h1v1.3H250.5z M250.5,66.2v-6.3h1v6.3H250.5z"/>
		<path d="M252.8,63.1c0-1.7,1.5-3.1,3.2-3.1c1.7,0,3.1,1.5,3.1,3.2c0,1.7-1.4,3.1-3.1,3.1C254.3,66.3,252.8,64.9,252.8,63.1
			C252.8,63.1,252.8,63.1,252.8,63.1z M256,65.4c1.3,0.1,2.5-0.8,2.6-2.1c0.1-1.3-0.8-2.5-2.1-2.6c-1.3-0.1-2.5,0.8-2.6,2.1
			c0,0.1,0,0.2,0,0.3C253.9,64.3,254.8,65.3,256,65.4z"/>
		<path d="M265.8,66.2h-1.1v-3.5c0-1.3-0.4-1.9-1.2-1.9c-1,0.1-1.8,0.7-2.1,1.6v3.8h-1.1v-6.3h1v1.3c0.5-0.9,1.5-1.5,2.6-1.4
			c1.5,0,1.9,1.1,1.9,2.6L265.8,66.2z"/>
		<path d="M270.6,66.2v-8.5h3c2.2-0.1,4,1.5,4.1,3.7c0,0.2,0,0.4,0,0.6c0.2,2.2-1.4,4.1-3.6,4.3c-0.2,0-0.4,0-0.5,0H270.6z
			 M273.6,58.6h-1.9v6.6h1.9c2,0,3-1.4,3-3.3S275.5,58.7,273.6,58.6L273.6,58.6z"/>
		<path d="M278.7,63.1c0-1.8,1.3-3.2,3.1-3.2c0,0,0.1,0,0.1,0c1.7,0,3.1,1.4,3.1,3.1c0,0,0,0.1,0,0.1c0,0.1,0,0.3,0,0.4h-5.2
			c0,1.2,1,2.1,2.1,2.1c0.7,0,1.4-0.4,1.8-1l0.9,0.2c-0.5,1-1.6,1.6-2.7,1.6c-1.8,0-3.2-1.4-3.2-3.1
			C278.7,63.2,278.7,63.1,278.7,63.1z M284,62.7c-0.1-1.1-1-2-2.1-2c-1.1,0-2.1,0.9-2.1,2H284z"/>
		<path d="M285.6,65.4l0.5-0.7c0.6,0.5,1.4,0.8,2.3,0.8c0.9,0,1.5-0.4,1.5-1s-0.6-0.8-1.8-1.1c-1.5-0.4-2.1-0.7-2.1-1.6
			c0-1.3,1.1-2,2.4-2c0.9,0,1.7,0.3,2.4,0.8l-0.5,0.6c-0.5-0.5-1.2-0.7-1.9-0.7c-0.8,0-1.4,0.3-1.4,1s0.4,0.7,1.5,1
			c1.7,0.4,2.5,0.7,2.5,1.8c0,1.1-1,1.9-2.5,1.9C287.4,66.3,286.4,66,285.6,65.4z"/>
		<path d="M292.1,58.8v-1.3h1.1v1.3H292.1z M292.1,66.2v-6.3h1.1v6.3H292.1z"/>
		<path d="M294.4,63.1c-0.1-1.7,1.1-3.1,2.7-3.2c0.1,0,0.1,0,0.2,0c1,0,1.8,0.5,2.3,1.4v-1.3h0.9v6.2c0,1.8-1.4,2.8-3.2,2.8
			c-1.1,0.1-2.2-0.4-2.8-1.4l0.6-0.5c0.5,0.7,1.3,1.1,2.2,1.1c1,0.1,2-0.6,2.1-1.7c0-0.1,0-0.2,0-0.3V65c-0.5,0.8-1.3,1.2-2.2,1.2
			C295.6,66.2,294.3,64.8,294.4,63.1C294.4,63.1,294.4,63.1,294.4,63.1z M299.5,64v-1.8c-0.3-0.8-1.1-1.4-2-1.5
			c-1.2,0.1-2.1,1.2-2,2.4c0,1.2,0.9,2.3,2.1,2.3C298.5,65.4,299.3,64.8,299.5,64L299.5,64z"/>
		<path d="M307.7,66.2h-1.1v-3.5c0-1.3-0.4-1.9-1.2-1.9c-1,0.1-1.8,0.7-2.1,1.6v3.8h-1v-6.3h1v1.3c0.5-0.9,1.5-1.5,2.6-1.5
			c1.5,0,1.9,1.1,1.9,2.6L307.7,66.2z"/>
		<path d="M311.8,64.4c0-1.2,1.1-2,2.6-2c0.6,0,1.2,0.1,1.8,0.3v-0.5c0.1-0.8-0.6-1.6-1.4-1.6c-0.1,0-0.2,0-0.3,0
			c-0.7,0-1.4,0.3-2,0.7l-0.4-0.7c0.7-0.5,1.6-0.8,2.5-0.8c1.3-0.1,2.5,0.8,2.6,2.1c0,0.1,0,0.3,0,0.4v2.6c0,0.3,0.1,0.4,0.3,0.4
			v0.9c-0.1,0-0.3,0-0.4,0c-0.4,0-0.7-0.2-0.8-0.6v-0.4c-0.5,0.8-1.4,1.2-2.4,1.2c-1.1,0.1-2.1-0.7-2.2-1.8
			C311.8,64.5,311.8,64.4,311.8,64.4z M316,64.8c0.1-0.1,0.2-0.3,0.2-0.5v-0.9c-0.5-0.2-1-0.3-1.6-0.3c-1.1,0-1.8,0.5-1.8,1.2
			c0,0.7,0.6,1.3,1.3,1.2c0,0,0.1,0,0.1,0C314.9,65.5,315.5,65.3,316,64.8L316,64.8z"/>
		<path d="M324.4,66.2h-1.1v-3.5c0-1.3-0.4-1.9-1.2-1.9c-1,0.1-1.8,0.7-2.1,1.6v3.8h-1v-6.3h1v1.3c0.6-0.9,1.5-1.5,2.6-1.5
			c1.5,0,1.9,1.1,1.9,2.6L324.4,66.2z"/>
		<path d="M325.6,63.1c-0.1-1.7,1.1-3.1,2.7-3.2c0,0,0.1,0,0.1,0c0.9,0,1.8,0.5,2.3,1.4v-3.7h1.1v7.5c0,0.3,0.1,0.4,0.3,0.4v0.9
			c-0.1,0-0.3,0-0.4,0c-0.4,0-0.8-0.2-0.8-0.6c0,0,0,0,0,0V65c-0.5,0.8-1.4,1.3-2.3,1.3C326.9,66.2,325.6,64.8,325.6,63.1
			C325.6,63.1,325.6,63.1,325.6,63.1z M330.7,64v-1.8c-0.3-0.8-1.1-1.4-2-1.5c-1.2,0.1-2.1,1.1-2,2.3c0,1.2,0.9,2.3,2.1,2.3
			C329.7,65.4,330.5,64.8,330.7,64L330.7,64z"/>
		<path d="M62.6,79.4v1.2h-0.9v-8.8h1v3.7c0.5-0.8,1.4-1.4,2.3-1.4c1.7,0.1,2.9,1.5,2.8,3.2c0,0,0,0.1,0,0.1
			c0.1,1.7-1.2,3.1-2.9,3.2c0,0,0,0-0.1,0C63.9,80.7,63.1,80.2,62.6,79.4z M66.8,77.5c0.1-1.2-0.8-2.3-2.1-2.3
			c-0.9,0.1-1.7,0.6-2,1.5v1.8c0.3,0.8,1,1.4,1.9,1.4C65.9,79.8,66.8,78.7,66.8,77.5C66.8,77.5,66.8,77.5,66.8,77.5z"/>
		<path d="M68.7,77.5c0-1.8,1.3-3.2,3.1-3.2c0.1,0,0.1,0,0.2,0c1.7,0,3.1,1.4,3.1,3.1c0,0,0,0.1,0,0.1c0,0.1,0,0.3,0,0.4h-5.3
			c0,1.2,1,2.1,2.1,2.1c0.7,0,1.4-0.4,1.8-1l0.9,0.2c-0.5,1-1.6,1.6-2.7,1.6c-1.8,0-3.2-1.4-3.2-3.1C68.7,77.6,68.7,77.5,68.7,77.5z
			 M74.1,77.1c0-1.1-1-2-2.1-2.1c-1.1,0-2.1,0.9-2.1,2L74.1,77.1z"/>
		<path d="M75.8,77.5c-0.1-1.7,1.1-3.1,2.7-3.2c0.1,0,0.1,0,0.2,0c1,0,1.8,0.5,2.3,1.4v-1.3H82v6.2c0,1.8-1.4,2.8-3.2,2.8
			c-1.1,0.1-2.2-0.5-2.8-1.4l0.6-0.5c0.5,0.7,1.3,1.1,2.2,1.1c1,0.1,2-0.6,2.1-1.6c0-0.1,0-0.2,0-0.3v-1.1c-0.5,0.8-1.3,1.2-2.2,1.2
			c-1.7,0-3-1.4-2.9-3.1C75.8,77.6,75.8,77.5,75.8,77.5z M81,78.4v-1.8c-0.3-0.8-1.1-1.4-2-1.5c-1.2,0.1-2.1,1.2-2,2.4
			c0,1.2,0.9,2.3,2.1,2.3C80,79.8,80.7,79.2,81,78.4L81,78.4z"/>
		<path d="M83.2,78.8c0-1.2,1.1-2,2.6-2c0.6,0,1.2,0.1,1.8,0.3v-0.5c0-0.8-0.6-1.6-1.4-1.6c-0.1,0-0.1,0-0.2,0c-0.7,0-1.4,0.3-2,0.7
			l-0.3-0.7c0.7-0.5,1.6-0.8,2.5-0.8c1.3-0.1,2.5,0.8,2.6,2.1c0,0.1,0,0.3,0,0.4v2.6c0,0.3,0.1,0.4,0.3,0.4v0.9
			c-0.1,0-0.3,0-0.4,0.1c-0.4,0-0.7-0.2-0.8-0.6v-0.4c-0.6,0.7-1.5,1.2-2.4,1.2c-1.1,0.1-2.1-0.7-2.2-1.8
			C83.2,78.9,83.2,78.8,83.2,78.8z M87.4,79.2c0.1-0.1,0.2-0.3,0.2-0.5v-0.9c-0.5-0.2-1-0.3-1.6-0.3c-1.1,0-1.8,0.5-1.8,1.2
			c0,0.7,0.6,1.3,1.4,1.2c0,0,0,0,0.1,0C86.3,79.9,86.9,79.7,87.4,79.2z"/>
		<path d="M95.8,80.6h-1.1v-3.5c0-1.3-0.4-1.9-1.2-1.9c-1,0.1-1.8,0.7-2.1,1.6v3.8h-1v-6.3h1v1.3c0.5-0.9,1.5-1.5,2.6-1.4
			c1.4,0,1.9,1.1,1.9,2.6L95.8,80.6z"/>
		<path d="M99.9,79.8l0.5-0.7c0.6,0.5,1.4,0.8,2.3,0.8c0.9,0,1.5-0.4,1.5-1s-0.6-0.8-1.8-1.1c-1.5-0.4-2.2-0.7-2.2-1.6
			c0-1.3,1.1-2,2.4-2c0.9,0,1.7,0.3,2.3,0.8l-0.5,0.6c-0.5-0.5-1.2-0.7-1.9-0.7c-0.8,0-1.4,0.3-1.4,1s0.4,0.7,1.5,1
			c1.7,0.4,2.5,0.7,2.5,1.8s-1,1.9-2.5,1.9C101.6,80.7,100.7,80.4,99.9,79.8z"/>
		<path d="M109.6,80.3c-0.5,0.2-1,0.4-1.5,0.4c-0.7,0.1-1.3-0.4-1.4-1.1c0-0.1,0-0.1,0-0.2v-4.2h-0.8v-0.8h0.8v-2.1h1.1v2.1h1.4v0.8
			h-1.4V79c0,0.4,0.3,0.7,0.6,0.7c0,0,0,0,0.1,0c0.3,0,0.6-0.1,0.9-0.3L109.6,80.3z"/>
		<path d="M110.4,78.1v-3.8h1v3.6c0,1.3,0.4,1.9,1.3,1.9c0.9,0,1.8-0.7,2.1-1.6v-3.9h1v5c0,0.3,0.1,0.4,0.3,0.4v0.9
			c-0.1,0-0.3,0-0.4,0.1c-0.5,0-0.8-0.2-0.8-0.6v-0.8c-0.5,0.9-1.5,1.5-2.6,1.5C111.1,80.7,110.4,79.8,110.4,78.1z"/>
		<path d="M117.3,77.5c-0.1-1.7,1.1-3.1,2.7-3.2c0,0,0.1,0,0.1,0c0.9,0,1.8,0.5,2.3,1.4v-3.7h1.1v7.5c0,0.3,0.1,0.4,0.3,0.4v0.9
			c-0.1,0-0.3,0-0.4,0.1c-0.4,0-0.8-0.2-0.8-0.6c0,0,0,0,0,0v-0.6c-0.5,0.8-1.4,1.3-2.3,1.3C118.6,80.7,117.3,79.3,117.3,77.5
			C117.3,77.5,117.3,77.5,117.3,77.5z M122.4,78.4v-1.8c-0.3-0.8-1.1-1.4-2-1.5c-1.2,0.1-2.1,1.2-2,2.3c0,1.2,0.9,2.3,2.1,2.3
			c0,0,0,0,0,0C121.4,79.8,122.2,79.2,122.4,78.4z"/>
		<path d="M125.5,82.3h0.6c0.3,0,0.5-0.1,1.1-1.8l-2.7-6.3h1.1l2.1,5.3l1.9-5.3h1l-3.1,7.9c-0.2,0.7-0.9,1.1-1.6,1
			c-0.2,0-0.4,0-0.5-0.1L125.5,82.3z"/>
		<path d="M131.8,73.2v-1.3h1v1.3H131.8z M131.8,80.6v-6.3h1v6.3H131.8z"/>
		<path d="M139.9,80.6h-1v-3.5c0-1.3-0.4-1.9-1.2-1.9c-1,0.1-1.8,0.7-2.1,1.6v3.8h-1.1v-6.3h1v1.3c0.5-0.9,1.5-1.5,2.6-1.4
			c1.4,0,1.9,1.1,1.9,2.6L139.9,80.6z"/>
		<path d="M141.1,77.5c-0.1-1.7,1.1-3.1,2.7-3.2c0.1,0,0.1,0,0.2,0c1,0,1.8,0.5,2.3,1.4v-1.3h0.9v6.2c0,1.8-1.4,2.8-3.2,2.8
			c-1.1,0.1-2.2-0.4-2.8-1.4l0.6-0.5c0.5,0.7,1.3,1.1,2.2,1.1c1,0.1,2-0.6,2.1-1.7c0-0.1,0-0.2,0-0.3v-1.1c-0.5,0.8-1.3,1.2-2.2,1.2
			C142.3,80.6,141.1,79.2,141.1,77.5C141.1,77.5,141.1,77.5,141.1,77.5z M146.2,78.4v-1.8c-0.3-0.8-1.1-1.4-2-1.5
			c-1.2,0.1-2.1,1.1-2.1,2.3c0,0,0,0,0,0c0,1.2,0.9,2.3,2.1,2.3C145.2,79.8,146,79.2,146.2,78.4z"/>
		<path d="M158.2,79.4c-0.6,0.8-1.6,1.2-2.6,1.2c-2.3-0.1-4.1-2.1-4-4.3c-0.1-2.3,1.7-4.2,4-4.3c0,0,0,0,0,0
			c1.4-0.1,2.6,0.6,3.2,1.9l-0.8,0.6c-0.5-0.9-1.4-1.5-2.4-1.5c-1.7,0.1-3,1.6-2.9,3.3c0,0,0,0,0,0c-0.1,1.7,1.2,3.2,3,3.3
			c0,0,0,0,0,0c1,0,1.9-0.5,2.5-1.3v-1.2h-1.8v-0.8h2.8v4.2h-0.9L158.2,79.4z"/>
		<path d="M163.9,75.3c-1,0-1.9,0.6-2.2,1.5v3.9h-1.1v-6.3h1v1.4c0.3-0.8,1.1-1.4,2-1.5c0.1,0,0.2,0,0.4,0L163.9,75.3z"/>
		<path d="M164.4,78.8c0-1.2,1.1-2,2.6-2c0.6,0,1.2,0.1,1.8,0.3v-0.5c0.1-0.8-0.6-1.6-1.4-1.6c-0.1,0-0.2,0-0.3,0
			c-0.7,0-1.4,0.3-2,0.7l-0.3-0.7c0.7-0.5,1.6-0.8,2.4-0.8c1.3-0.1,2.5,0.8,2.6,2.1c0,0.1,0,0.3,0,0.4v2.6c0,0.3,0.1,0.4,0.3,0.4
			v0.9c-0.1,0-0.3,0-0.4,0.1c-0.4,0-0.7-0.2-0.8-0.6v-0.4c-0.6,0.7-1.4,1.2-2.4,1.2c-1.1,0.1-2.1-0.7-2.2-1.8
			C164.4,78.9,164.4,78.8,164.4,78.8z M168.5,79.2c0.1-0.1,0.2-0.3,0.2-0.5v-0.9c-0.5-0.2-1-0.3-1.6-0.3c-1.1,0-1.8,0.5-1.8,1.2
			c0,0.7,0.6,1.3,1.3,1.2c0,0,0.1,0,0.1,0C167.4,79.9,168.1,79.7,168.5,79.2z"/>
		<path d="M172.6,79.4v3.8h-1.1v-8.8h0.9v1.2c0.5-0.8,1.3-1.3,2.3-1.3c1.7,0.1,3.1,1.5,3,3.2c0,0,0,0,0,0c0.1,1.7-1.1,3.1-2.7,3.2
			c0,0-0.1,0-0.1,0C173.9,80.7,173,80.2,172.6,79.4z M176.6,77.5c0-1.2-0.9-2.3-2.1-2.3c-0.9,0-1.6,0.6-1.9,1.4v1.8
			c0.3,0.8,1.1,1.4,2,1.5C175.7,79.7,176.7,78.7,176.6,77.5C176.6,77.5,176.6,77.5,176.6,77.5L176.6,77.5z"/>
		<path d="M184.4,80.6h-1v-3.5c0-1.3-0.5-1.9-1.3-1.9c-0.9,0.1-1.7,0.7-2,1.6v3.8H179v-8.8h1v3.8c0.5-0.9,1.4-1.4,2.4-1.4
			c1.5,0,2,1.1,2,2.6L184.4,80.6z"/>
		<path d="M186,73.2v-1.3h1v1.3H186z M186,80.6v-6.3h1v6.3H186z"/>
		<path d="M191.5,74.2c1.1-0.1,2.1,0.5,2.6,1.5l-1,0.3c-0.3-0.6-1-0.9-1.6-0.9c-1.2,0-2.1,1.1-2.1,2.2c0,0,0,0,0,0.1
			c-0.1,1.2,0.9,2.3,2.1,2.3c0.7,0,1.4-0.4,1.7-1l1,0.3c-0.5,1-1.5,1.6-2.7,1.6c-1.8,0-3.2-1.4-3.2-3.2c0,0,0-0.1,0-0.1
			c0-1.7,1.3-3.2,3-3.2C191.4,74.2,191.4,74.2,191.5,74.2z"/>
		<path d="M198,77.5c-0.1-1.7,1.1-3.1,2.7-3.2c0,0,0.1,0,0.1,0c0.9,0,1.8,0.5,2.3,1.4v-3.7h1.1v7.5c0,0.3,0.1,0.4,0.3,0.4v0.9
			c-0.1,0-0.3,0-0.4,0.1c-0.4,0-0.8-0.2-0.8-0.6c0,0,0,0,0,0v-0.6c-0.5,0.8-1.4,1.3-2.3,1.3C199.3,80.7,197.9,79.2,198,77.5
			C198,77.5,198,77.5,198,77.5z M203.1,78.4v-1.8c-0.3-0.8-1.1-1.4-2-1.5c-1.2,0.1-2.1,1.2-2,2.3c0,1.2,0.9,2.3,2.1,2.3
			C202.1,79.8,202.8,79.2,203.1,78.4L203.1,78.4z"/>
		<path d="M205.5,77.5c0-1.8,1.3-3.2,3.1-3.2c0,0,0.1,0,0.1,0c1.7,0,3.1,1.4,3.1,3.1c0,0,0,0.1,0,0.1c0,0.1,0,0.3,0,0.4h-5.2
			c0,1.2,1,2.1,2.1,2.1c0.7,0,1.4-0.4,1.8-1l0.9,0.2c-0.5,1-1.6,1.6-2.7,1.6c-1.8,0-3.2-1.4-3.2-3.1
			C205.5,77.6,205.5,77.5,205.5,77.5z M210.9,77.1c-0.1-1.1-1-2-2.1-2c-1.1,0-2,0.9-2.1,2H210.9z"/>
		<path d="M212.5,79.8l0.5-0.7c0.6,0.5,1.4,0.8,2.3,0.8c0.9,0,1.5-0.4,1.5-1s-0.6-0.8-1.8-1.1c-1.5-0.4-2.1-0.7-2.1-1.6
			c0-1.3,1.1-2,2.4-2c0.9,0,1.7,0.3,2.4,0.8l-0.5,0.6c-0.5-0.5-1.2-0.7-1.9-0.7c-0.8,0-1.4,0.3-1.4,1s0.4,0.7,1.5,1
			c1.7,0.4,2.5,0.7,2.5,1.8s-1,1.9-2.5,1.9C214.3,80.7,213.3,80.4,212.5,79.8z"/>
		<path d="M218.9,73.2v-1.3h1.1v1.3H218.9z M218.9,80.6v-6.3h1.1v6.3H218.9z"/>
		<path d="M221.3,77.5c-0.1-1.7,1.1-3.1,2.7-3.2c0.1,0,0.1,0,0.2,0c1,0,1.8,0.5,2.3,1.4v-1.3h0.9v6.2c0,1.8-1.4,2.8-3.2,2.8
			c-1.1,0.1-2.2-0.4-2.8-1.4l0.6-0.5c0.5,0.7,1.3,1.1,2.2,1.1c1,0.1,2-0.6,2.1-1.7c0-0.1,0-0.2,0-0.3v-1.1c-0.5,0.8-1.3,1.2-2.2,1.2
			C222.5,80.6,221.2,79.2,221.3,77.5C221.3,77.5,221.3,77.5,221.3,77.5z M226.4,78.4v-1.8c-0.3-0.8-1.1-1.4-2-1.5
			c-1.2,0.1-2.1,1.2-2,2.4c0,1.2,0.9,2.3,2.1,2.3C225.4,79.8,226.1,79.2,226.4,78.4L226.4,78.4z"/>
		<path d="M234.5,80.6h-1.1v-3.5c0-1.3-0.4-1.9-1.2-1.9c-1,0.1-1.8,0.7-2.1,1.6v3.8h-1v-6.3h1v1.3c0.5-0.9,1.5-1.5,2.6-1.4
			c1.4,0,1.9,1.1,1.9,2.6L234.5,80.6z"/>
		<path d="M238.7,78.8c0-1.2,1.1-2,2.6-2c0.6,0,1.2,0.1,1.8,0.3v-0.5c0.1-0.8-0.6-1.6-1.4-1.6c-0.1,0-0.2,0-0.2,0
			c-0.7,0-1.4,0.3-2,0.7l-0.4-0.7c0.7-0.5,1.6-0.8,2.5-0.8c1.3-0.1,2.5,0.8,2.6,2.1c0,0.1,0,0.3,0,0.4v2.6c0,0.3,0.1,0.4,0.3,0.4
			v0.9c-0.1,0-0.3,0-0.4,0.1c-0.4,0-0.7-0.2-0.8-0.6v-0.4c-0.6,0.7-1.5,1.2-2.4,1.2C239.7,80.8,238.8,80,238.7,78.8
			C238.7,78.9,238.7,78.8,238.7,78.8z M242.8,79.2c0.1-0.1,0.2-0.3,0.2-0.5v-0.9c-0.5-0.2-1-0.3-1.6-0.3c-1.1,0-1.8,0.5-1.8,1.2
			c0,0.7,0.6,1.3,1.4,1.2c0,0,0,0,0.1,0C241.8,79.9,242.4,79.7,242.8,79.2z"/>
		<path d="M249,80.3c-0.5,0.2-1,0.4-1.5,0.4c-0.7,0.1-1.3-0.3-1.5-1c0-0.1,0-0.2,0-0.3v-4.2h-0.9v-0.8h0.9v-2.1h1.1v2.1h1.4v0.8
			h-1.4V79c0,0.4,0.3,0.6,0.6,0.7c0,0,0.1,0,0.1,0c0.3,0,0.6-0.1,0.9-0.3L249,80.3z"/>
		<path d="M258.9,73.1H256v7.5h-1.1v-7.5H252v-1h7L258.9,73.1z"/>
		<path d="M258.4,78.8c0-1.2,1.1-2,2.6-2c0.6,0,1.2,0.1,1.8,0.3v-0.5c0.1-0.8-0.6-1.6-1.4-1.6c-0.1,0-0.2,0-0.3,0
			c-0.7,0-1.4,0.3-2,0.7l-0.3-0.7c0.7-0.5,1.6-0.8,2.5-0.8c1.3-0.1,2.5,0.8,2.6,2.1c0,0.1,0,0.3,0,0.4v2.6c0,0.3,0.1,0.4,0.3,0.4
			v0.9c-0.1,0-0.3,0-0.4,0.1c-0.4,0-0.7-0.3-0.7-0.7v-0.4c-0.6,0.7-1.4,1.2-2.4,1.2c-1.1,0.1-2.1-0.6-2.2-1.7
			C258.4,78.9,258.4,78.9,258.4,78.8z M262.6,79.2c0.1-0.1,0.2-0.3,0.2-0.5v-0.9c-0.5-0.2-1-0.3-1.6-0.3c-1.1,0-1.8,0.5-1.8,1.2
			c0,0.7,0.6,1.3,1.3,1.2c0,0,0.1,0,0.1,0C261.5,79.9,262.1,79.7,262.6,79.2L262.6,79.2z"/>
		<path d="M265.9,80.6v-4.7H265v-0.8h0.9v-0.9c0-1.5,0.7-2.5,1.9-2.5c0.5,0,1,0.1,1.4,0.4l-0.3,0.8c-0.3-0.2-0.6-0.3-0.9-0.3
			c-0.7,0-1.1,0.6-1.1,1.5v0.9h1.7v0.8h-1.7v4.7L265.9,80.6z"/>
		<path d="M269.4,77.5c0-1.8,1.3-3.2,3.1-3.2c0,0,0.1,0,0.1,0c1.7,0,3.1,1.4,3.1,3.1c0,0,0,0.1,0,0.1c0,0.1,0,0.3,0,0.4h-5.2
			c0,1.2,1,2.1,2.1,2.1c0.7,0,1.4-0.4,1.8-1l0.9,0.2c-0.5,1-1.6,1.6-2.7,1.6c-1.8,0-3.2-1.4-3.2-3.1
			C269.4,77.6,269.4,77.5,269.4,77.5z M274.7,77.1c-0.1-1.1-1-2-2.1-2c-1.1,0-2.1,0.9-2.1,2H274.7z"/>
		<path d="M276.6,80.8c0.1,0,0.3-0.1,0.3-0.2c0,0,0,0,0,0v-1.2h0.9v1.4c0,0.7-0.6,0.9-1.2,0.9L276.6,80.8z"/>
		<path d="M282.6,80.6v-8.5h1.1v4.7l4.4-4.7h1.2l-3.4,3.8l3.6,4.8h-1.2l-3.1-4.1l-1.5,1.5v2.6H282.6z"/>
		<path d="M290.2,73.2v-1.3h1v1.3H290.2z M290.2,80.6v-6.3h1v6.3H290.2z"/>
		<path d="M298.4,80.6h-1v-3.5c0-1.3-0.4-1.9-1.2-1.9c-1,0.1-1.8,0.7-2.1,1.6v3.8h-1v-6.3h1v1.3c0.5-0.9,1.5-1.5,2.6-1.4
			c1.5,0,1.9,1.1,1.9,2.6L298.4,80.6z"/>
		<path d="M299.6,77.5c-0.1-1.7,1.1-3.1,2.7-3.2c0.1,0,0.1,0,0.2,0c1,0,1.8,0.5,2.3,1.4v-1.3h0.9v6.2c0,1.8-1.4,2.8-3.2,2.8
			c-1.1,0.1-2.2-0.4-2.9-1.4l0.6-0.5c0.5,0.7,1.4,1.1,2.2,1.1c1,0.1,2-0.6,2.1-1.7c0-0.1,0-0.2,0-0.3v-1.1c-0.5,0.8-1.3,1.2-2.2,1.2
			C300.8,80.6,299.5,79.2,299.6,77.5C299.6,77.5,299.6,77.5,299.6,77.5z M304.7,78.4v-1.8c-0.3-0.8-1.1-1.4-2-1.5
			c-1.3,0.1-2.2,1.3-2.1,2.6c0.1,1.1,1,2,2.2,2.1C303.7,79.8,304.4,79.2,304.7,78.4L304.7,78.4z"/>
		<path d="M306.9,79.8l0.5-0.7c0.6,0.5,1.4,0.8,2.3,0.8c0.9,0,1.5-0.4,1.5-1s-0.6-0.8-1.8-1.1c-1.5-0.4-2.1-0.7-2.1-1.6
			c0-1.3,1.1-2,2.4-2c0.9,0,1.7,0.3,2.4,0.8l-0.5,0.6c-0.5-0.5-1.2-0.7-1.9-0.7c-0.8,0-1.4,0.3-1.4,1s0.4,0.7,1.5,1
			c1.7,0.4,2.5,0.7,2.5,1.8s-1,1.9-2.5,1.9C308.7,80.7,307.7,80.4,306.9,79.8z"/>
		<path d="M321.1,74.3h1l-2.7,6.3h-0.9l-1.3-3.1l-1.2,3.1h-0.9l-2.7-6.3h1l2.2,5.2l1.1-2.6l-1.1-2.6h0.9l0.8,2l0.8-2h0.9l-1.1,2.7
			l1,2.6L321.1,74.3z"/>
		<path d="M322.5,77.5c0-1.7,1.5-3.1,3.2-3.1c1.7,0,3.1,1.5,3.1,3.2c0,1.7-1.5,3.1-3.2,3.1C323.9,80.7,322.5,79.3,322.5,77.5
			C322.5,77.5,322.5,77.5,322.5,77.5z M325.6,79.8c1.3,0.2,2.5-0.8,2.6-2.1c0.2-1.3-0.8-2.5-2.1-2.6s-2.5,0.8-2.6,2.1
			c0,0.1,0,0.2,0,0.3C323.5,78.7,324.4,79.7,325.6,79.8C325.6,79.8,325.6,79.8,325.6,79.8z"/>
		<path d="M329.6,77.5c0-1.7,1.5-3.1,3.2-3.1c1.7,0,3.1,1.5,3.1,3.2c0,1.7-1.5,3.1-3.2,3.1C331.1,80.7,329.6,79.3,329.6,77.5
			C329.6,77.5,329.6,77.5,329.6,77.5z M332.8,79.8c1.3,0.1,2.5-0.8,2.6-2.1c0.1-1.3-0.8-2.5-2.1-2.6s-2.5,0.8-2.6,2.1
			c0,0.1,0,0.2,0,0.3C330.7,78.7,331.6,79.7,332.8,79.8C332.8,79.8,332.8,79.8,332.8,79.8z"/>
		<path d="M336.8,77.5c-0.1-1.7,1.1-3.1,2.7-3.2c0,0,0.1,0,0.1,0c1,0,1.9,0.5,2.3,1.4v-3.7h1v7.5c0,0.3,0.1,0.4,0.3,0.4v0.9
			c-0.1,0-0.3,0-0.4,0.1c-0.4,0-0.8-0.2-0.8-0.6v-0.6c-0.5,0.8-1.4,1.3-2.3,1.3C338.1,80.7,336.8,79.2,336.8,77.5
			C336.8,77.5,336.8,77.5,336.8,77.5z M342,78.4v-1.8c-0.3-0.8-1.1-1.4-2-1.5c-1.2,0.1-2.1,1.2-2,2.3c0,1.2,0.9,2.3,2.1,2.3
			C341,79.8,341.7,79.2,342,78.4L342,78.4z"/>
		<path d="M67.9,122.4c-0.6,0.8-1.6,1.2-2.6,1.2c-2.3-0.1-4-2.1-4-4.3c-0.1-2.3,1.7-4.2,4-4.3c0,0,0,0,0,0c1.4-0.1,2.6,0.6,3.2,1.9
			l-0.8,0.6c-0.5-0.9-1.4-1.5-2.4-1.5c-1.7,0.1-3,1.6-2.9,3.3c0,0,0,0,0,0c-0.2,1.6,1,3.1,2.7,3.3c1.1,0.1,2.2-0.4,2.8-1.3v-1.2
			h-1.8v-0.8h2.7v4.2h-0.9L67.9,122.4z"/>
		<path d="M69.8,121.7c0-1.2,1.1-2,2.6-2c0.6,0,1.2,0.1,1.8,0.3v-0.5c0.1-0.8-0.6-1.6-1.4-1.6c-0.1,0-0.2,0-0.3,0
			c-0.7,0-1.4,0.3-2,0.7l-0.3-0.7c0.7-0.5,1.6-0.8,2.5-0.8c1.3-0.1,2.5,0.8,2.6,2.1c0,0.1,0,0.3,0,0.4v2.6c0,0.3,0.1,0.4,0.3,0.4
			v0.9c-0.2,0-0.3,0-0.4,0c-0.4,0-0.8-0.2-0.8-0.6v-0.4c-0.6,0.8-1.4,1.2-2.4,1.2C70.9,123.7,69.9,122.9,69.8,121.7
			C69.8,121.8,69.8,121.8,69.8,121.7z M74,122.1c0.1-0.1,0.2-0.3,0.2-0.5v-0.9c-0.5-0.2-1-0.3-1.6-0.3c-1.1,0-1.8,0.5-1.8,1.2
			c0,0.7,0.6,1.3,1.3,1.2c0,0,0.1,0,0.1,0C72.9,122.9,73.5,122.6,74,122.1z"/>
		<path d="M77,116.1v-1.3h1v1.3H77z M77,123.5v-6.3h1v6.3H77z"/>
		<path d="M85.1,123.5h-1V120c0-1.3-0.4-1.9-1.2-1.9c-1,0.1-1.8,0.7-2.1,1.6v3.8h-1v-6.3h1v1.3c0.5-0.9,1.5-1.5,2.6-1.4
			c1.4,0,1.9,1.1,1.9,2.6L85.1,123.5z"/>
		<path d="M86.3,120.4c0-1.7,1.3-3.2,3.1-3.2c0,0,0.1,0,0.1,0c1.7,0,3.1,1.4,3.1,3.1c0,0,0,0.1,0,0.1c0,0.1,0,0.3,0,0.4h-5.2
			c0,1.1,1,2.1,2.1,2.1c0.7,0,1.4-0.4,1.8-1l0.9,0.3c-0.5,1-1.6,1.6-2.7,1.6c-1.7,0-3.2-1.4-3.2-3.1
			C86.3,120.5,86.3,120.5,86.3,120.4z M91.7,120c-0.1-1.1-1-2-2.1-2c-1.1,0-2.1,0.9-2.1,2H91.7z"/>
		<path d="M93.4,120.4c-0.1-1.7,1.1-3.1,2.7-3.2c0,0,0.1,0,0.1,0c0.9,0,1.8,0.5,2.3,1.4v-3.8h1.1v7.5c0,0.3,0.1,0.4,0.3,0.4v0.9
			c-0.2,0-0.3,0-0.4,0c-0.4,0-0.8-0.2-0.8-0.6c0,0,0,0,0,0v-0.6c-0.5,0.8-1.4,1.3-2.3,1.3C94.7,123.5,93.4,122.1,93.4,120.4z
			 M98.6,121.3v-1.8c-0.3-0.8-1.1-1.4-2-1.5c-1.2,0.1-2.1,1.2-2,2.3c-0.1,1.2,0.9,2.3,2.1,2.3c0,0,0,0,0,0
			C97.6,122.7,98.3,122.1,98.6,121.3z"/>
		<path d="M103.9,121.7c0-1.2,1.1-2,2.6-2c0.6,0,1.2,0.1,1.8,0.3v-0.5c0.1-0.8-0.5-1.6-1.4-1.6c-0.1,0-0.2,0-0.3,0
			c-0.7,0-1.4,0.3-2,0.7l-0.3-0.7c0.7-0.5,1.6-0.8,2.4-0.8c1.3-0.1,2.5,0.8,2.6,2.1c0,0.1,0,0.3,0,0.4v2.6c0,0.3,0.1,0.4,0.3,0.4
			v0.9c-0.1,0-0.3,0-0.4,0c-0.4,0-0.7-0.2-0.8-0.6v-0.4c-0.6,0.7-1.4,1.2-2.4,1.2C105,123.7,104,122.9,103.9,121.7
			C103.9,121.8,103.9,121.7,103.9,121.7z M108.1,122.1c0.1-0.1,0.2-0.3,0.2-0.5v-0.9c-0.5-0.2-1-0.3-1.6-0.3c-1.1,0-1.8,0.5-1.8,1.2
			c0,0.7,0.6,1.3,1.3,1.2c0,0,0.1,0,0.1,0C107,122.9,107.6,122.6,108.1,122.1z"/>
		<path d="M114.3,123.5V115h3c2.4,0,4.3,1.9,4.3,4.3s-1.9,4.3-4.3,4.3L114.3,123.5z M117.3,116h-1.9v6.6h1.9c2,0,3-1.4,3-3.3
			S119.2,116,117.3,116L117.3,116z"/>
		<path d="M122.7,116.1v-1.3h1.1v1.3H122.7z M122.7,123.5v-6.3h1.1v6.3H122.7z"/>
		<path d="M126.5,122.3v3.8h-1v-8.8h0.9v1.2c0.5-0.8,1.4-1.3,2.3-1.3c1.7,0.1,3.1,1.5,3,3.2c0,0,0,0,0,0c0.1,1.7-1.1,3.1-2.7,3.2
			c0,0,0,0-0.1,0C127.9,123.7,127,123.2,126.5,122.3z M130.5,120.4c0.1-1.2-0.9-2.3-2.1-2.3c-0.9,0-1.6,0.6-1.9,1.4v1.8
			c0.3,0.8,1.1,1.4,2,1.5C129.6,122.7,130.6,121.6,130.5,120.4C130.5,120.4,130.5,120.4,130.5,120.4L130.5,120.4z"/>
		<path d="M132.9,114.8h1.1v7.1c0,0.4,0.2,0.7,0.6,0.7c0,0,0.1,0,0.1,0c0.2,0,0.4-0.1,0.6-0.1l0.2,0.8c-0.4,0.2-0.8,0.2-1.3,0.2
			c-0.7,0.1-1.3-0.4-1.3-1.1c0-0.1,0-0.2,0-0.2L132.9,114.8z"/>
		<path d="M135.8,120.4c0-1.7,1.5-3.1,3.2-3.1c1.7,0,3.1,1.5,3.1,3.2c0,1.7-1.5,3.1-3.2,3.1C137.2,123.7,135.8,122.2,135.8,120.4
			C135.8,120.5,135.8,120.4,135.8,120.4z M138.9,122.7c1.3,0.2,2.5-0.8,2.6-2.1c0.2-1.3-0.8-2.5-2.1-2.6c-1.3-0.2-2.5,0.8-2.6,2.1
			c0,0.1,0,0.2,0,0.3C136.8,121.6,137.7,122.7,138.9,122.7C138.9,122.7,138.9,122.7,138.9,122.7L138.9,122.7z"/>
		<path d="M152.8,123.5h-1.1V120c0-1.3-0.4-1.9-1.3-1.9c-0.9,0.1-1.7,0.7-1.9,1.7v3.8h-1V120c0-1.3-0.4-1.9-1.2-1.9
			c-0.9,0.1-1.7,0.7-1.9,1.6v3.8h-1v-6.3h1v1.3c0.4-0.9,1.4-1.5,2.4-1.4c0.9-0.1,1.7,0.6,1.8,1.5c0.4-0.9,1.4-1.5,2.4-1.5
			c1.4,0,1.9,1.1,1.9,2.6L152.8,123.5z"/>
		<path d="M153.9,121.7c0-1.2,1.1-2,2.6-2c0.6,0,1.2,0.1,1.8,0.3v-0.5c0.1-0.8-0.5-1.6-1.4-1.6c-0.1,0-0.2,0-0.3,0
			c-0.7,0-1.4,0.3-2,0.7l-0.3-0.7c0.7-0.5,1.6-0.8,2.4-0.8c1.3-0.1,2.5,0.8,2.6,2.1c0,0.1,0,0.3,0,0.4v2.6c0,0.3,0.1,0.4,0.3,0.4
			v0.9c-0.1,0-0.3,0-0.4,0c-0.4,0-0.7-0.2-0.8-0.6v-0.4c-0.6,0.7-1.4,1.2-2.4,1.2C155,123.7,154,122.9,153.9,121.7
			C153.9,121.8,153.9,121.7,153.9,121.7z M158.1,122.1c0.1-0.1,0.2-0.3,0.2-0.5v-0.9c-0.5-0.2-1-0.3-1.6-0.3c-1.1,0-1.8,0.5-1.8,1.2
			c0,0.7,0.6,1.3,1.3,1.2c0,0,0,0,0.1,0C157,122.9,157.6,122.6,158.1,122.1z"/>
		<path d="M164.1,116.1v-1.3h1.1v1.3H164.1z M164.1,123.5v-6.3h1.1v6.3H164.1z"/>
		<path d="M172.2,123.5h-1.1V120c0-1.3-0.4-1.9-1.2-1.9c-1,0.1-1.8,0.7-2.1,1.6v3.8h-1.1v-6.3h1v1.3c0.5-0.9,1.5-1.5,2.6-1.4
			c1.4,0,1.9,1.1,1.9,2.6L172.2,123.5z"/>
		<path d="M183.1,122.4c-0.6,0.8-1.6,1.2-2.6,1.2c-2.3-0.1-4.1-2.1-4-4.3c-0.1-2.3,1.7-4.2,4-4.3c0,0,0,0,0,0
			c1.4-0.1,2.6,0.6,3.2,1.9l-0.8,0.6c-0.5-0.9-1.4-1.5-2.4-1.5c-1.7,0.1-3,1.6-2.9,3.3c0,0,0,0,0,0c-0.1,1.7,1.2,3.2,3,3.3
			c0,0,0,0,0,0c1,0,1.9-0.5,2.5-1.3v-1.2h-1.8v-0.8h2.7v4.2h-0.9L183.1,122.4z"/>
		<path d="M188.8,118.2c-1,0-1.9,0.6-2.3,1.5v3.9h-1.1v-6.3h1v1.4c0.3-0.8,1.1-1.4,2-1.5h0.4L188.8,118.2z"/>
		<path d="M189.2,121.7c0-1.2,1.1-2,2.6-2c0.6,0,1.2,0.1,1.8,0.3v-0.5c0.1-0.8-0.5-1.6-1.4-1.6c-0.1,0-0.2,0-0.3,0
			c-0.7,0-1.4,0.3-2,0.7l-0.4-0.7c0.7-0.5,1.6-0.8,2.5-0.8c1.3-0.1,2.5,0.8,2.6,2.1c0,0.1,0,0.3,0,0.4v2.6c0,0.3,0.1,0.4,0.3,0.4
			v0.9c-0.1,0-0.3,0-0.4,0c-0.4,0-0.7-0.2-0.8-0.6v-0.4c-0.6,0.7-1.5,1.1-2.4,1.2C190.3,123.7,189.3,122.9,189.2,121.7
			C189.2,121.7,189.2,121.7,189.2,121.7z M193.4,122.1c0.1-0.1,0.2-0.3,0.2-0.5v-0.9c-0.5-0.2-1-0.3-1.6-0.3c-1.1,0-1.8,0.5-1.8,1.2
			c0,0.7,0.6,1.3,1.3,1.2c0,0,0.1,0,0.1,0C192.3,122.9,192.9,122.6,193.4,122.1z"/>
		<path d="M197.4,122.3v3.8h-1.1v-8.8h0.9v1.2c0.5-0.8,1.4-1.3,2.3-1.3c1.7,0.1,3.1,1.5,3,3.2c0,0,0,0,0,0c0.1,1.7-1.1,3.1-2.7,3.2
			c0,0,0,0-0.1,0C198.8,123.7,197.9,123.1,197.4,122.3z M201.4,120.4c0.1-1.2-0.9-2.3-2.1-2.3c-0.9,0-1.6,0.6-1.9,1.4v1.8
			c0.3,0.8,1.1,1.4,2,1.5C200.6,122.7,201.5,121.6,201.4,120.4C201.5,120.4,201.5,120.4,201.4,120.4L201.4,120.4z"/>
		<path d="M209.3,123.5h-1.1V120c0-1.3-0.5-1.9-1.3-1.9c-0.9,0.1-1.7,0.7-2,1.6v3.8h-1v-8.8h1v3.8c0.5-0.9,1.4-1.4,2.4-1.4
			c1.5,0,2,1.1,2,2.6L209.3,123.5z"/>
		<path d="M210.9,116.1v-1.3h1v1.3H210.9z M210.9,123.5v-6.3h1v6.3H210.9z"/>
		<path d="M216.4,117.2c1.1-0.1,2.1,0.5,2.6,1.5l-1,0.3c-0.3-0.6-1-1-1.6-0.9c-1.2,0-2.1,1.1-2.1,2.3c0,0,0,0,0,0.1
			c-0.1,1.2,0.9,2.3,2.1,2.3c0.7,0,1.3-0.4,1.7-1l1,0.3c-0.5,1-1.6,1.6-2.7,1.6c-1.8,0-3.2-1.4-3.2-3.2c0,0,0-0.1,0-0.1
			c0-1.7,1.3-3.2,3-3.2C216.3,117.2,216.3,117.2,216.4,117.2z"/>
		<path d="M222.8,120.4c-0.1-1.7,1.1-3.1,2.7-3.2c0,0,0.1,0,0.1,0c0.9,0,1.8,0.5,2.3,1.4v-3.8h1v7.5c0,0.3,0.1,0.4,0.3,0.4v0.9
			c-0.2,0-0.3,0-0.4,0c-0.4,0-0.8-0.2-0.8-0.6c0,0,0,0,0,0v-0.6c-0.5,0.8-1.4,1.3-2.3,1.3C224.1,123.5,222.8,122.1,222.8,120.4z
			 M228,121.3v-1.8c-0.3-0.8-1.1-1.4-2-1.5c-1.2,0.1-2.1,1.2-2,2.3c-0.1,1.2,0.9,2.3,2.1,2.3c0,0,0,0,0,0
			C227,122.7,227.7,122.1,228,121.3L228,121.3z"/>
		<path d="M230.4,120.4c0-1.8,1.3-3.2,3.1-3.2c0,0,0.1,0,0.1,0c1.7,0,3.1,1.4,3.1,3.1c0,0,0,0.1,0,0.1c0,0.1,0,0.3,0,0.4h-5.2
			c0,1.1,1,2.1,2.1,2.1c0.7,0,1.4-0.4,1.8-1l0.9,0.3c-0.5,1-1.6,1.6-2.7,1.6c-1.7,0-3.2-1.4-3.2-3.1
			C230.4,120.5,230.4,120.5,230.4,120.4z M235.7,120c-0.1-1.1-1-2-2.1-2c-1.1,0-2.1,0.9-2.1,2H235.7z"/>
		<path d="M237.4,122.7l0.4-0.7c0.6,0.5,1.4,0.8,2.3,0.8c0.9,0,1.5-0.4,1.5-1s-0.6-0.8-1.8-1.1c-1.5-0.4-2.1-0.7-2.1-1.7
			c0-1.3,1.1-1.9,2.4-1.9c0.9,0,1.7,0.3,2.4,0.8l-0.5,0.6c-0.5-0.4-1.2-0.7-1.9-0.7c-0.8,0-1.4,0.3-1.4,1s0.4,0.7,1.5,1
			c1.7,0.4,2.5,0.7,2.5,1.8s-1,1.9-2.5,1.9C239.1,123.7,238.2,123.4,237.4,122.7z"/>
		<path d="M243.8,116.1v-1.3h1.1v1.3H243.8z M243.8,123.5v-6.3h1.1v6.3H243.8z"/>
		<path d="M246.1,120.4c-0.1-1.7,1.1-3.1,2.7-3.2c0.1,0,0.1,0,0.2,0c1,0,1.8,0.5,2.3,1.4v-1.2h0.9v6.2c0,1.8-1.4,2.7-3.2,2.7
			c-1.1,0.1-2.2-0.4-2.8-1.4l0.6-0.5c0.5,0.7,1.3,1.1,2.2,1.1c1,0.1,2-0.6,2.1-1.7c0-0.1,0-0.2,0-0.3v-1.1c-0.5,0.8-1.3,1.3-2.3,1.2
			C247.3,123.5,246.1,122.1,246.1,120.4C246.1,120.4,246.1,120.4,246.1,120.4z M251.3,121.3v-1.8c-0.3-0.8-1.1-1.4-2-1.5
			c-1.3,0.2-2.2,1.3-2,2.6c0.1,1.1,1,1.9,2.1,2C250.2,122.7,251,122.2,251.3,121.3z"/>
		<path d="M259.4,123.5h-1.1V120c0-1.3-0.4-1.9-1.2-1.9c-1,0.1-1.8,0.7-2.1,1.6v3.8h-1v-6.3h1v1.3c0.6-0.9,1.5-1.5,2.6-1.4
			c1.5,0,1.9,1.1,1.9,2.6L259.4,123.5z"/>
		<path d="M263.5,121.7c0-1.2,1.1-2,2.6-2c0.6,0,1.2,0.1,1.8,0.3v-0.5c0.1-0.8-0.5-1.6-1.4-1.6c-0.1,0-0.2,0-0.3,0
			c-0.7,0-1.4,0.3-2,0.7L264,118c0.7-0.5,1.6-0.8,2.5-0.8c1.3-0.1,2.5,0.8,2.6,2.1c0,0.1,0,0.3,0,0.4v2.6c0,0.3,0.1,0.4,0.3,0.4v0.9
			c-0.1,0-0.3,0-0.4,0c-0.4,0-0.7-0.2-0.8-0.6v-0.4c-0.6,0.7-1.4,1.2-2.4,1.2c-1.1,0.1-2.1-0.6-2.2-1.7
			C263.6,121.8,263.6,121.8,263.5,121.7z M267.7,122.1c0.1-0.1,0.2-0.3,0.2-0.5v-0.9c-0.5-0.2-1-0.3-1.6-0.3c-1.1,0-1.8,0.5-1.8,1.2
			c0,0.7,0.6,1.3,1.3,1.2c0,0,0.1,0,0.1,0C266.6,122.9,267.3,122.6,267.7,122.1z"/>
		<path d="M276.1,123.5h-1V120c0-1.3-0.4-1.9-1.2-1.9c-1,0.1-1.8,0.7-2.1,1.6v3.8h-1.1v-6.3h1v1.3c0.5-0.9,1.5-1.5,2.6-1.4
			c1.5,0,1.9,1.1,1.9,2.6L276.1,123.5z"/>
		<path d="M277.3,120.4c-0.1-1.7,1.1-3.1,2.7-3.2c0,0,0.1,0,0.1,0c0.9,0,1.8,0.5,2.3,1.4v-3.8h1.1v7.5c0,0.3,0.1,0.4,0.3,0.4v0.9
			c-0.2,0-0.3,0-0.4,0c-0.4,0-0.8-0.2-0.8-0.6c0,0,0,0,0,0v-0.6c-0.5,0.8-1.4,1.3-2.3,1.3C278.6,123.6,277.3,122.1,277.3,120.4
			C277.3,120.4,277.3,120.4,277.3,120.4z M282.5,121.3v-1.8c-0.3-0.8-1.1-1.4-2-1.5c-1.2,0.1-2.1,1.1-2.1,2.3c0,0,0,0,0,0
			c-0.1,1.2,0.9,2.3,2.1,2.3c0,0,0,0,0,0C281.4,122.7,282.2,122.1,282.5,121.3z"/>
		<path d="M289.2,122.3v1.2h-0.9v-8.8h1v3.8c0.5-0.8,1.4-1.4,2.3-1.4c1.7,0.1,2.9,1.5,2.8,3.2c0,0,0,0.1,0,0.1
			c0.1,1.7-1.2,3.1-2.9,3.2c0,0,0,0-0.1,0C290.6,123.6,289.7,123.1,289.2,122.3z M293.4,120.4c0.1-1.2-0.8-2.3-2-2.3
			c-0.9,0.1-1.7,0.6-2,1.5v1.8c0.3,0.8,1,1.4,1.9,1.4C292.5,122.7,293.5,121.7,293.4,120.4C293.4,120.4,293.4,120.4,293.4,120.4z"/>
		<path d="M295.4,120.4c0-1.8,1.3-3.2,3.1-3.2c0,0,0.1,0,0.1,0c1.7,0,3.1,1.4,3.1,3.1c0,0,0,0.1,0,0.1c0,0.1,0,0.3,0,0.4h-5.2
			c0,1.1,1,2.1,2.1,2.1c0.7,0,1.4-0.4,1.8-1l0.9,0.3c-0.5,1-1.6,1.6-2.7,1.6c-1.8,0-3.2-1.4-3.2-3.1
			C295.4,120.5,295.4,120.5,295.4,120.4z M300.7,120c-0.1-1.1-1-2-2.1-2c-1.1,0-2.1,0.9-2.1,2H300.7z"/>
		<path d="M302.5,120.4c-0.1-1.7,1.1-3.1,2.7-3.2c0.1,0,0.1,0,0.2,0c1,0,1.8,0.5,2.3,1.4v-1.2h0.9v6.2c0,1.8-1.4,2.7-3.2,2.7
			c-1.1,0.1-2.2-0.4-2.8-1.4l0.6-0.5c0.5,0.7,1.3,1.1,2.2,1.1c1,0.1,2-0.6,2.1-1.7c0-0.1,0-0.2,0-0.3v-1.1c-0.5,0.8-1.3,1.2-2.2,1.2
			C303.7,123.5,302.4,122.2,302.5,120.4C302.5,120.5,302.5,120.4,302.5,120.4z M307.6,121.3v-1.8c-0.3-0.8-1.1-1.4-2-1.5
			c-1.3,0.2-2.2,1.3-2,2.6c0.1,1.1,1,1.9,2.1,2C306.6,122.7,307.3,122.2,307.6,121.3z"/>
		<path d="M309.8,121.7c0-1.2,1.1-2,2.6-2c0.6,0,1.2,0.1,1.8,0.3v-0.5c0.1-0.8-0.5-1.6-1.4-1.6c-0.1,0-0.2,0-0.3,0
			c-0.7,0-1.4,0.3-2,0.7l-0.4-0.7c0.7-0.5,1.6-0.8,2.5-0.8c1.3-0.1,2.5,0.8,2.6,2.1c0,0.1,0,0.3,0,0.4v2.6c0,0.3,0.1,0.4,0.3,0.4
			v0.9c-0.1,0-0.3,0-0.4,0c-0.4,0-0.7-0.2-0.8-0.6v-0.4c-0.6,0.7-1.5,1.1-2.4,1.2C310.9,123.7,309.9,122.9,309.8,121.7
			C309.8,121.7,309.8,121.7,309.8,121.7z M314,122.1c0.1-0.1,0.2-0.3,0.2-0.5v-0.9c-0.5-0.2-1-0.3-1.6-0.3c-1.1,0-1.8,0.5-1.8,1.2
			c0,0.7,0.6,1.3,1.3,1.2c0,0,0.1,0,0.1,0C312.9,122.9,313.5,122.6,314,122.1L314,122.1z"/>
		<path d="M322.4,123.5h-1.1V120c0-1.3-0.4-1.9-1.2-1.9c-1,0.1-1.8,0.7-2.1,1.6v3.8h-1v-6.3h1v1.3c0.5-0.9,1.5-1.5,2.6-1.4
			c1.5,0,1.9,1.1,1.9,2.6L322.4,123.5z"/>
		<path d="M61.2,137.1l0.5-0.7c0.6,0.5,1.4,0.8,2.3,0.8c0.9,0,1.5-0.4,1.5-1s-0.6-0.8-1.8-1.1c-1.5-0.4-2.2-0.7-2.2-1.6
			c0-1.3,1.1-1.9,2.4-1.9c0.9,0,1.7,0.3,2.4,0.8l-0.5,0.6c-0.5-0.5-1.2-0.7-1.9-0.7c-0.8,0-1.4,0.3-1.4,1s0.4,0.7,1.5,1
			c1.7,0.4,2.5,0.7,2.5,1.8s-1,1.9-2.5,1.9C62.9,138.1,61.9,137.8,61.2,137.1z"/>
		<path d="M70.8,137.6c-0.5,0.2-1,0.4-1.5,0.4c-0.7,0.1-1.3-0.4-1.4-1.1c0-0.1,0-0.1,0-0.2v-4.2H67v-0.8h0.8v-2.1H69v2.1h1.4v0.8H69
			v3.9c0,0.4,0.3,0.6,0.6,0.7c0,0,0.1,0,0.1,0c0.3,0,0.6-0.1,0.9-0.3L70.8,137.6z"/>
		<path d="M71.7,135.4v-3.8h1.1v3.6c0,1.3,0.4,1.9,1.3,1.9c0.9,0,1.8-0.7,2.1-1.6v-3.9h1.1v5c0,0.3,0.1,0.4,0.3,0.4v0.9
			c-0.2,0-0.3,0-0.4,0c-0.4,0.1-0.7-0.2-0.8-0.6c0,0,0,0,0,0v-0.8c-0.5,0.9-1.5,1.5-2.6,1.5C72.4,138.1,71.7,137.1,71.7,135.4z"/>
		<path d="M78.6,134.8c-0.1-1.7,1.1-3.1,2.7-3.2c0,0,0.1,0,0.1,0c0.9,0,1.8,0.5,2.3,1.4v-3.8h1v7.5c0,0.3,0.1,0.4,0.3,0.4v0.9
			c-0.2,0-0.3,0-0.4,0c-0.4,0-0.8-0.2-0.8-0.6v-0.6c-0.5,0.8-1.4,1.3-2.3,1.3C79.8,137.9,78.5,136.5,78.6,134.8z M83.7,135.7v-1.8
			c-0.3-0.8-1.1-1.4-2-1.5c-1.2,0.1-2.1,1.1-2.1,2.4c0,1.2,0.9,2.3,2.2,2.3C82.7,137.1,83.4,136.6,83.7,135.7z"/>
		<path d="M86.8,139.6c0.2,0,0.4,0,0.6,0c0.3,0,0.5-0.1,1.1-1.8l-2.7-6.3h1.1L89,137l2-5.3h1l-3.1,7.9c-0.2,0.7-0.9,1.1-1.6,1.1
			c-0.2,0-0.4,0-0.5-0.1L86.8,139.6z"/>
		<path d="M93,130.5v-1.3h1.1v1.3H93z M93,137.9v-6.3h1.1v6.3H93z"/>
		<path d="M101.2,137.9h-1.1v-3.5c0-1.3-0.4-1.9-1.2-1.9c-1,0.1-1.8,0.7-2.1,1.6v3.8h-1v-6.3h1v1.3c0.5-0.9,1.5-1.5,2.6-1.4
			c1.4,0,1.9,1.1,1.9,2.6L101.2,137.9z"/>
		<path d="M102.4,134.8c-0.1-1.7,1.1-3.1,2.7-3.2c0.1,0,0.1,0,0.2,0c1,0,1.8,0.5,2.3,1.4v-1.2h0.9v6.2c0,1.8-1.4,2.7-3.2,2.7
			c-1.1,0.1-2.2-0.4-2.8-1.4l0.6-0.5c0.5,0.7,1.3,1.1,2.2,1.1c1,0.1,2-0.6,2.1-1.7c0-0.1,0-0.2,0-0.3v-1.1c-0.5,0.8-1.3,1.2-2.2,1.2
			C103.6,137.9,102.3,136.6,102.4,134.8C102.4,134.9,102.4,134.8,102.4,134.8z M107.5,135.7v-1.8c-0.3-0.8-1.1-1.4-2-1.5
			c-1.3,0.2-2.2,1.4-2,2.6c0.1,1.1,1,1.9,2.1,2C106.5,137.1,107.3,136.6,107.5,135.7z"/>
		<path d="M113.4,137.9v-8.5h5.6v1h-4.6v2.9h3.8v0.9h-3.8v3.8L113.4,137.9z"/>
		<path d="M119.9,135.4v-3.8h1v3.6c0,1.3,0.4,1.9,1.3,1.9c0.9,0,1.8-0.7,2.1-1.6v-3.9h1v5c0,0.3,0.1,0.4,0.3,0.4v0.9
			c-0.2,0-0.3,0-0.4,0c-0.5,0-0.8-0.2-0.8-0.6v-0.8c-0.5,0.9-1.5,1.5-2.6,1.5C120.6,138.1,119.9,137.1,119.9,135.4z"/>
		<path d="M127.2,129.2h1v7.1c0,0.4,0.2,0.7,0.6,0.7c0,0,0.1,0,0.1,0c0.2,0,0.4-0.1,0.6-0.1l0.2,0.9c-0.4,0.2-0.8,0.2-1.3,0.2
			c-0.7,0.1-1.3-0.4-1.3-1.1c0-0.1,0-0.2,0-0.2L127.2,129.2z"/>
		<path d="M130.6,129.2h1.1v7.1c0,0.4,0.2,0.7,0.6,0.7c0,0,0.1,0,0.1,0c0.2,0,0.4-0.1,0.6-0.1l0.2,0.9c-0.4,0.2-0.8,0.2-1.3,0.2
			c-0.7,0.1-1.3-0.4-1.3-1.1c0-0.1,0-0.2,0-0.2V129.2z"/>
		<path d="M141.8,131.2c-0.6-0.6-1.5-0.9-2.3-0.9c-1.3,0-1.9,0.5-1.9,1.4s0.7,1.1,2.2,1.5c1.8,0.4,2.9,0.9,2.9,2.4s-1.4,2.4-3.1,2.4
			c-1.3,0-2.5-0.4-3.5-1.2l0.5-0.9c0.8,0.7,1.9,1.1,3,1.1c1.2,0,1.9-0.4,1.9-1.3s-0.9-1.2-2.5-1.6c-1.7-0.4-2.6-0.9-2.6-2.2
			c0-1.6,1.3-2.5,3.1-2.5c1,0,2,0.3,2.8,1L141.8,131.2z"/>
		<path d="M147.1,137.6c-0.5,0.2-1,0.4-1.5,0.4c-0.7,0.1-1.3-0.4-1.4-1.1c0-0.1,0-0.1,0-0.2v-4.2h-0.9v-0.8h0.9v-2.1h1v2.1h1.4v0.8
			h-1.4v3.9c0,0.4,0.3,0.7,0.6,0.7c0,0,0,0,0.1,0c0.3,0,0.6-0.1,0.9-0.3L147.1,137.6z"/>
		<path d="M147.5,136.1c0-1.2,1.1-2,2.6-2c0.6,0,1.2,0.1,1.8,0.3V134c0.1-0.8-0.5-1.6-1.4-1.6c-0.1,0-0.2,0-0.3,0
			c-0.7,0-1.4,0.3-2,0.7l-0.3-0.7c0.7-0.5,1.6-0.8,2.4-0.8c1.3-0.1,2.5,0.8,2.6,2.1c0,0.1,0,0.3,0,0.4v2.6c0,0.3,0.1,0.4,0.3,0.4
			v0.9c-0.1,0-0.3,0-0.4,0c-0.4,0-0.7-0.2-0.8-0.6v-0.4c-0.6,0.7-1.4,1.2-2.4,1.1C148.6,138.1,147.6,137.3,147.5,136.1
			C147.5,136.2,147.5,136.2,147.5,136.1z M151.7,136.5c0.1-0.1,0.2-0.3,0.2-0.5v-0.9c-0.5-0.2-1-0.3-1.6-0.3c-1.1,0-1.8,0.5-1.8,1.2
			c0,0.7,0.6,1.3,1.3,1.2c0,0,0.1,0,0.1,0C150.6,137.3,151.2,137,151.7,136.5L151.7,136.5z"/>
		<path d="M157.4,131.6c1.1-0.1,2.1,0.5,2.6,1.5l-1,0.3c-0.3-0.6-1-1-1.6-0.9c-1.2,0-2.1,1.1-2.1,2.3c0,0,0,0,0,0.1
			c-0.1,1.2,0.9,2.3,2.1,2.4c0.7,0,1.3-0.4,1.7-1l1,0.3c-0.5,1-1.5,1.6-2.7,1.6c-1.8,0-3.2-1.4-3.2-3.1c0,0,0-0.1,0-0.1
			c0-1.7,1.3-3.2,3-3.2C157.3,131.6,157.4,131.6,157.4,131.6z"/>
		<path d="M165.7,137.9l-2.2-3.1l-1.2,1.1v1.9h-1v-8.8h1v5.8l3.2-3.2h1.2l-2.5,2.6l2.6,3.7H165.7z"/>
		<path d="M170.9,137.9v-8.5h2.9c2.4,0,4.3,1.9,4.3,4.3c0,2.4-1.9,4.3-4.3,4.3H170.9z M173.9,130.4H172v6.6h1.9c2,0,3-1.4,3-3.3
			S175.8,130.4,173.9,130.4L173.9,130.4z"/>
		<path d="M179,134.8c0-1.8,1.3-3.2,3.1-3.2c0,0,0.1,0,0.1,0c1.7,0,3.1,1.4,3.1,3.1c0,0,0,0.1,0,0.1c0,0.1,0,0.3,0,0.4h-5.2
			c0,1.1,1,2.1,2.1,2.1c0.7,0,1.4-0.4,1.8-1l0.9,0.3c-0.5,1-1.6,1.6-2.7,1.6c-1.8,0-3.2-1.4-3.2-3.1C179,134.9,179,134.9,179,134.8z
			 M184.3,134.4c-0.1-1.1-1-2-2.1-2c-1.1,0-2,0.9-2.1,2H184.3z"/>
		<path d="M188.1,137.9l-2.5-6.3h1.1l2,5.3l2-5.3h1l-2.5,6.3H188.1z"/>
		<path d="M192.3,134.8c0-1.8,1.3-3.2,3.1-3.2c0,0,0.1,0,0.1,0c1.7,0,3.1,1.4,3.1,3.1c0,0,0,0.1,0,0.1c0,0.1,0,0.3,0,0.4h-5.2
			c0,1.1,1,2.1,2.1,2.1c0.7,0,1.4-0.4,1.8-1l0.9,0.3c-0.5,1-1.6,1.6-2.7,1.6c-1.8,0-3.2-1.4-3.2-3.1
			C192.3,134.9,192.3,134.9,192.3,134.8z M197.6,134.4c-0.1-1.1-1-2-2.1-2c-1.1,0-2.1,0.9-2.1,2H197.6z"/>
		<path d="M199.8,129.2h1.1v7.1c0,0.4,0.2,0.7,0.6,0.7c0,0,0.1,0,0.1,0c0.2,0,0.4-0.1,0.6-0.1l0.2,0.9c-0.4,0.2-0.8,0.2-1.2,0.2
			c-0.7,0.1-1.3-0.4-1.3-1.1c0-0.1,0-0.2,0-0.2V129.2z"/>
		<path d="M202.7,134.8c0-1.7,1.5-3.1,3.2-3.1s3.1,1.5,3.1,3.2c0,1.7-1.4,3.1-3.2,3.1C204.1,138.1,202.7,136.6,202.7,134.8
			C202.7,134.9,202.7,134.8,202.7,134.8z M205.9,137.1c1.3-0.1,2.2-1.3,2.1-2.6c-0.1-1.1-1-1.9-2.1-2.1c-1.2,0.1-2.1,1.1-2.1,2.4
			C203.7,136,204.6,137.1,205.9,137.1C205.9,137.1,205.9,137.1,205.9,137.1z"/>
		<path d="M211.4,136.7v3.8h-1.1v-8.8h0.9v1.2c0.5-0.8,1.4-1.3,2.3-1.3c1.7,0.1,3.1,1.5,3,3.2c0,0,0,0,0,0c0.1,1.7-1.1,3.1-2.7,3.2
			c0,0-0.1,0-0.1,0C212.7,138.1,211.8,137.5,211.4,136.7z M215.4,134.8c0.1-1.2-0.9-2.3-2.1-2.3c0,0,0,0,0,0c-0.9,0-1.6,0.6-1.9,1.4
			v1.8c0.3,0.8,1.1,1.4,2,1.5C214.5,137.1,215.5,136,215.4,134.8C215.4,134.8,215.4,134.8,215.4,134.8L215.4,134.8z"/>
		<path d="M227.2,137.9h-1v-3.5c0-1.3-0.4-1.9-1.3-1.9c-0.9,0.1-1.7,0.7-1.9,1.6v3.8H222v-3.5c0-1.3-0.4-1.9-1.2-1.9
			c-0.9,0.1-1.7,0.7-1.9,1.6v3.8h-1.1v-6.3h1v1.3c0.5-0.9,1.4-1.5,2.4-1.4c0.9-0.1,1.7,0.6,1.8,1.5c0.4-0.9,1.4-1.5,2.4-1.5
			c1.4,0,1.9,1.1,1.9,2.6L227.2,137.9z"/>
		<path d="M228.4,134.8c0-1.8,1.3-3.2,3.1-3.2c0,0,0.1,0,0.1,0c1.7,0,3.1,1.4,3.1,3.1c0,0,0,0.1,0,0.1c0,0.1,0,0.3,0,0.4h-5.2
			c0,1.1,1,2.1,2.1,2.1c0.7,0,1.4-0.4,1.8-1l0.9,0.3c-0.5,1-1.6,1.6-2.7,1.6c-1.8,0-3.2-1.4-3.2-3.1
			C228.4,134.9,228.4,134.9,228.4,134.8z M233.7,134.4c-0.1-1.1-1-2-2.1-2c-1.1,0-2.1,0.9-2.1,2H233.7z"/>
		<path d="M241.3,137.9h-1.1v-3.5c0-1.3-0.4-1.9-1.2-1.9c-1,0.1-1.8,0.7-2.1,1.6v3.8h-1v-6.3h1v1.3c0.5-0.9,1.5-1.5,2.6-1.4
			c1.4,0,1.9,1.1,1.9,2.6L241.3,137.9z"/>
		<path d="M246.1,137.6c-0.5,0.2-1,0.4-1.5,0.4c-0.7,0.1-1.3-0.4-1.4-1.1c0-0.1,0-0.1,0-0.2v-4.2h-0.9v-0.8h0.9v-2.1h1.1v2.1h1.4
			v0.8h-1.4v3.9c0,0.4,0.3,0.7,0.6,0.7c0,0,0,0,0.1,0c0.3,0,0.6-0.1,0.9-0.3L246.1,137.6z"/>
		<path d="M249.6,136.1c0-1.2,1.1-2,2.6-2c0.6,0,1.2,0.1,1.8,0.3V134c0.1-0.8-0.5-1.6-1.4-1.6c-0.1,0-0.2,0-0.3,0
			c-0.7,0-1.4,0.3-2,0.7l-0.3-0.7c0.7-0.5,1.6-0.8,2.4-0.8c1.3-0.1,2.5,0.8,2.6,2.1c0,0.1,0,0.3,0,0.4v2.6c0,0.3,0.1,0.4,0.3,0.4
			v0.9c-0.1,0-0.3,0-0.4,0c-0.4,0-0.7-0.2-0.8-0.6v-0.4c-0.6,0.7-1.4,1.2-2.4,1.1c-1.1,0.1-2.1-0.7-2.2-1.8
			C249.6,136.2,249.6,136.2,249.6,136.1z M253.7,136.5c0.2-0.1,0.2-0.3,0.3-0.5v-0.9c-0.5-0.2-1-0.3-1.6-0.3c-1.1,0-1.8,0.5-1.8,1.2
			c0,0.7,0.6,1.3,1.3,1.2c0,0,0.1,0,0.1,0C252.7,137.2,253.3,137,253.7,136.5L253.7,136.5z"/>
		<path d="M259.9,137.6c-0.5,0.2-1,0.4-1.5,0.4c-0.7,0.1-1.3-0.4-1.4-1.1c0-0.1,0-0.1,0-0.2v-4.2h-0.9v-0.8h0.9v-2.1h1.1v2.1h1.4
			v0.8H258v3.9c0,0.4,0.3,0.7,0.7,0.7c0,0,0,0,0.1,0c0.3,0,0.6-0.1,0.9-0.3L259.9,137.6z"/>
		<path d="M267.5,129.4c1.3-0.1,2.6,0.7,3.2,1.9l-0.9,0.6c-0.4-0.9-1.4-1.5-2.4-1.4c-1.7,0.1-3,1.5-2.9,3.2c0,0,0,0.1,0,0.1
			c-0.1,1.7,1.2,3.2,2.9,3.3c1,0,2-0.6,2.4-1.5l0.9,0.5c-0.7,1.3-2,2-3.4,2c-2.3-0.2-4.1-2.1-4-4.4
			C263.4,131.3,265.2,129.4,267.5,129.4C267.5,129.4,267.5,129.4,267.5,129.4z"/>
		<path d="M271.6,134.8c0-1.7,1.5-3.1,3.2-3.1c1.7,0,3.1,1.5,3.1,3.2c0,1.7-1.5,3.1-3.2,3.1C273,138.1,271.6,136.6,271.6,134.8
			C271.6,134.9,271.6,134.8,271.6,134.8z M274.7,137.1c1.3,0.2,2.5-0.8,2.6-2.1c0.2-1.3-0.8-2.5-2.1-2.6s-2.5,0.8-2.6,2.1
			c0,0.1,0,0.2,0,0.3C272.6,136,273.5,137.1,274.7,137.1C274.7,137.1,274.7,137.1,274.7,137.1z"/>
		<path d="M278.7,134.8c-0.1-1.7,1.1-3.1,2.7-3.2c0,0,0.1,0,0.1,0c1,0,1.8,0.5,2.3,1.4v-3.8h1v7.5c0,0.3,0.1,0.4,0.3,0.4v0.9
			c-0.2,0-0.3,0-0.4,0c-0.4,0-0.8-0.2-0.8-0.6v-0.6c-0.5,0.8-1.4,1.3-2.3,1.3C280,138,278.7,136.5,278.7,134.8
			C278.7,134.8,278.7,134.8,278.7,134.8z M283.9,135.7v-1.8c-0.3-0.8-1.1-1.4-2-1.5c-1.2,0.1-2.1,1.1-2,2.4c0,1.2,0.9,2.3,2.1,2.3
			C282.8,137.1,283.6,136.5,283.9,135.7z"/>
		<path d="M286.3,134.8c0-1.8,1.3-3.2,3.1-3.2c0,0,0.1,0,0.1,0c1.7,0,3.1,1.4,3.1,3.1c0,0,0,0.1,0,0.1c0,0.1,0,0.3,0,0.4h-5.2
			c0,1.1,1,2.1,2.1,2.1c0.7,0,1.4-0.4,1.8-1l0.9,0.3c-0.5,1-1.6,1.6-2.7,1.6c-1.8,0-3.2-1.4-3.2-3.1
			C286.3,134.9,286.3,134.9,286.3,134.8z M291.6,134.4c-0.1-1.1-1-2-2.1-2c-1.1,0-2.1,0.9-2.1,2H291.6z"/>
		<path d="M297.1,132.6c-1,0-1.9,0.6-2.2,1.5v3.9h-1.1v-6.3h1v1.4c0.3-0.8,1.1-1.4,2-1.5h0.4L297.1,132.6z"/>
		<path d="M299.8,137.9l3.5-8.5h0.9l3.5,8.5h-1.1l-1-2.5H302l-1,2.5H299.8z M303.8,130.7l-1.6,3.9h3.1L303.8,130.7z"/>
		<path d="M311.5,131.6c1.1-0.1,2.1,0.5,2.6,1.5l-1,0.3c-0.3-0.6-1-0.9-1.6-0.9c-1.2,0-2.1,1.1-2.1,2.3c0,0,0,0,0,0.1
			c-0.1,1.2,0.9,2.3,2.1,2.4c0.7,0,1.3-0.4,1.7-1l1,0.3c-0.5,1-1.6,1.6-2.7,1.6c-1.8,0-3.2-1.4-3.2-3.2c0,0,0-0.1,0-0.1
			c0-1.7,1.3-3.2,3-3.2C311.4,131.6,311.4,131.6,311.5,131.6z"/>
		<path d="M314.9,136.1c0-1.2,1.1-2,2.6-2c0.6,0,1.2,0.1,1.8,0.3V134c0.1-0.8-0.5-1.6-1.4-1.6c-0.1,0-0.2,0-0.3,0
			c-0.7,0-1.4,0.3-2,0.7l-0.3-0.7c0.7-0.5,1.6-0.8,2.5-0.8c1.3-0.1,2.5,0.8,2.6,2.1c0,0.1,0,0.3,0,0.4v2.6c0,0.3,0.1,0.4,0.3,0.4
			v0.9c-0.1,0-0.3,0-0.4,0c-0.4,0-0.7-0.2-0.8-0.6v-0.4c-0.6,0.7-1.4,1.2-2.4,1.1C315.9,138.1,315,137.3,314.9,136.1
			C314.9,136.2,314.9,136.2,314.9,136.1z M319,136.5c0.1-0.1,0.2-0.3,0.2-0.5v-0.9c-0.5-0.2-1-0.3-1.6-0.3c-1.1,0-1.8,0.5-1.8,1.2
			c0,0.7,0.6,1.3,1.3,1.2c0,0,0.1,0,0.1,0C317.9,137.3,318.5,137,319,136.5L319,136.5z"/>
		<path d="M321.6,134.8c-0.1-1.7,1.1-3.1,2.7-3.2c0,0,0.1,0,0.1,0c0.9,0,1.8,0.5,2.3,1.4v-3.8h1v7.5c0,0.3,0.1,0.4,0.3,0.4v0.9
			c-0.2,0-0.3,0-0.4,0c-0.4,0-0.8-0.2-0.8-0.6c0,0,0,0,0,0v-0.6c-0.5,0.8-1.4,1.3-2.3,1.3C322.9,138,321.6,136.5,321.6,134.8
			C321.6,134.8,321.6,134.8,321.6,134.8z M326.7,135.7v-1.8c-0.3-0.8-1.1-1.4-2-1.5c-1.2,0.1-2.1,1.1-2.1,2.3c0,0,0,0,0,0
			c-0.1,1.2,0.9,2.3,2.1,2.3c0,0,0,0,0,0C325.7,137.1,326.5,136.6,326.7,135.7L326.7,135.7z"/>
		<path d="M329.2,134.8c0-1.8,1.3-3.2,3.1-3.2c0,0,0.1,0,0.1,0c1.7,0,3.1,1.4,3.1,3.1c0,0,0,0.1,0,0.1c0,0.1,0,0.3,0,0.4h-5.2
			c0,1.1,1,2.1,2.1,2.1c0.7,0,1.4-0.4,1.8-1l0.9,0.3c-0.5,1-1.6,1.6-2.7,1.6c-1.7,0-3.2-1.4-3.2-3.1
			C329.2,134.9,329.2,134.9,329.2,134.8z M334.5,134.4c-0.1-1.1-1-2-2.1-2c-1.1,0-2.1,0.9-2.1,2H334.5z"/>
		<path d="M346.1,137.9h-1v-3.5c0-1.3-0.4-1.9-1.3-1.9c-0.9,0.1-1.7,0.7-1.9,1.6v3.8h-1.1v-3.5c0-1.3-0.4-1.9-1.2-1.9
			c-0.9,0.1-1.7,0.7-1.9,1.6v3.8h-1.1v-6.3h1v1.3c0.5-0.9,1.4-1.5,2.4-1.4c0.9-0.1,1.7,0.6,1.8,1.5c0.4-0.9,1.4-1.5,2.4-1.5
			c1.4,0,1.9,1.1,1.9,2.6L346.1,137.9z"/>
		<path d="M348,139.6c0.2,0,0.4,0,0.6,0c0.3,0,0.5-0.1,1.1-1.8l-2.7-6.2h1.1l2.1,5.3l1.9-5.3h1l-3.1,7.9c-0.2,0.7-0.9,1.1-1.6,1.1
			c-0.2,0-0.4,0-0.5-0.1L348,139.6z"/>
		<path class="st0" d="M47.6,18.1V9h-9.1v9.1H42v47.1h-3.6v9.1H42v47.2h-3.6v9.1h9.1v-9.1H44V74.4h3.6v-9.1H44V18.1H47.6z M40.4,11
			h5.1v5.1h-5.1V11z M45.6,128.7h-5.1v-5.1h5.1V128.7z M45.6,72.4h-5.1v-5.2h5.1V72.4z"/>
		<path d="M1,16.1c-0.1-1.3,0.7-2.6,1.9-3.1c1.3-0.7,2-1,2-1.6s-0.4-0.9-1.1-0.9c-0.7,0-1.3,0.4-1.7,0.9l-1-1.2C2,9.5,3,9.1,4.1,9.2
			c1.6,0,2.6,0.8,2.6,2c-0.1,0.9-0.7,1.8-1.6,2.1c-0.7,0.3-1.3,0.8-1.7,1.4h3.4v1.5L1,16.1z"/>
		<path d="M11.1,16.2c-1.8,0-3.1-1.5-3.1-3.6s1.3-3.6,3.1-3.6s3.1,1.5,3.1,3.6S12.8,16.2,11.1,16.2z M11.1,10.4
			c-0.9,0-1.5,0.9-1.5,2.2s0.6,2.2,1.5,2.2s1.5-0.9,1.5-2.2S11.9,10.4,11.1,10.4z"/>
		<path d="M20.4,14.6v1.4h-4.9v-1.4h1.7V11c-0.5,0.5-1.2,0.8-1.9,0.9v-1.5c0.8-0.2,1.4-0.6,1.9-1.1h1.6v5.4L20.4,14.6z"/>
		<path d="M24.3,16.2c-1.6,0.1-3-1.1-3.1-2.6c0,0,0,0,0-0.1c0-0.9,0.6-1.6,1.4-2c-0.6-0.3-1-0.9-1.1-1.6c0-1.5,1.5-2.4,2.8-2.4
			s2.8,0.8,2.8,2.3c0,0.7-0.5,1.3-1.1,1.6c0.8,0.4,1.3,1.1,1.3,2C27.4,15.1,26,16.2,24.3,16.2z M24.3,12.2c-0.8-0.1-1.4,0.5-1.5,1.3
			c0,0,0,0,0,0c0.1,0.8,0.9,1.4,1.7,1.3c0.7-0.1,1.2-0.6,1.3-1.3C25.7,12.7,25,12.1,24.3,12.2L24.3,12.2z M24.3,11
			c0.6,0,1.1-0.4,1.2-1c-0.1-0.7-0.8-1.1-1.5-1c-0.5,0.1-0.9,0.5-1,1C23.1,10.6,23.6,11,24.3,11C24.3,11,24.3,11,24.3,11L24.3,11z"
			/>
		<path d="M1.2,72.4c-0.1-1.3,0.6-2.6,1.9-3.1c1.3-0.7,2-1,2-1.6S4.7,66.8,4,66.8c-0.7,0-1.3,0.4-1.7,0.9l-1-1.2
			c0.8-0.7,1.9-1.1,3-1.1c1.6,0,2.6,0.8,2.6,2c-0.1,0.9-0.7,1.8-1.6,2.1c-0.7,0.3-1.3,0.8-1.7,1.4H7v1.4L1.2,72.4z"/>
		<path d="M11.3,72.5c-1.8,0-3.1-1.5-3.1-3.6s1.3-3.7,3.1-3.7s3.1,1.5,3.1,3.7S13,72.5,11.3,72.5z M11.3,66.7
			c-0.9,0-1.5,0.9-1.5,2.2s0.6,2.2,1.5,2.2s1.5-0.9,1.5-2.2S12.1,66.7,11.3,66.7z"/>
		<path d="M20.6,70.9v1.4h-4.9v-1.4h1.7v-3.6c-0.5,0.5-1.2,0.8-1.9,0.9v-1.5c0.7-0.2,1.4-0.6,1.9-1.1H19v5.4H20.6z"/>
		<path d="M24.4,65.5c1.9,0,3.1,1.4,3.1,3.9c0,3.1-1.3,4.8-3.3,4.8c-1,0-2-0.5-2.6-1.3l0.9-1c0.4,0.6,1,1,1.7,1
			c1.1,0,1.8-0.9,1.8-2.4c-0.4,0.6-1.1,1-1.8,0.9c-1.6,0.1-2.9-1.1-3-2.7c0,0,0-0.1,0-0.1c0-1.7,1.3-3,3-3
			C24.2,65.5,24.3,65.5,24.4,65.5z M22.8,68.5c0.1,0.9,0.8,1.5,1.7,1.4c0.8-0.1,1.4-0.7,1.4-1.4c0.1-0.9-0.6-1.6-1.4-1.7
			s-1.6,0.6-1.7,1.4C22.8,68.4,22.8,68.4,22.8,68.5z"/>
		<path d="M0,128.6c-0.1-1.3,0.6-2.6,1.9-3.1c1.3-0.7,2-1,2-1.6s-0.4-0.9-1.1-0.9c-0.7,0-1.3,0.4-1.7,0.9l-1-1.2
			c0.8-0.7,1.9-1.2,3-1.1c1.6,0,2.6,0.8,2.6,2c-0.1,1-0.7,1.8-1.7,2.1c-0.7,0.3-1.3,0.8-1.7,1.4h3.5v1.4H0z"/>
		<path d="M10,128.8c-1.8,0-3.1-1.5-3.1-3.6s1.3-3.6,3.1-3.6s3.1,1.5,3.1,3.6S11.8,128.8,10,128.8z M10,123c-0.9,0-1.5,0.9-1.5,2.2
			s0.6,2.2,1.5,2.2s1.5-0.9,1.5-2.2S10.9,123,10,123z"/>
		<path d="M14.2,128.6c-0.1-1.3,0.6-2.6,1.9-3.1c1.3-0.7,2-1,2-1.6s-0.4-0.9-1.1-0.9c-0.7,0-1.3,0.4-1.7,0.9l-1-1.2
			c0.8-0.7,1.9-1.2,3-1.1c1.6,0,2.6,0.8,2.6,2c-0.1,0.9-0.7,1.8-1.6,2.1c-0.7,0.3-1.3,0.8-1.7,1.4H20v1.4L14.2,128.6z"/>
		<path d="M24.2,128.8c-1.8,0-3.1-1.5-3.1-3.6s1.3-3.6,3.1-3.6s3.1,1.5,3.1,3.6S26,128.8,24.2,128.8z M24.2,123
			c-0.9,0-1.5,0.9-1.5,2.2s0.6,2.2,1.5,2.2s1.5-0.9,1.5-2.2S25.1,123,24.2,123L24.2,123z"/>
	</g>
</g>
</svg>
