<svg xmlns="http://www.w3.org/2000/svg" viewBox="0 0 353.11 140.71"><defs><style>.cls-1{fill:#006aff;}</style></defs><g id="Layer_2" data-name="Layer 2"><g id="Layer_1-2" data-name="Layer 1"><path d="M61.91,8.9V.4H63V8h4.8V9Z"/><path d="M68.41,5.7a3.14,3.14,0,0,1,3.1-3.2h.1a3.12,3.12,0,0,1,3.1,3.1v.5h-5.2a2.11,2.11,0,0,0,2.1,2.1,2.23,2.23,0,0,0,1.8-1l.9.2A3,3,0,0,1,71.61,9a3.14,3.14,0,0,1-3.2-3.1Zm5.3-.4a2.1,2.1,0,0,0-4.2,0Z"/><path d="M76.21,8.9V4.2h-.8V3.3h.8V2.5c0-1.5.8-2.5,1.9-2.5a2.3,2.3,0,0,1,1.4.4l-.3.8a1.22,1.22,0,0,0-.9-.3c-.7,0-1.1.6-1.1,1.5v.9h1.7v.8h-1.7V8.8h-1v.1Z"/><path d="M83.41,8.6a4.19,4.19,0,0,1-1.5.4,1.24,1.24,0,0,1-1.4-1.1V3.4h-.8V2.6h.8V.5h1.1V2.6H83v.8h-1.4V7.3a.67.67,0,0,0,.6.7h.1a1.61,1.61,0,0,0,.9-.3Z"/><path d="M92.71,8.9h-1V5.4c0-1.3-.5-1.9-1.3-1.9a2.34,2.34,0,0,0-2,1.7V9h-1V.1h1V4a3,3,0,0,1,2.4-1.5c1.5,0,2,1.1,2,2.6Z"/><path d="M94.31,1.4V.1h1V1.4Zm0,7.5V2.6h1V8.9Z"/><path d="M96.71,5.8a2.94,2.94,0,0,1,2.7-3.2h.2a2.65,2.65,0,0,1,2.3,1.3V2.6h.9V8.8c0,1.8-1.4,2.8-3.2,2.8a2.93,2.93,0,0,1-2.8-1.4l.6-.5a2.66,2.66,0,0,0,2.2,1.1,1.9,1.9,0,0,0,2.1-1.7V7.7A2.61,2.61,0,0,1,99.51,9a3,3,0,0,1-2.9-3.1A.1.1,0,0,0,96.71,5.8Zm5.1.9V4.9a2.44,2.44,0,0,0-2-1.5,2.32,2.32,0,0,0-2.1,2.4,2.24,2.24,0,0,0,2.2,2.3A2.15,2.15,0,0,0,101.81,6.7Z"/><path d="M109.91,8.9h-1.1V5.4c0-1.3-.5-1.9-1.3-1.9a2.34,2.34,0,0,0-2,1.7V9h-1.1V.1h1.1V4a2.79,2.79,0,0,1,2.4-1.5c1.5,0,2,1.1,2,2.6V8.9Z"/><path d="M114,8.1l.4-.7a3.57,3.57,0,0,0,2.3.8c.9,0,1.5-.4,1.5-1s-.6-.8-1.8-1.1c-1.5-.4-2.2-.7-2.2-1.6,0-1.3,1.1-1.9,2.4-1.9a3.57,3.57,0,0,1,2.3.8l-.3.6a2.64,2.64,0,0,0-1.9-.7c-.8,0-1.4.3-1.4,1s.4.7,1.5,1c1.7.4,2.5.7,2.5,1.8s-1,1.9-2.5,1.9A4.68,4.68,0,0,1,114,8.1Z"/><path d="M123.21,2.5a2.63,2.63,0,0,1,2.6,1.5l-1,.3a1.8,1.8,0,0,0-1.6-.9,2.2,2.2,0,0,0-2.1,2.2v.1a2.24,2.24,0,0,0,2.2,2.3A1.94,1.94,0,0,0,125,7l1,.3a2.76,2.76,0,0,1-2.7,1.6,3.14,3.14,0,0,1-3.2-3.1V5.7a3.07,3.07,0,0,1,3.1-3.2Z"/><path d="M132.51,8.9h-1V5.4c0-1.3-.5-1.9-1.3-1.9a2.34,2.34,0,0,0-2,1.7V9h-1.1V.1h1.1V4a3,3,0,0,1,2.4-1.5c1.5,0,2,1.1,2,2.6Z"/><path d="M133.81,5.8A3.22,3.22,0,0,1,137,2.6a3.16,3.16,0,0,1,3.2,3.2A3.16,3.16,0,0,1,137,9,3.22,3.22,0,0,1,133.81,5.8Zm3.1,2.3A2.22,2.22,0,0,0,139,5.8h0a2.11,2.11,0,1,0-4.2-.4v.4a2.21,2.21,0,0,0,2.1,2.3Z"/><path d="M140.91,5.8a3.22,3.22,0,0,1,3.2-3.2,3.16,3.16,0,0,1,3.2,3.2,3.16,3.16,0,0,1-3.2,3.2A3.22,3.22,0,0,1,140.91,5.8Zm3.2,2.3a2.22,2.22,0,0,0,2.1-2.3h0a2.11,2.11,0,0,0-4.2-.4v.4a2.21,2.21,0,0,0,2.1,2.3Z"/><path d="M148.51.1h1V7.2c0,.4.2.7.6.7h.1c.2,0,.4-.1.6-.1l.2.8a2.74,2.74,0,0,1-1.3.2,1.11,1.11,0,0,1-1.3-1.1V7.5Z"/><path d="M154.11,7.1c0-1.2,1.1-2,2.6-2a5.66,5.66,0,0,1,1.8.3V4.9a1.42,1.42,0,0,0-1.4-1.6h-.3a3.72,3.72,0,0,0-2,.7l-.4-.7a4.38,4.38,0,0,1,2.5-.8,2.37,2.37,0,0,1,2.6,2.1v3c0,.3.1.4.3.4v.9h-.4a.76.76,0,0,1-.8-.6V7.8a3,3,0,0,1-2.4,1.2,1.94,1.94,0,0,1-2.1-1.9Zm4.1.4a.76.76,0,0,0,.2-.5V6a4.15,4.15,0,0,0-1.6-.3c-1.1,0-1.8.5-1.8,1.2a1.32,1.32,0,0,0,1.3,1.3h.1A2.48,2.48,0,0,0,158.21,7.5Z"/><path d="M164.41,8.6a4.19,4.19,0,0,1-1.5.4,1.24,1.24,0,0,1-1.4-1.1V3.4h-.9V2.6h.9V.5h1.1V2.6H164v.8h-1.4V7.3a.67.67,0,0,0,.6.7h.1a1.61,1.61,0,0,0,.9-.3Z"/><path d="M171.61,8.6A2.93,2.93,0,0,1,170,9a1.24,1.24,0,0,1-1.4-1.1V3.4h-.9V2.6h.9V.5h1V2.6H171v.8h-1.4V7.3a.68.68,0,0,0,.7.7h.1a1.61,1.61,0,0,0,.9-.3Z"/><path d="M177.91,8.9h-1.1V5.4c0-1.3-.5-1.9-1.3-1.9a2.34,2.34,0,0,0-2,1.7V9h-1.1V.1h1.1V4a3,3,0,0,1,2.4-1.5c1.5,0,2,1.1,2,2.6Z"/><path d="M179.11,5.7a3.14,3.14,0,0,1,3.1-3.2h.1a3.12,3.12,0,0,1,3.1,3.1v.5h-5.2a2.18,2.18,0,0,0,2.1,2.1,2.23,2.23,0,0,0,1.8-1l.9.2a3.08,3.08,0,0,1-2.8,1.6A3.2,3.2,0,0,1,179,5.9C179.11,5.8,179.11,5.8,179.11,5.7Zm5.3-.4a2.16,2.16,0,0,0-2.1-2,2.09,2.09,0,0,0-2.1,2Z"/><path d="M190.51,7.7V8.9h-.9V.1h1.1V3.8A2.77,2.77,0,0,1,193,2.5a3,3,0,0,1,2.8,3.2v.1a3,3,0,0,1-2.9,3.2h-.1A2.77,2.77,0,0,1,190.51,7.7Zm4.2-1.9a2.14,2.14,0,0,0-2-2.3,2.27,2.27,0,0,0-2,1.5V6.8a2,2,0,0,0,1.9,1.4A2.46,2.46,0,0,0,194.71,5.8Z"/><path d="M196.71,5.7a3.14,3.14,0,0,1,3.1-3.2h.1A3.05,3.05,0,0,1,203,5.6v.5h-5.2a2.11,2.11,0,0,0,2.1,2.1,2.23,2.23,0,0,0,1.8-1l.9.2a3.08,3.08,0,0,1-2.8,1.6,3.14,3.14,0,0,1-3.2-3.1C196.71,5.8,196.71,5.8,196.71,5.7Zm5.3-.4a2.1,2.1,0,0,0-4.2,0Z"/><path d="M203.81,5.8a2.94,2.94,0,0,1,2.7-3.2h.2A2.65,2.65,0,0,1,209,3.9V2.6h.9V8.8c0,1.8-1.4,2.8-3.2,2.8a2.93,2.93,0,0,1-2.8-1.4l.6-.5a2.66,2.66,0,0,0,2.2,1.1,1.9,1.9,0,0,0,2.1-1.7V7.7a2.61,2.61,0,0,1-2.2,1.3,3,3,0,0,1-2.9-3.1A.1.1,0,0,0,203.81,5.8Zm5.1.9V4.9a2.44,2.44,0,0,0-2-1.5,2.23,2.23,0,0,0-2,2.4A2.29,2.29,0,0,0,207,8.1,2,2,0,0,0,208.91,6.7Z"/><path d="M211.61,1.4V.1h1.1V1.4Zm0,7.5V2.6h1.1V8.9Z"/><path d="M219.81,8.9h-1.1V5.4c0-1.3-.4-1.9-1.2-1.9a2.35,2.35,0,0,0-2.1,1.7V9h-1.1V2.6h1V4a3.11,3.11,0,0,1,2.6-1.5c1.4,0,1.9,1.1,1.9,2.6Z"/><path d="M226.81,8.9h-1.1V5.4c0-1.3-.4-1.9-1.2-1.9a2.35,2.35,0,0,0-2.1,1.7V9h-1.1V2.6h1V4a3,3,0,0,1,2.6-1.5c1.4,0,1.9,1.1,1.9,2.6Z"/><path d="M228.41,1.4V.1h1.1V1.4Zm0,7.5V2.6h1.1V8.9Z"/><path d="M236.51,8.9h-1.1V5.4c0-1.3-.4-1.9-1.2-1.9a2.35,2.35,0,0,0-2.1,1.7V9h-1V2.6h1V4a3,3,0,0,1,2.6-1.5c1.4,0,1.9,1.1,1.9,2.6Z"/><path d="M237.71,5.8a2.94,2.94,0,0,1,2.7-3.2h.2A2.81,2.81,0,0,1,243,3.9V2.6h.9V8.8c0,1.8-1.4,2.8-3.2,2.8a2.93,2.93,0,0,1-2.8-1.4l.6-.5a2.66,2.66,0,0,0,2.2,1.1,1.9,1.9,0,0,0,2.1-1.7V7.7a2.61,2.61,0,0,1-2.2,1.3,3,3,0,0,1-2.9-3.1V5.8Zm5.2.9V4.9a2.44,2.44,0,0,0-2-1.5,2.32,2.32,0,0,0-2.1,2.4A2.24,2.24,0,0,0,241,8.1h0A2.32,2.32,0,0,0,242.91,6.7Z"/><path d="M248.21,5.8a3.22,3.22,0,0,1,3.2-3.2,3.16,3.16,0,0,1,3.2,3.2,3.16,3.16,0,0,1-3.2,3.2A3.22,3.22,0,0,1,248.21,5.8Zm3.1,2.3a2.22,2.22,0,0,0,2.1-2.3,2.11,2.11,0,0,0-4.2-.4v.4a2.36,2.36,0,0,0,2.1,2.3Z"/><path d="M256.11,8.9V4.2h-.9V3.3h.9V2.5c0-1.5.8-2.5,1.9-2.5a2.3,2.3,0,0,1,1.4.4l-.3.8a1.61,1.61,0,0,0-.9-.3c-.7,0-1.1.6-1.1,1.5v.9h1.7v.8h-1.7V8.8h-1Z"/><path d="M262.71,10.6h.6c.2,0,.5-.1,1.1-1.8l-2.6-6.3h1.1l2.2,5.4L267,2.6h1l-3.1,7.9a1.62,1.62,0,0,1-1.6,1.1.75.75,0,0,1-.5-.1Z"/><path d="M268.61,5.7a3.14,3.14,0,0,1,3.1-3.2h.1a3.12,3.12,0,0,1,3.1,3.1v.5h-5.2a2.18,2.18,0,0,0,2.1,2.1,2.23,2.23,0,0,0,1.8-1l.9.2a3.08,3.08,0,0,1-2.8,1.6,3.14,3.14,0,0,1-3.2-3.1C268.61,5.8,268.61,5.8,268.61,5.7Zm5.3-.4a2.16,2.16,0,0,0-2.1-2,2.09,2.09,0,0,0-2.1,2Z"/><path d="M275.61,7.1c0-1.2,1.1-2,2.6-2a5.66,5.66,0,0,1,1.8.3V4.9a1.56,1.56,0,0,0-1.4-1.7h-.3a3.72,3.72,0,0,0-2,.7l-.3-.6a4.38,4.38,0,0,1,2.5-.8,2.37,2.37,0,0,1,2.6,2.1v3c0,.3.1.4.3.4v.9H281a.76.76,0,0,1-.8-.6h0V7.8a3,3,0,0,1-2.4,1.2,2,2,0,0,1-2.2-1.9Zm4.2.4A.76.76,0,0,0,280,7V6a4.15,4.15,0,0,0-1.6-.3c-1.1,0-1.8.5-1.8,1.2a1.32,1.32,0,0,0,1.3,1.3h.1A2.87,2.87,0,0,0,279.81,7.5Z"/><path d="M286.11,3.5a2.17,2.17,0,0,0-2.2,1.5V8.9h-1.1V2.6h1V4.1a2.44,2.44,0,0,1,2-1.5h.4Z"/><path d="M294.11,7.9v1h-4.3v-1h1.7V3.2a3.37,3.37,0,0,1-2,.9v-1a3.47,3.47,0,0,0,1.9-1.2h1.1V7.8h1.6v.1Z"/><path d="M295,8.9a3,3,0,0,1,2-3.1c.9-.5,2-.9,2-1.7a1.27,1.27,0,0,0-1.4-1.1,2.23,2.23,0,0,0-1.8,1l-.8-.9a3.86,3.86,0,0,1,2.7-1.1c1.5,0,2.4.9,2.4,1.9,0,1.2-1.2,1.8-1.9,2.2s-1.9,1-2,1.9h4.1V9Z"/><path d="M61.21,21.5c0-1.2,1.1-2,2.6-2a5.66,5.66,0,0,1,1.8.3v-.5a1.48,1.48,0,0,0-1.4-1.6H64a3.72,3.72,0,0,0-2,.7l-.3-.7a4.38,4.38,0,0,1,2.5-.8,2.37,2.37,0,0,1,2.6,2.1v3c0,.3.1.4.3.4v.9h-.4a.76.76,0,0,1-.8-.6h0v-.5a3.13,3.13,0,0,1-2.4,1.2,2.18,2.18,0,0,1-2.3-1.9Zm4.2.4a.76.76,0,0,0,.2-.5v-.9a4.15,4.15,0,0,0-1.6-.3c-1.1,0-1.8.5-1.8,1.2a1.18,1.18,0,0,0,1.3,1.2h.1A2.87,2.87,0,0,0,65.41,21.9Z"/><path d="M73.81,23.3h-1.1V19.8c0-1.3-.4-1.9-1.2-1.9a2.39,2.39,0,0,0-2.1,1.6v3.8h-1.1V17h1v1.4a3,3,0,0,1,2.6-1.5c1.5,0,1.9,1.1,1.9,2.6Z"/><path d="M75,20.2a2.94,2.94,0,0,1,2.7-3.2h.1a2.65,2.65,0,0,1,2.3,1.4V14.7h1.1V22c0,.3.1.4.3.4v.9h-.4c-.4.1-.7-.2-.8-.6h0v-.6A2.77,2.77,0,0,1,78,23.4a3.12,3.12,0,0,1-3-3.2Zm5.1.9V19.3a2.44,2.44,0,0,0-2-1.5A2.32,2.32,0,0,0,76,20.2a2.16,2.16,0,0,0,2.1,2.3h0a2,2,0,0,0,2-1.4Z"/><path d="M86.91,22.1v1.2H86V14.5h1v3.7a3.15,3.15,0,0,1,2.3-1.4,3,3,0,0,1,2.8,3.2v.1a3,3,0,0,1-2.9,3.2h-.1A2.32,2.32,0,0,1,86.91,22.1Zm4.2-1.9a2.05,2.05,0,0,0-4-.9v1.8A2,2,0,0,0,89,22.5,2.29,2.29,0,0,0,91.11,20.2Z"/><path d="M93,20.1a3.14,3.14,0,0,1,3.1-3.2h.1a3.14,3.14,0,0,1,3.1,3.2v.4h-5.1a2.11,2.11,0,0,0,2.1,2.1,2.23,2.23,0,0,0,1.8-1l.9.2a3,3,0,0,1-2.7,1.6,3.14,3.14,0,0,1-3.2-3.1C93,20.3,93,20.2,93,20.1Zm5.3-.4a2.16,2.16,0,0,0-2.1-2,2.09,2.09,0,0,0-2.1,2Z"/><path d="M100.21,20.2a2.94,2.94,0,0,1,2.7-3.2h.2a2.54,2.54,0,0,1,2.3,1.4V17h.9v6.2c0,1.8-1.4,2.8-3.2,2.8a2.93,2.93,0,0,1-2.8-1.4l.6-.5a2.66,2.66,0,0,0,2.2,1.1,1.9,1.9,0,0,0,2.1-1.7V22.1a2.37,2.37,0,0,1-2.3,1.2,2.8,2.8,0,0,1-2.7-3.1Zm5.1.9V19.3a2.44,2.44,0,0,0-2-1.5,2.32,2.32,0,0,0-2.1,2.4,2.24,2.24,0,0,0,2.2,2.3A2.15,2.15,0,0,0,105.31,21.1Z"/><path d="M107.51,21.5c0-1.2,1.1-2,2.6-2a5.66,5.66,0,0,1,1.8.3v-.5a1.63,1.63,0,0,0-1.4-1.7h-.3a3.72,3.72,0,0,0-2,.7l-.3-.7a4.38,4.38,0,0,1,2.5-.8,2.23,2.23,0,0,1,2.6,2V22c0,.3.1.4.3.4v.9h-.4a.76.76,0,0,1-.8-.6v-.5a3.13,3.13,0,0,1-2.4,1.2,2,2,0,0,1-2.2-1.9Zm4.2.4a.76.76,0,0,0,.2-.5v-.9a4.15,4.15,0,0,0-1.6-.3c-1.1,0-1.8.5-1.8,1.2a1.18,1.18,0,0,0,1.3,1.2h.1A2.87,2.87,0,0,0,111.71,21.9Z"/><path d="M120.11,23.3H119V19.8c0-1.3-.4-1.9-1.2-1.9a2.39,2.39,0,0,0-2.1,1.6v3.8h-1V17h1v1.4a3,3,0,0,1,2.6-1.5c1.4,0,1.9,1.1,1.9,2.6Z"/><path d="M124.21,22.5l.5-.7a3.57,3.57,0,0,0,2.3.8c.9,0,1.5-.4,1.5-1s-.6-.8-1.8-1.1c-1.5-.4-2.2-.7-2.2-1.6,0-1.3,1.1-1.9,2.4-1.9a3.57,3.57,0,0,1,2.3.8l-.5.6a2.64,2.64,0,0,0-1.9-.7c-.8,0-1.4.3-1.4,1s.4.7,1.5,1c1.7.4,2.5.7,2.5,1.8s-1,1.9-2.5,1.9A4.39,4.39,0,0,1,124.21,22.5Z"/><path d="M133.91,23a4.19,4.19,0,0,1-1.5.4,1.24,1.24,0,0,1-1.4-1.1V17.9h-.9V17h.9V14.9h1.1V17h1.4v.8H132v3.9a.68.68,0,0,0,.7.7h.1a1.61,1.61,0,0,0,.9-.3Z"/><path d="M134.71,20.8V17h1v3.5c0,1.3.4,1.9,1.3,1.9a2.26,2.26,0,0,0,2.1-1.5V17h1.1v5c0,.3.1.4.3.4v.9h-.4c-.5,0-.8-.2-.8-.6v-.8a3,3,0,0,1-2.6,1.5C135.41,23.4,134.71,22.5,134.71,20.8Z"/><path d="M141.61,20.2a2.94,2.94,0,0,1,2.7-3.2h.1a2.65,2.65,0,0,1,2.3,1.4V14.7h1.1V22c0,.3.1.4.3.4v.9h-.4c-.4.1-.7-.2-.8-.6h0v-.6a2.77,2.77,0,0,1-2.3,1.3,3.12,3.12,0,0,1-3-3.2Zm5.1.9V19.3a2.44,2.44,0,0,0-2-1.5,2.29,2.29,0,0,0-2.1,2.3h0a2.16,2.16,0,0,0,2.1,2.3h0A1.81,1.81,0,0,0,146.71,21.1Z"/><path d="M149.81,25h.6c.2,0,.5-.1,1.1-1.8l-2.7-6.2h1.1l2.1,5.3,2-5.3h1l-3.1,7.9a1.43,1.43,0,0,1-1.6,1,.75.75,0,0,1-.5-.1Z"/><path d="M156.11,15.8V14.5h1.1v1.3Zm0,7.5V17h1.1v6.3Z"/><path d="M164.21,23.3h-1.1V19.8c0-1.3-.4-1.9-1.2-1.9a2.39,2.39,0,0,0-2.1,1.6v3.8h-1.1V17h1v1.4a3,3,0,0,1,2.6-1.5c1.4,0,1.9,1.1,1.9,2.6Z"/><path d="M165.41,20.2a2.94,2.94,0,0,1,2.7-3.2h.2a2.54,2.54,0,0,1,2.3,1.4V17h.9v6.2c0,1.8-1.4,2.8-3.2,2.8a2.93,2.93,0,0,1-2.8-1.4l.6-.5a2.66,2.66,0,0,0,2.2,1.1,1.9,1.9,0,0,0,2.1-1.7V22.1a2.51,2.51,0,0,1-2.2,1.2,3,3,0,0,1-2.8-3.1Zm5.1.9V19.3a2.44,2.44,0,0,0-2-1.5,2.32,2.32,0,0,0-2.1,2.4,2.22,2.22,0,0,0,2.1,2.3,2,2,0,0,0,2-1.4Z"/><path d="M176.61,23.3V18.6h-.9v-.8h.9v-.9c0-1.5.8-2.5,1.9-2.5a2.3,2.3,0,0,1,1.4.4l-.3.8a1.61,1.61,0,0,0-.9-.3c-.7,0-1.1.6-1.1,1.5v.9h1.7v.8h-1.7v4.7Z"/><path d="M180,21.5c0-1.2,1.1-2,2.6-2a5.66,5.66,0,0,1,1.8.3v-.5a1.42,1.42,0,0,0-1.4-1.6h-.3a3.72,3.72,0,0,0-2,.7l-.4-.7a4.38,4.38,0,0,1,2.5-.8,2.43,2.43,0,0,1,2.6,2.1v3c0,.3.1.4.3.4v.9h-.4a.76.76,0,0,1-.8-.6h0v-.5a3.13,3.13,0,0,1-2.4,1.2,1.89,1.89,0,0,1-2.1-1.9Zm4.2.4a.76.76,0,0,0,.2-.5v-.9a4.15,4.15,0,0,0-1.6-.3c-1.1,0-1.8.5-1.8,1.2a1.18,1.18,0,0,0,1.3,1.2h.1a2.87,2.87,0,0,0,1.8-.7Z"/><path d="M186.61,22.5l.4-.7a3.57,3.57,0,0,0,2.3.8c.9,0,1.5-.4,1.5-1s-.6-.8-1.8-1.1c-1.5-.4-2.1-.7-2.1-1.6,0-1.3,1.1-1.9,2.4-1.9a4.07,4.07,0,0,1,2.4.8l-.5.6a2.64,2.64,0,0,0-1.9-.7c-.8,0-1.4.3-1.4,1s.4.7,1.5,1c1.7.4,2.5.7,2.5,1.8s-1,1.9-2.5,1.9A4.68,4.68,0,0,1,186.61,22.5Z"/><path d="M198.51,23.3h-1V19.8c0-1.3-.5-1.9-1.3-1.9a2.37,2.37,0,0,0-2,1.6v3.8h-1V14.5h1v3.8a3,3,0,0,1,2.4-1.5c1.5,0,2,1.1,2,2.6Z"/><path d="M200.11,15.8V14.5h1.1v1.3Zm0,7.5V17h1.1v6.3Z"/><path d="M202.41,20.2a3.15,3.15,0,1,1,3.1,3.2,3.14,3.14,0,0,1-3.1-3.2Zm3.1,2.3a2.22,2.22,0,0,0,2.1-2.3,2.11,2.11,0,1,0-4.2-.4v.4a2.36,2.36,0,0,0,2.1,2.3Z"/><path d="M215.41,23.3h-1.1V19.8c0-1.3-.4-1.9-1.2-1.9a2.39,2.39,0,0,0-2.1,1.6v3.8h-1V17h1v1.4a3,3,0,0,1,2.6-1.5c1.4,0,1.9,1.1,1.9,2.6Z"/><path d="M219.61,21.5c0-1.2,1.1-2,2.6-2a5.66,5.66,0,0,1,1.8.3v-.5a1.63,1.63,0,0,0-1.4-1.7h-.3a3.72,3.72,0,0,0-2,.7l-.4-.7a4.38,4.38,0,0,1,2.5-.8,2.37,2.37,0,0,1,2.6,2.1V22c0,.3.1.4.3.4v.9h-.4a.76.76,0,0,1-.8-.6v-.5a3.13,3.13,0,0,1-2.4,1.2,1.89,1.89,0,0,1-2.1-1.9Zm4.1.4a.76.76,0,0,0,.2-.5v-.9a4.15,4.15,0,0,0-1.6-.3c-1.1,0-1.8.5-1.8,1.2a1.18,1.18,0,0,0,1.3,1.2h.1A2.67,2.67,0,0,0,223.71,21.9Z"/><path d="M229.91,23a4.19,4.19,0,0,1-1.5.4,1.24,1.24,0,0,1-1.4-1.1V17.9h-.9V17h.9V14.9h1.1V17h1.4v.8H228v3.9a.67.67,0,0,0,.6.7h.1a1.61,1.61,0,0,0,.9-.3Z"/><path d="M239.81,15.7h-2.9v7.6h-1.1V15.7h-2.9v-1h7Z"/><path d="M239.31,21.5c0-1.2,1.1-2,2.6-2a5.66,5.66,0,0,1,1.8.3v-.5a1.48,1.48,0,0,0-1.4-1.6h-.2a3.72,3.72,0,0,0-2,.7l-.4-.7a4.38,4.38,0,0,1,2.5-.8,2.43,2.43,0,0,1,2.6,2.1v3c0,.3.1.4.3.4v.9h-.4a.76.76,0,0,1-.8-.6h0v-.5a3.13,3.13,0,0,1-2.4,1.2,2,2,0,0,1-2.2-1.9Zm4.1.4a.76.76,0,0,0,.2-.5v-.9a4.15,4.15,0,0,0-1.6-.3c-1.1,0-1.8.5-1.8,1.2a1.18,1.18,0,0,0,1.3,1.2h.1A2.67,2.67,0,0,0,243.41,21.9Z"/><path d="M246.81,23.3V18.6h-.9v-.8h.9v-.9c0-1.5.7-2.5,1.9-2.5a2.3,2.3,0,0,1,1.4.4l-.3.8a1.61,1.61,0,0,0-.9-.3c-.7,0-1.1.6-1.1,1.5v.9h1.7v.8h-1.7v4.7Z"/><path d="M250.31,20.1a3.14,3.14,0,0,1,3.1-3.2h.1a3.12,3.12,0,0,1,3.1,3.1v.5h-5.2a2.18,2.18,0,0,0,2.1,2.1,2.23,2.23,0,0,0,1.8-1l.9.2a3,3,0,0,1-2.7,1.6,3.2,3.2,0,0,1-3.2-3.1Zm5.3-.4a2.16,2.16,0,0,0-2.1-2,2.09,2.09,0,0,0-2.1,2Z"/><path d="M257.51,23.5a.27.27,0,0,0,.3-.3h0V22h.9v1.4c0,.7-.6.9-1.2.9v-.8Z"/><path d="M269.61,19.1V14.8h1.1v4.3c0,2.3-1,4.3-3.6,4.3s-3.6-2.1-3.6-4.3V14.8h1.1v4.3c0,1.7.6,3.3,2.5,3.3S269.61,20.7,269.61,19.1Z"/><path d="M272.31,14.5h1.1v7.1c0,.4.2.7.6.7h.1c.2,0,.4-.1.6-.1l.2.9a2.74,2.74,0,0,1-1.3.2,1.11,1.11,0,0,1-1.3-1.1V14.5Z"/><path d="M278.81,23a4.19,4.19,0,0,1-1.5.4,1.24,1.24,0,0,1-1.4-1.1V17.9H275V17h.9V14.9H277V17h1.4v.8H277v3.9a.67.67,0,0,0,.6.7h.1a1.61,1.61,0,0,0,.9-.3Z"/><path d="M279.71,15.8V14.5h1.1v1.3Zm0,7.5V17h1.1v6.3Z"/><path d="M291.91,23.3h-1.1V19.8c0-1.3-.4-1.9-1.3-1.9a2.24,2.24,0,0,0-1.9,1.7v3.8h-1.1V19.9c0-1.3-.4-1.9-1.2-1.9a2.13,2.13,0,0,0-1.9,1.6v3.8h-1V17h1v1.4a2.67,2.67,0,0,1,2.4-1.5,1.67,1.67,0,0,1,1.8,1.5,2.67,2.67,0,0,1,2.4-1.5c1.4,0,1.9,1.1,1.9,2.6Z"/><path d="M293.11,20.2a3.15,3.15,0,1,1,3.1,3.2,3.14,3.14,0,0,1-3.1-3.2Zm3.1,2.3a2.22,2.22,0,0,0,2.1-2.3h0a2.11,2.11,0,1,0-4.2-.4v.4a2.36,2.36,0,0,0,2.1,2.3Z"/><path d="M67.91,65.1a3.22,3.22,0,0,1-2.6,1.2,4.28,4.28,0,0,1-4-4.3,4.14,4.14,0,0,1,4-4.3h0a3.17,3.17,0,0,1,3.2,1.9l-.8.6a2.79,2.79,0,0,0-2.4-1.5,3.12,3.12,0,0,0-2.9,3.3h0a3.14,3.14,0,0,0,3,3.3h0a3.13,3.13,0,0,0,2.5-1.3V62.8h-1.8V62h2.7v4.2h-.9Z"/><path d="M69.81,64.4c0-1.2,1.1-2,2.6-2a5.66,5.66,0,0,1,1.8.3v-.5a1.48,1.48,0,0,0-1.4-1.6h-.3a3.72,3.72,0,0,0-2,.7l-.3-.7a4.38,4.38,0,0,1,2.5-.8,2.37,2.37,0,0,1,2.6,2.1v3c0,.3.1.4.3.4v.9h-.4c-.4,0-.8-.2-.8-.6v-.4A2.85,2.85,0,0,1,72,66.4a2.18,2.18,0,0,1-2.2-2Zm4.2.4a.76.76,0,0,0,.2-.5v-.9a4.15,4.15,0,0,0-1.6-.3c-1.1,0-1.8.5-1.8,1.2a1.22,1.22,0,0,0,1.4,1.2h.1A2.34,2.34,0,0,0,74,64.8Z"/><path d="M77,58.8V57.5h1v1.3Zm0,7.4V59.9h1v6.3Z"/><path d="M85.11,66.2h-1V62.7c0-1.3-.4-1.9-1.2-1.9a2.39,2.39,0,0,0-2.1,1.6v3.8h-1V59.9h1v1.3a3,3,0,0,1,2.6-1.5c1.4,0,1.9,1.1,1.9,2.6Z"/><path d="M86.31,63.1a3.14,3.14,0,0,1,3.1-3.2h.1a3.12,3.12,0,0,1,3.1,3.1v.5h-5.2a2.18,2.18,0,0,0,2.1,2.1,2.23,2.23,0,0,0,1.8-1l.9.2a3,3,0,0,1-2.7,1.6,3.2,3.2,0,0,1-3.2-3.1Zm5.4-.4a2.16,2.16,0,0,0-2.1-2,2.09,2.09,0,0,0-2.1,2Z"/><path d="M93.41,63.1a2.94,2.94,0,0,1,2.7-3.2h.1a2.65,2.65,0,0,1,2.3,1.4V57.6h1.1v7.5c0,.3.1.4.3.4v.9h-.4c-.4,0-.8-.2-.8-.6h0V65a2.77,2.77,0,0,1-2.3,1.3A3.18,3.18,0,0,1,93.41,63.1Zm5.2.9V62.2a2.44,2.44,0,0,0-2-1.5,2.2,2.2,0,0,0-2,2.3,2.22,2.22,0,0,0,2.1,2.3h0a1.84,1.84,0,0,0,1.9-1.3Z"/><path d="M103.91,64.4c0-1.2,1.1-2,2.6-2a5.66,5.66,0,0,1,1.8.3v-.5a1.48,1.48,0,0,0-1.4-1.6h-.3a3.72,3.72,0,0,0-2,.7l-.3-.7a4.31,4.31,0,0,1,2.4-.8,2.37,2.37,0,0,1,2.6,2.1v3c0,.3.1.4.3.4v.9h-.4a.76.76,0,0,1-.8-.6v-.4a3.13,3.13,0,0,1-2.4,1.2,2.34,2.34,0,0,1-2.1-2Zm4.2.4a.76.76,0,0,0,.2-.5v-.9a4.15,4.15,0,0,0-1.6-.3c-1.1,0-1.8.5-1.8,1.2a1.18,1.18,0,0,0,1.3,1.2h.1A2.41,2.41,0,0,0,108.11,64.8Z"/><path d="M117.81,57.6a3.41,3.41,0,0,1,3.2,1.9l-.9.5a2.43,2.43,0,0,0-2.4-1.4,3.12,3.12,0,0,0-2.9,3.3V62a3.17,3.17,0,0,0,3,3.4h0a2.67,2.67,0,0,0,2.4-1.5l.9.5a3.79,3.79,0,0,1-3.4,2,4.23,4.23,0,0,1-4-4.4,4.32,4.32,0,0,1,4.1-4.4Z"/><path d="M121.91,63.1a3.08,3.08,0,0,1,3.1-3.2h.1a3.12,3.12,0,0,1,3.1,3.1v.5H123a2.11,2.11,0,0,0,2.1,2.1,2.23,2.23,0,0,0,1.8-1l.9.2a3,3,0,0,1-2.7,1.6,3.16,3.16,0,0,1-3.2-3.2Zm5.3-.4a2.1,2.1,0,0,0-4.2,0Z"/><path d="M132.71,60.9a2.29,2.29,0,0,0-2.2,1.5v3.9h-1.1V60h1v1.5a2.44,2.44,0,0,1,2-1.5h.4Z"/><path d="M137,65.9a4.19,4.19,0,0,1-1.5.4,1.24,1.24,0,0,1-1.4-1.1V60.8h-.9V60h.9V57.9h1V60h1.4v.8h-1.4v3.9a.68.68,0,0,0,.7.7h.1a1.61,1.61,0,0,0,.9-.3Z"/><path d="M137.91,58.8V57.5h1v1.3Zm0,7.4V59.9h1v6.3Z"/><path d="M141,61.5h-.9v-.8h.9v-.9a2.34,2.34,0,0,1,2.1-2.5h.2a3.61,3.61,0,0,1,2,.6l-.4.8a2.39,2.39,0,0,0-1.4-.5,1.35,1.35,0,0,0-1.4,1.3v1.1h3.2v5.5h-1.1V61.4H142v4.7h-1Z"/><path d="M149.71,59.8a2.63,2.63,0,0,1,2.6,1.5l-1,.3a1.8,1.8,0,0,0-1.6-.9,2.14,2.14,0,0,0-2.1,2.2V63a2.31,2.31,0,0,0,2.1,2.4,2.06,2.06,0,0,0,1.7-1l1,.3a3,3,0,0,1-2.7,1.6,3.16,3.16,0,0,1-3.2-3.2V63a3.12,3.12,0,0,1,3-3.2Z"/><path d="M153.11,64.4c0-1.2,1.1-2,2.6-2a5.66,5.66,0,0,1,1.8.3v-.5a1.48,1.48,0,0,0-1.4-1.6h-.3a3.72,3.72,0,0,0-2,.7l-.4-.7a4.38,4.38,0,0,1,2.5-.8,2.37,2.37,0,0,1,2.6,2.1v3c0,.3.1.4.3.4v.9h-.4c-.4,0-.8-.2-.8-.6v-.4a3.13,3.13,0,0,1-2.4,1.2,2.25,2.25,0,0,1-2.1-2Zm4.1.4a.76.76,0,0,0,.2-.5v-.9a4.15,4.15,0,0,0-1.6-.3c-1.1,0-1.8.5-1.8,1.2a1.22,1.22,0,0,0,1.4,1.2h.1a2.19,2.19,0,0,0,1.7-.7Z"/><path d="M163.41,65.9a4.19,4.19,0,0,1-1.5.4,1.24,1.24,0,0,1-1.4-1.1V60.8h-.9V60h.9V57.9h1.1V60H163v.8h-1.4v3.9a.67.67,0,0,0,.6.7h.1a1.61,1.61,0,0,0,.9-.3Z"/><path d="M163.91,63.1a3.08,3.08,0,0,1,3.1-3.2h.1a3.12,3.12,0,0,1,3.1,3.1v.5H165a2.11,2.11,0,0,0,2.1,2.1,2.23,2.23,0,0,0,1.8-1l.9.2a3,3,0,0,1-2.7,1.6,3.16,3.16,0,0,1-3.2-3.2Zm5.3-.4a2.1,2.1,0,0,0-4.2,0Z"/><path d="M174.61,66.2V57.7h1.1v8.5Z"/><path d="M177.71,66.2V57.7h1.1v8.5Z"/><path d="M180.81,66.2V57.7h1.1v8.5Z"/><path d="M192.71,66.2l-.9-.9a3.47,3.47,0,0,1-2.5,1,2.48,2.48,0,0,1-2.7-2.3h0a3,3,0,0,1,1.7-2.5c-.8-.9-1.1-1.4-1.1-2a2,2,0,0,1,2.1-1.9h.1a1.9,1.9,0,0,1,2.1,1.6v.1c0,1-.8,1.6-1.8,2.2l2.2,2.3a4.55,4.55,0,0,0,.5-2h.9a5.19,5.19,0,0,1-.7,2.7l1.6,1.7Zm-1.5-1.5-2.4-2.6a2.59,2.59,0,0,0-1.3,1.9,1.67,1.67,0,0,0,1.8,1.5h.1A2.5,2.5,0,0,0,191.21,64.7ZM189,60.9c.8-.5,1.4-1,1.4-1.6a.94.94,0,0,0-1-1h-.1a1.13,1.13,0,0,0-1.2,1.1h0C188.11,59.8,188.21,60.1,189,60.9Z"/><path d="M198.21,66.2V57.7h1.1v8.5Z"/><path d="M201.51,57.7l2.8,7.2,2.8-7.2h1.1l-3.5,8.5h-.9l-3.5-8.5Z"/><path d="M211.81,58.8V57.5h1.1v1.3Zm0,7.4V59.9h1.1v6.3Z"/><path d="M220,66.2h-1.1V62.7c0-1.3-.4-1.9-1.2-1.9a2.39,2.39,0,0,0-2.1,1.6v3.8h-1.1V59.9h1v1.3a3,3,0,0,1,2.6-1.5c1.4,0,1.9,1.1,1.9,2.6v3.9Z"/><path d="M224.81,66.2V57.7h5.6v1h-4.6v2.8h3.8v.9h-3.8v3.8Z"/><path d="M230.41,64.4c0-1.2,1.1-2,2.6-2a5.66,5.66,0,0,1,1.8.3v-.5a1.48,1.48,0,0,0-1.4-1.6h-.3a3.72,3.72,0,0,0-2,.7l-.4-.7a4.38,4.38,0,0,1,2.5-.8,2.37,2.37,0,0,1,2.6,2.1v3c0,.3.1.4.3.4v.9h-.4a.76.76,0,0,1-.8-.6v-.4a3.13,3.13,0,0,1-2.4,1.2,2.34,2.34,0,0,1-2.1-2Zm4.2.4a.76.76,0,0,0,.2-.5v-.9a4.15,4.15,0,0,0-1.6-.3c-1.1,0-1.8.5-1.8,1.2a1.18,1.18,0,0,0,1.3,1.2h.1A2.41,2.41,0,0,0,234.61,64.8Z"/><path d="M237,65.4l.5-.7a3.57,3.57,0,0,0,2.3.8c.9,0,1.5-.4,1.5-1s-.6-.8-1.8-1.1c-1.5-.4-2.1-.7-2.1-1.6,0-1.3,1.1-2,2.4-2a4.07,4.07,0,0,1,2.4.8l-.5.6a2.64,2.64,0,0,0-1.9-.7c-.8,0-1.4.3-1.4,1s.4.7,1.5,1c1.7.4,2.5.7,2.5,1.8s-1,1.9-2.5,1.9A4.14,4.14,0,0,1,237,65.4Z"/><path d="M248.91,66.2h-1.1V62.7c0-1.3-.5-1.9-1.3-1.9a2.37,2.37,0,0,0-2,1.6v3.8h-1.1V57.5h1.1v3.8a3,3,0,0,1,2.4-1.5c1.5,0,2,1.1,2,2.6Z"/><path d="M250.51,58.8V57.5h1v1.3Zm0,7.4V59.9h1v6.3Z"/><path d="M252.81,63.1a3.15,3.15,0,0,1,6.3.1,3.12,3.12,0,0,1-3.1,3.1,3.22,3.22,0,0,1-3.2-3.2Zm3.2,2.3a2.36,2.36,0,1,0-2.1-2.6v.3A2.29,2.29,0,0,0,256,65.4Z"/><path d="M265.81,66.2h-1.1V62.7c0-1.3-.4-1.9-1.2-1.9a2.39,2.39,0,0,0-2.1,1.6v3.8h-1.1V59.9h1v1.3a2.71,2.71,0,0,1,2.6-1.4c1.5,0,1.9,1.1,1.9,2.6Z"/><path d="M270.61,66.2V57.7h3a3.85,3.85,0,0,1,4.1,3.7V62a3.94,3.94,0,0,1-3.6,4.3h-3.5Zm3-7.6h-1.9v6.6h1.9c2,0,3-1.4,3-3.3a3,3,0,0,0-3-3.3Z"/><path d="M278.71,63.1a3.08,3.08,0,0,1,3.1-3.2h.1A3.12,3.12,0,0,1,285,63v.5h-5.2a2.11,2.11,0,0,0,2.1,2.1,2.23,2.23,0,0,0,1.8-1l.9.2a3,3,0,0,1-2.7,1.6,3.14,3.14,0,0,1-3.2-3.1Zm5.3-.4a2.16,2.16,0,0,0-2.1-2,2.09,2.09,0,0,0-2.1,2Z"/><path d="M285.61,65.4l.5-.7a3.57,3.57,0,0,0,2.3.8c.9,0,1.5-.4,1.5-1s-.6-.8-1.8-1.1c-1.5-.4-2.1-.7-2.1-1.6,0-1.3,1.1-2,2.4-2a4.07,4.07,0,0,1,2.4.8l-.5.6a2.64,2.64,0,0,0-1.9-.7c-.8,0-1.4.3-1.4,1s.4.7,1.5,1c1.7.4,2.5.7,2.5,1.8s-1,1.9-2.5,1.9A4.14,4.14,0,0,1,285.61,65.4Z"/><path d="M292.11,58.8V57.5h1.1v1.3Zm0,7.4V59.9h1.1v6.3Z"/><path d="M294.41,63.1a2.94,2.94,0,0,1,2.7-3.2h.2a2.54,2.54,0,0,1,2.3,1.4V60h.9v6.2c0,1.8-1.4,2.8-3.2,2.8a2.93,2.93,0,0,1-2.8-1.4l.6-.5a2.66,2.66,0,0,0,2.2,1.1,1.9,1.9,0,0,0,2.1-1.7V65a2.51,2.51,0,0,1-2.2,1.2,2.87,2.87,0,0,1-2.8-3.1Zm5.1.9V62.2a2.44,2.44,0,0,0-2-1.5,2.37,2.37,0,0,0,.1,4.7,2,2,0,0,0,1.9-1.4Z"/><path d="M307.71,66.2h-1.1V62.7c0-1.3-.4-1.9-1.2-1.9a2.39,2.39,0,0,0-2.1,1.6v3.8h-1V59.9h1v1.3a3,3,0,0,1,2.6-1.5c1.5,0,1.9,1.1,1.9,2.6Z"/><path d="M311.81,64.4c0-1.2,1.1-2,2.6-2a5.66,5.66,0,0,1,1.8.3v-.5a1.48,1.48,0,0,0-1.4-1.6h-.3a3.72,3.72,0,0,0-2,.7l-.4-.7a4.38,4.38,0,0,1,2.5-.8,2.37,2.37,0,0,1,2.6,2.1v3c0,.3.1.4.3.4v.9h-.4a.76.76,0,0,1-.8-.6v-.4a2.73,2.73,0,0,1-2.4,1.2,2,2,0,0,1-2.2-1.8A.31.31,0,0,0,311.81,64.4Zm4.2.4a.76.76,0,0,0,.2-.5v-.9a4.15,4.15,0,0,0-1.6-.3c-1.1,0-1.8.5-1.8,1.2a1.18,1.18,0,0,0,1.3,1.2h.1a2.41,2.41,0,0,0,1.8-.7Z"/><path d="M324.41,66.2h-1.1V62.7c0-1.3-.4-1.9-1.2-1.9a2.39,2.39,0,0,0-2.1,1.6v3.8h-1V59.9h1v1.3a3.11,3.11,0,0,1,2.6-1.5c1.5,0,1.9,1.1,1.9,2.6Z"/><path d="M325.61,63.1a2.94,2.94,0,0,1,2.7-3.2h.1a2.65,2.65,0,0,1,2.3,1.4V57.6h1.1v7.5c0,.3.1.4.3.4v.9h-.4c-.4,0-.8-.2-.8-.6h0V65a2.77,2.77,0,0,1-2.3,1.3,3.18,3.18,0,0,1-3-3.2Zm5.1.9V62.2a2.44,2.44,0,0,0-2-1.5,2.14,2.14,0,0,0-2,2.3,2.22,2.22,0,0,0,2.1,2.3,1.77,1.77,0,0,0,1.9-1.3Z"/><path d="M62.61,79.4v1.2h-.9V71.8h1v3.7A2.88,2.88,0,0,1,65,74.1a3,3,0,0,1,2.8,3.2v.1a3,3,0,0,1-2.9,3.2h-.1A2.32,2.32,0,0,1,62.61,79.4Zm4.2-1.9a2.1,2.1,0,0,0-2.1-2.3,2.27,2.27,0,0,0-2,1.5v1.8a2,2,0,0,0,1.9,1.4,2.4,2.4,0,0,0,2.2-2.4Z"/><path d="M68.71,77.5a3.08,3.08,0,0,1,3.1-3.2H72a3.12,3.12,0,0,1,3.1,3.1v.5h-5.3a2.11,2.11,0,0,0,2.1,2.1,2.23,2.23,0,0,0,1.8-1l.9.2a3,3,0,0,1-2.7,1.6,3.14,3.14,0,0,1-3.2-3.1Zm5.4-.4A2.26,2.26,0,0,0,72,75a2.09,2.09,0,0,0-2.1,2Z"/><path d="M75.81,77.5a2.94,2.94,0,0,1,2.7-3.2h.2A2.54,2.54,0,0,1,81,75.7V74.4h1v6.2c0,1.8-1.4,2.8-3.2,2.8A3.13,3.13,0,0,1,76,82l.6-.5a2.66,2.66,0,0,0,2.2,1.1,1.9,1.9,0,0,0,2.1-1.6V79.6a2.51,2.51,0,0,1-2.2,1.2,2.89,2.89,0,0,1-2.9-3.1Zm5.2.9V76.6a2.44,2.44,0,0,0-2-1.5,2.37,2.37,0,0,0,.1,4.7A2,2,0,0,0,81,78.4Z"/><path d="M83.21,78.8c0-1.2,1.1-2,2.6-2a5.66,5.66,0,0,1,1.8.3v-.5a1.55,1.55,0,0,0-1.4-1.6H86a3.72,3.72,0,0,0-2,.7l-.3-.7a4.38,4.38,0,0,1,2.5-.8,2.37,2.37,0,0,1,2.6,2.1v3c0,.3.1.4.3.4v.9a.6.6,0,0,0-.4.1.76.76,0,0,1-.8-.6v-.4a3.3,3.3,0,0,1-2.4,1.2,2,2,0,0,1-2.2-1.8A.77.77,0,0,1,83.21,78.8Zm4.2.4a.76.76,0,0,0,.2-.5v-.9a4.15,4.15,0,0,0-1.6-.3c-1.1,0-1.8.5-1.8,1.2a1.22,1.22,0,0,0,1.4,1.2h.1A2.34,2.34,0,0,0,87.41,79.2Z"/><path d="M95.81,80.6h-1.1V77.1c0-1.3-.4-1.9-1.2-1.9a2.39,2.39,0,0,0-2.1,1.6v3.8h-1V74.3h1v1.3A2.71,2.71,0,0,1,94,74.2c1.4,0,1.9,1.1,1.9,2.6Z"/><path d="M99.91,79.8l.5-.7a3.57,3.57,0,0,0,2.3.8c.9,0,1.5-.4,1.5-1s-.6-.8-1.8-1.1c-1.5-.4-2.2-.7-2.2-1.6,0-1.3,1.1-2,2.4-2a3.57,3.57,0,0,1,2.3.8l-.5.6a2.64,2.64,0,0,0-1.9-.7c-.8,0-1.4.3-1.4,1s.4.7,1.5,1c1.7.4,2.5.7,2.5,1.8s-1,1.9-2.5,1.9A3.77,3.77,0,0,1,99.91,79.8Z"/><path d="M109.61,80.3a4.19,4.19,0,0,1-1.5.4,1.24,1.24,0,0,1-1.4-1.1V75.2h-.8v-.8h.8V72.3h1.1v2.1h1.4v.8h-1.4V79a.67.67,0,0,0,.6.7h.1a1.61,1.61,0,0,0,.9-.3Z"/><path d="M110.41,78.1V74.3h1v3.6c0,1.3.4,1.9,1.3,1.9a2.35,2.35,0,0,0,2.1-1.6V74.3h1v5c0,.3.1.4.3.4v.9a.6.6,0,0,0-.4.1c-.5,0-.8-.2-.8-.6v-.8a3,3,0,0,1-2.6,1.5C111.11,80.7,110.41,79.8,110.41,78.1Z"/><path d="M117.31,77.5a2.94,2.94,0,0,1,2.7-3.2h.1a2.65,2.65,0,0,1,2.3,1.4V72h1.1v7.5c0,.3.1.4.3.4v.9a.6.6,0,0,0-.4.1c-.4,0-.8-.2-.8-.6h0v-.6a2.77,2.77,0,0,1-2.3,1.3,3.55,3.55,0,0,1-3-3.5Zm5.1.9V76.6a2.44,2.44,0,0,0-2-1.5,2.2,2.2,0,0,0-2,2.3,2.22,2.22,0,0,0,2.1,2.3h0A1.77,1.77,0,0,0,122.41,78.4Z"/><path d="M125.51,82.3h.6c.3,0,.5-.1,1.1-1.8l-2.7-6.3h1.1l2.1,5.3,1.9-5.3h1l-3.1,7.9a1.43,1.43,0,0,1-1.6,1,.75.75,0,0,1-.5-.1Z"/><path d="M131.81,73.2V71.9h1v1.3Zm0,7.4V74.3h1v6.3Z"/><path d="M139.91,80.6h-1V77.1c0-1.3-.4-1.9-1.2-1.9a2.39,2.39,0,0,0-2.1,1.6v3.8h-1.1V74.3h1v1.3a2.71,2.71,0,0,1,2.6-1.4c1.4,0,1.9,1.1,1.9,2.6Z"/><path d="M141.11,77.5a2.94,2.94,0,0,1,2.7-3.2h.2a2.54,2.54,0,0,1,2.3,1.4V74.4h.9v6.2c0,1.8-1.4,2.8-3.2,2.8a2.93,2.93,0,0,1-2.8-1.4l.6-.5a2.66,2.66,0,0,0,2.2,1.1,1.9,1.9,0,0,0,2.1-1.7V79.5a2.51,2.51,0,0,1-2.2,1.2,3.09,3.09,0,0,1-2.8-3.2Zm5.1.9V76.6a2.44,2.44,0,0,0-2-1.5,2.29,2.29,0,0,0-2.1,2.3h0a2.22,2.22,0,0,0,2.1,2.3A1.81,1.81,0,0,0,146.21,78.4Z"/><path d="M158.21,79.4a3.22,3.22,0,0,1-2.6,1.2,4.2,4.2,0,0,1-4-4.3,4.14,4.14,0,0,1,4-4.3h0a3.17,3.17,0,0,1,3.2,1.9l-.8.6a2.79,2.79,0,0,0-2.4-1.5,3.12,3.12,0,0,0-2.9,3.3h0a3.14,3.14,0,0,0,3,3.3h0a3.13,3.13,0,0,0,2.5-1.3V77.1h-1.8v-.8h2.8v4.2h-.9Z"/><path d="M163.91,75.3a2.29,2.29,0,0,0-2.2,1.5v3.9h-1.1V74.4h1v1.4a2.44,2.44,0,0,1,2-1.5h.4Z"/><path d="M164.41,78.8c0-1.2,1.1-2,2.6-2a5.66,5.66,0,0,1,1.8.3v-.5a1.48,1.48,0,0,0-1.4-1.6h-.3a3.72,3.72,0,0,0-2,.7l-.3-.7a4.31,4.31,0,0,1,2.4-.8,2.37,2.37,0,0,1,2.6,2.1v3c0,.3.1.4.3.4v.9a.6.6,0,0,0-.4.1.76.76,0,0,1-.8-.6v-.4a3.13,3.13,0,0,1-2.4,1.2,2,2,0,0,1-2.2-1.8A.77.77,0,0,0,164.41,78.8Zm4.1.4a.76.76,0,0,0,.2-.5v-.9a4.15,4.15,0,0,0-1.6-.3c-1.1,0-1.8.5-1.8,1.2a1.18,1.18,0,0,0,1.3,1.2h.1A2.27,2.27,0,0,0,168.51,79.2Z"/><path d="M172.61,79.4v3.8h-1.1V74.4h.9v1.2a2.65,2.65,0,0,1,2.3-1.3,3.12,3.12,0,0,1,3,3.2h0a2.94,2.94,0,0,1-2.7,3.2h-.1A2.53,2.53,0,0,1,172.61,79.4Zm4-1.9a2.22,2.22,0,0,0-2.1-2.3,2,2,0,0,0-1.9,1.4v1.8a2.44,2.44,0,0,0,2,1.5,2.38,2.38,0,0,0,2-2.4Z"/><path d="M184.41,80.6h-1V77.1c0-1.3-.5-1.9-1.3-1.9a2.37,2.37,0,0,0-2,1.6v3.8H179V71.8h1v3.8a2.69,2.69,0,0,1,2.4-1.4c1.5,0,2,1.1,2,2.6Z"/><path d="M186,73.2V71.9h1v1.3Zm0,7.4V74.3h1v6.3Z"/><path d="M191.51,74.2a2.63,2.63,0,0,1,2.6,1.5l-1,.3a1.8,1.8,0,0,0-1.6-.9,2.2,2.2,0,0,0-2.1,2.2v.1a2.16,2.16,0,0,0,2.1,2.3,1.94,1.94,0,0,0,1.7-1l1,.3a2.92,2.92,0,0,1-2.7,1.6,3.16,3.16,0,0,1-3.2-3.2v-.1a3.12,3.12,0,0,1,3-3.2C191.41,74.2,191.41,74.2,191.51,74.2Z"/><path d="M198,77.5a2.94,2.94,0,0,1,2.7-3.2h.1a2.65,2.65,0,0,1,2.3,1.4V72h1.1v7.5c0,.3.1.4.3.4v.9a.6.6,0,0,0-.4.1c-.4,0-.8-.2-.8-.6h0v-.6A2.77,2.77,0,0,1,201,81a3.54,3.54,0,0,1-3-3.5Zm5.1.9V76.6a2.44,2.44,0,0,0-2-1.5,2.2,2.2,0,0,0-2,2.3,2.22,2.22,0,0,0,2.1,2.3,1.84,1.84,0,0,0,1.9-1.3Z"/><path d="M205.51,77.5a3.08,3.08,0,0,1,3.1-3.2h.1a3.12,3.12,0,0,1,3.1,3.1v.5h-5.2a2.11,2.11,0,0,0,2.1,2.1,2.23,2.23,0,0,0,1.8-1l.9.2a3,3,0,0,1-2.7,1.6,3.14,3.14,0,0,1-3.2-3.1Zm5.4-.4a2.1,2.1,0,0,0-4.2,0Z"/><path d="M212.51,79.8l.5-.7a3.57,3.57,0,0,0,2.3.8c.9,0,1.5-.4,1.5-1s-.6-.8-1.8-1.1c-1.5-.4-2.1-.7-2.1-1.6,0-1.3,1.1-2,2.4-2a4.07,4.07,0,0,1,2.4.8l-.5.6a2.64,2.64,0,0,0-1.9-.7c-.8,0-1.4.3-1.4,1s.4.7,1.5,1c1.7.4,2.5.7,2.5,1.8s-1,1.9-2.5,1.9A4.14,4.14,0,0,1,212.51,79.8Z"/><path d="M218.91,73.2V71.9H220v1.3Zm0,7.4V74.3H220v6.3Z"/><path d="M221.31,77.5a2.94,2.94,0,0,1,2.7-3.2h.2a2.54,2.54,0,0,1,2.3,1.4V74.4h.9v6.2c0,1.8-1.4,2.8-3.2,2.8a2.93,2.93,0,0,1-2.8-1.4l.6-.5a2.66,2.66,0,0,0,2.2,1.1,1.9,1.9,0,0,0,2.1-1.7V79.5a2.51,2.51,0,0,1-2.2,1.2,3,3,0,0,1-2.8-3.2Zm5.1.9V76.6a2.44,2.44,0,0,0-2-1.5,2.37,2.37,0,0,0,.1,4.7,2,2,0,0,0,1.9-1.4Z"/><path d="M234.51,80.6h-1.1V77.1c0-1.3-.4-1.9-1.2-1.9a2.39,2.39,0,0,0-2.1,1.6v3.8h-1V74.3h1v1.3a2.71,2.71,0,0,1,2.6-1.4c1.4,0,1.9,1.1,1.9,2.6Z"/><path d="M238.71,78.8c0-1.2,1.1-2,2.6-2a5.66,5.66,0,0,1,1.8.3v-.5a1.48,1.48,0,0,0-1.4-1.6h-.2a3.72,3.72,0,0,0-2,.7l-.4-.7a4.38,4.38,0,0,1,2.5-.8,2.37,2.37,0,0,1,2.6,2.1v3c0,.3.1.4.3.4v.9a.6.6,0,0,0-.4.1.76.76,0,0,1-.8-.6v-.4a3.3,3.3,0,0,1-2.4,1.2,2.27,2.27,0,0,1-2.2-2.1Zm4.1.4a.76.76,0,0,0,.2-.5v-.9a4.15,4.15,0,0,0-1.6-.3c-1.1,0-1.8.5-1.8,1.2a1.22,1.22,0,0,0,1.4,1.2h.1A2.06,2.06,0,0,0,242.81,79.2Z"/><path d="M249,80.3a4.19,4.19,0,0,1-1.5.4,1.33,1.33,0,0,1-1.5-1V75.2h-.9v-.8h.9V72.3h1.1v2.1h1.4v.8h-1.4V79a.75.75,0,0,0,.6.7h.1a1.61,1.61,0,0,0,.9-.3Z"/><path d="M258.91,73.1H256v7.5h-1.1V73.1H252v-1h7Z"/><path d="M258.41,78.8c0-1.2,1.1-2,2.6-2a5.66,5.66,0,0,1,1.8.3v-.5a1.48,1.48,0,0,0-1.4-1.6h-.3a3.72,3.72,0,0,0-2,.7l-.3-.7a4.38,4.38,0,0,1,2.5-.8,2.37,2.37,0,0,1,2.6,2.1v3c0,.3.1.4.3.4v.9a.6.6,0,0,0-.4.1.68.68,0,0,1-.7-.7v-.4a3.13,3.13,0,0,1-2.4,1.2,1.94,1.94,0,0,1-2.2-1.7C258.41,78.9,258.41,78.9,258.41,78.8Zm4.2.4a.76.76,0,0,0,.2-.5v-.9a4.15,4.15,0,0,0-1.6-.3c-1.1,0-1.8.5-1.8,1.2a1.18,1.18,0,0,0,1.3,1.2h.1a2.41,2.41,0,0,0,1.8-.7Z"/><path d="M265.91,80.6V75.9H265v-.8h.9v-.9c0-1.5.7-2.5,1.9-2.5a2.3,2.3,0,0,1,1.4.4l-.3.8a1.61,1.61,0,0,0-.9-.3c-.7,0-1.1.6-1.1,1.5V75h1.7v.8h-1.7v4.7Z"/><path d="M269.41,77.5a3.08,3.08,0,0,1,3.1-3.2h.1a3.12,3.12,0,0,1,3.1,3.1v.5h-5.2a2.11,2.11,0,0,0,2.1,2.1,2.23,2.23,0,0,0,1.8-1l.9.2a3,3,0,0,1-2.7,1.6,3.14,3.14,0,0,1-3.2-3.1Zm5.3-.4a2.16,2.16,0,0,0-2.1-2,2.09,2.09,0,0,0-2.1,2Z"/><path d="M276.61,80.8c.1,0,.3-.1.3-.2h0V79.4h.9v1.4c0,.7-.6.9-1.2.9Z"/><path d="M282.61,80.6V72.1h1.1v4.7l4.4-4.7h1.2l-3.4,3.8,3.6,4.8h-1.2l-3.1-4.1-1.5,1.5v2.6h-1.1Z"/><path d="M290.21,73.2V71.9h1v1.3Zm0,7.4V74.3h1v6.3Z"/><path d="M298.41,80.6h-1V77.1c0-1.3-.4-1.9-1.2-1.9a2.39,2.39,0,0,0-2.1,1.6v3.8h-1V74.3h1v1.3a2.71,2.71,0,0,1,2.6-1.4c1.5,0,1.9,1.1,1.9,2.6Z"/><path d="M299.61,77.5a2.94,2.94,0,0,1,2.7-3.2h.2a2.54,2.54,0,0,1,2.3,1.4V74.4h.9v6.2c0,1.8-1.4,2.8-3.2,2.8a3.18,3.18,0,0,1-2.9-1.4l.6-.5a2.79,2.79,0,0,0,2.2,1.1,1.9,1.9,0,0,0,2.1-1.7V79.5a2.51,2.51,0,0,1-2.2,1.2,3,3,0,0,1-2.7-3.2Zm5.1.9V76.6a2.44,2.44,0,0,0-2-1.5,2.36,2.36,0,0,0,.1,4.7,2,2,0,0,0,1.9-1.4Z"/><path d="M306.91,79.8l.5-.7a3.57,3.57,0,0,0,2.3.8c.9,0,1.5-.4,1.5-1s-.6-.8-1.8-1.1c-1.5-.4-2.1-.7-2.1-1.6,0-1.3,1.1-2,2.4-2a4.07,4.07,0,0,1,2.4.8l-.5.6a2.64,2.64,0,0,0-1.9-.7c-.8,0-1.4.3-1.4,1s.4.7,1.5,1c1.7.4,2.5.7,2.5,1.8s-1,1.9-2.5,1.9A4.14,4.14,0,0,1,306.91,79.8Z"/><path d="M321.11,74.3h1l-2.7,6.3h-.9l-1.3-3.1L316,80.6h-.9l-2.7-6.3h1l2.2,5.2,1.1-2.6-1.1-2.6h.9l.8,2,.8-2h.9l-1.1,2.7,1,2.6Z"/><path d="M322.51,77.5a3.15,3.15,0,1,1,3.1,3.2,3.14,3.14,0,0,1-3.1-3.2Zm3.1,2.3a2.36,2.36,0,1,0,.5-4.7,2.37,2.37,0,0,0-2.6,2.1v.3a2.29,2.29,0,0,0,2.1,2.3Z"/><path d="M329.61,77.5a3.15,3.15,0,1,1,3.1,3.2,3.2,3.2,0,0,1-3.1-3.2Zm3.2,2.3a2.36,2.36,0,1,0-2.1-2.6v.3a2.29,2.29,0,0,0,2.1,2.3Z"/><path d="M336.81,77.5a2.94,2.94,0,0,1,2.7-3.2h.1a2.44,2.44,0,0,1,2.3,1.4V72h1v7.5c0,.3.1.4.3.4v.9a.6.6,0,0,0-.4.1c-.4,0-.8-.2-.8-.6v-.6a2.77,2.77,0,0,1-2.3,1.3,3.64,3.64,0,0,1-2.9-3.5Zm5.2.9V76.6a2.44,2.44,0,0,0-2-1.5,2.2,2.2,0,0,0-2,2.3,2.22,2.22,0,0,0,2.1,2.3,1.84,1.84,0,0,0,1.9-1.3Z"/><path d="M67.91,122.4a3.22,3.22,0,0,1-2.6,1.2,4.28,4.28,0,0,1-4-4.3,4.14,4.14,0,0,1,4-4.3h0a3.17,3.17,0,0,1,3.2,1.9l-.8.6a2.79,2.79,0,0,0-2.4-1.5,3.12,3.12,0,0,0-2.9,3.3h0a3,3,0,0,0,2.7,3.3,3.05,3.05,0,0,0,2.8-1.3v-1.2h-1.8v-.8h2.7v4.2h-.9Z"/><path d="M69.81,121.7c0-1.2,1.1-2,2.6-2a5.66,5.66,0,0,1,1.8.3v-.5a1.48,1.48,0,0,0-1.4-1.6h-.3a3.72,3.72,0,0,0-2,.7l-.3-.7a4.38,4.38,0,0,1,2.5-.8,2.37,2.37,0,0,1,2.6,2.1v3c0,.3.1.4.3.4v.9h-.4c-.4,0-.8-.2-.8-.6v-.4a2.85,2.85,0,0,1-2.4,1.2,2.18,2.18,0,0,1-2.2-2Zm4.2.4a.76.76,0,0,0,.2-.5v-.9a4.15,4.15,0,0,0-1.6-.3c-1.1,0-1.8.5-1.8,1.2a1.18,1.18,0,0,0,1.3,1.2h.1A2.09,2.09,0,0,0,74,122.1Z"/><path d="M77,116.1v-1.3h1v1.3Zm0,7.4v-6.3h1v6.3Z"/><path d="M85.11,123.5h-1V120c0-1.3-.4-1.9-1.2-1.9a2.39,2.39,0,0,0-2.1,1.6v3.8h-1v-6.3h1v1.3a2.71,2.71,0,0,1,2.6-1.4c1.4,0,1.9,1.1,1.9,2.6Z"/><path d="M86.31,120.4a3.14,3.14,0,0,1,3.1-3.2h.1a3.12,3.12,0,0,1,3.1,3.1v.5h-5.2a2.18,2.18,0,0,0,2.1,2.1,2.23,2.23,0,0,0,1.8-1l.9.3a3,3,0,0,1-2.7,1.6,3.2,3.2,0,0,1-3.2-3.1Zm5.4-.4a2.16,2.16,0,0,0-2.1-2,2.09,2.09,0,0,0-2.1,2Z"/><path d="M93.41,120.4a2.94,2.94,0,0,1,2.7-3.2h.1a2.65,2.65,0,0,1,2.3,1.4v-3.8h1.1v7.5c0,.3.1.4.3.4v.9h-.4c-.4,0-.8-.2-.8-.6h0v-.6a2.77,2.77,0,0,1-2.3,1.3A3.35,3.35,0,0,1,93.41,120.4Zm5.2.9v-1.8a2.44,2.44,0,0,0-2-1.5,2.2,2.2,0,0,0-2,2.3,2.16,2.16,0,0,0,2.1,2.3h0A1.84,1.84,0,0,0,98.61,121.3Z"/><path d="M103.91,121.7c0-1.2,1.1-2,2.6-2a5.66,5.66,0,0,1,1.8.3v-.5a1.42,1.42,0,0,0-1.4-1.6h-.3a3.72,3.72,0,0,0-2,.7l-.3-.7a4.31,4.31,0,0,1,2.4-.8,2.37,2.37,0,0,1,2.6,2.1v3c0,.3.1.4.3.4v.9h-.4a.76.76,0,0,1-.8-.6v-.4a3.13,3.13,0,0,1-2.4,1.2,2.16,2.16,0,0,1-2.1-2Zm4.2.4a.76.76,0,0,0,.2-.5v-.9a4.15,4.15,0,0,0-1.6-.3c-1.1,0-1.8.5-1.8,1.2a1.18,1.18,0,0,0,1.3,1.2h.1A2.09,2.09,0,0,0,108.11,122.1Z"/><path d="M114.31,123.5V115h3a4.3,4.3,0,1,1,0,8.6Zm3-7.5h-1.9v6.6h1.9c2,0,3-1.4,3-3.3s-1.1-3.3-3-3.3Z"/><path d="M122.71,116.1v-1.3h1.1v1.3Zm0,7.4v-6.3h1.1v6.3Z"/><path d="M126.51,122.3v3.8h-1v-8.8h.9v1.2a2.77,2.77,0,0,1,2.3-1.3,3.12,3.12,0,0,1,3,3.2h0a2.94,2.94,0,0,1-2.7,3.2h-.1A2.43,2.43,0,0,1,126.51,122.3Zm4-1.9a2.16,2.16,0,0,0-2.1-2.3,2,2,0,0,0-1.9,1.4v1.8a2.44,2.44,0,0,0,2,1.5,2.31,2.31,0,0,0,2-2.4Z"/><path d="M132.91,114.8H134v7.1c0,.4.2.7.6.7h.1c.2,0,.4-.1.6-.1l.2.8a2.74,2.74,0,0,1-1.3.2,1.11,1.11,0,0,1-1.3-1.1v-7.6Z"/><path d="M135.81,120.4a3.15,3.15,0,1,1,3.1,3.2,3.08,3.08,0,0,1-3.1-3.2Zm3.1,2.3a2.36,2.36,0,1,0-2.1-2.6v.3a2.22,2.22,0,0,0,2.1,2.3Z"/><path d="M152.81,123.5h-1.1V120c0-1.3-.4-1.9-1.3-1.9a2.12,2.12,0,0,0-1.9,1.7v3.8h-1V120c0-1.3-.4-1.9-1.2-1.9a2.13,2.13,0,0,0-1.9,1.6v3.8h-1v-6.3h1v1.3a2.43,2.43,0,0,1,2.4-1.4,1.67,1.67,0,0,1,1.8,1.5,2.67,2.67,0,0,1,2.4-1.5c1.4,0,1.9,1.1,1.9,2.6Z"/><path d="M153.91,121.7c0-1.2,1.1-2,2.6-2a5.66,5.66,0,0,1,1.8.3v-.5a1.42,1.42,0,0,0-1.4-1.6h-.3a3.72,3.72,0,0,0-2,.7l-.3-.7a4.31,4.31,0,0,1,2.4-.8,2.37,2.37,0,0,1,2.6,2.1v3c0,.3.1.4.3.4v.9h-.4a.76.76,0,0,1-.8-.6v-.4a3.13,3.13,0,0,1-2.4,1.2,2.16,2.16,0,0,1-2.1-2Zm4.2.4a.76.76,0,0,0,.2-.5v-.9a4.15,4.15,0,0,0-1.6-.3c-1.1,0-1.8.5-1.8,1.2a1.18,1.18,0,0,0,1.3,1.2h.1A2.09,2.09,0,0,0,158.11,122.1Z"/><path d="M164.11,116.1v-1.3h1.1v1.3Zm0,7.4v-6.3h1.1v6.3Z"/><path d="M172.21,123.5h-1.1V120c0-1.3-.4-1.9-1.2-1.9a2.39,2.39,0,0,0-2.1,1.6v3.8h-1.1v-6.3h1v1.3a2.71,2.71,0,0,1,2.6-1.4c1.4,0,1.9,1.1,1.9,2.6Z"/><path d="M183.11,122.4a3.22,3.22,0,0,1-2.6,1.2,4.2,4.2,0,0,1-4-4.3,4.14,4.14,0,0,1,4-4.3h0a3.17,3.17,0,0,1,3.2,1.9l-.8.6a2.79,2.79,0,0,0-2.4-1.5,3.12,3.12,0,0,0-2.9,3.3h0a3.14,3.14,0,0,0,3,3.3h0a3.13,3.13,0,0,0,2.5-1.3v-1.2h-1.8v-.8H184v4.2h-.9v-1.1Z"/><path d="M188.81,118.2a2.53,2.53,0,0,0-2.3,1.5v3.9h-1.1v-6.3h1v1.4a2.44,2.44,0,0,1,2-1.5h.4Z"/><path d="M189.21,121.7c0-1.2,1.1-2,2.6-2a5.66,5.66,0,0,1,1.8.3v-.5a1.42,1.42,0,0,0-1.4-1.6h-.3a3.72,3.72,0,0,0-2,.7l-.4-.7a4.38,4.38,0,0,1,2.5-.8,2.37,2.37,0,0,1,2.6,2.1v3c0,.3.1.4.3.4v.9h-.4a.76.76,0,0,1-.8-.6v-.4a3.7,3.7,0,0,1-2.4,1.2,2.16,2.16,0,0,1-2.1-2Zm4.2.4a.76.76,0,0,0,.2-.5v-.9a4.15,4.15,0,0,0-1.6-.3c-1.1,0-1.8.5-1.8,1.2a1.18,1.18,0,0,0,1.3,1.2h.1A2.09,2.09,0,0,0,193.41,122.1Z"/><path d="M197.41,122.3v3.8h-1.1v-8.8h.9v1.2a2.77,2.77,0,0,1,2.3-1.3,3.12,3.12,0,0,1,3,3.2h0a2.94,2.94,0,0,1-2.7,3.2h-.1A2.56,2.56,0,0,1,197.41,122.3Zm4-1.9a2.16,2.16,0,0,0-2.1-2.3,2,2,0,0,0-1.9,1.4v1.8a2.44,2.44,0,0,0,2,1.5,2.23,2.23,0,0,0,2-2.4Z"/><path d="M209.31,123.5h-1.1V120c0-1.3-.5-1.9-1.3-1.9a2.37,2.37,0,0,0-2,1.6v3.8h-1v-8.8h1v3.8a2.69,2.69,0,0,1,2.4-1.4c1.5,0,2,1.1,2,2.6Z"/><path d="M210.91,116.1v-1.3h1v1.3Zm0,7.4v-6.3h1v6.3Z"/><path d="M216.41,117.2a2.63,2.63,0,0,1,2.6,1.5l-1,.3a1.62,1.62,0,0,0-1.6-.9,2.22,2.22,0,0,0-2.1,2.3v.1a2.16,2.16,0,0,0,2.1,2.3,2.06,2.06,0,0,0,1.7-1l1,.3a3,3,0,0,1-2.7,1.6,3.16,3.16,0,0,1-3.2-3.2v-.1a3.12,3.12,0,0,1,3-3.2Z"/><path d="M222.81,120.4a2.94,2.94,0,0,1,2.7-3.2h.1a2.65,2.65,0,0,1,2.3,1.4v-3.8h1v7.5c0,.3.1.4.3.4v.9h-.4c-.4,0-.8-.2-.8-.6h0v-.6a2.77,2.77,0,0,1-2.3,1.3A3.35,3.35,0,0,1,222.81,120.4Zm5.2.9v-1.8a2.44,2.44,0,0,0-2-1.5,2.2,2.2,0,0,0-2,2.3,2.16,2.16,0,0,0,2.1,2.3h0a1.84,1.84,0,0,0,1.9-1.3Z"/><path d="M230.41,120.4a3.08,3.08,0,0,1,3.1-3.2h.1a3.12,3.12,0,0,1,3.1,3.1v.5h-5.2a2.18,2.18,0,0,0,2.1,2.1,2.23,2.23,0,0,0,1.8-1l.9.3a3,3,0,0,1-2.7,1.6,3.2,3.2,0,0,1-3.2-3.1Zm5.3-.4a2.16,2.16,0,0,0-2.1-2,2.09,2.09,0,0,0-2.1,2Z"/><path d="M237.41,122.7l.4-.7a3.57,3.57,0,0,0,2.3.8c.9,0,1.5-.4,1.5-1s-.6-.8-1.8-1.1c-1.5-.4-2.1-.7-2.1-1.7,0-1.3,1.1-1.9,2.4-1.9a4.07,4.07,0,0,1,2.4.8l-.5.6a3.16,3.16,0,0,0-1.9-.7c-.8,0-1.4.3-1.4,1s.4.7,1.5,1c1.7.4,2.5.7,2.5,1.8s-1,1.9-2.5,1.9A3.16,3.16,0,0,1,237.41,122.7Z"/><path d="M243.81,116.1v-1.3h1.1v1.3Zm0,7.4v-6.3h1.1v6.3Z"/><path d="M246.11,120.4a2.94,2.94,0,0,1,2.7-3.2h.2a2.54,2.54,0,0,1,2.3,1.4v-1.2h.9v6.2c0,1.8-1.4,2.7-3.2,2.7a2.93,2.93,0,0,1-2.8-1.4l.6-.5a2.66,2.66,0,0,0,2.2,1.1,1.9,1.9,0,0,0,2.1-1.7v-1.4a2.37,2.37,0,0,1-2.3,1.2,3.09,3.09,0,0,1-2.7-3.2Zm5.2.9v-1.8a2.44,2.44,0,0,0-2-1.5,2.28,2.28,0,0,0-2,2.6,2.25,2.25,0,0,0,2.1,2A1.8,1.8,0,0,0,251.31,121.3Z"/><path d="M259.41,123.5h-1.1V120c0-1.3-.4-1.9-1.2-1.9a2.39,2.39,0,0,0-2.1,1.6v3.8h-1v-6.3h1v1.3a2.81,2.81,0,0,1,2.6-1.4c1.5,0,1.9,1.1,1.9,2.6Z"/><path d="M263.51,121.7c0-1.2,1.1-2,2.6-2a5.66,5.66,0,0,1,1.8.3v-.5a1.42,1.42,0,0,0-1.4-1.6h-.3a3.72,3.72,0,0,0-2,.7l-.2-.6a4.38,4.38,0,0,1,2.5-.8,2.37,2.37,0,0,1,2.6,2.1v3c0,.3.1.4.3.4v.9H269a.76.76,0,0,1-.8-.6v-.4a3.13,3.13,0,0,1-2.4,1.2,1.94,1.94,0,0,1-2.2-1.7C263.61,121.8,263.61,121.8,263.51,121.7Zm4.2.4a.76.76,0,0,0,.2-.5v-.9a4.15,4.15,0,0,0-1.6-.3c-1.1,0-1.8.5-1.8,1.2a1.18,1.18,0,0,0,1.3,1.2h.1A2,2,0,0,0,267.71,122.1Z"/><path d="M276.11,123.5h-1V120c0-1.3-.4-1.9-1.2-1.9a2.39,2.39,0,0,0-2.1,1.6v3.8h-1.1v-6.3h1v1.3a2.71,2.71,0,0,1,2.6-1.4c1.5,0,1.9,1.1,1.9,2.6Z"/><path d="M277.31,120.4a2.94,2.94,0,0,1,2.7-3.2h.1a2.65,2.65,0,0,1,2.3,1.4v-3.8h1.1v7.5c0,.3.1.4.3.4v.9h-.4c-.4,0-.8-.2-.8-.6h0v-.6a2.77,2.77,0,0,1-2.3,1.3,3.28,3.28,0,0,1-3-3.3Zm5.2.9v-1.8a2.44,2.44,0,0,0-2-1.5,2.29,2.29,0,0,0-2.1,2.3h0a2.16,2.16,0,0,0,2.1,2.3h0A2,2,0,0,0,282.51,121.3Z"/><path d="M289.21,122.3v1.2h-.9v-8.8h1v3.8a2.88,2.88,0,0,1,2.3-1.4,3,3,0,0,1,2.8,3.2v.1a3,3,0,0,1-2.9,3.2h-.1A2.74,2.74,0,0,1,289.21,122.3Zm4.2-1.9a2.08,2.08,0,0,0-2-2.3,2.27,2.27,0,0,0-2,1.5v1.8a2,2,0,0,0,1.9,1.4,2.25,2.25,0,0,0,2.1-2.4Z"/><path d="M295.41,120.4a3.08,3.08,0,0,1,3.1-3.2h.1a3.12,3.12,0,0,1,3.1,3.1v.5h-5.2a2.18,2.18,0,0,0,2.1,2.1,2.23,2.23,0,0,0,1.8-1l.9.3a3,3,0,0,1-2.7,1.6,3.14,3.14,0,0,1-3.2-3.1Zm5.3-.4a2.16,2.16,0,0,0-2.1-2,2.09,2.09,0,0,0-2.1,2Z"/><path d="M302.51,120.4a2.94,2.94,0,0,1,2.7-3.2h.2a2.54,2.54,0,0,1,2.3,1.4v-1.2h.9v6.2c0,1.8-1.4,2.7-3.2,2.7a2.93,2.93,0,0,1-2.8-1.4l.6-.5a2.66,2.66,0,0,0,2.2,1.1,1.9,1.9,0,0,0,2.1-1.7v-1.4a2.51,2.51,0,0,1-2.2,1.2,3,3,0,0,1-2.8-3.2Zm5.1.9v-1.8a2.44,2.44,0,0,0-2-1.5,2.28,2.28,0,0,0-2,2.6,2.25,2.25,0,0,0,2.1,2A1.74,1.74,0,0,0,307.61,121.3Z"/><path d="M309.81,121.7c0-1.2,1.1-2,2.6-2a5.66,5.66,0,0,1,1.8.3v-.5a1.42,1.42,0,0,0-1.4-1.6h-.3a3.72,3.72,0,0,0-2,.7l-.4-.7a4.38,4.38,0,0,1,2.5-.8,2.37,2.37,0,0,1,2.6,2.1v3c0,.3.1.4.3.4v.9h-.4a.76.76,0,0,1-.8-.6v-.4a3.7,3.7,0,0,1-2.4,1.2,2.16,2.16,0,0,1-2.1-2Zm4.2.4a.76.76,0,0,0,.2-.5v-.9a4.15,4.15,0,0,0-1.6-.3c-1.1,0-1.8.5-1.8,1.2a1.18,1.18,0,0,0,1.3,1.2h.1a2.09,2.09,0,0,0,1.8-.7Z"/><path d="M322.41,123.5h-1.1V120c0-1.3-.4-1.9-1.2-1.9a2.39,2.39,0,0,0-2.1,1.6v3.8h-1v-6.3h1v1.3a2.71,2.71,0,0,1,2.6-1.4c1.5,0,1.9,1.1,1.9,2.6Z"/><path d="M61.21,137.1l.5-.7a3.57,3.57,0,0,0,2.3.8c.9,0,1.5-.4,1.5-1s-.6-.8-1.8-1.1c-1.5-.4-2.2-.7-2.2-1.6,0-1.3,1.1-1.9,2.4-1.9a4.07,4.07,0,0,1,2.4.8l-.5.6a2.64,2.64,0,0,0-1.9-.7c-.8,0-1.4.3-1.4,1s.4.7,1.5,1c1.7.4,2.5.7,2.5,1.8s-1,1.9-2.5,1.9A3.42,3.42,0,0,1,61.21,137.1Z"/><path d="M70.81,137.6a4.19,4.19,0,0,1-1.5.4,1.24,1.24,0,0,1-1.4-1.1v-4.4H67v-.8h.8v-2.1H69v2.1h1.4v.8H69v3.9a.75.75,0,0,0,.6.7h.1a1.61,1.61,0,0,0,.9-.3Z"/><path d="M71.71,135.4v-3.8h1.1v3.6c0,1.3.4,1.9,1.3,1.9a2.35,2.35,0,0,0,2.1-1.6v-3.9h1.1v5c0,.3.1.4.3.4v.9h-.4c-.4.1-.7-.2-.8-.6h0v-.8a3,3,0,0,1-2.6,1.5C72.41,138.1,71.71,137.1,71.71,135.4Z"/><path d="M78.61,134.8a2.94,2.94,0,0,1,2.7-3.2h.1a2.65,2.65,0,0,1,2.3,1.4v-3.8h1v7.5c0,.3.1.4.3.4v.9h-.4c-.4,0-.8-.2-.8-.6v-.6a2.77,2.77,0,0,1-2.3,1.3A3.19,3.19,0,0,1,78.61,134.8Zm5.1.9v-1.8a2.44,2.44,0,0,0-2-1.5,2.32,2.32,0,0,0-2.1,2.4,2.24,2.24,0,0,0,2.2,2.3A1.92,1.92,0,0,0,83.71,135.7Z"/><path d="M86.81,139.6h.6c.3,0,.5-.1,1.1-1.8l-2.7-6.3h1.1L89,137l2-5.3h1l-3.1,7.9a1.62,1.62,0,0,1-1.6,1.1.75.75,0,0,1-.5-.1v-1Z"/><path d="M93,130.5v-1.3h1.1v1.3Zm0,7.4v-6.3h1.1v6.3Z"/><path d="M101.21,137.9h-1.1v-3.5c0-1.3-.4-1.9-1.2-1.9a2.39,2.39,0,0,0-2.1,1.6v3.8h-1v-6.3h1v1.3a2.71,2.71,0,0,1,2.6-1.4c1.4,0,1.9,1.1,1.9,2.6Z"/><path d="M102.41,134.8a2.94,2.94,0,0,1,2.7-3.2h.2a2.54,2.54,0,0,1,2.3,1.4v-1.2h.9V138c0,1.8-1.4,2.7-3.2,2.7a2.93,2.93,0,0,1-2.8-1.4l.6-.5a2.66,2.66,0,0,0,2.2,1.1,1.9,1.9,0,0,0,2.1-1.7v-1.4a2.51,2.51,0,0,1-2.2,1.2,3,3,0,0,1-2.8-3.2Zm5.1.9v-1.8a2.44,2.44,0,0,0-2-1.5,2.33,2.33,0,0,0-2,2.6,2.25,2.25,0,0,0,2.1,2A1.68,1.68,0,0,0,107.51,135.7Z"/><path d="M113.41,137.9v-8.5H119v1h-4.6v2.9h3.8v.9h-3.8V138Z"/><path d="M119.91,135.4v-3.8h1v3.6c0,1.3.4,1.9,1.3,1.9a2.35,2.35,0,0,0,2.1-1.6v-3.9h1v5c0,.3.1.4.3.4v.9h-.4c-.5,0-.8-.2-.8-.6v-.8a3,3,0,0,1-2.6,1.5C120.61,138.1,119.91,137.1,119.91,135.4Z"/><path d="M127.21,129.2h1v7.1c0,.4.2.7.6.7h.1c.2,0,.4-.1.6-.1l.2.9a2.74,2.74,0,0,1-1.3.2,1.11,1.11,0,0,1-1.3-1.1v-.2Z"/><path d="M130.61,129.2h1.1v7.1c0,.4.2.7.6.7h.1c.2,0,.4-.1.6-.1l.2.9a2.74,2.74,0,0,1-1.3.2,1.11,1.11,0,0,1-1.3-1.1v-7.7Z"/><path d="M141.81,131.2a3.34,3.34,0,0,0-2.3-.9c-1.3,0-1.9.5-1.9,1.4s.7,1.1,2.2,1.5c1.8.4,2.9.9,2.9,2.4s-1.4,2.4-3.1,2.4a5.5,5.5,0,0,1-3.5-1.2l.5-.9a4.62,4.62,0,0,0,3,1.1c1.2,0,1.9-.4,1.9-1.3s-.9-1.2-2.5-1.6-2.6-.9-2.6-2.2c0-1.6,1.3-2.5,3.1-2.5a4.19,4.19,0,0,1,2.8,1Z"/><path d="M147.11,137.6a4.19,4.19,0,0,1-1.5.4,1.24,1.24,0,0,1-1.4-1.1v-4.4h-.9v-.8h.9v-2.1h1v2.1h1.4v.8h-1.4v3.9a.67.67,0,0,0,.6.7h.1a1.61,1.61,0,0,0,.9-.3Z"/><path d="M147.51,136.1c0-1.2,1.1-2,2.6-2a5.66,5.66,0,0,1,1.8.3V134a1.42,1.42,0,0,0-1.4-1.6h-.3a3.72,3.72,0,0,0-2,.7l-.3-.7a4.31,4.31,0,0,1,2.4-.8,2.37,2.37,0,0,1,2.6,2.1v3c0,.3.1.4.3.4v.9h-.4a.76.76,0,0,1-.8-.6V137a2.77,2.77,0,0,1-2.4,1.1,2.16,2.16,0,0,1-2.1-2Zm4.2.4a.76.76,0,0,0,.2-.5v-.9a4.15,4.15,0,0,0-1.6-.3c-1.1,0-1.8.5-1.8,1.2a1.18,1.18,0,0,0,1.3,1.2h.1a2.09,2.09,0,0,0,1.8-.7Z"/><path d="M157.41,131.6a2.63,2.63,0,0,1,2.6,1.5l-1,.3a1.62,1.62,0,0,0-1.6-.9,2.22,2.22,0,0,0-2.1,2.3v.1a2.31,2.31,0,0,0,2.1,2.4,2.06,2.06,0,0,0,1.7-1l1,.3a2.92,2.92,0,0,1-2.7,1.6,3.14,3.14,0,0,1-3.2-3.1V135a3.12,3.12,0,0,1,3-3.2C157.31,131.6,157.41,131.6,157.41,131.6Z"/><path d="M165.71,137.9l-2.2-3.1-1.2,1.1v1.9h-1V129h1v5.8l3.2-3.2h1.2l-2.5,2.6,2.6,3.7Z"/><path d="M170.91,137.9v-8.5h2.9a4.3,4.3,0,1,1,0,8.6h-2.9Zm3-7.5H172V137h1.9c2,0,3-1.4,3-3.3s-1.1-3.3-3-3.3Z"/><path d="M179,134.8a3.08,3.08,0,0,1,3.1-3.2h.1a3.12,3.12,0,0,1,3.1,3.1v.5h-5.2a2.18,2.18,0,0,0,2.1,2.1,2.23,2.23,0,0,0,1.8-1l.9.3a3,3,0,0,1-2.7,1.6,3.14,3.14,0,0,1-3.2-3.1Zm5.3-.4a2.1,2.1,0,0,0-4.2,0Z"/><path d="M188.11,137.9l-2.5-6.3h1.1l2,5.3,2-5.3h1l-2.5,6.3Z"/><path d="M192.31,134.8a3.08,3.08,0,0,1,3.1-3.2h.1a3.12,3.12,0,0,1,3.1,3.1v.5h-5.2a2.18,2.18,0,0,0,2.1,2.1,2.23,2.23,0,0,0,1.8-1l.9.3a3,3,0,0,1-2.7,1.6,3.14,3.14,0,0,1-3.2-3.1Zm5.3-.4a2.16,2.16,0,0,0-2.1-2,2.09,2.09,0,0,0-2.1,2Z"/><path d="M199.81,129.2h1.1v7.1c0,.4.2.7.6.7h.1c.2,0,.4-.1.6-.1l.2.9a2.54,2.54,0,0,1-1.2.2,1.11,1.11,0,0,1-1.3-1.1v-7.7Z"/><path d="M202.71,134.8a3.15,3.15,0,1,1,6.3.1,3.14,3.14,0,0,1-3.2,3.1,3.08,3.08,0,0,1-3.1-3.2Zm3.2,2.3a2.37,2.37,0,0,0,2.1-2.6,2.44,2.44,0,0,0-2.1-2.1,2.32,2.32,0,0,0-2.1,2.4,2.1,2.1,0,0,0,2.1,2.3Z"/><path d="M211.41,136.7v3.8h-1.1v-8.8h.9v1.2a2.77,2.77,0,0,1,2.3-1.3,3.12,3.12,0,0,1,3,3.2h0a2.94,2.94,0,0,1-2.7,3.2h-.1A2.36,2.36,0,0,1,211.41,136.7Zm4-1.9a2.16,2.16,0,0,0-2.1-2.3h0a2,2,0,0,0-1.9,1.4v1.8a2.44,2.44,0,0,0,2,1.5,2.31,2.31,0,0,0,2-2.4Z"/><path d="M227.21,137.9h-1v-3.5c0-1.3-.4-1.9-1.3-1.9a2.13,2.13,0,0,0-1.9,1.6v3.8h-1v-3.5c0-1.3-.4-1.9-1.2-1.9a2.13,2.13,0,0,0-1.9,1.6v3.8h-1.1v-6.3h1v1.3a2.51,2.51,0,0,1,2.4-1.4A1.67,1.67,0,0,1,223,133a2.67,2.67,0,0,1,2.4-1.5c1.4,0,1.9,1.1,1.9,2.6Z"/><path d="M228.41,134.8a3.08,3.08,0,0,1,3.1-3.2h.1a3.12,3.12,0,0,1,3.1,3.1v.5h-5.2a2.18,2.18,0,0,0,2.1,2.1,2.23,2.23,0,0,0,1.8-1l.9.3a3,3,0,0,1-2.7,1.6,3.14,3.14,0,0,1-3.2-3.1Zm5.3-.4a2.16,2.16,0,0,0-2.1-2,2.09,2.09,0,0,0-2.1,2Z"/><path d="M241.31,137.9h-1.1v-3.5c0-1.3-.4-1.9-1.2-1.9a2.39,2.39,0,0,0-2.1,1.6v3.8h-1v-6.3h1v1.3a2.71,2.71,0,0,1,2.6-1.4c1.4,0,1.9,1.1,1.9,2.6Z"/><path d="M246.11,137.6a4.19,4.19,0,0,1-1.5.4,1.24,1.24,0,0,1-1.4-1.1v-4.4h-.9v-.8h.9v-2.1h1.1v2.1h1.4v.8h-1.4v3.9a.67.67,0,0,0,.6.7h.1a1.61,1.61,0,0,0,.9-.3Z"/><path d="M249.61,136.1c0-1.2,1.1-2,2.6-2a5.66,5.66,0,0,1,1.8.3V134a1.42,1.42,0,0,0-1.4-1.6h-.3a3.72,3.72,0,0,0-2,.7l-.3-.7a4.31,4.31,0,0,1,2.4-.8,2.37,2.37,0,0,1,2.6,2.1v3c0,.3.1.4.3.4v.9h-.4a.76.76,0,0,1-.8-.6V137a2.77,2.77,0,0,1-2.4,1.1,2,2,0,0,1-2.2-1.8C249.61,136.2,249.61,136.2,249.61,136.1Zm4.1.4c.2-.1.2-.3.3-.5v-.9a4.15,4.15,0,0,0-1.6-.3c-1.1,0-1.8.5-1.8,1.2a1.18,1.18,0,0,0,1.3,1.2h.1a2.06,2.06,0,0,0,1.7-.7Z"/><path d="M259.91,137.6a4.19,4.19,0,0,1-1.5.4,1.24,1.24,0,0,1-1.4-1.1v-4.4h-.9v-.8h.9v-2.1h1.1v2.1h1.4v.8H258v3.9a.68.68,0,0,0,.7.7h.1a1.61,1.61,0,0,0,.9-.3Z"/><path d="M267.51,129.4a3.41,3.41,0,0,1,3.2,1.9l-.9.6a2.43,2.43,0,0,0-2.4-1.4,3,3,0,0,0-2.9,3.2v.1a3.12,3.12,0,0,0,2.9,3.3,2.67,2.67,0,0,0,2.4-1.5l.9.5a3.79,3.79,0,0,1-3.4,2,4.36,4.36,0,0,1,.2-8.7Z"/><path d="M271.61,134.8a3.15,3.15,0,1,1,3.1,3.2,3.08,3.08,0,0,1-3.1-3.2Zm3.1,2.3a2.36,2.36,0,1,0,.5-4.7,2.37,2.37,0,0,0-2.6,2.1v.3a2.22,2.22,0,0,0,2.1,2.3Z"/><path d="M278.71,134.8a2.94,2.94,0,0,1,2.7-3.2h.1a2.54,2.54,0,0,1,2.3,1.4v-3.8h1v7.5c0,.3.1.4.3.4v.9h-.4c-.4,0-.8-.2-.8-.6v-.6a2.77,2.77,0,0,1-2.3,1.3,3.27,3.27,0,0,1-2.9-3.3Zm5.2.9v-1.8a2.44,2.44,0,0,0-2-1.5,2.17,2.17,0,0,0-2,2.4,2.22,2.22,0,0,0,2.1,2.3A2.15,2.15,0,0,0,283.91,135.7Z"/><path d="M286.31,134.8a3.08,3.08,0,0,1,3.1-3.2h.1a3.12,3.12,0,0,1,3.1,3.1v.5h-5.2a2.18,2.18,0,0,0,2.1,2.1,2.23,2.23,0,0,0,1.8-1l.9.3a3,3,0,0,1-2.7,1.6,3.14,3.14,0,0,1-3.2-3.1Zm5.3-.4a2.16,2.16,0,0,0-2.1-2,2.09,2.09,0,0,0-2.1,2Z"/><path d="M297.11,132.6a2.29,2.29,0,0,0-2.2,1.5V138h-1.1v-6.3h1v1.4a2.44,2.44,0,0,1,2-1.5h.4Z"/><path d="M299.81,137.9l3.5-8.5h.9l3.5,8.5h-1.1l-1-2.5H302l-1,2.5Zm4-7.2-1.6,3.9h3.1Z"/><path d="M311.51,131.6a2.63,2.63,0,0,1,2.6,1.5l-1,.3a1.8,1.8,0,0,0-1.6-.9,2.22,2.22,0,0,0-2.1,2.3v.1a2.31,2.31,0,0,0,2.1,2.4,2.06,2.06,0,0,0,1.7-1l1,.3a3,3,0,0,1-2.7,1.6,3.16,3.16,0,0,1-3.2-3.2v-.1a3.12,3.12,0,0,1,3-3.2C311.41,131.6,311.41,131.6,311.51,131.6Z"/><path d="M314.91,136.1c0-1.2,1.1-2,2.6-2a5.66,5.66,0,0,1,1.8.3V134a1.42,1.42,0,0,0-1.4-1.6h-.3a3.72,3.72,0,0,0-2,.7l-.3-.7a4.38,4.38,0,0,1,2.5-.8,2.37,2.37,0,0,1,2.6,2.1v3c0,.3.1.4.3.4v.9h-.4a.76.76,0,0,1-.8-.6V137a2.77,2.77,0,0,1-2.4,1.1,2.12,2.12,0,0,1-2.2-2Zm4.1.4a.76.76,0,0,0,.2-.5v-.9a4.15,4.15,0,0,0-1.6-.3c-1.1,0-1.8.5-1.8,1.2a1.18,1.18,0,0,0,1.3,1.2h.1a2.09,2.09,0,0,0,1.8-.7Z"/><path d="M321.61,134.8a2.94,2.94,0,0,1,2.7-3.2h.1a2.65,2.65,0,0,1,2.3,1.4v-3.8h1v7.5c0,.3.1.4.3.4v.9h-.4c-.4,0-.8-.2-.8-.6h0v-.6a2.77,2.77,0,0,1-2.3,1.3,3.27,3.27,0,0,1-2.9-3.3Zm5.1.9v-1.8a2.44,2.44,0,0,0-2-1.5,2.29,2.29,0,0,0-2.1,2.3h0a2.16,2.16,0,0,0,2.1,2.3h0a1.73,1.73,0,0,0,2-1.3Z"/><path d="M329.21,134.8a3.08,3.08,0,0,1,3.1-3.2h.1a3.12,3.12,0,0,1,3.1,3.1v.5h-5.2a2.18,2.18,0,0,0,2.1,2.1,2.23,2.23,0,0,0,1.8-1l.9.3a3,3,0,0,1-2.7,1.6,3.2,3.2,0,0,1-3.2-3.1Zm5.3-.4a2.16,2.16,0,0,0-2.1-2,2.09,2.09,0,0,0-2.1,2Z"/><path d="M346.11,137.9h-1v-3.5c0-1.3-.4-1.9-1.3-1.9a2.13,2.13,0,0,0-1.9,1.6v3.8h-1.1v-3.5c0-1.3-.4-1.9-1.2-1.9a2.13,2.13,0,0,0-1.9,1.6v3.8h-1.1v-6.3h1v1.3a2.51,2.51,0,0,1,2.4-1.4,1.67,1.67,0,0,1,1.8,1.5,2.67,2.67,0,0,1,2.4-1.5c1.4,0,1.9,1.1,1.9,2.6Z"/><path d="M348,139.6h.6c.3,0,.5-.1,1.1-1.8l-2.7-6.2h1.1l2.1,5.3,1.9-5.3h1l-3.1,7.9a1.62,1.62,0,0,1-1.6,1.1.75.75,0,0,1-.5-.1Z"/><path class="cls-1" d="M47.61,18.1V9h-9.1v9.1H42V65.2h-3.6v9.1H42v47.2h-3.6v9.1h9.1v-9.1H44V74.4h3.6V65.3H44V18.1ZM40.41,11h5.1v5.1h-5.1Zm5.2,117.7h-5.1v-5.1h5.1Zm0-56.3h-5.1V67.2h5.1Z"/><path d="M1,16.1A3.17,3.17,0,0,1,2.91,13c1.3-.7,2-1,2-1.6s-.4-.9-1.1-.9a2.23,2.23,0,0,0-1.7.9l-1-1.2a4.21,4.21,0,0,1,3-1c1.6,0,2.6.8,2.6,2a2.51,2.51,0,0,1-1.6,2.1,3.91,3.91,0,0,0-1.7,1.4h3.4v1.5Z"/><path d="M11.11,16.2c-1.8,0-3.1-1.5-3.1-3.6S9.31,9,11.11,9s3.1,1.5,3.1,3.6A3.32,3.32,0,0,1,11.11,16.2Zm0-5.8c-.9,0-1.5.9-1.5,2.2s.6,2.2,1.5,2.2,1.5-.9,1.5-2.2S11.91,10.4,11.11,10.4Z"/><path d="M20.41,14.6V16h-4.9V14.6h1.7V11a3.38,3.38,0,0,1-1.9.9V10.4a4,4,0,0,0,1.9-1.1h1.6v5.4Z"/><path d="M24.31,16.2a2.9,2.9,0,0,1-3.1-2.6v-.1a2.28,2.28,0,0,1,1.4-2,2.09,2.09,0,0,1-1.1-1.6,2.66,2.66,0,0,1,2.8-2.4c1.3,0,2.8.8,2.8,2.3A1.88,1.88,0,0,1,26,11.4a2.19,2.19,0,0,1,1.3,2A2.73,2.73,0,0,1,24.31,16.2Zm0-4a1.37,1.37,0,0,0-1.5,1.3h0a1.55,1.55,0,0,0,1.7,1.3,1.49,1.49,0,0,0,1.3-1.3,1.42,1.42,0,0,0-1.5-1.3Zm0-1.2a1.19,1.19,0,0,0,1.2-1A1.27,1.27,0,0,0,23,10a1.22,1.22,0,0,0,1.3,1Z"/><path d="M1.21,72.4a3,3,0,0,1,1.9-3.1c1.3-.7,2-1,2-1.6s-.4-.9-1.1-.9a2.23,2.23,0,0,0-1.7.9l-1-1.2a4.62,4.62,0,0,1,3-1.1c1.6,0,2.6.8,2.6,2a2.51,2.51,0,0,1-1.6,2.1,3.91,3.91,0,0,0-1.7,1.4H7v1.4Z"/><path d="M11.31,72.5c-1.8,0-3.1-1.5-3.1-3.6s1.3-3.7,3.1-3.7,3.1,1.5,3.1,3.7S13,72.5,11.31,72.5Zm0-5.8c-.9,0-1.5.9-1.5,2.2s.6,2.2,1.5,2.2,1.5-.9,1.5-2.2S12.11,66.7,11.31,66.7Z"/><path d="M20.61,70.9v1.4h-4.9V70.9h1.7V67.3a3.38,3.38,0,0,1-1.9.9V66.7a4.53,4.53,0,0,0,1.9-1.1H19V71h1.6v-.1Z"/><path d="M24.41,65.5c1.9,0,3.1,1.4,3.1,3.9,0,3.1-1.3,4.8-3.3,4.8a3.32,3.32,0,0,1-2.6-1.3l.9-1a2.06,2.06,0,0,0,1.7,1c1.1,0,1.8-.9,1.8-2.4a1.92,1.92,0,0,1-1.8.9,2.82,2.82,0,0,1-3-2.7v-.1a3,3,0,0,1,3-3C24.21,65.5,24.31,65.5,24.41,65.5Zm-1.6,3a1.56,1.56,0,0,0,3.1,0,1.57,1.57,0,0,0-1.4-1.7,1.63,1.63,0,0,0-1.7,1.4Z"/><path d="M0,128.6a3,3,0,0,1,1.9-3.1c1.3-.7,2-1,2-1.6s-.4-.9-1.1-.9a2.23,2.23,0,0,0-1.7.9l-1-1.2a4.14,4.14,0,0,1,3-1.1c1.6,0,2.6.8,2.6,2A2.35,2.35,0,0,1,4,125.7a3.91,3.91,0,0,0-1.7,1.4h3.5v1.4l-5.8.1Z"/><path d="M10,128.8c-1.8,0-3.1-1.5-3.1-3.6s1.3-3.6,3.1-3.6,3.1,1.5,3.1,3.6S11.81,128.8,10,128.8Zm0-5.8c-.9,0-1.5.9-1.5,2.2s.6,2.2,1.5,2.2,1.5-.9,1.5-2.2S10.91,123,10,123Z"/><path d="M14.21,128.6a3,3,0,0,1,1.9-3.1c1.3-.7,2-1,2-1.6s-.4-.9-1.1-.9a2.23,2.23,0,0,0-1.7.9l-1-1.2a4.14,4.14,0,0,1,3-1.1c1.6,0,2.6.8,2.6,2a2.51,2.51,0,0,1-1.6,2.1,3.91,3.91,0,0,0-1.7,1.4H20v1.4Z"/><path d="M24.21,128.8c-1.8,0-3.1-1.5-3.1-3.6s1.3-3.6,3.1-3.6,3.1,1.5,3.1,3.6S26,128.8,24.21,128.8Zm0-5.8c-.9,0-1.5.9-1.5,2.2s.6,2.2,1.5,2.2,1.5-.9,1.5-2.2-.6-2.2-1.5-2.2Z"/></g></g></svg>