<svg xmlns="http://www.w3.org/2000/svg" viewBox="0 0 25.86 39.56"><defs><style>.cls-1{fill:#fff;}</style></defs><g id="Layer_2" data-name="Layer 2"><g id="Layer_1-2" data-name="Layer 1"><path class="cls-1" d="M6.3,0H7.78A3.19,3.19,0,0,1,11,3.19V36.38a3.19,3.19,0,0,1-3.19,3.19H6.31A6.31,6.31,0,0,1,0,33.25V6.3A6.3,6.3,0,0,1,6.3,0Z"/><path class="cls-1" d="M18,0h2.76a5.11,5.11,0,0,1,5.11,5.11V8.4a5.11,5.11,0,0,1-5.11,5.11H18a2.75,2.75,0,0,1-2.75-2.75v-8A2.75,2.75,0,0,1,18,0Z"/><path class="cls-1" d="M18,26.05h2.85a5,5,0,0,1,5,5v3.46a5,5,0,0,1-5,5H18a2.75,2.75,0,0,1-2.75-2.75v-8A2.75,2.75,0,0,1,18,26.05Z"/></g></g></svg>