<svg xmlns="http://www.w3.org/2000/svg" viewBox="0 0 128.23 127.91"><defs><style>.cls-1{fill:#ff61ba;}</style></defs><g id="Layer_2" data-name="Layer 2"><g id="Layer_1-2" data-name="Layer 1"><path class="cls-1" d="M128.06,24.12A27.42,27.42,0,0,0,124.68,13a24.64,24.64,0,0,0-13-10.75,24.67,24.67,0,0,0-7.6-1.8c-1.11,0-2.22-.06-3.29-.06l-1.33,0-3.8,0L71.37,0a5.59,5.59,0,0,0-2,.34c-.72.27-1.43.56-2.14.85s-1.64.67-2.47,1L55.52,5.57,45.05,9.42l-.12.05a8.15,8.15,0,0,0-2.74,1.46c-1.64,1.44-3.25,3-4.8,4.42l-1.7,1.59L32,20.41Q26.15,25.85,20.34,31.3L19.6,32a13.23,13.23,0,0,0-2.73,3c-5.54,9.32-11.1,18.92-16,27.4A6.48,6.48,0,0,0,0,65.48C0,69.75,0,74,0,78.29V84.4H.15c0,1.09,0,2.17,0,3.26,0,4.36,0,8.87,0,13.32a31.77,31.77,0,0,0,1.74,9.65c2.56,7.59,7.38,12.72,14.32,15.26a34.35,34.35,0,0,0,11.88,2c1.06,0,2.15,0,3.25-.12q7-.53,14.07-1l9.77-.66,13.52-.92,7.58-.51L87.09,124l7.82-.55,8.45-.59q6.75-.45,13.51-.87a5,5,0,0,0,4.83-4.77c.17-3.06.36-6.1.57-9q.27-3.58.55-7.17l2.51-33c.17-2.3.35-4.6.52-6.9q.24-3.23.5-6.44l.51-6.63.33-4.57c.2-2.63.39-5.26.6-7.89l0-.46A59.25,59.25,0,0,0,128.06,24.12ZM36,84.31l-7.33,24.36L19.78,88Zm42.82,10a114.67,114.67,0,0,1-19.67,13.92,77.67,77.67,0,0,1-22.59,8.35l9.84-32.68ZM12.42,95.73l9.17,21.47a14.87,14.87,0,0,1-6-2.85,13.76,13.76,0,0,1-4.75-8.19c-.3-1.41-.47-2.86-.65-4.39L10,100.23C10.78,98.74,11.59,97.24,12.42,95.73ZM113.24,48.58A102,102,0,0,1,101.56,69,164.16,164.16,0,0,1,91.12,81.88L83.2,50.54ZM52.44,75.5,74.28,55.2,81.74,85ZM83.82,40.78,89.1,23.94l18.56,15.24ZM77.38,28.5q-2.26,7.19-4.53,14.36a1.46,1.46,0,0,1-.36.58Q63.64,51.75,54.74,60l-7,6.51c-2.4,2.24-4.81,4.49-7.17,6.71l-22,4.94-2.64.59Q14.51,75.37,13.11,72l-1.42-3.43c-.42-1-.84-2-1.28-3L12,62.81c3.77-6.45,7.67-13.13,11.43-19.74a21.34,21.34,0,0,1,4.19-5.21c4.4-4,8.83-8.13,13.11-12.12l4.93-4.59.14-.13a5.26,5.26,0,0,0,.74-.75c1.1-1.4,2.79-2,4.76-2.69l1-.34,5-1.85q6.76-2.48,13.53-5l5.6,3.93,4.42,3.11Zm27.76-17.94c4.36.95,7.31,2.51,9.5,5a14.86,14.86,0,0,1,3.46,8.06,33.21,33.21,0,0,1-.54,11L95,16.13l2-1.13ZM104.85,113,66.43,115.6A147.25,147.25,0,0,0,88.66,98.68ZM115.6,66.16l-3.07,40.56-16.78-15A168.47,168.47,0,0,0,115.6,66.16Z"/></g></g></svg>