<svg xmlns="http://www.w3.org/2000/svg" viewBox="0 0 19.39 11.2"><defs><style>.cls-1{fill:#006aff;}</style></defs><g id="Layer_2" data-name="Layer 2"><g id="Layer_1-2" data-name="Layer 1"><path class="cls-1" d="M6.42,7.4c-.5,3.13-2.22,3.8-3.48,3.8C1.1,11.2,0,10.17,0,8.82A2.34,2.34,0,0,1,2.43,6.54c1.16,0,2.4.68,2.4,1.89A1.48,1.48,0,0,1,3.27,9.91a1,1,0,0,1-1-1.29,1.08,1.08,0,0,0,1-1.12.9.9,0,0,0-1-.87A2,2,0,0,0,.49,8.79a2.21,2.21,0,0,0,2.45,2.29c1.8,0,3-1.32,3.33-3.66l.94-5.85a4,4,0,0,0,1.73.3C7.69,1.68,6.81.72,5.48.72c-.74,0-1.27.3-1.27.94A.72.72,0,0,0,5,2.41a1.16,1.16,0,0,0,.91-.48c1.41.64.49,2.4-.91,2.4A1.74,1.74,0,0,1,3.23,2.6a2.06,2.06,0,0,1,2.21-2c1.53,0,2.58,1.2,4,1.2.26,0,.38-.15.38-.3s-.2-.38-.54-.18A.62.62,0,0,1,9.85.4a.61.61,0,0,1,.64.58.82.82,0,0,1-.78.89L10.87,7a19.51,19.51,0,0,1,4-5.17A5.91,5.91,0,0,1,18.34,0c.72,0,1.05.41,1.05.9a1.23,1.23,0,0,1-1.24,1.21.64.64,0,0,1-.63-.45A.67.67,0,0,0,17.89,1a.59.59,0,0,0-.6-.63C16.42.4,16,2.05,15.88,2.85L15.06,8C14.84,9.37,14.73,10,16,10v.08H11.43V10c.79,0,1-.43,1.18-1.72l.48-3.14a5.71,5.71,0,0,1,1.08-2.57,31.16,31.16,0,0,0-5,7.92L7.23,2.27Z"/></g></g></svg>