<svg xmlns="http://www.w3.org/2000/svg" viewBox="0 0 306.13 138.69"><g id="Layer_2" data-name="Layer 2"><g id="Layer_1-2" data-name="Layer 1"><path d="M100.47,35.71l.19.06a58.53,58.53,0,0,1,2.69-8.15A32.36,32.36,0,0,1,106.27,22a15.07,15.07,0,0,1,3.16-3.47,10,10,0,0,1,6.6-2.3,9.34,9.34,0,0,1,2.73.37,6.29,6.29,0,0,1,1.92,1,4.53,4.53,0,0,1,1.18,1.52,8.12,8.12,0,0,1,.62,1.79,12.54,12.54,0,0,1,.15,2.05,19.63,19.63,0,0,1-.09,2c-.06.58-.15,1.22-.28,1.93l-1.49,8.8c-.35,2.07-.58,4-.71,5.8a18.3,18.3,0,0,0,.25,5c.31,1.57.92,2.43,1.83,2.57l-.13.13a24.64,24.64,0,0,1-4.52.46,11.84,11.84,0,0,1-3.63-.5,6.82,6.82,0,0,1-2.79-1.58,5.67,5.67,0,0,1-1.7-3.1,12.62,12.62,0,0,1-.07-4.83l2.3-15.38a14.43,14.43,0,0,0,.31-3.94c-.12-.95-.57-1.42-1.33-1.42-1.58,0-3.29,1.66-5.15,5a47.81,47.81,0,0,0-4.56,12c-.43,1.8-.79,3.52-1.08,5.18a23.52,23.52,0,0,0-.34,5q.06,2.51,1.11,2.94l-.12.13a41.64,41.64,0,0,1-5.24.49q-3.87,0-5.27-2.11t-.47-7.62L92,24.24a13,13,0,0,0,.31-3.94c-.13-.95-.57-1.42-1.34-1.42q-2.36,0-5.14,5a47.81,47.81,0,0,0-4.56,12Q78.34,48,80.82,49l-.13.13a41.48,41.48,0,0,1-5.24.49,9.14,9.14,0,0,1-3.16-.46,4.15,4.15,0,0,1-2-1.55,5,5,0,0,1-.9-3,26.07,26.07,0,0,1,.37-4.74L73.19,20.4c.17-.91,0-1.52-.43-1.83a2.62,2.62,0,0,0-2.21.12l-.09-.09a26.47,26.47,0,0,1,4.62-1.67A19.1,19.1,0,0,1,80,16.18c1.84,0,3.12.42,3.84,1.24s.83,2.28.37,4.28l-3.25,14,.18.06a59.82,59.82,0,0,1,2.7-8.15A32.36,32.36,0,0,1,86.71,22a15.07,15.07,0,0,1,3.16-3.47,10,10,0,0,1,6.6-2.3,9.23,9.23,0,0,1,3.1.47,4.63,4.63,0,0,1,2,1.36,6.79,6.79,0,0,1,1.06,1.89,7.14,7.14,0,0,1,.4,2.3,20.92,20.92,0,0,1-.12,2.35c-.09.73-.22,1.49-.4,2.3Z"/><path d="M137.79,29.26a15.54,15.54,0,0,0,4.65-.06A8.57,8.57,0,0,0,145.76,28a7.43,7.43,0,0,0,2.08-2.1A8.74,8.74,0,0,0,149,23.37a11,11,0,0,0,.31-2.66,5.27,5.27,0,0,0-.83-3.13,3,3,0,0,0-2.61-1.18,6,6,0,0,0-4.65,2.51,16.49,16.49,0,0,0-3.07,5.95,23.76,23.76,0,0,0-1,6.76,16.72,16.72,0,0,0,.56,4.4,12.06,12.06,0,0,0,1.61,3.69,7.43,7.43,0,0,0,2.92,2.57,8.65,8.65,0,0,0,4.15,1,11.86,11.86,0,0,0,4.9-1.15,13.05,13.05,0,0,0,4.52-3.63l.16.09a24.16,24.16,0,0,1-7.69,8,18.08,18.08,0,0,1-10,3A12.49,12.49,0,0,1,129,46q-3.57-3.57-3.57-9.71A18.77,18.77,0,0,1,127,28.71a21.2,21.2,0,0,1,4.37-6.45,20.91,20.91,0,0,1,6.66-4.43,20.7,20.7,0,0,1,8.19-1.65,29.15,29.15,0,0,1,3.13.16,18.39,18.39,0,0,1,3.13.62,12.93,12.93,0,0,1,2.85,1.21,6.16,6.16,0,0,1,2,2,5.72,5.72,0,0,1,.77,2.95,6.6,6.6,0,0,1-.62,2.79,7,7,0,0,1-2.17,2.51,11,11,0,0,1-3.81,1.79,18.77,18.77,0,0,1-5.83.44,39.85,39.85,0,0,1-8-1.33Z"/><path d="M171.71,36a65.77,65.77,0,0,0-1.12,9.58c0,2,.39,3.15,1.12,3.5l-.07.13a20.48,20.48,0,0,1-4.34.49,12.91,12.91,0,0,1-2.23-.18,8.29,8.29,0,0,1-2-.65,4.7,4.7,0,0,1-1.61-1.18,6,6,0,0,1-1.15-1.8,6.38,6.38,0,0,1-.53-2.54,18.21,18.21,0,0,1,.22-3.38l3.22-19.53c.15-.91,0-1.52-.43-1.83a2.6,2.6,0,0,0-2.2.12l-.09-.09a26,26,0,0,1,4.61-1.67,19.16,19.16,0,0,1,4.87-.75c1.8,0,3,.4,3.66,1.21s.76,2.24.43,4.31ZM166,13.7a8.6,8.6,0,0,0,1.18-4.49A7.83,7.83,0,0,0,166,4.46a8.86,8.86,0,0,1,3-3.25A7.17,7.17,0,0,1,172.88,0a5.64,5.64,0,0,1,3.6,1.24A4.43,4.43,0,0,1,178,4.9a7.5,7.5,0,0,1-3.44,6.17,14.75,14.75,0,0,1-8.53,2.69Z"/><path d="M209.68,17.83a5.4,5.4,0,0,1,1.8,4.12,5.66,5.66,0,0,1-.65,2.66,6.94,6.94,0,0,1-1.67,2.11,13.36,13.36,0,0,1-2.61,1.68,23.75,23.75,0,0,1-3.07,1.33c-1,.35-2.19.69-3.47,1s-2.43.6-3.44.81l-3.29.68c-1.17.25-2.09.46-2.76.62a43.77,43.77,0,0,1,5.71-.43,19.34,19.34,0,0,1,4,.34,7.54,7.54,0,0,1,2.69,1.11,7.08,7.08,0,0,1,1.74,1.71,10.29,10.29,0,0,1,1.12,2.23c.12.31.33.9.62,1.77s.55,1.65.8,2.29a23.06,23.06,0,0,0,1,2.29,16.52,16.52,0,0,0,1.24,2.24A7.62,7.62,0,0,0,211,48.08a4.55,4.55,0,0,0,2,1l-.13.13a42.54,42.54,0,0,1-7.41.86,16.18,16.18,0,0,1-3.78-.4,10.42,10.42,0,0,1-3.22-1.33,8.3,8.3,0,0,1-2.73-2.79,14.4,14.4,0,0,1-1.77-4.4c-.12-.48-.28-1.22-.46-2.24s-.39-1.77-.53-2.35-.33-1.2-.56-1.86a3.82,3.82,0,0,0-.77-1.43,1.21,1.21,0,0,0-1.06-.34v-.06a14.48,14.48,0,0,0,7.16-4.09,9.81,9.81,0,0,0,2.86-7,3.77,3.77,0,0,0-.5-2.05,1.58,1.58,0,0,0-1.39-.77c-1.6,0-3.35,1.62-5.27,4.87a46,46,0,0,0-4.81,12.15q-.47,1.8-.84,3.69c-.24,1.26-.45,2.6-.62,4a12.94,12.94,0,0,0,0,3.62q.22,1.5,1,1.8l-.12.13a41.74,41.74,0,0,1-5.3.49,9.33,9.33,0,0,1-3.1-.43,4.24,4.24,0,0,1-2-1.55,5.42,5.42,0,0,1-.86-3,25.25,25.25,0,0,1,.31-4.74L182.77,4.4c.15-.91,0-1.52-.43-1.83a2.61,2.61,0,0,0-2.2.13l-.09-.1A29.85,29.85,0,0,1,184.7.93a18.85,18.85,0,0,1,5-.74c1.77,0,3,.42,3.66,1.27s.77,2.28.4,4.24l-5.61,30,.18.06a60.73,60.73,0,0,1,2.7-8.12A31.42,31.42,0,0,1,194,22a14.68,14.68,0,0,1,3.25-3.5,11,11,0,0,1,3.44-1.83,12.26,12.26,0,0,1,3.54-.5A7.79,7.79,0,0,1,209.68,17.83Z"/><path d="M244.71,35.65c-.18,1-.34,2-.46,2.85s-.24,1.88-.34,3a21.05,21.05,0,0,0-.16,2.91,13.87,13.87,0,0,0,.19,2.39,3.47,3.47,0,0,0,.68,1.7,1.4,1.4,0,0,0,1.24.56l-.09.13a20.68,20.68,0,0,1-4.41.43,13.44,13.44,0,0,1-3-.31,9.12,9.12,0,0,1-2.58-1,4.83,4.83,0,0,1-1.89-1.83,8.24,8.24,0,0,1-.9-2.85,10.64,10.64,0,0,1,.34-4L235.47,30l-.12,0a67.47,67.47,0,0,1-3.07,9.55,24,24,0,0,1-3.44,6,11.58,11.58,0,0,1-3.69,3.07,8.94,8.94,0,0,1-4.06.93,8.12,8.12,0,0,1-4.09-1A7,7,0,0,1,214.24,46a12.44,12.44,0,0,1-1.46-3.62,17.2,17.2,0,0,1-.49-4.22,19.54,19.54,0,0,1,1.64-7.59,27.21,27.21,0,0,1,4.25-7.1,21.9,21.9,0,0,1,6.32-5.21,15,15,0,0,1,7.41-2.05,16.88,16.88,0,0,1,4.52.68c1.6.46,3.07.91,4.44,1.37a11.19,11.19,0,0,0,3.31.68A4.21,4.21,0,0,0,248,16.43ZM229.65,19a20.79,20.79,0,0,0-3.29,6.23,49.36,49.36,0,0,0-2.08,8,46.51,46.51,0,0,0-.77,8.09,9.42,9.42,0,0,0,.65,3.66c.43,1.06,1,1.58,1.8,1.58q1.8,0,3.75-2.82a29.48,29.48,0,0,0,3.44-7.07,54.87,54.87,0,0,0,2.29-8.89l.68-3.78q1.37-7.49-2.32-7.48Q231.63,16.55,229.65,19Z"/><path d="M15.28,91a57.44,57.44,0,0,1,1.89-8.53q2-5.52,6.51-6.88a12.56,12.56,0,0,1,3.76-.53A10.53,10.53,0,0,1,34,76.94,6.13,6.13,0,0,1,36.39,82a6.73,6.73,0,0,1-1.89,4.83,6.62,6.62,0,0,1-5,2,6.13,6.13,0,0,1-5.08-2.17,4.38,4.38,0,0,1-.59-4.87,3.3,3.3,0,0,0,2.79-.56,2.94,2.94,0,0,0,1.21-2.48,3.39,3.39,0,0,0-.75-2.2,2.57,2.57,0,0,0-2.1-.9,5.23,5.23,0,0,0-3.82,1.86,6.16,6.16,0,0,0-1.76,4.34,5.24,5.24,0,0,0,.74,2.76,7.06,7.06,0,0,0,1.7,2.08c.64.53,1.28,1,1.9,1.48a8.5,8.5,0,0,1,1.45,1.4A1.47,1.47,0,0,1,25.36,91h5.27l0,.18H26.35l-5,31.56a32.29,32.29,0,0,1-1.05,4.56,26.24,26.24,0,0,1-1.8,4.31A16.27,16.27,0,0,1,16,135.25a10.94,10.94,0,0,1-3.51,2.48,10.28,10.28,0,0,1-4.43,1,8.6,8.6,0,0,1-5.8-1.89A6,6,0,0,1,0,132a5.88,5.88,0,0,1,2.08-4.87A7.73,7.73,0,0,1,7,125.49a6.29,6.29,0,0,1,4.43,1.67,5.31,5.31,0,0,1,1.46,4.65,4,4,0,0,0-2.67.65,2.57,2.57,0,0,0-1,2.11,2.73,2.73,0,0,0,.71,1.92,2.46,2.46,0,0,0,2,.81,3.21,3.21,0,0,0,2.82-1.55,6.51,6.51,0,0,0,1-3.72,6.81,6.81,0,0,0-.59-2.76A11,11,0,0,0,13.76,127c-.55-.67-1.09-1.35-1.61-2a7.63,7.63,0,0,1-1.24-2.39,5.91,5.91,0,0,1-.18-2.85L15.25,91.2H12L12,91Z"/><path d="M53.72,92.85a2.07,2.07,0,0,0-1.86-1q-1.86,0-3.93,2.67a28.85,28.85,0,0,0-3.79,6.85,57.41,57.41,0,0,0-2.76,8.9c-.35,1.61-.62,2.9-.8,3.87s-.41,2.25-.62,3.82a11.88,11.88,0,0,0-.09,3.72,2,2,0,0,0,1,1.73l-.13.13a20.73,20.73,0,0,1-4.15.49,11.76,11.76,0,0,1-2.73-.28,6.53,6.53,0,0,1-2.2-1,4.14,4.14,0,0,1-1.55-1.76,8.87,8.87,0,0,1-.71-2.79,12.71,12.71,0,0,1,.28-3.94L33.17,94.8c.16-.91,0-1.52-.43-1.83a2.62,2.62,0,0,0-2.21.12L30.44,93a26.47,26.47,0,0,1,4.62-1.67,19.1,19.1,0,0,1,4.87-.75c1.84,0,3.12.42,3.84,1.24s.83,2.28.37,4.28l-3.31,14,.18.06a74,74,0,0,1,2.64-8.24,38,38,0,0,1,2.73-5.77,15.74,15.74,0,0,1,2.94-3.62,8.66,8.66,0,0,1,6.36-2.45,7.7,7.7,0,0,1,5.73,2.07,7.16,7.16,0,0,1,2,5.12,8.27,8.27,0,0,1-8.62,8.31A5.35,5.35,0,0,1,51,104.16a4.57,4.57,0,0,1-1.28-4A4.43,4.43,0,0,0,53,98.74a5,5,0,0,0,1.36-3.66A4.11,4.11,0,0,0,53.72,92.85Z"/><path d="M75.05,103.66a15.54,15.54,0,0,0,4.65-.06A8.47,8.47,0,0,0,83,102.42a7.4,7.4,0,0,0,2.07-2.1,8.77,8.77,0,0,0,1.15-2.55,11,11,0,0,0,.31-2.66A5.27,5.27,0,0,0,85.71,92a3,3,0,0,0-2.6-1.18,6,6,0,0,0-4.65,2.51,16.33,16.33,0,0,0-3.07,6,23.76,23.76,0,0,0-1,6.76,16.32,16.32,0,0,0,.56,4.4,11.82,11.82,0,0,0,1.61,3.69,7.4,7.4,0,0,0,2.91,2.57,8.61,8.61,0,0,0,4.16,1,11.78,11.78,0,0,0,4.89-1.15A12.88,12.88,0,0,0,93,112.87l.16.09a24.16,24.16,0,0,1-7.69,8,18.08,18.08,0,0,1-10,3,12.48,12.48,0,0,1-9.27-3.56q-3.57-3.57-3.57-9.71a18.92,18.92,0,0,1,1.61-7.62,21.38,21.38,0,0,1,4.37-6.45,21,21,0,0,1,6.67-4.43,20.65,20.65,0,0,1,8.18-1.65,28.88,28.88,0,0,1,3.13.16,18.31,18.31,0,0,1,3.14.62,12.93,12.93,0,0,1,2.85,1.21,6.22,6.22,0,0,1,2,2,5.63,5.63,0,0,1,.78,3,6.6,6.6,0,0,1-.62,2.79,7.09,7.09,0,0,1-2.17,2.51,11.17,11.17,0,0,1-3.82,1.79,18.7,18.7,0,0,1-5.82.44,39.74,39.74,0,0,1-8-1.33Z"/><path d="M98.27,103.14a20.62,20.62,0,0,1,4.37-6.48,21.2,21.2,0,0,1,14.85-6.08,21.79,21.79,0,0,1,3.75.34,20.93,20.93,0,0,1,3.81,1.15,7.47,7.47,0,0,1,3.13,2.39,6.13,6.13,0,0,1,1.21,3.81,7,7,0,0,1-7.06,6.94,5.14,5.14,0,0,1-3.76-1.42,4.52,4.52,0,0,1-1.14-4,5.07,5.07,0,0,0,2.82-1.8,4.71,4.71,0,0,0,1-2.85,4.58,4.58,0,0,0-1.09-3,3.75,3.75,0,0,0-3-1.27,5.67,5.67,0,0,0-3.94,1.64,11.19,11.19,0,0,0-2.76,4.13,28.34,28.34,0,0,0-1.55,5.11,24.78,24.78,0,0,0-.53,4.87,12,12,0,0,0,2.58,8.06,8.3,8.3,0,0,0,6.69,3,11.73,11.73,0,0,0,5.09-1.21,12.22,12.22,0,0,0,4.34-3.57l.15.09a24.13,24.13,0,0,1-5.15,6.11,20.87,20.87,0,0,1-6.23,3.72,18,18,0,0,1-6.41,1.21,13.88,13.88,0,0,1-4.87-.84,11.93,11.93,0,0,1-4.06-2.45,10.8,10.8,0,0,1-2.76-4.15,14.92,14.92,0,0,1-1-5.67A19.19,19.19,0,0,1,98.27,103.14Z"/><path d="M163.55,92.23a5.4,5.4,0,0,1,1.8,4.12A5.54,5.54,0,0,1,164.7,99a6.94,6.94,0,0,1-1.67,2.11,13.07,13.07,0,0,1-2.61,1.68,23.17,23.17,0,0,1-3.07,1.33c-1,.35-2.19.69-3.47,1s-2.43.6-3.44.81l-3.28.68c-1.18.25-2.1.46-2.76.62a43.63,43.63,0,0,1,5.7-.43,19.34,19.34,0,0,1,4,.34,7.67,7.67,0,0,1,2.7,1.11,7.21,7.21,0,0,1,1.73,1.71,9.85,9.85,0,0,1,1.12,2.23c.12.31.33.9.62,1.77s.56,1.65.8,2.29a22.1,22.1,0,0,0,1,2.3,14.94,14.94,0,0,0,1.24,2.23,7.18,7.18,0,0,0,1.55,1.67,4.57,4.57,0,0,0,1.95,1l-.13.13a42.34,42.34,0,0,1-7.4.86,16.21,16.21,0,0,1-3.79-.4,10.42,10.42,0,0,1-3.22-1.33,8.48,8.48,0,0,1-2.73-2.79,14.66,14.66,0,0,1-1.77-4.4c-.12-.48-.27-1.22-.46-2.24s-.38-1.77-.53-2.35-.33-1.2-.56-1.86a3.69,3.69,0,0,0-.77-1.43,1.2,1.2,0,0,0-1-.34v-.06a14.57,14.57,0,0,0,7.16-4.09,9.85,9.85,0,0,0,2.85-7,3.77,3.77,0,0,0-.5-2,1.57,1.57,0,0,0-1.39-.77q-2.38,0-5.27,4.87a46,46,0,0,0-4.81,12.15c-.31,1.2-.59,2.43-.83,3.69s-.46,2.6-.62,4a12.62,12.62,0,0,0,0,3.62c.15,1,.48,1.6,1,1.8l-.13.13a41.58,41.58,0,0,1-5.3.49,9.33,9.33,0,0,1-3.1-.43,4.17,4.17,0,0,1-2-1.55,5.34,5.34,0,0,1-.87-3,26.13,26.13,0,0,1,.31-4.74l5.83-35.53c.14-.91,0-1.52-.44-1.83a2.61,2.61,0,0,0-2.2.13l-.09-.1a30.92,30.92,0,0,1,4.65-1.67,18.91,18.91,0,0,1,5-.74c1.78,0,3,.42,3.66,1.27s.77,2.28.4,4.24l-5.61,30,.19.06a59.39,59.39,0,0,1,2.69-8.12,32.07,32.07,0,0,1,3-5.64,14.89,14.89,0,0,1,3.25-3.5,10.94,10.94,0,0,1,3.45-1.83,12.14,12.14,0,0,1,3.53-.5Q161.76,90.58,163.55,92.23Z"/><path d="M177.91,103.66a15.55,15.55,0,0,0,4.65-.06,8.36,8.36,0,0,0,3.31-1.18,7.43,7.43,0,0,0,2.08-2.1,8.77,8.77,0,0,0,1.15-2.55,11.47,11.47,0,0,0,.31-2.66,5.27,5.27,0,0,0-.84-3.13A3,3,0,0,0,186,90.8a6,6,0,0,0-4.65,2.51,16.18,16.18,0,0,0-3.07,6,23.78,23.78,0,0,0-1,6.76,16.72,16.72,0,0,0,.56,4.4,12.06,12.06,0,0,0,1.61,3.69,7.5,7.5,0,0,0,2.92,2.57,8.57,8.57,0,0,0,4.15,1,11.82,11.82,0,0,0,4.9-1.15,13.06,13.06,0,0,0,4.53-3.63l.15.09a24.06,24.06,0,0,1-7.69,8,18.08,18.08,0,0,1-10,3,12.51,12.51,0,0,1-9.27-3.56q-3.56-3.57-3.56-9.71a18.92,18.92,0,0,1,1.61-7.62,21.2,21.2,0,0,1,4.37-6.45,21.25,21.25,0,0,1,14.85-6.08,29,29,0,0,1,3.13.16,18.21,18.21,0,0,1,3.13.62,12.53,12.53,0,0,1,2.85,1.21,6.16,6.16,0,0,1,2,2,5.72,5.72,0,0,1,.77,3,6.45,6.45,0,0,1-.62,2.79,6.9,6.9,0,0,1-2.17,2.51,11,11,0,0,1-3.81,1.79,18.77,18.77,0,0,1-5.83.44,39.77,39.77,0,0,1-8-1.33Z"/><path d="M211.76,114.73l-.34,2.33a21.39,21.39,0,0,0-.22,2.32q0,1,0,1.89a3.42,3.42,0,0,0,.37,1.46,1.31,1.31,0,0,0,.78.71l-.13.13a22.24,22.24,0,0,1-4.27.49q-8.78,0-7.2-9.73l5.71-35.53c.14-.91,0-1.52-.44-1.83a2.61,2.61,0,0,0-2.2.13l-.09-.1a28.22,28.22,0,0,1,4.62-1.67,19,19,0,0,1,4.87-.74c1.79,0,3,.4,3.65,1.2s.77,2.25.44,4.31Z"/><path d="M228.84,110.05q-2.09,12.84,1.18,13.39l-.13.13a24.64,24.64,0,0,1-4.52.46,12.12,12.12,0,0,1-3.63-.49,7.74,7.74,0,0,1-2.82-1.59,5.62,5.62,0,0,1-1.71-3.1,12.91,12.91,0,0,1,0-4.83l3.57-22.82h-2.64l0-.18H219a35.29,35.29,0,0,0,4.81-.34,13.29,13.29,0,0,0,3.68-1.06,7.92,7.92,0,0,0,2.86-2.08,12.84,12.84,0,0,0,2-3.37,24.81,24.81,0,0,0,1.37-4.93h.18L231.94,91h4.28l0,.18h-4.28Z"/><path d="M265.39,94.46a13.14,13.14,0,0,1,4.18,10.07,17.54,17.54,0,0,1-1.64,7.38,20.35,20.35,0,0,1-4.37,6.23,20.62,20.62,0,0,1-6.51,4.25,19.89,19.89,0,0,1-7.84,1.61,15.19,15.19,0,0,1-10.82-3.91,13.07,13.07,0,0,1-4.22-10,18.29,18.29,0,0,1,2.76-9.76,19.67,19.67,0,0,1,7.41-7.1,20.54,20.54,0,0,1,10.17-2.61A15.42,15.42,0,0,1,265.39,94.46ZM252.8,121.71a16.76,16.76,0,0,0,2.61-5.18,58.07,58.07,0,0,0,1.64-6.85c.45-2.5.77-4.81,1-6.91s.25-3.94.25-5.55q0-6.42-3.78-6.42a4.49,4.49,0,0,0-3.54,2.14,16.89,16.89,0,0,0-2.57,5.3,58.41,58.41,0,0,0-1.68,6.94c-.45,2.55-.76,4.85-.93,6.92s-.27,3.87-.27,5.36c0,4.22,1.25,6.32,3.75,6.32A4.53,4.53,0,0,0,252.8,121.71Z"/><path d="M283.4,110.11l.18.06a57,57,0,0,1,2.73-8.15,30.69,30.69,0,0,1,3-5.64,15.46,15.46,0,0,1,3.29-3.47A10.72,10.72,0,0,1,296,91.08a11.28,11.28,0,0,1,3.38-.5q8.28,0,6.48,10.67l-1.49,8.8q-2.22,12.81,1.18,13.39l-.12.13a24.74,24.74,0,0,1-4.53.46,12.43,12.43,0,0,1-2.91-.31,7.66,7.66,0,0,1-2.51-1,4.89,4.89,0,0,1-1.89-1.83,8.44,8.44,0,0,1-1-2.85,11.39,11.39,0,0,1,.13-4l2.48-15.38a10.91,10.91,0,0,0,.18-3.93c-.18-1-.67-1.43-1.45-1.43q-2.38,0-5.37,5a45.38,45.38,0,0,0-4.71,12q-3,12.12-.49,13.14l-.13.13a41.48,41.48,0,0,1-5.24.49,9.14,9.14,0,0,1-3.16-.46,4.15,4.15,0,0,1-2-1.55,5,5,0,0,1-.9-3,26.07,26.07,0,0,1,.37-4.74l3.47-19.53c.17-.91,0-1.52-.43-1.83a2.62,2.62,0,0,0-2.21.12L273,93a26.47,26.47,0,0,1,4.62-1.67,19.1,19.1,0,0,1,4.87-.75c1.84,0,3.12.42,3.84,1.24s.83,2.28.37,4.28Z"/></g></g></svg>