<svg xmlns="http://www.w3.org/2000/svg" viewBox="0 0 353.16 140.63"><defs><style>.cls-1{fill:#ff61ba;}</style></defs><g id="Layer_2" data-name="Layer 2"><g id="Layer_1-2" data-name="Layer 1"><path d="M61.88,8.88V.36H63V7.92h4.75v1Z"/><path d="M68.37,5.74a3.16,3.16,0,0,1,3.2-3.23A3.1,3.1,0,0,1,74.7,5.7a3.59,3.59,0,0,1,0,.4H69.49A2.16,2.16,0,0,0,71.6,8.2a2,2,0,0,0,1.79-1l.91.25A2.94,2.94,0,0,1,71.56,9,3.17,3.17,0,0,1,68.37,5.74Zm5.34-.41a2.15,2.15,0,0,0-2.14-2,2.12,2.12,0,0,0-2.11,2Z"/><path d="M76.22,8.88V4.17h-.85V3.35h.85V2.48C76.22,1,77,0,78.14,0a2.7,2.7,0,0,1,1.38.38l-.27.78a1.73,1.73,0,0,0-.9-.26c-.69,0-1.08.55-1.08,1.55v.9h1.67v.82H77.27V8.88Z"/><path d="M83.38,8.56a3.67,3.67,0,0,1-1.52.4,1.27,1.27,0,0,1-1.42-1.31V3.44h-.85V2.61h.85V.53H81.5V2.61h1.4v.83H81.5V7.33a.65.65,0,0,0,.71.66,1.85,1.85,0,0,0,.92-.27Z"/><path d="M92.74,8.88h-1V5.37c0-1.28-.47-1.92-1.32-1.92a2.28,2.28,0,0,0-2,1.65V8.88h-1V.12h1V4a2.74,2.74,0,0,1,2.4-1.45c1.49,0,2,1.14,2,2.62Z"/><path d="M94.34,1.44V.12h1V1.44Zm0,7.44V2.61h1V8.88Z"/><path d="M96.67,5.76a3,3,0,0,1,2.9-3.25,2.79,2.79,0,0,1,2.34,1.35V2.61h.93V8.8c0,1.78-1.41,2.75-3.19,2.75a3.15,3.15,0,0,1-2.84-1.38l.61-.54a2.62,2.62,0,0,0,2.23,1.1,1.91,1.91,0,0,0,2.14-1.93V7.7A2.65,2.65,0,0,1,99.56,9,3,3,0,0,1,96.67,5.76Zm5.12.92V4.88a2.29,2.29,0,0,0-2-1.46,2.22,2.22,0,0,0-2.06,2.36,2.23,2.23,0,0,0,2.15,2.3A2.06,2.06,0,0,0,101.79,6.68Z"/><path d="M109.94,8.88h-1.06V5.37c0-1.28-.47-1.92-1.32-1.92a2.26,2.26,0,0,0-2,1.65V8.88H104.5V.12h1.06V4A2.73,2.73,0,0,1,108,2.51c1.48,0,2,1.14,2,2.62Z"/><path d="M114,8.08l.45-.7a3.73,3.73,0,0,0,2.27.84c.9,0,1.49-.39,1.49-1s-.56-.8-1.76-1.09c-1.52-.37-2.15-.66-2.15-1.64,0-1.26,1.07-1.94,2.4-1.94a3.65,3.65,0,0,1,2.35.82l-.48.64a2.85,2.85,0,0,0-1.9-.7c-.76,0-1.38.32-1.38,1s.41.71,1.48,1c1.67.39,2.46.73,2.46,1.8S118.28,9,116.77,9A4.38,4.38,0,0,1,114,8.08Z"/><path d="M123.25,2.51A2.81,2.81,0,0,1,125.88,4l-1,.32a1.83,1.83,0,0,0-1.63-.93,2.16,2.16,0,0,0-2.07,2.31,2.22,2.22,0,0,0,2.08,2.35,1.82,1.82,0,0,0,1.67-1l1,.31A2.8,2.8,0,0,1,123.26,9a3.17,3.17,0,0,1-3.19-3.27A3.12,3.12,0,0,1,123.25,2.51Z"/><path d="M132.54,8.88h-1V5.37c0-1.28-.47-1.92-1.32-1.92a2.26,2.26,0,0,0-2,1.65V8.88h-1.06V.12h1.06V4a2.72,2.72,0,0,1,2.39-1.45c1.49,0,2,1.14,2,2.62Z"/><path d="M133.75,5.76a3.16,3.16,0,1,1,6.32,0,3.16,3.16,0,1,1-6.32,0Zm3.15,2.32A2.22,2.22,0,0,0,139,5.74a2.09,2.09,0,1,0-4.16,0A2.17,2.17,0,0,0,136.9,8.08Z"/><path d="M140.92,5.76a3.16,3.16,0,1,1,6.32,0,3.16,3.16,0,1,1-6.32,0Zm3.16,2.32a2.21,2.21,0,0,0,2.08-2.34,2.09,2.09,0,1,0-4.16,0A2.18,2.18,0,0,0,144.08,8.08Z"/><path d="M148.52.12h1V7.26a.67.67,0,0,0,.71.74,2,2,0,0,0,.65-.14l.17.85a3.92,3.92,0,0,1-1.26.25,1.21,1.21,0,0,1-1.32-1.32Z"/><path d="M154.07,7.08c0-1.19,1.1-2,2.64-2a5,5,0,0,1,1.75.31v-.5a1.52,1.52,0,0,0-1.65-1.65,3.49,3.49,0,0,0-2,.74l-.35-.69a4.3,4.3,0,0,1,2.46-.81A2.35,2.35,0,0,1,159.52,5V7.58c0,.26.1.37.34.38v.92a4,4,0,0,1-.44,0,.73.73,0,0,1-.79-.63l0-.45A3,3,0,0,1,156.23,9,2,2,0,0,1,154.07,7.08Zm4.17.38a.83.83,0,0,0,.22-.49V6a4.52,4.52,0,0,0-1.58-.3c-1.08,0-1.8.48-1.8,1.24A1.28,1.28,0,0,0,156.5,8.2,2.44,2.44,0,0,0,158.24,7.46Z"/><path d="M164.38,8.56a3.67,3.67,0,0,1-1.52.4,1.27,1.27,0,0,1-1.42-1.31V3.44h-.85V2.61h.85V.53h1.06V2.61h1.4v.83h-1.4V7.33a.65.65,0,0,0,.71.66,1.85,1.85,0,0,0,.92-.27Z"/><path d="M171.56,8.56A3.72,3.72,0,0,1,170,9a1.27,1.27,0,0,1-1.41-1.31V3.44h-.85V2.61h.85V.53h1V2.61h1.41v.83h-1.41V7.33a.66.66,0,0,0,.71.66,1.9,1.9,0,0,0,.93-.27Z"/><path d="M177.9,8.88h-1.05V5.37c0-1.28-.47-1.92-1.32-1.92a2.28,2.28,0,0,0-2,1.65V8.88h-1.05V.12h1.05V4a2.75,2.75,0,0,1,2.4-1.45c1.49,0,2,1.14,2,2.62Z"/><path d="M179.11,5.74a3.16,3.16,0,0,1,3.2-3.23,3.11,3.11,0,0,1,3.13,3.19,2,2,0,0,1,0,.4h-5.19a2.17,2.17,0,0,0,2.11,2.1,2,2,0,0,0,1.79-1l.91.25A2.92,2.92,0,0,1,182.3,9,3.16,3.16,0,0,1,179.11,5.74Zm5.33-.41a2.14,2.14,0,0,0-2.13-2,2.11,2.11,0,0,0-2.11,2Z"/><path d="M190.54,7.7V8.88h-.94V.12h1.06V3.86A2.71,2.71,0,0,1,193,2.51a3,3,0,0,1,2.8,3.26,3.09,3.09,0,0,1-3,3.23A2.66,2.66,0,0,1,190.54,7.7Zm4.16-1.93a2.21,2.21,0,0,0-2-2.35,2.31,2.31,0,0,0-2,1.46V6.69a2,2,0,0,0,1.9,1.39A2.23,2.23,0,0,0,194.7,5.77Z"/><path d="M196.66,5.74a3.16,3.16,0,0,1,3.2-3.23A3.1,3.1,0,0,1,203,5.7a3.59,3.59,0,0,1,0,.4h-5.19a2.16,2.16,0,0,0,2.11,2.1,2,2,0,0,0,1.79-1l.91.25A2.94,2.94,0,0,1,199.85,9,3.17,3.17,0,0,1,196.66,5.74ZM202,5.33a2.15,2.15,0,0,0-2.14-2,2.12,2.12,0,0,0-2.11,2Z"/><path d="M203.77,5.76a3,3,0,0,1,2.9-3.25A2.79,2.79,0,0,1,209,3.86V2.61h.93V8.8c0,1.78-1.41,2.75-3.19,2.75a3.15,3.15,0,0,1-2.84-1.38l.61-.54a2.62,2.62,0,0,0,2.23,1.1,1.91,1.91,0,0,0,2.14-1.93V7.7A2.66,2.66,0,0,1,206.66,9,3,3,0,0,1,203.77,5.76Zm5.12.92V4.88a2.29,2.29,0,0,0-2-1.46,2.22,2.22,0,0,0-2,2.36A2.23,2.23,0,0,0,207,8.08,2.06,2.06,0,0,0,208.89,6.68Z"/><path d="M211.6,1.44V.12h1.06V1.44Zm0,7.44V2.61h1.06V8.88Z"/><path d="M219.75,8.88h-1.06V5.37c0-1.33-.41-1.92-1.23-1.92a2.34,2.34,0,0,0-2.09,1.65V8.88h-1.06V2.61h1V4a3,3,0,0,1,2.61-1.45c1.45,0,1.87,1.11,1.87,2.62Z"/><path d="M226.78,8.88h-1.06V5.37c0-1.33-.4-1.92-1.23-1.92A2.34,2.34,0,0,0,222.4,5.1V8.88h-1.05V2.61h1V4a3,3,0,0,1,2.6-1.45c1.45,0,1.87,1.11,1.87,2.62Z"/><path d="M228.38,1.44V.12h1.05V1.44Zm0,7.44V2.61h1.05V8.88Z"/><path d="M236.52,8.88h-1.05V5.37c0-1.33-.41-1.92-1.24-1.92a2.35,2.35,0,0,0-2.09,1.65V8.88h-1V2.61h1V4a3,3,0,0,1,2.6-1.45c1.45,0,1.87,1.11,1.87,2.62Z"/><path d="M237.74,5.76a3,3,0,0,1,2.9-3.25A2.79,2.79,0,0,1,243,3.86V2.61h.93V8.8c0,1.78-1.41,2.75-3.19,2.75a3.15,3.15,0,0,1-2.84-1.38l.61-.54a2.62,2.62,0,0,0,2.23,1.1,1.91,1.91,0,0,0,2.14-1.93V7.7A2.65,2.65,0,0,1,240.63,9,3,3,0,0,1,237.74,5.76Zm5.12.92V4.88a2.29,2.29,0,0,0-2-1.46,2.22,2.22,0,0,0-2.06,2.36A2.23,2.23,0,0,0,241,8.08,2.06,2.06,0,0,0,242.86,6.68Z"/><path d="M248.19,5.76a3.16,3.16,0,1,1,6.32,0,3.16,3.16,0,1,1-6.32,0Zm3.15,2.32a2.22,2.22,0,0,0,2.09-2.34,2.09,2.09,0,1,0-4.16,0A2.17,2.17,0,0,0,251.34,8.08Z"/><path d="M256.07,8.88V4.17h-.85V3.35h.85V2.48C256.07,1,256.82,0,258,0a2.67,2.67,0,0,1,1.38.38l-.26.78a1.79,1.79,0,0,0-.9-.26c-.7,0-1.08.55-1.08,1.55v.9h1.67v.82h-1.67V8.88Z"/><path d="M262.74,10.59c.22,0,.41,0,.58,0s.47-.15,1.08-1.75l-2.65-6.27h1.09L265,7.93l1.94-5.32h1l-3.08,7.91a1.55,1.55,0,0,1-1.58,1.05,1.88,1.88,0,0,1-.53-.06Z"/><path d="M268.59,5.74a3.16,3.16,0,0,1,3.2-3.23,3.1,3.1,0,0,1,3.13,3.19,3.59,3.59,0,0,1,0,.4h-5.2a2.17,2.17,0,0,0,2.11,2.1,2,2,0,0,0,1.79-1l.91.25A2.92,2.92,0,0,1,271.78,9,3.17,3.17,0,0,1,268.59,5.74Zm5.34-.41a2.15,2.15,0,0,0-2.14-2,2.11,2.11,0,0,0-2.11,2Z"/><path d="M275.61,7.08c0-1.19,1.09-2,2.64-2a5.05,5.05,0,0,1,1.75.31v-.5a1.52,1.52,0,0,0-1.66-1.65,3.54,3.54,0,0,0-2,.74L276,3.32a4.27,4.27,0,0,1,2.45-.81A2.35,2.35,0,0,1,281.05,5V7.58c0,.26.1.37.34.38v.92a3.82,3.82,0,0,1-.43,0,.71.71,0,0,1-.79-.63l0-.45A3,3,0,0,1,277.77,9,2,2,0,0,1,275.61,7.08Zm4.16.38A.8.8,0,0,0,280,7V6a4.56,4.56,0,0,0-1.58-.3c-1.08,0-1.8.48-1.8,1.24A1.27,1.27,0,0,0,278,8.2,2.44,2.44,0,0,0,279.77,7.46Z"/><path d="M286.07,3.54A2.33,2.33,0,0,0,283.82,5V8.88h-1.06V2.61h1V4.07a2.43,2.43,0,0,1,2-1.5h.35Z"/><path d="M294.13,7.92v1h-4.3v-1h1.7V3.24a3.29,3.29,0,0,1-1.95.93v-1A3.73,3.73,0,0,0,291.53,2h1.08V7.92Z"/><path d="M295,8.88a3.16,3.16,0,0,1,1.95-3.14C297.88,5.22,299,4.81,299,4c0-.55-.5-1.12-1.44-1.12a2.36,2.36,0,0,0-1.84,1l-.69-.76a3.89,3.89,0,0,1,2.73-1.14c1.47,0,2.38.86,2.38,1.93,0,1.23-1.22,1.84-1.93,2.19s-1.87,1-2,1.89h4.09v1Z"/><path d="M61.22,21.48c0-1.19,1.09-2,2.64-2a5.05,5.05,0,0,1,1.75.31v-.5A1.52,1.52,0,0,0,64,17.67a3.54,3.54,0,0,0-2,.74l-.34-.69a4.27,4.27,0,0,1,2.45-.81,2.36,2.36,0,0,1,2.6,2.51V22c0,.26.09.37.33.38v.91a2.37,2.37,0,0,1-.43.05.71.71,0,0,1-.79-.63l0-.45a3,3,0,0,1-2.37,1.16A2,2,0,0,1,61.22,21.48Zm4.16.38a.8.8,0,0,0,.23-.49v-.93a4.56,4.56,0,0,0-1.58-.3c-1.08,0-1.8.48-1.8,1.24a1.28,1.28,0,0,0,1.41,1.22A2.44,2.44,0,0,0,65.38,21.86Z"/><path d="M73.81,23.27H72.75v-3.5c0-1.33-.41-1.92-1.24-1.92a2.34,2.34,0,0,0-2.08,1.65v3.77H68.37V17h1v1.35a3,3,0,0,1,2.6-1.45c1.46,0,1.88,1.11,1.88,2.62Z"/><path d="M75,20.16a3,3,0,0,1,2.84-3.25,2.7,2.7,0,0,1,2.29,1.35V14.52H81.2V22c0,.26.09.37.33.38v.91a2.6,2.6,0,0,1-.42.05.71.71,0,0,1-.8-.63l0-.59A2.77,2.77,0,0,1,78,23.4,3.11,3.11,0,0,1,75,20.16Zm5.13.92v-1.8a2.33,2.33,0,0,0-2-1.46,2.21,2.21,0,0,0-2.05,2.35,2.22,2.22,0,0,0,2.15,2.31A2.06,2.06,0,0,0,80.14,21.08Z"/><path d="M86.92,22.1v1.17H86V14.52H87v3.74a2.71,2.71,0,0,1,2.32-1.35,3,3,0,0,1,2.8,3.26,3.09,3.09,0,0,1-3,3.23A2.66,2.66,0,0,1,86.92,22.1Zm4.16-1.93a2.2,2.2,0,0,0-2-2.35,2.33,2.33,0,0,0-2,1.46v1.81a2,2,0,0,0,1.9,1.39A2.23,2.23,0,0,0,91.08,20.17Z"/><path d="M93,20.14a3.16,3.16,0,0,1,3.21-3.23,3.15,3.15,0,0,1,3.1,3.59H94.16a2.16,2.16,0,0,0,2.11,2.1,2,2,0,0,0,1.79-1l.91.25a2.94,2.94,0,0,1-2.74,1.59A3.17,3.17,0,0,1,93,20.14Zm5.34-.42a2.14,2.14,0,0,0-2.13-2,2.12,2.12,0,0,0-2.12,2Z"/><path d="M100.15,20.16a3,3,0,0,1,2.9-3.25,2.79,2.79,0,0,1,2.34,1.35V17h.93V23.2c0,1.78-1.41,2.75-3.19,2.75a3.15,3.15,0,0,1-2.84-1.38l.61-.54a2.62,2.62,0,0,0,2.23,1.1,1.91,1.91,0,0,0,2.14-1.93V22.1A2.65,2.65,0,0,1,103,23.35,3,3,0,0,1,100.15,20.16Zm5.12.92v-1.8a2.29,2.29,0,0,0-2-1.46,2.22,2.22,0,0,0-2.06,2.36,2.23,2.23,0,0,0,2.15,2.3A2.06,2.06,0,0,0,105.27,21.08Z"/><path d="M107.52,21.48c0-1.19,1.09-2,2.63-2a5.07,5.07,0,0,1,1.76.31v-.5a1.53,1.53,0,0,0-1.66-1.65,3.49,3.49,0,0,0-2,.74l-.35-.69a4.3,4.3,0,0,1,2.46-.81A2.35,2.35,0,0,1,113,19.42V22c0,.26.1.37.34.38v.91a2.58,2.58,0,0,1-.44.05.73.73,0,0,1-.79-.63l0-.45a3,3,0,0,1-2.38,1.16A2,2,0,0,1,107.52,21.48Zm4.16.38a.86.86,0,0,0,.23-.49v-.93a4.62,4.62,0,0,0-1.59-.3c-1.08,0-1.8.48-1.8,1.24a1.28,1.28,0,0,0,1.42,1.22A2.44,2.44,0,0,0,111.68,21.86Z"/><path d="M120.1,23.27H119v-3.5c0-1.33-.4-1.92-1.23-1.92a2.35,2.35,0,0,0-2.09,1.65v3.77h-1V17h1v1.35a3,3,0,0,1,2.6-1.45c1.45,0,1.87,1.11,1.87,2.62Z"/><path d="M124.18,22.48l.46-.7a3.69,3.69,0,0,0,2.27.84c.9,0,1.48-.39,1.48-1s-.56-.8-1.76-1.09c-1.51-.37-2.15-.66-2.15-1.64,0-1.26,1.07-1.94,2.4-1.94a3.61,3.61,0,0,1,2.35.82l-.48.64a2.82,2.82,0,0,0-1.89-.7c-.77,0-1.38.32-1.38,1s.41.71,1.47,1c1.67.39,2.46.73,2.46,1.8s-1,1.91-2.48,1.91A4.4,4.4,0,0,1,124.18,22.48Z"/><path d="M133.85,23a3.67,3.67,0,0,1-1.52.4,1.27,1.27,0,0,1-1.42-1.31V17.84h-.85V17h.85V14.93H132V17h1.4v.83H132v3.89a.66.66,0,0,0,.71.66,1.85,1.85,0,0,0,.92-.27Z"/><path d="M134.71,20.77V17h1v3.55c0,1.29.45,1.92,1.33,1.92a2.28,2.28,0,0,0,2.07-1.54V17h1.05v5c0,.26.1.37.34.38v.91a2.73,2.73,0,0,1-.42.05c-.48,0-.77-.25-.79-.63l0-.76a3,3,0,0,1-2.6,1.47C135.39,23.4,134.71,22.5,134.71,20.77Z"/><path d="M141.61,20.16a3,3,0,0,1,2.84-3.25,2.72,2.72,0,0,1,2.29,1.35V14.52h1.06V22c0,.26.09.37.33.38v.91a2.6,2.6,0,0,1-.42.05.71.71,0,0,1-.8-.63l0-.59a2.74,2.74,0,0,1-2.29,1.3A3.1,3.1,0,0,1,141.61,20.16Zm5.13.92v-1.8a2.33,2.33,0,0,0-2-1.46,2.2,2.2,0,0,0-2.05,2.35,2.22,2.22,0,0,0,2.15,2.31A2.07,2.07,0,0,0,146.74,21.08Z"/><path d="M149.83,25c.21,0,.4,0,.57,0s.47-.15,1.08-1.76L148.83,17h1.09l2.14,5.32L154,17h1l-3.07,7.91a1.56,1.56,0,0,1-1.59,1,1.77,1.77,0,0,1-.52-.06Z"/><path d="M156.07,15.84V14.52h1.05v1.32Zm0,7.43V17h1.05v6.26Z"/><path d="M164.21,23.27h-1.05v-3.5c0-1.33-.41-1.92-1.24-1.92a2.35,2.35,0,0,0-2.09,1.65v3.77h-1.05V17h1v1.35a3,3,0,0,1,2.6-1.45c1.45,0,1.87,1.11,1.87,2.62Z"/><path d="M165.43,20.16a3,3,0,0,1,2.9-3.25,2.79,2.79,0,0,1,2.34,1.35V17h.93V23.2c0,1.78-1.41,2.75-3.19,2.75a3.15,3.15,0,0,1-2.84-1.38l.61-.54a2.62,2.62,0,0,0,2.23,1.1,1.91,1.91,0,0,0,2.14-1.93V22.1a2.66,2.66,0,0,1-2.23,1.25A3,3,0,0,1,165.43,20.16Zm5.12.92v-1.8a2.29,2.29,0,0,0-2-1.46,2.22,2.22,0,0,0-2.06,2.36,2.23,2.23,0,0,0,2.15,2.3A2.06,2.06,0,0,0,170.55,21.08Z"/><path d="M176.63,23.27v-4.7h-.85v-.82h.85v-.87c0-1.53.75-2.48,1.92-2.48a2.67,2.67,0,0,1,1.38.38l-.26.78a1.79,1.79,0,0,0-.9-.26c-.7,0-1.08.55-1.08,1.55v.9h1.67v.82h-1.67v4.7Z"/><path d="M180,21.48c0-1.19,1.09-2,2.64-2a5.05,5.05,0,0,1,1.75.31v-.5a1.52,1.52,0,0,0-1.65-1.65,3.49,3.49,0,0,0-2,.74l-.35-.69a4.28,4.28,0,0,1,2.46-.81,2.35,2.35,0,0,1,2.59,2.51V22c0,.26.09.37.33.38v.91a2.37,2.37,0,0,1-.43.05.71.71,0,0,1-.79-.63l0-.45a3,3,0,0,1-2.38,1.16A2,2,0,0,1,180,21.48Zm4.16.38a.8.8,0,0,0,.23-.49v-.93a4.56,4.56,0,0,0-1.58-.3c-1.08,0-1.8.48-1.8,1.24a1.28,1.28,0,0,0,1.41,1.22A2.42,2.42,0,0,0,184.14,21.86Z"/><path d="M186.61,22.48l.45-.7a3.69,3.69,0,0,0,2.27.84c.9,0,1.49-.39,1.49-1s-.57-.8-1.77-1.09c-1.51-.37-2.14-.66-2.14-1.64,0-1.26,1.06-1.94,2.39-1.94a3.61,3.61,0,0,1,2.35.82l-.47.64a2.87,2.87,0,0,0-1.9-.7c-.77,0-1.38.32-1.38,1s.41.71,1.48,1c1.66.39,2.46.73,2.46,1.8s-1,1.91-2.49,1.91A4.37,4.37,0,0,1,186.61,22.48Z"/><path d="M198.48,23.27h-1v-3.5c0-1.28-.47-1.92-1.32-1.92a2.28,2.28,0,0,0-2,1.65v3.77h-1V14.52h1v3.84a2.75,2.75,0,0,1,2.4-1.45c1.49,0,2,1.14,2,2.62Z"/><path d="M200.08,15.84V14.52h1.06v1.32Zm0,7.43V17h1.06v6.26Z"/><path d="M202.4,20.16a3.16,3.16,0,1,1,3.15,3.24A3.15,3.15,0,0,1,202.4,20.16Zm3.15,2.32a2.22,2.22,0,0,0,2.09-2.34,2.09,2.09,0,1,0-4.16,0A2.17,2.17,0,0,0,205.55,22.48Z"/><path d="M215.4,23.27h-1.05v-3.5c0-1.33-.41-1.92-1.24-1.92A2.35,2.35,0,0,0,211,19.5v3.77H210V17h1v1.35a3,3,0,0,1,2.6-1.45c1.45,0,1.87,1.11,1.87,2.62Z"/><path d="M219.55,21.48c0-1.19,1.09-2,2.63-2a5.07,5.07,0,0,1,1.76.31v-.5a1.53,1.53,0,0,0-1.66-1.65,3.49,3.49,0,0,0-2,.74l-.35-.69a4.32,4.32,0,0,1,2.46-.81A2.35,2.35,0,0,1,225,19.42V22c0,.26.1.37.34.38v.91a2.47,2.47,0,0,1-.43.05.73.73,0,0,1-.8-.63l0-.45a3,3,0,0,1-2.38,1.16A2,2,0,0,1,219.55,21.48Zm4.16.38a.86.86,0,0,0,.23-.49v-.93a4.62,4.62,0,0,0-1.59-.3c-1.08,0-1.8.48-1.8,1.24A1.28,1.28,0,0,0,222,22.6,2.44,2.44,0,0,0,223.71,21.86Z"/><path d="M229.85,23a3.67,3.67,0,0,1-1.52.4,1.27,1.27,0,0,1-1.42-1.31V17.84h-.85V17h.85V14.93H228V17h1.4v.83H228v3.89a.65.65,0,0,0,.71.66,1.85,1.85,0,0,0,.92-.27Z"/><path d="M239.8,15.72h-2.94v7.55h-1.08V15.72h-2.94v-1h7Z"/><path d="M239.26,21.48c0-1.19,1.09-2,2.64-2a5.05,5.05,0,0,1,1.75.31v-.5A1.52,1.52,0,0,0,242,17.67a3.49,3.49,0,0,0-2,.74l-.35-.69a4.28,4.28,0,0,1,2.46-.81,2.35,2.35,0,0,1,2.59,2.51V22c0,.26.09.37.33.38v.91a2.37,2.37,0,0,1-.43.05.71.71,0,0,1-.79-.63l0-.45a3,3,0,0,1-2.38,1.16A2,2,0,0,1,239.26,21.48Zm4.16.38a.8.8,0,0,0,.23-.49v-.93a4.56,4.56,0,0,0-1.58-.3c-1.08,0-1.8.48-1.8,1.24a1.28,1.28,0,0,0,1.41,1.22A2.42,2.42,0,0,0,243.42,21.86Z"/><path d="M246.75,23.27v-4.7h-.85v-.82h.85v-.87c0-1.53.74-2.48,1.92-2.48a2.7,2.7,0,0,1,1.38.38l-.27.78a1.73,1.73,0,0,0-.9-.26c-.69,0-1.07.55-1.07,1.55v.9h1.66v.82h-1.66v4.7Z"/><path d="M250.27,20.14a3.15,3.15,0,0,1,3.2-3.23,3.11,3.11,0,0,1,3.13,3.19,2,2,0,0,1,0,.4h-5.19a2.17,2.17,0,0,0,2.11,2.1,2,2,0,0,0,1.79-1l.91.25a2.93,2.93,0,0,1-2.73,1.59A3.16,3.16,0,0,1,250.27,20.14Zm5.33-.42a2.14,2.14,0,0,0-2.13-2,2.1,2.1,0,0,0-2.11,2Z"/><path d="M257.5,23.47a.28.28,0,0,0,.3-.29V21.93h.88v1.42c0,.67-.64.9-1.18.9Z"/><path d="M269.57,19.07V14.76h1.08v4.31c0,2.3-1,4.26-3.62,4.26s-3.64-2.08-3.64-4.26V14.76h1.08v4.31c0,1.67.6,3.29,2.55,3.29S269.57,20.7,269.57,19.07Z"/><path d="M272.32,14.52h1.06v7.14a.66.66,0,0,0,.7.74,2,2,0,0,0,.65-.14l.17.85a3.92,3.92,0,0,1-1.26.25A1.21,1.21,0,0,1,272.32,22Z"/><path d="M278.81,23a3.67,3.67,0,0,1-1.52.4,1.27,1.27,0,0,1-1.42-1.31V17.84H275V17h.85V14.93h1.06V17h1.4v.83h-1.4v3.89a.65.65,0,0,0,.71.66,1.85,1.85,0,0,0,.92-.27Z"/><path d="M279.72,15.84V14.52h1.06v1.32Zm0,7.43V17h1.06v6.26Z"/><path d="M291.88,23.27h-1.06v-3.5c0-1.3-.43-1.92-1.26-1.92a2.11,2.11,0,0,0-1.88,1.66v3.76h-1.06v-3.5c0-1.33-.42-1.92-1.25-1.92a2.09,2.09,0,0,0-1.88,1.65v3.77h-1.05V17h1v1.35a2.62,2.62,0,0,1,2.37-1.45,1.72,1.72,0,0,1,1.82,1.52A2.65,2.65,0,0,1,290,16.91c1.44,0,1.9,1.12,1.9,2.62Z"/><path d="M293.08,20.16a3.16,3.16,0,1,1,3.15,3.24A3.16,3.16,0,0,1,293.08,20.16Zm3.15,2.32a2.21,2.21,0,0,0,2.09-2.34,2.09,2.09,0,1,0-4.16,0A2.17,2.17,0,0,0,296.23,22.48Z"/><path d="M67.91,65.05a3.38,3.38,0,0,1-2.59,1.21,4.26,4.26,0,0,1-4-4.34,4.13,4.13,0,0,1,4-4.29,3.37,3.37,0,0,1,3.25,1.86l-.83.57A2.62,2.62,0,0,0,65.3,58.6a3.1,3.1,0,0,0-2.86,3.34,3.16,3.16,0,0,0,3,3.35A3.2,3.2,0,0,0,67.91,64V62.77H66.08V62h2.74V66.2h-.91Z"/><path d="M69.84,64.4c0-1.18,1.09-2,2.63-2a5.07,5.07,0,0,1,1.76.31v-.51a1.52,1.52,0,0,0-1.66-1.64,3.47,3.47,0,0,0-2,.73l-.35-.68a4.34,4.34,0,0,1,2.46-.82,2.36,2.36,0,0,1,2.59,2.52v2.56c0,.26.1.37.34.38v.91a2.58,2.58,0,0,1-.43,0,.73.73,0,0,1-.8-.64l0-.44A3,3,0,0,1,72,66.32,2,2,0,0,1,69.84,64.4Zm4.16.39a.86.86,0,0,0,.23-.49v-.93a4.62,4.62,0,0,0-1.59-.3c-1.08,0-1.8.48-1.8,1.24a1.29,1.29,0,0,0,1.42,1.22A2.44,2.44,0,0,0,74,64.79Z"/><path d="M77,58.77V57.45H78v1.32Zm0,7.43V59.94H78V66.2Z"/><path d="M85.13,66.2h-1V62.7c0-1.33-.41-1.92-1.24-1.92a2.36,2.36,0,0,0-2.09,1.64V66.2h-1V59.94h1v1.34a3,3,0,0,1,2.6-1.45c1.45,0,1.87,1.12,1.87,2.63Z"/><path d="M86.34,63.07a3.16,3.16,0,0,1,3.2-3.24A3.11,3.11,0,0,1,92.67,63a2,2,0,0,1,0,.41H87.45a2.17,2.17,0,0,0,2.11,2.1,2,2,0,0,0,1.79-1l.91.25a2.93,2.93,0,0,1-2.73,1.58A3.16,3.16,0,0,1,86.34,63.07Zm5.33-.42a2.14,2.14,0,0,0-2.13-2,2.11,2.11,0,0,0-2.11,2Z"/><path d="M93.43,63.08a3,3,0,0,1,2.84-3.25,2.69,2.69,0,0,1,2.29,1.36V57.45h1.06v7.46c0,.26.09.37.33.38v.91a2.6,2.6,0,0,1-.42,0,.72.72,0,0,1-.8-.64l0-.58a2.76,2.76,0,0,1-2.3,1.29A3.1,3.1,0,0,1,93.43,63.08Zm5.13.93v-1.8a2.31,2.31,0,0,0-2-1.46,2.2,2.2,0,0,0-2,2.35,2.23,2.23,0,0,0,2.15,2.31A2.06,2.06,0,0,0,98.56,64Z"/><path d="M103.94,64.4c0-1.18,1.09-2,2.64-2a5.05,5.05,0,0,1,1.75.31v-.51a1.52,1.52,0,0,0-1.66-1.64,3.52,3.52,0,0,0-2,.73l-.34-.68a4.28,4.28,0,0,1,2.45-.82,2.36,2.36,0,0,1,2.59,2.52v2.56c0,.26.1.37.34.38v.91a2.47,2.47,0,0,1-.43,0,.72.72,0,0,1-.79-.64l0-.44a3,3,0,0,1-2.37,1.15A2,2,0,0,1,103.94,64.4Zm4.16.39a.8.8,0,0,0,.23-.49v-.93a4.56,4.56,0,0,0-1.58-.3c-1.08,0-1.8.48-1.8,1.24a1.28,1.28,0,0,0,1.41,1.22A2.44,2.44,0,0,0,108.1,64.79Z"/><path d="M117.81,57.64A3.4,3.4,0,0,1,121,59.5l-.86.55a2.5,2.5,0,0,0-2.36-1.44,3.09,3.09,0,0,0-2.91,3.32,3.19,3.19,0,0,0,3,3.37,2.66,2.66,0,0,0,2.43-1.5l.9.5a3.7,3.7,0,0,1-3.38,2,4.28,4.28,0,0,1-4-4.39A4.1,4.1,0,0,1,117.81,57.64Z"/><path d="M121.9,63.07a3.17,3.17,0,0,1,3.2-3.24A3.11,3.11,0,0,1,128.24,63a3.16,3.16,0,0,1,0,.41H123a2.16,2.16,0,0,0,2.11,2.1,2,2,0,0,0,1.79-1l.91.25a3,3,0,0,1-2.74,1.58A3.17,3.17,0,0,1,121.9,63.07Zm5.34-.42a2.15,2.15,0,0,0-2.14-2,2.12,2.12,0,0,0-2.11,2Z"/><path d="M132.7,60.87a2.33,2.33,0,0,0-2.25,1.47V66.2h-1.06V59.94h1v1.45a2.45,2.45,0,0,1,2-1.5,1.63,1.63,0,0,1,.35,0Z"/><path d="M137,65.89a3.77,3.77,0,0,1-1.53.4A1.26,1.26,0,0,1,134.05,65V60.77h-.85v-.83h.85V57.85h1v2.09h1.41v.83H135.1v3.88a.66.66,0,0,0,.71.66,2,2,0,0,0,.92-.26Z"/><path d="M137.9,58.77V57.45h1v1.32Zm0,7.43V59.94h1V66.2Z"/><path d="M141,61.5h-.85v-.83H141v-.86a2.31,2.31,0,0,1,2.32-2.48,3.41,3.41,0,0,1,2,.62l-.45.78a2.29,2.29,0,0,0-1.45-.49A1.37,1.37,0,0,0,142,59.77v.9h3.2V66.2h-1.06V61.5H142v4.7H141Z"/><path d="M149.67,59.83a2.82,2.82,0,0,1,2.64,1.53l-1,.32a1.83,1.83,0,0,0-1.63-.93,2.16,2.16,0,0,0-2.08,2.31,2.23,2.23,0,0,0,2.09,2.35,1.82,1.82,0,0,0,1.66-1l1,.31a2.83,2.83,0,0,1-2.68,1.57,3.18,3.18,0,0,1-3.19-3.26A3.12,3.12,0,0,1,149.67,59.83Z"/><path d="M153.07,64.4c0-1.18,1.09-2,2.63-2a5.07,5.07,0,0,1,1.76.31v-.51a1.52,1.52,0,0,0-1.66-1.64,3.47,3.47,0,0,0-2,.73l-.35-.68a4.34,4.34,0,0,1,2.46-.82,2.36,2.36,0,0,1,2.59,2.52v2.56c0,.26.1.37.34.38v.91a2.47,2.47,0,0,1-.43,0,.73.73,0,0,1-.8-.64l0-.44a3,3,0,0,1-2.37,1.15A2,2,0,0,1,153.07,64.4Zm4.16.39a.86.86,0,0,0,.23-.49v-.93a4.62,4.62,0,0,0-1.59-.3c-1.08,0-1.8.48-1.8,1.24a1.29,1.29,0,0,0,1.42,1.22A2.44,2.44,0,0,0,157.23,64.79Z"/><path d="M163.37,65.89a3.67,3.67,0,0,1-1.52.4A1.26,1.26,0,0,1,160.44,65V60.77h-.86v-.83h.86V57.85h1.05v2.09h1.4v.83h-1.4v3.88a.65.65,0,0,0,.71.66,2,2,0,0,0,.92-.26Z"/><path d="M163.89,63.07a3.17,3.17,0,0,1,3.2-3.24A3.1,3.1,0,0,1,170.22,63a3.66,3.66,0,0,1,0,.41H165a2.15,2.15,0,0,0,2.11,2.1,1.94,1.94,0,0,0,1.78-1l.91.25a2.92,2.92,0,0,1-2.73,1.58A3.17,3.17,0,0,1,163.89,63.07Zm5.34-.42a2.15,2.15,0,0,0-2.14-2,2.12,2.12,0,0,0-2.11,2Z"/><path d="M174.58,66.2V57.7h1.08v8.5Z"/><path d="M177.7,66.2V57.7h1.08v8.5Z"/><path d="M180.82,66.2V57.7h1.08v8.5Z"/><path d="M192.66,66.2l-.89-.92a3.58,3.58,0,0,1-2.53,1A2.52,2.52,0,0,1,186.49,64a3.16,3.16,0,0,1,1.69-2.49c-.79-.86-1.08-1.36-1.08-2a2,2,0,0,1,2.19-1.92,1.87,1.87,0,0,1,2.08,1.74c0,1-.78,1.61-1.75,2.24l2.17,2.28a4.41,4.41,0,0,0,.48-2h.87a5.1,5.1,0,0,1-.73,2.68l1.64,1.71Zm-1.46-1.53-2.42-2.56A2.42,2.42,0,0,0,187.51,64a1.66,1.66,0,0,0,1.84,1.52A2.55,2.55,0,0,0,191.2,64.67ZM189,60.93c.82-.54,1.41-1,1.41-1.59a1,1,0,0,0-1.11-1,1.14,1.14,0,0,0-1.22,1.09C188.07,59.82,188.25,60.12,189,60.93Z"/><path d="M198.19,66.2V57.7h1.08v8.5Z"/><path d="M201.52,57.69l2.82,7.16,2.81-7.16h1.14l-3.48,8.51h-.94l-3.49-8.51Z"/><path d="M211.82,58.77V57.45h1.05v1.32Zm0,7.43V59.94h1.05V66.2Z"/><path d="M220,66.2h-1.05V62.7c0-1.33-.41-1.92-1.24-1.92a2.36,2.36,0,0,0-2.09,1.64V66.2h-1.05V59.94h1v1.34a3,3,0,0,1,2.6-1.45c1.45,0,1.87,1.12,1.87,2.63Z"/><path d="M224.77,66.2V57.69h5.62v1h-4.55v2.84h3.83v.9h-3.83V66.2Z"/><path d="M230.42,64.4c0-1.18,1.09-2,2.64-2a5.05,5.05,0,0,1,1.75.31v-.51a1.52,1.52,0,0,0-1.66-1.64,3.49,3.49,0,0,0-2,.73l-.35-.68a4.34,4.34,0,0,1,2.46-.82,2.36,2.36,0,0,1,2.59,2.52v2.56c0,.26.1.37.34.38v.91a2.47,2.47,0,0,1-.43,0,.72.72,0,0,1-.79-.64l0-.44a3,3,0,0,1-2.37,1.15A2,2,0,0,1,230.42,64.4Zm4.16.39a.8.8,0,0,0,.23-.49v-.93a4.57,4.57,0,0,0-1.59-.3c-1.07,0-1.79.48-1.79,1.24a1.28,1.28,0,0,0,1.41,1.22A2.44,2.44,0,0,0,234.58,64.79Z"/><path d="M237,65.41l.46-.71a3.68,3.68,0,0,0,2.26.84c.9,0,1.49-.38,1.49-1s-.56-.8-1.76-1.09c-1.51-.37-2.15-.66-2.15-1.64,0-1.26,1.07-2,2.4-2a3.62,3.62,0,0,1,2.35.83l-.48.64a2.84,2.84,0,0,0-1.89-.7c-.77,0-1.38.31-1.38,1s.4.72,1.47,1c1.67.39,2.46.73,2.46,1.8s-1,1.9-2.48,1.9A4.39,4.39,0,0,1,237,65.41Z"/><path d="M248.92,66.2h-1.06V62.7c0-1.28-.46-1.92-1.32-1.92a2.28,2.28,0,0,0-2,1.64V66.2h-1.06V57.45h1.06v3.83a2.75,2.75,0,0,1,2.4-1.45c1.49,0,2,1.14,2,2.63Z"/><path d="M250.52,58.77V57.45h1v1.32Zm0,7.43V59.94h1V66.2Z"/><path d="M252.83,63.08A3.16,3.16,0,1,1,256,66.32,3.16,3.16,0,0,1,252.83,63.08ZM256,65.41a2.35,2.35,0,1,0-2.08-2.31A2.21,2.21,0,0,0,256,65.41Z"/><path d="M265.84,66.2h-1.06V62.7c0-1.33-.4-1.92-1.23-1.92a2.35,2.35,0,0,0-2.09,1.64V66.2H260.4V59.94h1v1.34A3,3,0,0,1,264,59.83c1.45,0,1.87,1.12,1.87,2.63Z"/><path d="M270.64,66.2V57.69h2.95a3.91,3.91,0,0,1,4.12,4.24,3.94,3.94,0,0,1-4.12,4.27Zm2.95-7.55h-1.87v6.59h1.87c2,0,3-1.42,3-3.31S275.52,58.65,273.59,58.65Z"/><path d="M278.67,63.07a3.17,3.17,0,0,1,3.2-3.24A3.1,3.1,0,0,1,285,63a3.66,3.66,0,0,1,0,.41h-5.2a2.17,2.17,0,0,0,2.12,2.1,1.94,1.94,0,0,0,1.78-1l.91.25a2.92,2.92,0,0,1-2.73,1.58A3.17,3.17,0,0,1,278.67,63.07Zm5.34-.42a2.15,2.15,0,0,0-2.14-2,2.11,2.11,0,0,0-2.11,2Z"/><path d="M285.63,65.41l.46-.71a3.68,3.68,0,0,0,2.26.84c.9,0,1.49-.38,1.49-1s-.56-.8-1.76-1.09c-1.52-.37-2.15-.66-2.15-1.64,0-1.26,1.07-2,2.4-2a3.66,3.66,0,0,1,2.35.83l-.48.64a2.85,2.85,0,0,0-1.9-.7c-.76,0-1.38.31-1.38,1s.41.72,1.48,1c1.67.39,2.46.73,2.46,1.8s-1,1.9-2.48,1.9A4.37,4.37,0,0,1,285.63,65.41Z"/><path d="M292.07,58.77V57.45h1.06v1.32Zm0,7.43V59.94h1.06V66.2Z"/><path d="M294.4,63.08a3,3,0,0,1,2.9-3.25,2.78,2.78,0,0,1,2.34,1.36V59.94h.94v6.19c0,1.78-1.42,2.75-3.19,2.75a3.13,3.13,0,0,1-2.84-1.38l.61-.54a2.62,2.62,0,0,0,2.23,1.1,1.91,1.91,0,0,0,2.13-1.93V65a2.65,2.65,0,0,1-2.23,1.24A3,3,0,0,1,294.4,63.08Zm5.12.93v-1.8a2.27,2.27,0,0,0-2-1.46,2.21,2.21,0,0,0-2,2.36,2.24,2.24,0,0,0,2.15,2.3A2.07,2.07,0,0,0,299.52,64Z"/><path d="M307.67,66.2h-1.06V62.7c0-1.33-.4-1.92-1.23-1.92a2.36,2.36,0,0,0-2.09,1.64V66.2h-1.05V59.94h1v1.34a3,3,0,0,1,2.6-1.45c1.45,0,1.87,1.12,1.87,2.63Z"/><path d="M311.81,64.4c0-1.18,1.09-2,2.64-2a5.05,5.05,0,0,1,1.75.31v-.51a1.52,1.52,0,0,0-1.65-1.64,3.47,3.47,0,0,0-2,.73l-.35-.68a4.29,4.29,0,0,1,2.46-.82,2.36,2.36,0,0,1,2.59,2.52v2.56c0,.26.09.37.33.38v.91a2.37,2.37,0,0,1-.43,0,.72.72,0,0,1-.79-.64l0-.44A3,3,0,0,1,314,66.32,2,2,0,0,1,311.81,64.4Zm4.16.39a.8.8,0,0,0,.23-.49v-.93a4.56,4.56,0,0,0-1.58-.3c-1.08,0-1.8.48-1.8,1.24a1.28,1.28,0,0,0,1.41,1.22A2.42,2.42,0,0,0,316,64.79Z"/><path d="M324.4,66.2h-1.06V62.7c0-1.33-.41-1.92-1.23-1.92A2.35,2.35,0,0,0,320,62.42V66.2H319V59.94h1v1.34a3,3,0,0,1,2.61-1.45c1.45,0,1.87,1.12,1.87,2.63Z"/><path d="M325.6,63.08a3,3,0,0,1,2.84-3.25,2.69,2.69,0,0,1,2.29,1.36V57.45h1.06v7.46c0,.26.1.37.33.38v.91a2.48,2.48,0,0,1-.42,0,.72.72,0,0,1-.8-.64l0-.58a2.73,2.73,0,0,1-2.29,1.29A3.1,3.1,0,0,1,325.6,63.08Zm5.13.93v-1.8a2.31,2.31,0,0,0-2-1.46,2.21,2.21,0,0,0-2.05,2.35,2.24,2.24,0,0,0,2.15,2.31A2.06,2.06,0,0,0,330.73,64Z"/><path d="M62.62,79.43V80.6h-.93V71.85h1.05v3.74a2.7,2.7,0,0,1,2.32-1.36,3,3,0,0,1,2.8,3.27,3.08,3.08,0,0,1-3,3.22A2.68,2.68,0,0,1,62.62,79.43Zm4.17-1.93a2.21,2.21,0,0,0-2.06-2.35,2.33,2.33,0,0,0-2,1.46v1.81a2,2,0,0,0,1.9,1.39A2.23,2.23,0,0,0,66.79,77.5Z"/><path d="M68.74,77.47A3.17,3.17,0,0,1,72,74.23a3.11,3.11,0,0,1,3.13,3.19,3.16,3.16,0,0,1,0,.41H69.86A2.17,2.17,0,0,0,72,79.93a2,2,0,0,0,1.79-1l.91.25a3,3,0,0,1-2.74,1.58A3.17,3.17,0,0,1,68.74,77.47Zm5.34-.42A2.14,2.14,0,0,0,72,75a2.12,2.12,0,0,0-2.12,2Z"/><path d="M75.85,77.48a3,3,0,0,1,2.9-3.25,2.8,2.8,0,0,1,2.34,1.36V74.34H82v6.19c0,1.78-1.41,2.75-3.19,2.75A3.15,3.15,0,0,1,76,81.9l.61-.54a2.62,2.62,0,0,0,2.23,1.1A1.91,1.91,0,0,0,81,80.53v-1.1a2.66,2.66,0,0,1-2.23,1.24A3,3,0,0,1,75.85,77.48Zm5.12.93v-1.8a2.29,2.29,0,0,0-2-1.46,2.2,2.2,0,0,0-2,2.36,2.23,2.23,0,0,0,2.14,2.3A2.07,2.07,0,0,0,81,78.41Z"/><path d="M83.22,78.8c0-1.18,1.09-2,2.63-2a5.07,5.07,0,0,1,1.76.31v-.51A1.52,1.52,0,0,0,86,75a3.47,3.47,0,0,0-2,.73l-.35-.68a4.34,4.34,0,0,1,2.46-.82,2.36,2.36,0,0,1,2.59,2.52v2.56c0,.26.1.37.34.38v.91a2.58,2.58,0,0,1-.44.05.73.73,0,0,1-.79-.64l0-.44a3,3,0,0,1-2.38,1.15A2,2,0,0,1,83.22,78.8Zm4.16.39a.86.86,0,0,0,.23-.49v-.93a4.62,4.62,0,0,0-1.59-.3c-1.08,0-1.8.48-1.8,1.24a1.29,1.29,0,0,0,1.42,1.22A2.44,2.44,0,0,0,87.38,79.19Z"/><path d="M95.8,80.6H94.74V77.1c0-1.33-.4-1.92-1.23-1.92a2.36,2.36,0,0,0-2.09,1.64V80.6h-1V74.34h1v1.34a3,3,0,0,1,2.6-1.45c1.45,0,1.87,1.12,1.87,2.63Z"/><path d="M99.88,79.81l.46-.71a3.69,3.69,0,0,0,2.27.84c.9,0,1.48-.38,1.48-1s-.56-.8-1.76-1.09c-1.51-.37-2.15-.66-2.15-1.64,0-1.26,1.07-2,2.4-2a3.62,3.62,0,0,1,2.35.83l-.48.64a2.82,2.82,0,0,0-1.89-.7c-.77,0-1.38.31-1.38,1s.41.72,1.47,1c1.67.39,2.46.73,2.46,1.79s-1,1.91-2.48,1.91A4.39,4.39,0,0,1,99.88,79.81Z"/><path d="M109.55,80.29a3.67,3.67,0,0,1-1.52.4,1.27,1.27,0,0,1-1.42-1.31V75.17h-.85v-.83h.85V72.25h1.06v2.09h1.4v.83h-1.4v3.88a.65.65,0,0,0,.71.66,2,2,0,0,0,.92-.26Z"/><path d="M110.41,78.1V74.34h1v3.55c0,1.28.45,1.92,1.33,1.92a2.29,2.29,0,0,0,2.07-1.55V74.34h1v5c0,.26.1.37.34.38v.91a2.73,2.73,0,0,1-.42.05c-.48,0-.77-.25-.79-.64l0-.75a3,3,0,0,1-2.6,1.46C111.09,80.72,110.41,79.82,110.41,78.1Z"/><path d="M117.31,77.48a3,3,0,0,1,2.84-3.25,2.7,2.7,0,0,1,2.29,1.36V71.85h1.06v7.46c0,.26.09.37.33.38v.91a2.6,2.6,0,0,1-.42.05.72.72,0,0,1-.8-.64l0-.58a2.73,2.73,0,0,1-2.29,1.29A3.09,3.09,0,0,1,117.31,77.48Zm5.13.93v-1.8a2.31,2.31,0,0,0-2-1.46,2.2,2.2,0,0,0-2,2.35,2.23,2.23,0,0,0,2.15,2.31A2.07,2.07,0,0,0,122.44,78.41Z"/><path d="M125.53,82.32l.57,0c.29,0,.47-.14,1.08-1.75l-2.65-6.26h1.09l2.14,5.31,1.94-5.31h1l-3.07,7.91a1.56,1.56,0,0,1-1.59,1,1.77,1.77,0,0,1-.52-.06Z"/><path d="M131.77,73.17V71.85h1v1.32Zm0,7.43V74.34h1V80.6Z"/><path d="M139.91,80.6h-1V77.1c0-1.33-.41-1.92-1.24-1.92a2.36,2.36,0,0,0-2.09,1.64V80.6h-1.05V74.34h1v1.34a3,3,0,0,1,2.6-1.45c1.45,0,1.87,1.12,1.87,2.63Z"/><path d="M141.13,77.48a3,3,0,0,1,2.9-3.25,2.8,2.8,0,0,1,2.34,1.36V74.34h.93v6.19c0,1.78-1.41,2.75-3.19,2.75a3.15,3.15,0,0,1-2.84-1.38l.61-.54a2.62,2.62,0,0,0,2.23,1.1,1.91,1.91,0,0,0,2.14-1.93v-1.1A2.68,2.68,0,0,1,144,80.67,3,3,0,0,1,141.13,77.48Zm5.12.93v-1.8a2.29,2.29,0,0,0-2-1.46,2.21,2.21,0,0,0-2.06,2.36,2.24,2.24,0,0,0,2.15,2.3A2.07,2.07,0,0,0,146.25,78.41Z"/><path d="M158.2,79.45a3.41,3.41,0,0,1-2.59,1.21,4.25,4.25,0,0,1-4-4.34,4.13,4.13,0,0,1,4-4.29,3.37,3.37,0,0,1,3.25,1.86l-.83.57A2.62,2.62,0,0,0,155.58,73a3.1,3.1,0,0,0-2.85,3.34,3.16,3.16,0,0,0,3,3.35,3.24,3.24,0,0,0,2.51-1.34V77.17h-1.84v-.81h2.75V80.6h-.91Z"/><path d="M163.9,75.27a2.33,2.33,0,0,0-2.25,1.47V80.6h-1.06V74.34h1v1.45a2.45,2.45,0,0,1,2-1.5,1.63,1.63,0,0,1,.35,0Z"/><path d="M164.36,78.8c0-1.18,1.09-2,2.64-2a5.05,5.05,0,0,1,1.75.31v-.51A1.51,1.51,0,0,0,167.09,75a3.52,3.52,0,0,0-2,.73l-.34-.68a4.28,4.28,0,0,1,2.45-.82,2.36,2.36,0,0,1,2.59,2.52v2.56c0,.26.1.37.34.38v.91a2.47,2.47,0,0,1-.43.05.72.72,0,0,1-.79-.64l0-.44a3,3,0,0,1-2.37,1.15A2,2,0,0,1,164.36,78.8Zm4.16.39a.8.8,0,0,0,.23-.49v-.93a4.56,4.56,0,0,0-1.58-.3c-1.08,0-1.8.48-1.8,1.24a1.28,1.28,0,0,0,1.41,1.22A2.44,2.44,0,0,0,168.52,79.19Z"/><path d="M172.57,79.37v3.79h-1.06V74.34h.94v1.18a2.72,2.72,0,0,1,2.28-1.29,3.12,3.12,0,0,1,3,3.24,3,3,0,0,1-2.81,3.25A2.66,2.66,0,0,1,172.57,79.37Zm4-1.9a2.24,2.24,0,0,0-2.15-2.32,2.07,2.07,0,0,0-1.89,1.4v1.79a2.3,2.3,0,0,0,2,1.47A2.21,2.21,0,0,0,176.61,77.47Z"/><path d="M184.38,80.6h-1V77.1c0-1.28-.47-1.92-1.32-1.92a2.26,2.26,0,0,0-2,1.64V80.6H179V71.85H180v3.83a2.74,2.74,0,0,1,2.39-1.45c1.49,0,2,1.14,2,2.63Z"/><path d="M186,73.17V71.85H187v1.32Zm0,7.43V74.34H187V80.6Z"/><path d="M191.48,74.23a2.82,2.82,0,0,1,2.64,1.53l-1,.32a1.81,1.81,0,0,0-1.63-.93,2.16,2.16,0,0,0-2.07,2.31,2.23,2.23,0,0,0,2.08,2.35,1.82,1.82,0,0,0,1.67-1l1,.31a2.81,2.81,0,0,1-2.67,1.57,3.18,3.18,0,0,1-3.19-3.26A3.12,3.12,0,0,1,191.48,74.23Z"/><path d="M198,77.48a3,3,0,0,1,2.84-3.25,2.69,2.69,0,0,1,2.29,1.36V71.85h1.06v7.46c0,.26.09.37.33.38v.91a2.6,2.6,0,0,1-.42.05.72.72,0,0,1-.8-.64l0-.58a2.76,2.76,0,0,1-2.3,1.29A3.1,3.1,0,0,1,198,77.48Zm5.13.93v-1.8a2.31,2.31,0,0,0-2-1.46,2.21,2.21,0,0,0-2,2.35,2.24,2.24,0,0,0,2.15,2.31A2.06,2.06,0,0,0,203.09,78.41Z"/><path d="M205.53,77.47a3.17,3.17,0,0,1,3.2-3.24,3.1,3.1,0,0,1,3.13,3.19,3.66,3.66,0,0,1,0,.41h-5.19a2.15,2.15,0,0,0,2.11,2.1,1.94,1.94,0,0,0,1.78-1l.91.25a2.92,2.92,0,0,1-2.73,1.58A3.17,3.17,0,0,1,205.53,77.47Zm5.34-.42a2.15,2.15,0,0,0-2.14-2,2.12,2.12,0,0,0-2.11,2Z"/><path d="M212.49,79.81l.46-.71a3.68,3.68,0,0,0,2.26.84c.9,0,1.49-.38,1.49-1s-.56-.8-1.76-1.09c-1.51-.37-2.15-.66-2.15-1.64,0-1.26,1.07-2,2.4-2a3.64,3.64,0,0,1,2.35.83l-.48.64a2.85,2.85,0,0,0-1.9-.7c-.76,0-1.38.31-1.38,1s.41.72,1.48,1c1.67.39,2.46.73,2.46,1.79s-1,1.91-2.48,1.91A4.39,4.39,0,0,1,212.49,79.81Z"/><path d="M218.93,73.17V71.85H220v1.32Zm0,7.43V74.34H220V80.6Z"/><path d="M221.26,77.48a3,3,0,0,1,2.9-3.25,2.77,2.77,0,0,1,2.34,1.36V74.34h.94v6.19c0,1.78-1.42,2.75-3.19,2.75a3.13,3.13,0,0,1-2.84-1.38l.61-.54a2.62,2.62,0,0,0,2.23,1.1,1.91,1.91,0,0,0,2.13-1.93v-1.1a2.65,2.65,0,0,1-2.23,1.24A3,3,0,0,1,221.26,77.48Zm5.12.93v-1.8a2.27,2.27,0,0,0-2-1.46,2.21,2.21,0,0,0-2,2.36,2.24,2.24,0,0,0,2.15,2.3A2.06,2.06,0,0,0,226.38,78.41Z"/><path d="M234.53,80.6h-1.05V77.1c0-1.33-.41-1.92-1.24-1.92a2.36,2.36,0,0,0-2.09,1.64V80.6H229.1V74.34h1v1.34a3,3,0,0,1,2.6-1.45c1.45,0,1.87,1.12,1.87,2.63Z"/><path d="M238.67,78.8c0-1.18,1.1-2,2.64-2a5.05,5.05,0,0,1,1.75.31v-.51A1.51,1.51,0,0,0,241.41,75a3.47,3.47,0,0,0-2,.73l-.35-.68a4.29,4.29,0,0,1,2.46-.82,2.36,2.36,0,0,1,2.59,2.52v2.56c0,.26.09.37.33.38v.91a2.37,2.37,0,0,1-.43.05.73.73,0,0,1-.79-.64l0-.44a3,3,0,0,1-2.38,1.15A2,2,0,0,1,238.67,78.8Zm4.17.39a.83.83,0,0,0,.22-.49v-.93a4.52,4.52,0,0,0-1.58-.3c-1.08,0-1.8.48-1.8,1.24a1.29,1.29,0,0,0,1.42,1.22A2.44,2.44,0,0,0,242.84,79.19Z"/><path d="M249,80.29a3.67,3.67,0,0,1-1.52.4A1.27,1.27,0,0,1,246,79.38V75.17h-.85v-.83H246V72.25h1.06v2.09h1.4v.83h-1.4v3.88a.64.64,0,0,0,.7.66,2,2,0,0,0,.93-.26Z"/><path d="M258.93,73.05H256V80.6h-1.08V73.05H252v-1h7Z"/><path d="M258.39,78.8c0-1.18,1.09-2,2.64-2a5.05,5.05,0,0,1,1.75.31v-.51A1.51,1.51,0,0,0,261.12,75a3.52,3.52,0,0,0-2,.73l-.34-.68a4.28,4.28,0,0,1,2.45-.82,2.36,2.36,0,0,1,2.59,2.52v2.56c0,.26.1.37.34.38v.91a2.47,2.47,0,0,1-.43.05A.72.72,0,0,1,263,80l0-.44a3,3,0,0,1-2.37,1.15A2,2,0,0,1,258.39,78.8Zm4.16.39a.8.8,0,0,0,.23-.49v-.93a4.56,4.56,0,0,0-1.58-.3c-1.08,0-1.8.48-1.8,1.24a1.28,1.28,0,0,0,1.41,1.22A2.44,2.44,0,0,0,262.55,79.19Z"/><path d="M265.88,80.6V75.9H265v-.83h.85v-.86c0-1.54.74-2.48,1.92-2.48a2.7,2.7,0,0,1,1.38.38l-.27.78a1.69,1.69,0,0,0-.9-.26c-.69,0-1.08.55-1.08,1.54v.9h1.67v.83h-1.67v4.7Z"/><path d="M269.39,77.47a3.17,3.17,0,0,1,3.21-3.24,3.11,3.11,0,0,1,3.13,3.19,3.16,3.16,0,0,1,0,.41h-5.19a2.16,2.16,0,0,0,2.11,2.1,2,2,0,0,0,1.79-1l.91.25a3,3,0,0,1-2.74,1.58A3.17,3.17,0,0,1,269.39,77.47Zm5.34-.42a2.14,2.14,0,0,0-2.13-2,2.12,2.12,0,0,0-2.12,2Z"/><path d="M276.63,80.79a.27.27,0,0,0,.3-.28V79.26h.87v1.41c0,.68-.63.9-1.17.9Z"/><path d="M282.65,80.6V72.1h1.08v4.7l4.39-4.71h1.16l-3.41,3.75,3.61,4.76H288.3l-3.09-4.14L283.73,78v2.6Z"/><path d="M290.25,73.17V71.85h1.05v1.32Zm0,7.43V74.34h1.05V80.6Z"/><path d="M298.39,80.6h-1.05V77.1c0-1.33-.41-1.92-1.24-1.92A2.33,2.33,0,0,0,294,76.82V80.6H293V74.34h1v1.34a3,3,0,0,1,2.6-1.45c1.45,0,1.87,1.12,1.87,2.63Z"/><path d="M299.61,77.48a3,3,0,0,1,2.9-3.25,2.78,2.78,0,0,1,2.34,1.36V74.34h.94v6.19c0,1.78-1.42,2.75-3.19,2.75a3.16,3.16,0,0,1-2.85-1.38l.61-.54a2.65,2.65,0,0,0,2.24,1.1,1.91,1.91,0,0,0,2.13-1.93v-1.1a2.66,2.66,0,0,1-2.23,1.24A3,3,0,0,1,299.61,77.48Zm5.12.93v-1.8a2.27,2.27,0,0,0-2-1.46,2.34,2.34,0,0,0,.09,4.66A2.07,2.07,0,0,0,304.73,78.41Z"/><path d="M306.92,79.81l.45-.71a3.71,3.71,0,0,0,2.27.84c.9,0,1.49-.38,1.49-1s-.57-.8-1.77-1.09c-1.51-.37-2.14-.66-2.14-1.64,0-1.26,1.06-2,2.39-2a3.67,3.67,0,0,1,2.36.83l-.48.64a2.87,2.87,0,0,0-1.9-.7c-.77,0-1.38.31-1.38,1s.41.72,1.48,1c1.66.39,2.46.73,2.46,1.79s-1,1.91-2.49,1.91A4.37,4.37,0,0,1,306.92,79.81Z"/><path d="M321.11,74.34h1l-2.66,6.26h-.88l-1.26-3.06-1.25,3.06h-.87l-2.66-6.26h1l2.16,5.22,1.06-2.6-1.08-2.61h.87l.77,2,.77-2H319L317.91,77l1,2.6Z"/><path d="M322.47,77.48a3.16,3.16,0,1,1,3.15,3.24A3.15,3.15,0,0,1,322.47,77.48Zm3.15,2.33a2.35,2.35,0,1,0-2.07-2.31A2.18,2.18,0,0,0,325.62,79.81Z"/><path d="M329.65,77.48a3.16,3.16,0,1,1,3.15,3.24A3.15,3.15,0,0,1,329.65,77.48Zm3.15,2.33a2.35,2.35,0,1,0-2.08-2.31A2.19,2.19,0,0,0,332.8,79.81Z"/><path d="M336.82,77.48a3,3,0,0,1,2.84-3.25A2.69,2.69,0,0,1,342,75.59V71.85H343v7.46c0,.26.1.37.34.38v.91a2.73,2.73,0,0,1-.42.05.73.73,0,0,1-.81-.64l0-.58a2.73,2.73,0,0,1-2.29,1.29A3.1,3.1,0,0,1,336.82,77.48Zm5.13.93v-1.8a2.31,2.31,0,0,0-2-1.46,2.21,2.21,0,0,0-2,2.35,2.24,2.24,0,0,0,2.15,2.31A2.06,2.06,0,0,0,342,78.41Z"/><path d="M67.91,122.38a3.41,3.41,0,0,1-2.59,1.21,4.26,4.26,0,0,1-4-4.34,4.14,4.14,0,0,1,4-4.3,3.39,3.39,0,0,1,3.25,1.86l-.83.58a2.62,2.62,0,0,0-2.44-1.46,3.09,3.09,0,0,0-2.86,3.34,3,3,0,0,0,5.47,2V120.1H66.08v-.82h2.74v4.25h-.91Z"/><path d="M69.84,121.73c0-1.19,1.09-2,2.63-2a4.84,4.84,0,0,1,1.76.32v-.51a1.52,1.52,0,0,0-1.66-1.64,3.47,3.47,0,0,0-2,.73l-.35-.68a4.34,4.34,0,0,1,2.46-.82,2.36,2.36,0,0,1,2.59,2.52v2.55c0,.27.1.38.34.39v.91c-.16,0-.32,0-.43,0a.73.73,0,0,1-.8-.64l0-.44A3,3,0,0,1,72,123.65,2,2,0,0,1,69.84,121.73Zm4.16.38a.86.86,0,0,0,.23-.49v-.92a4.62,4.62,0,0,0-1.59-.3c-1.08,0-1.8.48-1.8,1.23a1.29,1.29,0,0,0,1.42,1.23A2.44,2.44,0,0,0,74,122.11Z"/><path d="M77,116.09v-1.32H78v1.32Zm0,7.44v-6.26H78v6.26Z"/><path d="M85.13,123.53h-1V120c0-1.33-.41-1.92-1.24-1.92a2.34,2.34,0,0,0-2.09,1.64v3.78h-1v-6.26h1v1.34a3,3,0,0,1,2.6-1.45c1.45,0,1.87,1.12,1.87,2.63Z"/><path d="M86.34,120.4a3.16,3.16,0,0,1,3.2-3.24,3.11,3.11,0,0,1,3.13,3.19,2,2,0,0,1,0,.41H87.45a2.17,2.17,0,0,0,2.11,2.1,2,2,0,0,0,1.79-1l.91.26a2.93,2.93,0,0,1-2.73,1.58A3.16,3.16,0,0,1,86.34,120.4Zm5.33-.42a2.14,2.14,0,0,0-2.13-2,2.11,2.11,0,0,0-2.11,2Z"/><path d="M93.43,120.41a3,3,0,0,1,2.84-3.25,2.69,2.69,0,0,1,2.29,1.36v-3.75h1.06v7.46c0,.27.09.38.33.39v.91c-.17,0-.31,0-.42,0a.72.72,0,0,1-.8-.64l0-.59a2.75,2.75,0,0,1-2.3,1.3A3.1,3.1,0,0,1,93.43,120.41Zm5.13.92v-1.79a2.32,2.32,0,0,0-2-1.47,2.2,2.2,0,0,0-2,2.35,2.23,2.23,0,0,0,2.15,2.32A2.07,2.07,0,0,0,98.56,121.33Z"/><path d="M103.94,121.73c0-1.19,1.09-2,2.64-2a4.83,4.83,0,0,1,1.75.32v-.51a1.51,1.51,0,0,0-1.66-1.64,3.52,3.52,0,0,0-2,.73l-.34-.68a4.28,4.28,0,0,1,2.45-.82,2.36,2.36,0,0,1,2.59,2.52v2.55c0,.27.1.38.34.39v.91a4.08,4.08,0,0,1-.43,0,.72.72,0,0,1-.79-.64l0-.44a3,3,0,0,1-2.37,1.15A2,2,0,0,1,103.94,121.73Zm4.16.38a.8.8,0,0,0,.23-.49v-.92a4.56,4.56,0,0,0-1.58-.3c-1.08,0-1.8.48-1.8,1.23a1.28,1.28,0,0,0,1.41,1.23A2.44,2.44,0,0,0,108.1,122.11Z"/><path d="M114.29,123.53V115h3a4.26,4.26,0,0,1,0,8.52Zm3-7.56h-1.88v6.6h1.88c2,0,3-1.43,3-3.31S119.18,116,117.25,116Z"/><path d="M122.69,116.09v-1.32h1.06v1.32Zm0,7.44v-6.26h1.06v6.26Z"/><path d="M126.46,122.29v3.79h-1v-8.81h.93v1.17a2.73,2.73,0,0,1,2.28-1.28,3.11,3.11,0,0,1,3,3.24,3,3,0,0,1-2.8,3.25A2.7,2.7,0,0,1,126.46,122.29Zm4-1.89a2.24,2.24,0,0,0-2.14-2.33,2.1,2.1,0,0,0-1.9,1.41v1.78a2.31,2.31,0,0,0,2,1.48A2.2,2.2,0,0,0,130.5,120.4Z"/><path d="M132.87,114.77h1.06v7.14a.66.66,0,0,0,.7.74,2,2,0,0,0,.65-.14l.17.85a3.67,3.67,0,0,1-1.26.25,1.21,1.21,0,0,1-1.32-1.32Z"/><path d="M135.79,120.41a3.16,3.16,0,1,1,3.15,3.24A3.15,3.15,0,0,1,135.79,120.41Zm3.15,2.33a2.35,2.35,0,1,0-2.07-2.32A2.18,2.18,0,0,0,138.94,122.74Z"/><path d="M152.8,123.53h-1.06V120c0-1.31-.43-1.92-1.26-1.92a2.1,2.1,0,0,0-1.88,1.65v3.77h-1V120c0-1.33-.42-1.92-1.25-1.92a2.1,2.1,0,0,0-1.89,1.64v3.78h-1v-6.26h1v1.34a2.63,2.63,0,0,1,2.37-1.45,1.74,1.74,0,0,1,1.83,1.52,2.65,2.65,0,0,1,2.38-1.52c1.44,0,1.9,1.13,1.9,2.63Z"/><path d="M153.93,121.73c0-1.19,1.09-2,2.64-2a4.83,4.83,0,0,1,1.75.32v-.51a1.51,1.51,0,0,0-1.65-1.64,3.52,3.52,0,0,0-2,.73l-.34-.68a4.28,4.28,0,0,1,2.45-.82,2.37,2.37,0,0,1,2.6,2.52v2.55c0,.27.09.38.33.39v.91a3.8,3.8,0,0,1-.43,0,.72.72,0,0,1-.79-.64l0-.44a3,3,0,0,1-2.37,1.15A2,2,0,0,1,153.93,121.73Zm4.16.38a.8.8,0,0,0,.23-.49v-.92a4.56,4.56,0,0,0-1.58-.3c-1.08,0-1.8.48-1.8,1.23a1.29,1.29,0,0,0,1.41,1.23A2.44,2.44,0,0,0,158.09,122.11Z"/><path d="M164.09,116.09v-1.32h1.06v1.32Zm0,7.44v-6.26h1.06v6.26Z"/><path d="M172.24,123.53h-1.06V120c0-1.33-.4-1.92-1.23-1.92a2.34,2.34,0,0,0-2.09,1.64v3.78h-1.05v-6.26h1v1.34a3,3,0,0,1,2.6-1.45c1.45,0,1.87,1.12,1.87,2.63Z"/><path d="M183.07,122.38a3.41,3.41,0,0,1-2.59,1.21,4.25,4.25,0,0,1-4-4.34,4.14,4.14,0,0,1,4-4.3,3.38,3.38,0,0,1,3.25,1.86l-.82.58a2.64,2.64,0,0,0-2.45-1.46,3.08,3.08,0,0,0-2.85,3.34,3.16,3.16,0,0,0,3,3.35,3.19,3.19,0,0,0,2.5-1.35V120.1h-1.83v-.82H184v4.25h-.92Z"/><path d="M188.78,118.19a2.36,2.36,0,0,0-2.26,1.48v3.86h-1.05v-6.26h1v1.45a2.44,2.44,0,0,1,2-1.5h.35Z"/><path d="M189.23,121.73c0-1.19,1.1-2,2.64-2a4.83,4.83,0,0,1,1.75.32v-.51a1.51,1.51,0,0,0-1.65-1.64,3.47,3.47,0,0,0-2,.73l-.35-.68a4.31,4.31,0,0,1,2.46-.82,2.36,2.36,0,0,1,2.59,2.52v2.55c0,.27.09.38.34.39v.91a4.24,4.24,0,0,1-.44,0,.73.73,0,0,1-.79-.64l0-.44a3.07,3.07,0,0,1-2.38,1.15A2,2,0,0,1,189.23,121.73Zm4.17.38a.83.83,0,0,0,.22-.49v-.92a4.52,4.52,0,0,0-1.58-.3c-1.08,0-1.8.48-1.8,1.23a1.29,1.29,0,0,0,1.42,1.23A2.44,2.44,0,0,0,193.4,122.11Z"/><path d="M197.44,122.29v3.79h-1.05v-8.81h.93v1.17a2.73,2.73,0,0,1,2.28-1.28,3.11,3.11,0,0,1,3,3.24,3,3,0,0,1-2.8,3.25A2.7,2.7,0,0,1,197.44,122.29Zm4-1.89a2.24,2.24,0,0,0-2.14-2.33,2.1,2.1,0,0,0-1.9,1.41v1.78a2.31,2.31,0,0,0,2,1.48A2.2,2.2,0,0,0,201.48,120.4Z"/><path d="M209.26,123.53H208.2V120c0-1.29-.46-1.92-1.32-1.92a2.27,2.27,0,0,0-2,1.64v3.78h-1v-8.76h1v3.84a2.73,2.73,0,0,1,2.4-1.45c1.49,0,2,1.14,2,2.63Z"/><path d="M210.86,116.09v-1.32h1v1.32Zm0,7.44v-6.26h1v6.26Z"/><path d="M216.35,117.16a2.81,2.81,0,0,1,2.64,1.52l-1,.33a1.83,1.83,0,0,0-1.63-.94,2.17,2.17,0,0,0-2.08,2.32,2.23,2.23,0,0,0,2.09,2.35,1.85,1.85,0,0,0,1.67-1l1,.31a2.82,2.82,0,0,1-2.68,1.57,3.18,3.18,0,0,1-3.19-3.26A3.12,3.12,0,0,1,216.35,117.16Z"/><path d="M222.83,120.41a3,3,0,0,1,2.85-3.25,2.72,2.72,0,0,1,2.29,1.36v-3.75H229v7.46c0,.27.1.38.34.39v.91c-.17,0-.31,0-.42,0a.72.72,0,0,1-.8-.64l0-.59a2.72,2.72,0,0,1-2.29,1.3A3.1,3.1,0,0,1,222.83,120.41Zm5.14.92v-1.79a2.32,2.32,0,0,0-2-1.47,2.2,2.2,0,0,0-2,2.35,2.23,2.23,0,0,0,2.14,2.32A2.08,2.08,0,0,0,228,121.33Z"/><path d="M230.41,120.4a3.17,3.17,0,0,1,3.2-3.24,3.11,3.11,0,0,1,3.13,3.19,2,2,0,0,1,0,.41h-5.19a2.17,2.17,0,0,0,2.11,2.1,2,2,0,0,0,1.79-1l.91.26a2.94,2.94,0,0,1-2.73,1.58A3.16,3.16,0,0,1,230.41,120.4Zm5.33-.42a2.14,2.14,0,0,0-2.13-2,2.11,2.11,0,0,0-2.11,2Z"/><path d="M237.37,122.74l.45-.71a3.69,3.69,0,0,0,2.27.84c.9,0,1.49-.38,1.49-1s-.57-.8-1.77-1.09c-1.51-.37-2.14-.66-2.14-1.65,0-1.26,1.06-1.94,2.39-1.94a3.62,3.62,0,0,1,2.35.83l-.47.63a2.91,2.91,0,0,0-1.9-.69c-.77,0-1.38.31-1.38,1s.41.72,1.48,1c1.66.4,2.46.74,2.46,1.8s-1,1.91-2.49,1.91A4.37,4.37,0,0,1,237.37,122.74Z"/><path d="M243.81,116.09v-1.32h1.05v1.32Zm0,7.44v-6.26h1.05v6.26Z"/><path d="M246.14,120.41a3,3,0,0,1,2.9-3.25,2.8,2.8,0,0,1,2.34,1.36v-1.25h.93v6.19c0,1.77-1.41,2.74-3.19,2.74a3.14,3.14,0,0,1-2.84-1.37l.61-.54a2.63,2.63,0,0,0,2.23,1.1,1.91,1.91,0,0,0,2.14-1.93v-1.11A2.65,2.65,0,0,1,249,123.6,3,3,0,0,1,246.14,120.41Zm5.12.92v-1.79a2.28,2.28,0,0,0-2-1.47,2.35,2.35,0,0,0,.09,4.67A2.06,2.06,0,0,0,251.26,121.33Z"/><path d="M259.41,123.53h-1.06V120c0-1.33-.41-1.92-1.23-1.92a2.33,2.33,0,0,0-2.09,1.64v3.78H254v-6.26h1v1.34a3,3,0,0,1,2.61-1.45c1.45,0,1.87,1.12,1.87,2.63Z"/><path d="M263.55,121.73c0-1.19,1.09-2,2.64-2a4.83,4.83,0,0,1,1.75.32v-.51a1.51,1.51,0,0,0-1.66-1.64,3.52,3.52,0,0,0-2,.73L264,118a4.28,4.28,0,0,1,2.45-.82,2.36,2.36,0,0,1,2.59,2.52v2.55c0,.27.1.38.34.39v.91a4.08,4.08,0,0,1-.43,0,.72.72,0,0,1-.79-.64l0-.44a3,3,0,0,1-2.37,1.15A2,2,0,0,1,263.55,121.73Zm4.16.38a.8.8,0,0,0,.23-.49v-.92a4.56,4.56,0,0,0-1.58-.3c-1.08,0-1.8.48-1.8,1.23a1.28,1.28,0,0,0,1.41,1.23A2.44,2.44,0,0,0,267.71,122.11Z"/><path d="M276.13,123.53h-1.05V120c0-1.33-.41-1.92-1.24-1.92a2.32,2.32,0,0,0-2.08,1.64v3.78H270.7v-6.26h1v1.34a3,3,0,0,1,2.6-1.45c1.45,0,1.87,1.12,1.87,2.63Z"/><path d="M277.34,120.41a3,3,0,0,1,2.84-3.25,2.69,2.69,0,0,1,2.29,1.36v-3.75h1.06v7.46c0,.27.09.38.33.39v.91c-.17,0-.31,0-.42,0a.72.72,0,0,1-.8-.64l0-.59a2.72,2.72,0,0,1-2.29,1.3A3.09,3.09,0,0,1,277.34,120.41Zm5.13.92v-1.79a2.32,2.32,0,0,0-2-1.47,2.2,2.2,0,0,0-2.05,2.35,2.23,2.23,0,0,0,2.15,2.32A2.08,2.08,0,0,0,282.47,121.33Z"/><path d="M289.25,122.35v1.18h-.93v-8.76h1.05v3.75a2.7,2.7,0,0,1,2.32-1.36,3,3,0,0,1,2.8,3.26,3.08,3.08,0,0,1-3,3.23A2.66,2.66,0,0,1,289.25,122.35Zm4.16-1.93a2.21,2.21,0,0,0-2.05-2.35,2.31,2.31,0,0,0-2,1.47v1.81a2,2,0,0,0,1.9,1.39A2.23,2.23,0,0,0,293.41,120.42Z"/><path d="M295.37,120.4a3.17,3.17,0,0,1,3.21-3.24,3.11,3.11,0,0,1,3.13,3.19,3.16,3.16,0,0,1,0,.41h-5.19a2.17,2.17,0,0,0,2.11,2.1,2,2,0,0,0,1.79-1l.91.26a3,3,0,0,1-2.74,1.58A3.17,3.17,0,0,1,295.37,120.4Zm5.34-.42a2.14,2.14,0,0,0-2.13-2,2.11,2.11,0,0,0-2.11,2Z"/><path d="M302.48,120.41a3,3,0,0,1,2.9-3.25,2.8,2.8,0,0,1,2.34,1.36v-1.25h.93v6.19c0,1.77-1.41,2.74-3.19,2.74a3.14,3.14,0,0,1-2.84-1.37l.61-.54a2.63,2.63,0,0,0,2.23,1.1,1.91,1.91,0,0,0,2.14-1.93v-1.11a2.65,2.65,0,0,1-2.23,1.25A3,3,0,0,1,302.48,120.41Zm5.12.92v-1.79a2.28,2.28,0,0,0-2-1.47,2.35,2.35,0,0,0,.09,4.67A2.06,2.06,0,0,0,307.6,121.33Z"/><path d="M309.84,121.73c0-1.19,1.1-2,2.64-2a4.79,4.79,0,0,1,1.75.32v-.51a1.51,1.51,0,0,0-1.65-1.64,3.47,3.47,0,0,0-2,.73l-.35-.68a4.31,4.31,0,0,1,2.46-.82,2.36,2.36,0,0,1,2.59,2.52v2.55c0,.27.1.38.34.39v.91a4.24,4.24,0,0,1-.44,0,.73.73,0,0,1-.79-.64l0-.44a3.07,3.07,0,0,1-2.38,1.15A2,2,0,0,1,309.84,121.73Zm4.17.38a.83.83,0,0,0,.22-.49v-.92a4.52,4.52,0,0,0-1.58-.3c-1.08,0-1.8.48-1.8,1.23a1.29,1.29,0,0,0,1.42,1.23A2.44,2.44,0,0,0,314,122.11Z"/><path d="M322.43,123.53h-1.06V120c0-1.33-.4-1.92-1.23-1.92a2.34,2.34,0,0,0-2.09,1.64v3.78H317v-6.26h1v1.34a3,3,0,0,1,2.6-1.45c1.45,0,1.87,1.12,1.87,2.63Z"/><path d="M61.16,137.14l.46-.71a3.68,3.68,0,0,0,2.26.84c.9,0,1.49-.38,1.49-1s-.56-.8-1.76-1.09c-1.51-.37-2.15-.66-2.15-1.65,0-1.26,1.07-1.94,2.4-1.94a3.64,3.64,0,0,1,2.35.83l-.48.63a2.89,2.89,0,0,0-1.9-.69c-.76,0-1.37.31-1.37,1s.4.72,1.47,1c1.67.4,2.46.74,2.46,1.8s-1,1.91-2.48,1.91A4.39,4.39,0,0,1,61.16,137.14Z"/><path d="M70.83,137.62a3.69,3.69,0,0,1-1.52.39,1.27,1.27,0,0,1-1.42-1.3V132.5H67v-.83h.85v-2.09H69v2.09h1.4v.83H69v3.88a.64.64,0,0,0,.7.66,2,2,0,0,0,.93-.26Z"/><path d="M71.68,135.42v-3.75h1.06v3.55c0,1.28.44,1.92,1.33,1.92a2.28,2.28,0,0,0,2.06-1.55v-3.92h1.06v5c0,.27.09.38.33.39v.91c-.18,0-.31,0-.42,0a.7.7,0,0,1-.79-.64l0-.75a3,3,0,0,1-2.61,1.46C72.37,138.05,71.68,137.15,71.68,135.42Z"/><path d="M78.58,134.81a3,3,0,0,1,2.85-3.25,2.72,2.72,0,0,1,2.29,1.36v-3.75h1v7.46c0,.27.1.38.34.39v.91c-.17,0-.31,0-.42,0a.73.73,0,0,1-.81-.64l0-.59a2.72,2.72,0,0,1-2.29,1.3A3.1,3.1,0,0,1,78.58,134.81Zm5.14.92v-1.79a2.32,2.32,0,0,0-2-1.47,2.21,2.21,0,0,0-2.06,2.35,2.24,2.24,0,0,0,2.15,2.32A2.08,2.08,0,0,0,83.72,135.73Z"/><path d="M86.8,139.64a4.24,4.24,0,0,0,.58,0c.29,0,.47-.14,1.08-1.75l-2.65-6.26H86.9L89,137l2-5.31h1l-3.07,7.9a1.54,1.54,0,0,1-1.58,1.06,1.88,1.88,0,0,1-.53-.06Z"/><path d="M93,130.49v-1.32H94.1v1.32Zm0,7.44v-6.26H94.1v6.26Z"/><path d="M101.19,137.93h-1.06v-3.5c0-1.33-.4-1.92-1.23-1.92a2.33,2.33,0,0,0-2.09,1.64v3.78h-1v-6.26h1V133a3,3,0,0,1,2.6-1.45c1.45,0,1.87,1.12,1.87,2.63Z"/><path d="M102.4,134.81a3,3,0,0,1,2.91-3.25,2.8,2.8,0,0,1,2.34,1.36v-1.25h.93v6.19c0,1.77-1.41,2.74-3.19,2.74a3.14,3.14,0,0,1-2.84-1.37l.61-.54a2.62,2.62,0,0,0,2.23,1.1,1.91,1.91,0,0,0,2.13-1.93v-1.11a2.64,2.64,0,0,1-2.23,1.25A3,3,0,0,1,102.4,134.81Zm5.12.92v-1.79a2.26,2.26,0,0,0-2-1.47,2.35,2.35,0,0,0,.1,4.67A2,2,0,0,0,107.52,135.73Z"/><path d="M113.44,137.93v-8.52h5.63v1h-4.55v2.85h3.83v.9h-3.83v3.81Z"/><path d="M119.89,135.42v-3.75h1v3.55c0,1.28.45,1.92,1.33,1.92a2.28,2.28,0,0,0,2.07-1.55v-3.92h1v5c0,.27.1.38.34.39v.91c-.18,0-.31,0-.42,0-.48,0-.77-.25-.79-.64l0-.75a3,3,0,0,1-2.6,1.46C120.57,138.05,119.89,137.15,119.89,135.42Z"/><path d="M127.21,129.17h1v7.14a.67.67,0,0,0,.71.74,2.06,2.06,0,0,0,.65-.14l.17.85a3.67,3.67,0,0,1-1.26.25,1.21,1.21,0,0,1-1.32-1.32Z"/><path d="M130.57,129.17h1.05v7.14a.67.67,0,0,0,.71.74,2.06,2.06,0,0,0,.65-.14l.17.85a3.67,3.67,0,0,1-1.26.25,1.21,1.21,0,0,1-1.32-1.32Z"/><path d="M141.81,131.2a3.32,3.32,0,0,0-2.32-.89c-1.31,0-1.92.53-1.92,1.4s.71,1.15,2.25,1.49c1.77.4,2.88.9,2.88,2.44s-1.35,2.37-3.1,2.37a5.41,5.41,0,0,1-3.46-1.2l.51-.91a4.42,4.42,0,0,0,3,1.14c1.21,0,1.92-.44,1.92-1.29s-.88-1.25-2.46-1.63c-1.73-.42-2.63-.89-2.63-2.25,0-1.63,1.3-2.52,3.06-2.52a4.31,4.31,0,0,1,2.79,1Z"/><path d="M147.05,137.62a3.69,3.69,0,0,1-1.52.39,1.26,1.26,0,0,1-1.41-1.3V132.5h-.86v-.83h.86v-2.09h1v2.09h1.4v.83h-1.4v3.88a.65.65,0,0,0,.71.66,2,2,0,0,0,.92-.26Z"/><path d="M147.5,136.13c0-1.19,1.09-2,2.64-2a4.83,4.83,0,0,1,1.75.32V134a1.51,1.51,0,0,0-1.66-1.64,3.52,3.52,0,0,0-2,.73l-.34-.68a4.28,4.28,0,0,1,2.45-.82,2.36,2.36,0,0,1,2.59,2.52v2.55c0,.27.1.38.34.39v.91a4.08,4.08,0,0,1-.43,0,.72.72,0,0,1-.79-.64l0-.44a3,3,0,0,1-2.37,1.15A2,2,0,0,1,147.5,136.13Zm4.16.38a.8.8,0,0,0,.23-.49v-.92a4.56,4.56,0,0,0-1.58-.3c-1.08,0-1.8.48-1.8,1.23a1.28,1.28,0,0,0,1.41,1.23A2.44,2.44,0,0,0,151.66,136.51Z"/><path d="M157.43,131.56a2.81,2.81,0,0,1,2.64,1.52l-1,.33a1.83,1.83,0,0,0-1.63-.94,2.17,2.17,0,0,0-2.08,2.32,2.23,2.23,0,0,0,2.09,2.35,1.85,1.85,0,0,0,1.67-1l1,.31a2.82,2.82,0,0,1-2.67,1.57,3.17,3.17,0,0,1-3.19-3.26A3.12,3.12,0,0,1,157.43,131.56Z"/><path d="M165.71,137.93l-2.16-3.06-1.2,1.13v1.93h-1v-8.76h1v5.76l3.22-3.25h1.16l-2.49,2.59,2.61,3.66Z"/><path d="M170.93,137.93v-8.52h2.95a4.26,4.26,0,0,1,0,8.52Zm2.95-7.56H172V137h1.87c2,0,3-1.43,3-3.31S175.81,130.37,173.88,130.37Z"/><path d="M179,134.8a3.17,3.17,0,0,1,3.2-3.24,3.11,3.11,0,0,1,3.14,3.19,3.16,3.16,0,0,1,0,.41h-5.19a2.17,2.17,0,0,0,2.11,2.1,2,2,0,0,0,1.79-1l.91.26a3,3,0,0,1-2.74,1.58A3.17,3.17,0,0,1,179,134.8Zm5.34-.42a2.15,2.15,0,0,0-2.14-2,2.12,2.12,0,0,0-2.11,2Z"/><path d="M188.09,137.93l-2.47-6.26h1.09l2,5.34,2-5.34h1l-2.47,6.26Z"/><path d="M192.29,134.8a3.17,3.17,0,0,1,3.21-3.24,3.11,3.11,0,0,1,3.13,3.19,3.16,3.16,0,0,1,0,.41h-5.19a2.17,2.17,0,0,0,2.11,2.1,2,2,0,0,0,1.79-1l.91.26a3,3,0,0,1-2.74,1.58A3.17,3.17,0,0,1,192.29,134.8Zm5.34-.42a2.14,2.14,0,0,0-2.13-2,2.11,2.11,0,0,0-2.11,2Z"/><path d="M199.81,129.17h1.05v7.14a.67.67,0,0,0,.71.74,2.06,2.06,0,0,0,.65-.14l.16.85a3.57,3.57,0,0,1-1.25.25,1.21,1.21,0,0,1-1.32-1.32Z"/><path d="M202.72,134.81a3.16,3.16,0,1,1,3.16,3.24A3.16,3.16,0,0,1,202.72,134.81Zm3.16,2.33a2.35,2.35,0,0,0,0-4.67,2.23,2.23,0,0,0-2.08,2.35A2.19,2.19,0,0,0,205.88,137.14Z"/><path d="M211.35,136.69v3.79h-1.06v-8.81h.94v1.17a2.73,2.73,0,0,1,2.28-1.28,3.12,3.12,0,0,1,3,3.24,3,3,0,0,1-2.81,3.25A2.68,2.68,0,0,1,211.35,136.69Zm4-1.89a2.24,2.24,0,0,0-2.15-2.33,2.09,2.09,0,0,0-1.89,1.41v1.78a2.31,2.31,0,0,0,2,1.48A2.2,2.2,0,0,0,215.39,134.8Z"/><path d="M227.17,137.93h-1v-3.5c0-1.31-.43-1.92-1.26-1.92a2.09,2.09,0,0,0-1.88,1.65v3.77h-1.06v-3.5c0-1.33-.42-1.92-1.25-1.92a2.09,2.09,0,0,0-1.88,1.64v3.78h-1.06v-6.26h1V133a2.66,2.66,0,0,1,2.38-1.45,1.73,1.73,0,0,1,1.82,1.52,2.66,2.66,0,0,1,2.39-1.52c1.44,0,1.89,1.13,1.89,2.63Z"/><path d="M228.38,134.8a3.17,3.17,0,0,1,3.2-3.24,3.1,3.1,0,0,1,3.13,3.19,3.66,3.66,0,0,1,0,.41h-5.2a2.17,2.17,0,0,0,2.11,2.1,1.94,1.94,0,0,0,1.79-1l.91.26a2.92,2.92,0,0,1-2.73,1.58A3.17,3.17,0,0,1,228.38,134.8Zm5.34-.42a2.15,2.15,0,0,0-2.14-2,2.11,2.11,0,0,0-2.11,2Z"/><path d="M241.3,137.93h-1.06v-3.5c0-1.33-.4-1.92-1.23-1.92a2.34,2.34,0,0,0-2.09,1.64v3.78h-1v-6.26h1V133a3,3,0,0,1,2.6-1.45c1.45,0,1.87,1.12,1.87,2.63Z"/><path d="M246.11,137.62a3.69,3.69,0,0,1-1.52.39,1.27,1.27,0,0,1-1.42-1.3V132.5h-.85v-.83h.85v-2.09h1.06v2.09h1.4v.83h-1.4v3.88a.65.65,0,0,0,.71.66,2,2,0,0,0,.92-.26Z"/><path d="M249.57,136.13c0-1.19,1.09-2,2.64-2a4.83,4.83,0,0,1,1.75.32V134a1.51,1.51,0,0,0-1.65-1.64,3.52,3.52,0,0,0-2,.73l-.34-.68a4.28,4.28,0,0,1,2.45-.82,2.37,2.37,0,0,1,2.6,2.52v2.55c0,.27.09.38.33.39v.91a4.08,4.08,0,0,1-.43,0,.72.72,0,0,1-.79-.64l0-.44a3,3,0,0,1-2.37,1.15A2,2,0,0,1,249.57,136.13Zm4.16.38A.8.8,0,0,0,254,136v-.92a4.56,4.56,0,0,0-1.58-.3c-1.08,0-1.8.48-1.8,1.23a1.28,1.28,0,0,0,1.41,1.23A2.44,2.44,0,0,0,253.73,136.51Z"/><path d="M259.88,137.62a3.79,3.79,0,0,1-1.53.39,1.26,1.26,0,0,1-1.41-1.3V132.5h-.85v-.83h.85v-2.09H258v2.09h1.41v.83H258v3.88a.66.66,0,0,0,.71.66,2,2,0,0,0,.92-.26Z"/><path d="M267.51,129.37a3.35,3.35,0,0,1,3.16,1.86l-.85.55a2.5,2.5,0,0,0-2.36-1.44,3.08,3.08,0,0,0-2.91,3.32A3.18,3.18,0,0,0,267.5,137a2.66,2.66,0,0,0,2.43-1.5l.9.49a3.71,3.71,0,0,1-3.38,2,4.29,4.29,0,0,1-4-4.39A4.11,4.11,0,0,1,267.51,129.37Z"/><path d="M271.57,134.81a3.16,3.16,0,1,1,3.15,3.24A3.15,3.15,0,0,1,271.57,134.81Zm3.15,2.33a2.35,2.35,0,1,0-2.07-2.32A2.18,2.18,0,0,0,274.72,137.14Z"/><path d="M278.74,134.81a3,3,0,0,1,2.84-3.25,2.72,2.72,0,0,1,2.3,1.36v-3.75h1.05v7.46c0,.27.1.38.34.39v.91c-.17,0-.32,0-.42,0a.73.73,0,0,1-.81-.64l0-.59a2.72,2.72,0,0,1-2.29,1.3A3.1,3.1,0,0,1,278.74,134.81Zm5.14.92v-1.79a2.34,2.34,0,0,0-2-1.47,2.21,2.21,0,0,0-2.05,2.35,2.24,2.24,0,0,0,2.15,2.32A2.08,2.08,0,0,0,283.88,135.73Z"/><path d="M286.31,134.8a3.17,3.17,0,0,1,3.21-3.24,3.11,3.11,0,0,1,3.13,3.19,3.16,3.16,0,0,1,0,.41h-5.19a2.17,2.17,0,0,0,2.11,2.1,2,2,0,0,0,1.79-1l.91.26a3,3,0,0,1-2.74,1.58A3.17,3.17,0,0,1,286.31,134.8Zm5.34-.42a2.14,2.14,0,0,0-2.13-2,2.12,2.12,0,0,0-2.12,2Z"/><path d="M297.11,132.59a2.35,2.35,0,0,0-2.25,1.48v3.86H293.8v-6.26h1v1.45a2.45,2.45,0,0,1,2-1.5h.35Z"/><path d="M299.84,137.93l3.5-8.52h.89l3.49,8.52h-1.15l-1-2.49H302l-1,2.49Zm3.94-7.27-1.58,3.94h3.12Z"/><path d="M311.45,131.56a2.82,2.82,0,0,1,2.64,1.52l-1,.33a1.84,1.84,0,0,0-1.63-.94,2.17,2.17,0,0,0-2.08,2.32,2.23,2.23,0,0,0,2.09,2.35,1.86,1.86,0,0,0,1.67-1l1,.31a2.82,2.82,0,0,1-2.68,1.57,3.18,3.18,0,0,1-3.19-3.26A3.12,3.12,0,0,1,311.45,131.56Z"/><path d="M314.85,136.13c0-1.19,1.09-2,2.64-2a4.83,4.83,0,0,1,1.75.32V134a1.51,1.51,0,0,0-1.66-1.64,3.52,3.52,0,0,0-2,.73l-.34-.68a4.28,4.28,0,0,1,2.45-.82,2.36,2.36,0,0,1,2.59,2.52v2.55c0,.27.1.38.34.39v.91a4.08,4.08,0,0,1-.43,0,.72.72,0,0,1-.79-.64l0-.44a3,3,0,0,1-2.37,1.15A2,2,0,0,1,314.85,136.13Zm4.16.38a.8.8,0,0,0,.23-.49v-.92a4.56,4.56,0,0,0-1.58-.3c-1.08,0-1.8.48-1.8,1.23a1.28,1.28,0,0,0,1.41,1.23A2.44,2.44,0,0,0,319,136.51Z"/><path d="M321.6,134.81a3,3,0,0,1,2.85-3.25,2.72,2.72,0,0,1,2.29,1.36v-3.75h1.05v7.46c0,.27.1.38.34.39v.91c-.17,0-.31,0-.42,0a.72.72,0,0,1-.8-.64l0-.59a2.72,2.72,0,0,1-2.29,1.3A3.1,3.1,0,0,1,321.6,134.81Zm5.14.92v-1.79a2.32,2.32,0,0,0-2-1.47,2.2,2.2,0,0,0-2.05,2.35,2.23,2.23,0,0,0,2.14,2.32A2.08,2.08,0,0,0,326.74,135.73Z"/><path d="M329.18,134.8a3.17,3.17,0,0,1,3.2-3.24,3.11,3.11,0,0,1,3.13,3.19,3.66,3.66,0,0,1,0,.41h-5.2a2.17,2.17,0,0,0,2.11,2.1,1.94,1.94,0,0,0,1.79-1l.91.26a2.93,2.93,0,0,1-2.73,1.58A3.16,3.16,0,0,1,329.18,134.8Zm5.33-.42a2.14,2.14,0,0,0-2.13-2,2.11,2.11,0,0,0-2.11,2Z"/><path d="M346.1,137.93h-1.05v-3.5c0-1.31-.43-1.92-1.26-1.92a2.09,2.09,0,0,0-1.88,1.65v3.77h-1.06v-3.5c0-1.33-.42-1.92-1.25-1.92a2.09,2.09,0,0,0-1.88,1.64v3.78h-1.06v-6.26h1V133a2.66,2.66,0,0,1,2.38-1.45,1.73,1.73,0,0,1,1.82,1.52,2.66,2.66,0,0,1,2.39-1.52c1.44,0,1.89,1.13,1.89,2.63Z"/><path d="M348,139.64a4.24,4.24,0,0,0,.58,0c.28,0,.46-.14,1.08-1.75L347,131.67h1.09l2.13,5.31,1.94-5.31h1l-3.07,7.9a1.55,1.55,0,0,1-1.58,1.06,1.88,1.88,0,0,1-.53-.06Z"/><path class="cls-1" d="M47.57,18.08V9H38.44v9.13H42V65.24H38.44v9.12H42v47.16H38.44v9.13h9.13v-9.13H44V74.36h3.57V65.24H44V18.08ZM40.44,11h5.13v5.13H40.44Zm5.13,117.7H40.44v-5.13h5.13Zm0-56.29H40.44V67.24h5.13Z"/><path d="M1,16.08A3.09,3.09,0,0,1,2.93,13c1.29-.72,2-1,2-1.57s-.39-.88-1.11-.88a2.17,2.17,0,0,0-1.68.93l-1-1.19a4.36,4.36,0,0,1,3-1.14c1.64,0,2.58.84,2.58,2a2.51,2.51,0,0,1-1.62,2.09,3.89,3.89,0,0,0-1.69,1.39H6.82v1.45Z"/><path d="M11.07,16.2C9.29,16.2,8,14.68,8,12.56s1.32-3.64,3.1-3.64,3.1,1.53,3.1,3.64S12.84,16.2,11.07,16.2Zm0-5.81c-.9,0-1.5.89-1.5,2.17s.6,2.16,1.5,2.16,1.48-.87,1.48-2.16S11.93,10.39,11.07,10.39Z"/><path d="M20.38,14.63v1.45H15.52V14.63h1.7V11a3.19,3.19,0,0,1-1.94.88v-1.5a3.66,3.66,0,0,0,1.94-1.14h1.64v5.4Z"/><path d="M24.27,16.19a2.86,2.86,0,0,1-3.08-2.69,2.33,2.33,0,0,1,1.35-2,1.86,1.86,0,0,1-1.08-1.59c0-1.53,1.53-2.37,2.83-2.37s2.84.82,2.84,2.35A1.86,1.86,0,0,1,26,11.52a2.34,2.34,0,0,1,1.34,2C27.38,15.14,26,16.19,24.27,16.19Zm0-4a1.37,1.37,0,0,0-1.47,1.27,1.48,1.48,0,0,0,2.93,0A1.36,1.36,0,0,0,24.29,12.19Zm0-1.21a1.13,1.13,0,0,0,1.21-1,1.23,1.23,0,0,0-2.41,0A1.1,1.1,0,0,0,24.29,11Z"/><path d="M1.24,72.36a3.07,3.07,0,0,1,1.88-3.11c1.29-.72,2-1,2-1.58S4.74,66.8,4,66.8a2.16,2.16,0,0,0-1.68.92l-1-1.19a4.41,4.41,0,0,1,3-1.13c1.63,0,2.57.83,2.57,2a2.52,2.52,0,0,1-1.61,2.09,3.93,3.93,0,0,0-1.7,1.39H7v1.45Z"/><path d="M11.27,72.48c-1.79,0-3.11-1.52-3.11-3.63s1.32-3.65,3.11-3.65,3.09,1.54,3.09,3.65S13,72.48,11.27,72.48Zm0-5.8c-.9,0-1.5.89-1.5,2.17s.6,2.16,1.5,2.16,1.47-.88,1.47-2.16S12.12,66.68,11.27,66.68Z"/><path d="M20.58,70.91v1.45H15.71V70.91h1.7V67.28a3.24,3.24,0,0,1-1.94.87v-1.5a3.68,3.68,0,0,0,1.94-1.13h1.64v5.39Z"/><path d="M24.35,65.52c1.93,0,3.14,1.45,3.14,3.9,0,3.11-1.29,4.79-3.3,4.79a3.19,3.19,0,0,1-2.64-1.34l.92-1a2.08,2.08,0,0,0,1.74,1c1.07,0,1.75-.9,1.78-2.44a2,2,0,0,1-1.79.94,2.85,2.85,0,0,1-3-2.84A3,3,0,0,1,24.35,65.52Zm-1.58,3a1.58,1.58,0,0,0,3.15,0,1.58,1.58,0,1,0-3.15,0Z"/><path d="M0,128.65a3.09,3.09,0,0,1,1.88-3.12c1.3-.72,2-1,2-1.57s-.4-.88-1.12-.88A2.21,2.21,0,0,0,1.1,124l-1-1.19a4.37,4.37,0,0,1,3-1.14c1.63,0,2.58.84,2.58,2A2.51,2.51,0,0,1,4,125.81a3.89,3.89,0,0,0-1.69,1.39H5.78v1.45Z"/><path d="M10,128.77c-1.79,0-3.11-1.53-3.11-3.64s1.32-3.64,3.11-3.64,3.09,1.53,3.09,3.64S11.79,128.77,10,128.77ZM10,123c-.9,0-1.5.89-1.5,2.17s.6,2.16,1.5,2.16,1.47-.87,1.47-2.16S10.88,123,10,123Z"/><path d="M14.21,128.65a3.08,3.08,0,0,1,1.88-3.12c1.3-.72,2-1,2-1.57s-.4-.88-1.12-.88a2.19,2.19,0,0,0-1.68.93l-1-1.19a4.37,4.37,0,0,1,3-1.14c1.63,0,2.58.84,2.58,2a2.53,2.53,0,0,1-1.62,2.09,3.78,3.78,0,0,0-1.69,1.39H20v1.45Z"/><path d="M24.24,128.77c-1.79,0-3.11-1.53-3.11-3.64s1.32-3.64,3.11-3.64,3.09,1.53,3.09,3.64S26,128.77,24.24,128.77Zm0-5.81c-.9,0-1.5.89-1.5,2.17s.6,2.16,1.5,2.16,1.47-.87,1.47-2.16S25.09,123,24.24,123Z"/></g></g></svg>